%TF.GenerationSoftware,KiCad,Pcbnew,(5.1.7)-1*%
%TF.CreationDate,2021-02-02T18:20:17+09:00*%
%TF.ProjectId,canboard,63616e62-6f61-4726-942e-6b696361645f,rev?*%
%TF.SameCoordinates,Original*%
%TF.FileFunction,Copper,L1,Top*%
%TF.FilePolarity,Positive*%
%FSLAX46Y46*%
G04 Gerber Fmt 4.6, Leading zero omitted, Abs format (unit mm)*
G04 Created by KiCad (PCBNEW (5.1.7)-1) date 2021-02-02 18:20:17*
%MOMM*%
%LPD*%
G01*
G04 APERTURE LIST*
%TA.AperFunction,ComponentPad*%
%ADD10R,1.700000X1.700000*%
%TD*%
%TA.AperFunction,ComponentPad*%
%ADD11C,2.100000*%
%TD*%
%TA.AperFunction,ComponentPad*%
%ADD12R,2.100000X2.100000*%
%TD*%
%TA.AperFunction,ComponentPad*%
%ADD13O,1.700000X1.700000*%
%TD*%
%TA.AperFunction,SMDPad,CuDef*%
%ADD14R,3.200000X0.400000*%
%TD*%
%TA.AperFunction,ComponentPad*%
%ADD15O,1.600000X1.600000*%
%TD*%
%TA.AperFunction,ComponentPad*%
%ADD16R,1.600000X1.600000*%
%TD*%
%TA.AperFunction,SMDPad,CuDef*%
%ADD17R,2.000000X1.500000*%
%TD*%
%TA.AperFunction,SMDPad,CuDef*%
%ADD18R,2.000000X3.800000*%
%TD*%
%TA.AperFunction,SMDPad,CuDef*%
%ADD19R,0.550000X1.600000*%
%TD*%
%TA.AperFunction,SMDPad,CuDef*%
%ADD20R,1.600000X0.550000*%
%TD*%
%TA.AperFunction,SMDPad,CuDef*%
%ADD21R,1.600000X0.760000*%
%TD*%
%TA.AperFunction,SMDPad,CuDef*%
%ADD22R,2.000000X2.500000*%
%TD*%
%TA.AperFunction,ViaPad*%
%ADD23C,0.800000*%
%TD*%
%TA.AperFunction,Conductor*%
%ADD24C,0.250000*%
%TD*%
%TA.AperFunction,Conductor*%
%ADD25C,0.200000*%
%TD*%
%TA.AperFunction,Conductor*%
%ADD26C,0.500000*%
%TD*%
%TA.AperFunction,Conductor*%
%ADD27C,0.254000*%
%TD*%
%TA.AperFunction,Conductor*%
%ADD28C,0.100000*%
%TD*%
G04 APERTURE END LIST*
D10*
%TO.P,REF\u002A\u002A,1*%
%TO.N,N/C*%
X245445000Y-31115000D03*
%TD*%
%TO.P,REF\u002A\u002A,1*%
%TO.N,N/C*%
X245445000Y-52705000D03*
%TD*%
%TO.P,REF\u002A\u002A,1*%
%TO.N,N/C*%
X207980000Y-52705000D03*
%TD*%
%TO.P,REF\u002A\u002A,1*%
%TO.N,N/C*%
X207980000Y-31115000D03*
%TD*%
D11*
%TO.P,J6,2*%
%TO.N,Net-(J6-Pad2)*%
X207980000Y-48260000D03*
D12*
%TO.P,J6,1*%
%TO.N,Net-(J6-Pad1)*%
X207980000Y-45720000D03*
%TD*%
D10*
%TO.P,J3,1*%
%TO.N,RXI*%
X241000000Y-53340000D03*
D13*
%TO.P,J3,2*%
%TO.N,TXO*%
X238460000Y-53340000D03*
%TO.P,J3,3*%
%TO.N,SCL*%
X235920000Y-53340000D03*
%TO.P,J3,4*%
%TO.N,SDA*%
X233380000Y-53340000D03*
%TO.P,J3,5*%
%TO.N,A0*%
X230840000Y-53340000D03*
%TO.P,J3,6*%
%TO.N,A1*%
X228300000Y-53340000D03*
%TO.P,J3,7*%
%TO.N,A2*%
X225760000Y-53340000D03*
%TO.P,J3,8*%
%TO.N,A3*%
X223220000Y-53340000D03*
%TO.P,J3,9*%
%TO.N,RESET*%
X220680000Y-53340000D03*
%TO.P,J3,10*%
%TO.N,GND*%
X218140000Y-53340000D03*
%TO.P,J3,11*%
%TO.N,5V*%
X215600000Y-53340000D03*
%TO.P,J3,12*%
%TO.N,12VIN*%
X213060000Y-53340000D03*
%TD*%
D10*
%TO.P,J1,1*%
%TO.N,D2*%
X241000000Y-30480000D03*
D13*
%TO.P,J1,2*%
%TO.N,D3*%
X238460000Y-30480000D03*
%TO.P,J1,3*%
%TO.N,D4*%
X235920000Y-30480000D03*
%TO.P,J1,4*%
%TO.N,D5*%
X233380000Y-30480000D03*
%TO.P,J1,5*%
%TO.N,D6*%
X230840000Y-30480000D03*
%TO.P,J1,6*%
%TO.N,D7*%
X228300000Y-30480000D03*
%TO.P,J1,7*%
%TO.N,D8*%
X225760000Y-30480000D03*
%TO.P,J1,8*%
%TO.N,D9*%
X223220000Y-30480000D03*
%TO.P,J1,9*%
%TO.N,GND*%
X220680000Y-30480000D03*
%TO.P,J1,10*%
%TO.N,MISO*%
X218140000Y-30480000D03*
%TO.P,J1,11*%
%TO.N,MOSI*%
X215600000Y-30480000D03*
%TO.P,J1,12*%
%TO.N,SCK*%
X213060000Y-30480000D03*
%TD*%
%TO.P,D3,2*%
%TO.N,Net-(D3-Pad2)*%
%TA.AperFunction,SMDPad,CuDef*%
G36*
G01*
X242748750Y-44186500D02*
X243661250Y-44186500D01*
G75*
G02*
X243905000Y-44430250I0J-243750D01*
G01*
X243905000Y-44917750D01*
G75*
G02*
X243661250Y-45161500I-243750J0D01*
G01*
X242748750Y-45161500D01*
G75*
G02*
X242505000Y-44917750I0J243750D01*
G01*
X242505000Y-44430250D01*
G75*
G02*
X242748750Y-44186500I243750J0D01*
G01*
G37*
%TD.AperFunction*%
%TO.P,D3,1*%
%TO.N,5V*%
%TA.AperFunction,SMDPad,CuDef*%
G36*
G01*
X242748750Y-42311500D02*
X243661250Y-42311500D01*
G75*
G02*
X243905000Y-42555250I0J-243750D01*
G01*
X243905000Y-43042750D01*
G75*
G02*
X243661250Y-43286500I-243750J0D01*
G01*
X242748750Y-43286500D01*
G75*
G02*
X242505000Y-43042750I0J243750D01*
G01*
X242505000Y-42555250D01*
G75*
G02*
X242748750Y-42311500I243750J0D01*
G01*
G37*
%TD.AperFunction*%
%TD*%
%TO.P,D2,2*%
%TO.N,12VIN*%
%TA.AperFunction,SMDPad,CuDef*%
G36*
G01*
X213985500Y-51256250D02*
X213985500Y-50343750D01*
G75*
G02*
X214229250Y-50100000I243750J0D01*
G01*
X214716750Y-50100000D01*
G75*
G02*
X214960500Y-50343750I0J-243750D01*
G01*
X214960500Y-51256250D01*
G75*
G02*
X214716750Y-51500000I-243750J0D01*
G01*
X214229250Y-51500000D01*
G75*
G02*
X213985500Y-51256250I0J243750D01*
G01*
G37*
%TD.AperFunction*%
%TO.P,D2,1*%
%TO.N,Net-(C9-Pad1)*%
%TA.AperFunction,SMDPad,CuDef*%
G36*
G01*
X212110500Y-51256250D02*
X212110500Y-50343750D01*
G75*
G02*
X212354250Y-50100000I243750J0D01*
G01*
X212841750Y-50100000D01*
G75*
G02*
X213085500Y-50343750I0J-243750D01*
G01*
X213085500Y-51256250D01*
G75*
G02*
X212841750Y-51500000I-243750J0D01*
G01*
X212354250Y-51500000D01*
G75*
G02*
X212110500Y-51256250I0J243750D01*
G01*
G37*
%TD.AperFunction*%
%TD*%
D14*
%TO.P,Y1,3*%
%TO.N,Net-(U1-Pad7)*%
X241635000Y-35363000D03*
%TO.P,Y1,2*%
%TO.N,GND*%
X241635000Y-34163000D03*
%TO.P,Y1,1*%
%TO.N,Net-(U1-Pad8)*%
X241635000Y-32963000D03*
%TD*%
D15*
%TO.P,U3,8*%
%TO.N,5V*%
X213614000Y-41529000D03*
%TO.P,U3,4*%
%TO.N,MISO*%
X221234000Y-33909000D03*
%TO.P,U3,7*%
%TO.N,Net-(U3-Pad7)*%
X213614000Y-38989000D03*
%TO.P,U3,3*%
%TO.N,MOSI*%
X221234000Y-36449000D03*
%TO.P,U3,6*%
%TO.N,GND*%
X213614000Y-36449000D03*
%TO.P,U3,2*%
%TO.N,SCK*%
X221234000Y-38989000D03*
%TO.P,U3,5*%
%TO.N,GND*%
X213614000Y-33909000D03*
D16*
%TO.P,U3,1*%
%TO.N,D9*%
X221234000Y-41529000D03*
%TD*%
D17*
%TO.P,U2,1*%
%TO.N,GND*%
X213385000Y-44196000D03*
%TO.P,U2,3*%
%TO.N,12VIN*%
X213385000Y-48796000D03*
%TO.P,U2,2*%
%TO.N,Net-(C9-Pad1)*%
X213385000Y-46496000D03*
D18*
X219685000Y-46496000D03*
%TD*%
D19*
%TO.P,U1,32*%
%TO.N,D2*%
X238961000Y-43906000D03*
%TO.P,U1,31*%
%TO.N,TXO*%
X238161000Y-43906000D03*
%TO.P,U1,30*%
%TO.N,RXI*%
X237361000Y-43906000D03*
%TO.P,U1,29*%
%TO.N,RESET*%
X236561000Y-43906000D03*
%TO.P,U1,28*%
%TO.N,SCL*%
X235761000Y-43906000D03*
%TO.P,U1,27*%
%TO.N,SDA*%
X234961000Y-43906000D03*
%TO.P,U1,26*%
%TO.N,A3*%
X234161000Y-43906000D03*
%TO.P,U1,25*%
%TO.N,A2*%
X233361000Y-43906000D03*
D20*
%TO.P,U1,24*%
%TO.N,A1*%
X231911000Y-42456000D03*
%TO.P,U1,23*%
%TO.N,A0*%
X231911000Y-41656000D03*
%TO.P,U1,22*%
%TO.N,Net-(U1-Pad22)*%
X231911000Y-40856000D03*
%TO.P,U1,21*%
%TO.N,GND*%
X231911000Y-40056000D03*
%TO.P,U1,20*%
%TO.N,Net-(C1-Pad1)*%
X231911000Y-39256000D03*
%TO.P,U1,19*%
%TO.N,Net-(U1-Pad19)*%
X231911000Y-38456000D03*
%TO.P,U1,18*%
%TO.N,5V*%
X231911000Y-37656000D03*
%TO.P,U1,17*%
%TO.N,SCK*%
X231911000Y-36856000D03*
D19*
%TO.P,U1,16*%
%TO.N,MISO*%
X233361000Y-35406000D03*
%TO.P,U1,15*%
%TO.N,MOSI*%
X234161000Y-35406000D03*
%TO.P,U1,14*%
%TO.N,SS*%
X234961000Y-35406000D03*
%TO.P,U1,13*%
%TO.N,D9*%
X235761000Y-35406000D03*
%TO.P,U1,12*%
%TO.N,D8*%
X236561000Y-35406000D03*
%TO.P,U1,11*%
%TO.N,D7*%
X237361000Y-35406000D03*
%TO.P,U1,10*%
%TO.N,D6*%
X238161000Y-35406000D03*
%TO.P,U1,9*%
%TO.N,D5*%
X238961000Y-35406000D03*
D20*
%TO.P,U1,8*%
%TO.N,Net-(U1-Pad8)*%
X240411000Y-36856000D03*
%TO.P,U1,7*%
%TO.N,Net-(U1-Pad7)*%
X240411000Y-37656000D03*
%TO.P,U1,6*%
%TO.N,Net-(U1-Pad6)*%
X240411000Y-38456000D03*
%TO.P,U1,5*%
%TO.N,GND*%
X240411000Y-39256000D03*
%TO.P,U1,4*%
%TO.N,5V*%
X240411000Y-40056000D03*
%TO.P,U1,3*%
%TO.N,Net-(U1-Pad3)*%
X240411000Y-40856000D03*
%TO.P,U1,2*%
%TO.N,D4*%
X240411000Y-41656000D03*
%TO.P,U1,1*%
%TO.N,D3*%
X240411000Y-42456000D03*
%TD*%
D21*
%TO.P,SW2,8*%
%TO.N,Net-(D3-Pad2)*%
X243205000Y-46228000D03*
%TO.P,SW2,4*%
%TO.N,Net-(R15-Pad2)*%
X235585000Y-50038000D03*
%TO.P,SW2,7*%
%TO.N,Net-(D3-Pad2)*%
X243205000Y-47498000D03*
%TO.P,SW2,3*%
%TO.N,Net-(R14-Pad2)*%
X235585000Y-48768000D03*
%TO.P,SW2,6*%
%TO.N,Net-(D3-Pad2)*%
X243205000Y-48768000D03*
%TO.P,SW2,2*%
%TO.N,Net-(R13-Pad2)*%
X235585000Y-47498000D03*
%TO.P,SW2,5*%
%TO.N,Net-(D3-Pad2)*%
X243205000Y-50038000D03*
%TO.P,SW2,1*%
%TO.N,Net-(R12-Pad2)*%
X235585000Y-46228000D03*
%TD*%
D22*
%TO.P,SW1,1*%
%TO.N,RESET*%
X224536000Y-50292000D03*
%TO.P,SW1,2*%
%TO.N,GND*%
X224536000Y-44132000D03*
%TD*%
%TO.P,R19,2*%
%TO.N,Net-(D4-Pad2)*%
%TA.AperFunction,SMDPad,CuDef*%
G36*
G01*
X223372000Y-34397000D02*
X223922000Y-34397000D01*
G75*
G02*
X224122000Y-34597000I0J-200000D01*
G01*
X224122000Y-34997000D01*
G75*
G02*
X223922000Y-35197000I-200000J0D01*
G01*
X223372000Y-35197000D01*
G75*
G02*
X223172000Y-34997000I0J200000D01*
G01*
X223172000Y-34597000D01*
G75*
G02*
X223372000Y-34397000I200000J0D01*
G01*
G37*
%TD.AperFunction*%
%TO.P,R19,1*%
%TO.N,VCC*%
%TA.AperFunction,SMDPad,CuDef*%
G36*
G01*
X223372000Y-32747000D02*
X223922000Y-32747000D01*
G75*
G02*
X224122000Y-32947000I0J-200000D01*
G01*
X224122000Y-33347000D01*
G75*
G02*
X223922000Y-33547000I-200000J0D01*
G01*
X223372000Y-33547000D01*
G75*
G02*
X223172000Y-33347000I0J200000D01*
G01*
X223172000Y-32947000D01*
G75*
G02*
X223372000Y-32747000I200000J0D01*
G01*
G37*
%TD.AperFunction*%
%TD*%
%TO.P,R18,1*%
%TO.N,5V*%
%TA.AperFunction,SMDPad,CuDef*%
G36*
G01*
X227605000Y-49421000D02*
X227055000Y-49421000D01*
G75*
G02*
X226855000Y-49221000I0J200000D01*
G01*
X226855000Y-48821000D01*
G75*
G02*
X227055000Y-48621000I200000J0D01*
G01*
X227605000Y-48621000D01*
G75*
G02*
X227805000Y-48821000I0J-200000D01*
G01*
X227805000Y-49221000D01*
G75*
G02*
X227605000Y-49421000I-200000J0D01*
G01*
G37*
%TD.AperFunction*%
%TO.P,R18,2*%
%TO.N,VCC*%
%TA.AperFunction,SMDPad,CuDef*%
G36*
G01*
X227605000Y-47771000D02*
X227055000Y-47771000D01*
G75*
G02*
X226855000Y-47571000I0J200000D01*
G01*
X226855000Y-47171000D01*
G75*
G02*
X227055000Y-46971000I200000J0D01*
G01*
X227605000Y-46971000D01*
G75*
G02*
X227805000Y-47171000I0J-200000D01*
G01*
X227805000Y-47571000D01*
G75*
G02*
X227605000Y-47771000I-200000J0D01*
G01*
G37*
%TD.AperFunction*%
%TD*%
%TO.P,R17,2*%
%TO.N,5V*%
%TA.AperFunction,SMDPad,CuDef*%
G36*
G01*
X218840000Y-50525000D02*
X218840000Y-51075000D01*
G75*
G02*
X218640000Y-51275000I-200000J0D01*
G01*
X218240000Y-51275000D01*
G75*
G02*
X218040000Y-51075000I0J200000D01*
G01*
X218040000Y-50525000D01*
G75*
G02*
X218240000Y-50325000I200000J0D01*
G01*
X218640000Y-50325000D01*
G75*
G02*
X218840000Y-50525000I0J-200000D01*
G01*
G37*
%TD.AperFunction*%
%TO.P,R17,1*%
%TO.N,Net-(C9-Pad1)*%
%TA.AperFunction,SMDPad,CuDef*%
G36*
G01*
X220490000Y-50525000D02*
X220490000Y-51075000D01*
G75*
G02*
X220290000Y-51275000I-200000J0D01*
G01*
X219890000Y-51275000D01*
G75*
G02*
X219690000Y-51075000I0J200000D01*
G01*
X219690000Y-50525000D01*
G75*
G02*
X219890000Y-50325000I200000J0D01*
G01*
X220290000Y-50325000D01*
G75*
G02*
X220490000Y-50525000I0J-200000D01*
G01*
G37*
%TD.AperFunction*%
%TD*%
%TO.P,R15,1*%
%TO.N,A0*%
%TA.AperFunction,SMDPad,CuDef*%
G36*
G01*
X231757000Y-51202000D02*
X231757000Y-50652000D01*
G75*
G02*
X231957000Y-50452000I200000J0D01*
G01*
X232357000Y-50452000D01*
G75*
G02*
X232557000Y-50652000I0J-200000D01*
G01*
X232557000Y-51202000D01*
G75*
G02*
X232357000Y-51402000I-200000J0D01*
G01*
X231957000Y-51402000D01*
G75*
G02*
X231757000Y-51202000I0J200000D01*
G01*
G37*
%TD.AperFunction*%
%TO.P,R15,2*%
%TO.N,Net-(R15-Pad2)*%
%TA.AperFunction,SMDPad,CuDef*%
G36*
G01*
X233407000Y-51202000D02*
X233407000Y-50652000D01*
G75*
G02*
X233607000Y-50452000I200000J0D01*
G01*
X234007000Y-50452000D01*
G75*
G02*
X234207000Y-50652000I0J-200000D01*
G01*
X234207000Y-51202000D01*
G75*
G02*
X234007000Y-51402000I-200000J0D01*
G01*
X233607000Y-51402000D01*
G75*
G02*
X233407000Y-51202000I0J200000D01*
G01*
G37*
%TD.AperFunction*%
%TD*%
%TO.P,R14,1*%
%TO.N,A1*%
%TA.AperFunction,SMDPad,CuDef*%
G36*
G01*
X231757000Y-49805000D02*
X231757000Y-49255000D01*
G75*
G02*
X231957000Y-49055000I200000J0D01*
G01*
X232357000Y-49055000D01*
G75*
G02*
X232557000Y-49255000I0J-200000D01*
G01*
X232557000Y-49805000D01*
G75*
G02*
X232357000Y-50005000I-200000J0D01*
G01*
X231957000Y-50005000D01*
G75*
G02*
X231757000Y-49805000I0J200000D01*
G01*
G37*
%TD.AperFunction*%
%TO.P,R14,2*%
%TO.N,Net-(R14-Pad2)*%
%TA.AperFunction,SMDPad,CuDef*%
G36*
G01*
X233407000Y-49805000D02*
X233407000Y-49255000D01*
G75*
G02*
X233607000Y-49055000I200000J0D01*
G01*
X234007000Y-49055000D01*
G75*
G02*
X234207000Y-49255000I0J-200000D01*
G01*
X234207000Y-49805000D01*
G75*
G02*
X234007000Y-50005000I-200000J0D01*
G01*
X233607000Y-50005000D01*
G75*
G02*
X233407000Y-49805000I0J200000D01*
G01*
G37*
%TD.AperFunction*%
%TD*%
%TO.P,R13,2*%
%TO.N,Net-(R13-Pad2)*%
%TA.AperFunction,SMDPad,CuDef*%
G36*
G01*
X233419700Y-48408000D02*
X233419700Y-47858000D01*
G75*
G02*
X233619700Y-47658000I200000J0D01*
G01*
X234019700Y-47658000D01*
G75*
G02*
X234219700Y-47858000I0J-200000D01*
G01*
X234219700Y-48408000D01*
G75*
G02*
X234019700Y-48608000I-200000J0D01*
G01*
X233619700Y-48608000D01*
G75*
G02*
X233419700Y-48408000I0J200000D01*
G01*
G37*
%TD.AperFunction*%
%TO.P,R13,1*%
%TO.N,A2*%
%TA.AperFunction,SMDPad,CuDef*%
G36*
G01*
X231769700Y-48408000D02*
X231769700Y-47858000D01*
G75*
G02*
X231969700Y-47658000I200000J0D01*
G01*
X232369700Y-47658000D01*
G75*
G02*
X232569700Y-47858000I0J-200000D01*
G01*
X232569700Y-48408000D01*
G75*
G02*
X232369700Y-48608000I-200000J0D01*
G01*
X231969700Y-48608000D01*
G75*
G02*
X231769700Y-48408000I0J200000D01*
G01*
G37*
%TD.AperFunction*%
%TD*%
%TO.P,R12,1*%
%TO.N,A3*%
%TA.AperFunction,SMDPad,CuDef*%
G36*
G01*
X231757000Y-47011000D02*
X231757000Y-46461000D01*
G75*
G02*
X231957000Y-46261000I200000J0D01*
G01*
X232357000Y-46261000D01*
G75*
G02*
X232557000Y-46461000I0J-200000D01*
G01*
X232557000Y-47011000D01*
G75*
G02*
X232357000Y-47211000I-200000J0D01*
G01*
X231957000Y-47211000D01*
G75*
G02*
X231757000Y-47011000I0J200000D01*
G01*
G37*
%TD.AperFunction*%
%TO.P,R12,2*%
%TO.N,Net-(R12-Pad2)*%
%TA.AperFunction,SMDPad,CuDef*%
G36*
G01*
X233407000Y-47011000D02*
X233407000Y-46461000D01*
G75*
G02*
X233607000Y-46261000I200000J0D01*
G01*
X234007000Y-46261000D01*
G75*
G02*
X234207000Y-46461000I0J-200000D01*
G01*
X234207000Y-47011000D01*
G75*
G02*
X234007000Y-47211000I-200000J0D01*
G01*
X233607000Y-47211000D01*
G75*
G02*
X233407000Y-47011000I0J200000D01*
G01*
G37*
%TD.AperFunction*%
%TD*%
%TO.P,R2,2*%
%TO.N,Net-(D1-Pad2)*%
%TA.AperFunction,SMDPad,CuDef*%
G36*
G01*
X243734000Y-40024000D02*
X243184000Y-40024000D01*
G75*
G02*
X242984000Y-39824000I0J200000D01*
G01*
X242984000Y-39424000D01*
G75*
G02*
X243184000Y-39224000I200000J0D01*
G01*
X243734000Y-39224000D01*
G75*
G02*
X243934000Y-39424000I0J-200000D01*
G01*
X243934000Y-39824000D01*
G75*
G02*
X243734000Y-40024000I-200000J0D01*
G01*
G37*
%TD.AperFunction*%
%TO.P,R2,1*%
%TO.N,5V*%
%TA.AperFunction,SMDPad,CuDef*%
G36*
G01*
X243734000Y-41674000D02*
X243184000Y-41674000D01*
G75*
G02*
X242984000Y-41474000I0J200000D01*
G01*
X242984000Y-41074000D01*
G75*
G02*
X243184000Y-40874000I200000J0D01*
G01*
X243734000Y-40874000D01*
G75*
G02*
X243934000Y-41074000I0J-200000D01*
G01*
X243934000Y-41474000D01*
G75*
G02*
X243734000Y-41674000I-200000J0D01*
G01*
G37*
%TD.AperFunction*%
%TD*%
%TO.P,R1,2*%
%TO.N,RESET*%
%TA.AperFunction,SMDPad,CuDef*%
G36*
G01*
X227009000Y-43160000D02*
X227559000Y-43160000D01*
G75*
G02*
X227759000Y-43360000I0J-200000D01*
G01*
X227759000Y-43760000D01*
G75*
G02*
X227559000Y-43960000I-200000J0D01*
G01*
X227009000Y-43960000D01*
G75*
G02*
X226809000Y-43760000I0J200000D01*
G01*
X226809000Y-43360000D01*
G75*
G02*
X227009000Y-43160000I200000J0D01*
G01*
G37*
%TD.AperFunction*%
%TO.P,R1,1*%
%TO.N,5V*%
%TA.AperFunction,SMDPad,CuDef*%
G36*
G01*
X227009000Y-41510000D02*
X227559000Y-41510000D01*
G75*
G02*
X227759000Y-41710000I0J-200000D01*
G01*
X227759000Y-42110000D01*
G75*
G02*
X227559000Y-42310000I-200000J0D01*
G01*
X227009000Y-42310000D01*
G75*
G02*
X226809000Y-42110000I0J200000D01*
G01*
X226809000Y-41710000D01*
G75*
G02*
X227009000Y-41510000I200000J0D01*
G01*
G37*
%TD.AperFunction*%
%TD*%
D12*
%TO.P,J5,1*%
%TO.N,VCC*%
X207980000Y-38100000D03*
D11*
%TO.P,J5,2*%
%TO.N,GND*%
X207980000Y-35560000D03*
%TD*%
D12*
%TO.P,J4,1*%
%TO.N,SCL*%
X207980000Y-43180000D03*
D11*
%TO.P,J4,2*%
%TO.N,SDA*%
X207980000Y-40640000D03*
%TD*%
D13*
%TO.P,J2,6*%
%TO.N,GND*%
X246080000Y-35560000D03*
%TO.P,J2,5*%
X246080000Y-38100000D03*
%TO.P,J2,4*%
%TO.N,5V*%
X246080000Y-40640000D03*
%TO.P,J2,3*%
%TO.N,TXO*%
X246080000Y-43180000D03*
%TO.P,J2,2*%
%TO.N,RXI*%
X246080000Y-45720000D03*
D10*
%TO.P,J2,1*%
%TO.N,DTR*%
X246080000Y-48260000D03*
%TD*%
%TO.P,D4,2*%
%TO.N,Net-(D4-Pad2)*%
%TA.AperFunction,SMDPad,CuDef*%
G36*
G01*
X223903250Y-36505500D02*
X223390750Y-36505500D01*
G75*
G02*
X223172000Y-36286750I0J218750D01*
G01*
X223172000Y-35849250D01*
G75*
G02*
X223390750Y-35630500I218750J0D01*
G01*
X223903250Y-35630500D01*
G75*
G02*
X224122000Y-35849250I0J-218750D01*
G01*
X224122000Y-36286750D01*
G75*
G02*
X223903250Y-36505500I-218750J0D01*
G01*
G37*
%TD.AperFunction*%
%TO.P,D4,1*%
%TO.N,GND*%
%TA.AperFunction,SMDPad,CuDef*%
G36*
G01*
X223903250Y-38080500D02*
X223390750Y-38080500D01*
G75*
G02*
X223172000Y-37861750I0J218750D01*
G01*
X223172000Y-37424250D01*
G75*
G02*
X223390750Y-37205500I218750J0D01*
G01*
X223903250Y-37205500D01*
G75*
G02*
X224122000Y-37424250I0J-218750D01*
G01*
X224122000Y-37861750D01*
G75*
G02*
X223903250Y-38080500I-218750J0D01*
G01*
G37*
%TD.AperFunction*%
%TD*%
%TO.P,D1,2*%
%TO.N,Net-(D1-Pad2)*%
%TA.AperFunction,SMDPad,CuDef*%
G36*
G01*
X243202750Y-37840500D02*
X243715250Y-37840500D01*
G75*
G02*
X243934000Y-38059250I0J-218750D01*
G01*
X243934000Y-38496750D01*
G75*
G02*
X243715250Y-38715500I-218750J0D01*
G01*
X243202750Y-38715500D01*
G75*
G02*
X242984000Y-38496750I0J218750D01*
G01*
X242984000Y-38059250D01*
G75*
G02*
X243202750Y-37840500I218750J0D01*
G01*
G37*
%TD.AperFunction*%
%TO.P,D1,1*%
%TO.N,GND*%
%TA.AperFunction,SMDPad,CuDef*%
G36*
G01*
X243202750Y-36265500D02*
X243715250Y-36265500D01*
G75*
G02*
X243934000Y-36484250I0J-218750D01*
G01*
X243934000Y-36921750D01*
G75*
G02*
X243715250Y-37140500I-218750J0D01*
G01*
X243202750Y-37140500D01*
G75*
G02*
X242984000Y-36921750I0J218750D01*
G01*
X242984000Y-36484250D01*
G75*
G02*
X243202750Y-36265500I218750J0D01*
G01*
G37*
%TD.AperFunction*%
%TD*%
%TO.P,C9,2*%
%TO.N,GND*%
%TA.AperFunction,SMDPad,CuDef*%
G36*
G01*
X221521000Y-50422000D02*
X222471000Y-50422000D01*
G75*
G02*
X222721000Y-50672000I0J-250000D01*
G01*
X222721000Y-51172000D01*
G75*
G02*
X222471000Y-51422000I-250000J0D01*
G01*
X221521000Y-51422000D01*
G75*
G02*
X221271000Y-51172000I0J250000D01*
G01*
X221271000Y-50672000D01*
G75*
G02*
X221521000Y-50422000I250000J0D01*
G01*
G37*
%TD.AperFunction*%
%TO.P,C9,1*%
%TO.N,Net-(C9-Pad1)*%
%TA.AperFunction,SMDPad,CuDef*%
G36*
G01*
X221521000Y-48522000D02*
X222471000Y-48522000D01*
G75*
G02*
X222721000Y-48772000I0J-250000D01*
G01*
X222721000Y-49272000D01*
G75*
G02*
X222471000Y-49522000I-250000J0D01*
G01*
X221521000Y-49522000D01*
G75*
G02*
X221271000Y-49272000I0J250000D01*
G01*
X221271000Y-48772000D01*
G75*
G02*
X221521000Y-48522000I250000J0D01*
G01*
G37*
%TD.AperFunction*%
%TD*%
%TO.P,C4,2*%
%TO.N,12VIN*%
%TA.AperFunction,SMDPad,CuDef*%
G36*
G01*
X216180000Y-50884000D02*
X216180000Y-51224000D01*
G75*
G02*
X216040000Y-51364000I-140000J0D01*
G01*
X215760000Y-51364000D01*
G75*
G02*
X215620000Y-51224000I0J140000D01*
G01*
X215620000Y-50884000D01*
G75*
G02*
X215760000Y-50744000I140000J0D01*
G01*
X216040000Y-50744000D01*
G75*
G02*
X216180000Y-50884000I0J-140000D01*
G01*
G37*
%TD.AperFunction*%
%TO.P,C4,1*%
%TO.N,GND*%
%TA.AperFunction,SMDPad,CuDef*%
G36*
G01*
X217140000Y-50884000D02*
X217140000Y-51224000D01*
G75*
G02*
X217000000Y-51364000I-140000J0D01*
G01*
X216720000Y-51364000D01*
G75*
G02*
X216580000Y-51224000I0J140000D01*
G01*
X216580000Y-50884000D01*
G75*
G02*
X216720000Y-50744000I140000J0D01*
G01*
X217000000Y-50744000D01*
G75*
G02*
X217140000Y-50884000I0J-140000D01*
G01*
G37*
%TD.AperFunction*%
%TD*%
%TO.P,C2,2*%
%TO.N,GND*%
%TA.AperFunction,SMDPad,CuDef*%
G36*
G01*
X229736100Y-38120500D02*
X229736100Y-38460500D01*
G75*
G02*
X229596100Y-38600500I-140000J0D01*
G01*
X229316100Y-38600500D01*
G75*
G02*
X229176100Y-38460500I0J140000D01*
G01*
X229176100Y-38120500D01*
G75*
G02*
X229316100Y-37980500I140000J0D01*
G01*
X229596100Y-37980500D01*
G75*
G02*
X229736100Y-38120500I0J-140000D01*
G01*
G37*
%TD.AperFunction*%
%TO.P,C2,1*%
%TO.N,5V*%
%TA.AperFunction,SMDPad,CuDef*%
G36*
G01*
X230696100Y-38120500D02*
X230696100Y-38460500D01*
G75*
G02*
X230556100Y-38600500I-140000J0D01*
G01*
X230276100Y-38600500D01*
G75*
G02*
X230136100Y-38460500I0J140000D01*
G01*
X230136100Y-38120500D01*
G75*
G02*
X230276100Y-37980500I140000J0D01*
G01*
X230556100Y-37980500D01*
G75*
G02*
X230696100Y-38120500I0J-140000D01*
G01*
G37*
%TD.AperFunction*%
%TD*%
%TO.P,C1,2*%
%TO.N,GND*%
%TA.AperFunction,SMDPad,CuDef*%
G36*
G01*
X230093700Y-39963700D02*
X230433700Y-39963700D01*
G75*
G02*
X230573700Y-40103700I0J-140000D01*
G01*
X230573700Y-40383700D01*
G75*
G02*
X230433700Y-40523700I-140000J0D01*
G01*
X230093700Y-40523700D01*
G75*
G02*
X229953700Y-40383700I0J140000D01*
G01*
X229953700Y-40103700D01*
G75*
G02*
X230093700Y-39963700I140000J0D01*
G01*
G37*
%TD.AperFunction*%
%TO.P,C1,1*%
%TO.N,Net-(C1-Pad1)*%
%TA.AperFunction,SMDPad,CuDef*%
G36*
G01*
X230093700Y-39003700D02*
X230433700Y-39003700D01*
G75*
G02*
X230573700Y-39143700I0J-140000D01*
G01*
X230573700Y-39423700D01*
G75*
G02*
X230433700Y-39563700I-140000J0D01*
G01*
X230093700Y-39563700D01*
G75*
G02*
X229953700Y-39423700I0J140000D01*
G01*
X229953700Y-39143700D01*
G75*
G02*
X230093700Y-39003700I140000J0D01*
G01*
G37*
%TD.AperFunction*%
%TD*%
D23*
%TO.N,GND*%
X238972882Y-39689165D03*
X215265000Y-51943000D03*
X218694000Y-34417000D03*
X217805000Y-37719000D03*
X213459396Y-42920440D03*
X223139000Y-47371000D03*
X237490000Y-37240999D03*
X237490000Y-39751000D03*
X228981000Y-40386000D03*
X241127000Y-46863000D03*
X210266000Y-48895000D03*
X232117001Y-29329999D03*
X220680000Y-49784000D03*
X215735848Y-49954761D03*
X215027000Y-44069000D03*
%TO.N,VCC*%
X218729190Y-33238810D03*
X216027000Y-34671000D03*
X224273911Y-32443375D03*
X227872434Y-34705433D03*
X227570975Y-36943975D03*
X225958133Y-48615614D03*
%TO.N,RESET*%
X239010998Y-42505998D03*
X227330000Y-44831000D03*
X224158940Y-48377012D03*
%TO.N,D4*%
X241826556Y-40563256D03*
%TO.N,D3*%
X242228690Y-41563255D03*
%TO.N,D2*%
X240538000Y-43688000D03*
%TO.N,SCL*%
X236347000Y-45164446D03*
%TO.N,SDA*%
X235331000Y-45212000D03*
%TO.N,RXI*%
X241873814Y-44316820D03*
%TO.N,A3*%
X231521000Y-45847000D03*
X233426000Y-45466000D03*
X230356980Y-51089989D03*
%TO.N,A1*%
X231902000Y-44958000D03*
X235090637Y-51203453D03*
%TO.N,A0*%
X231427067Y-44077976D03*
%TO.N,SCK*%
X230062000Y-34715072D03*
%TO.N,MOSI*%
X226640108Y-33346108D03*
%TO.N,Net-(J6-Pad2)*%
X215773000Y-47625000D03*
%TO.N,Net-(R3-Pad1)*%
X222509369Y-34919631D03*
X216027000Y-38481000D03*
%TO.N,Net-(R15-Pad2)*%
X237109000Y-51054000D03*
%TO.N,Net-(R14-Pad2)*%
X237109000Y-49530000D03*
%TO.N,Net-(R13-Pad2)*%
X237109000Y-48133000D03*
%TO.N,Net-(R12-Pad2)*%
X236982000Y-46736000D03*
%TO.N,Net-(R9-Pad1)*%
X221526510Y-47879000D03*
X218124197Y-48754716D03*
%TO.N,SS*%
X225933000Y-32639000D03*
X234962863Y-36632041D03*
%TO.N,Net-(U4-Pad1)*%
X225579726Y-41571851D03*
X222172213Y-47115411D03*
%TO.N,Net-(J6-Pad1)*%
X219342025Y-42785975D03*
%TO.N,5V*%
X215854000Y-48895000D03*
X230378000Y-37338000D03*
X227464872Y-41102475D03*
X235031000Y-38735000D03*
%TD*%
D24*
%TO.N,GND*%
X244937000Y-36703000D02*
X246080000Y-35560000D01*
X243459000Y-36703000D02*
X244937000Y-36703000D01*
X246080000Y-38100000D02*
X246080000Y-35560000D01*
X246126000Y-35514000D02*
X246080000Y-35560000D01*
X246126000Y-34163000D02*
X246126000Y-35514000D01*
D25*
X243459000Y-36703000D02*
X242683990Y-37478010D01*
X242683990Y-37478010D02*
X242683990Y-39216888D01*
X242644878Y-39256000D02*
X242683990Y-39216888D01*
X240411000Y-39256000D02*
X242644878Y-39256000D01*
X229456100Y-38290500D02*
X229456100Y-38448100D01*
X229743000Y-38735000D02*
X229743000Y-38872130D01*
X229456100Y-38448100D02*
X229743000Y-38735000D01*
X229653690Y-39633690D02*
X230263700Y-40243700D01*
X229653690Y-38961440D02*
X229653690Y-39633690D01*
X229743000Y-38872130D02*
X229653690Y-38961440D01*
X239595998Y-39256000D02*
X240411000Y-39256000D01*
X239010998Y-39841000D02*
X239595998Y-39256000D01*
X216860000Y-51054000D02*
X216848308Y-51054000D01*
X211909999Y-31569999D02*
X212090001Y-31750001D01*
X212090001Y-31750001D02*
X213486999Y-31750001D01*
X213614000Y-31877002D02*
X213614000Y-33909000D01*
X213486999Y-31750001D02*
X213614000Y-31877002D01*
X211909999Y-31930001D02*
X211909999Y-31061999D01*
X208280000Y-35560000D02*
X211909999Y-31930001D01*
X211909999Y-31061999D02*
X211909999Y-31569999D01*
X213614000Y-33909000D02*
X216301002Y-33909000D01*
X216301002Y-33909000D02*
X216662992Y-34270990D01*
X219429191Y-33681809D02*
X218694000Y-34417000D01*
X219065191Y-32538809D02*
X219429191Y-32902809D01*
X219429191Y-32902809D02*
X219429191Y-33681809D01*
X218395173Y-32538809D02*
X219065191Y-32538809D01*
X216662992Y-34270990D02*
X218395173Y-32538809D01*
X218694000Y-36830000D02*
X217805000Y-37719000D01*
X218694000Y-34417000D02*
X218694000Y-36830000D01*
X213614000Y-33909000D02*
X213614000Y-36449000D01*
X213459396Y-44121604D02*
X213385000Y-44196000D01*
X213459396Y-42920440D02*
X213459396Y-44121604D01*
X229489000Y-38257600D02*
X229456100Y-38290500D01*
X239610001Y-31584001D02*
X240488999Y-32462999D01*
X243535001Y-32522999D02*
X243535001Y-34086999D01*
X239610001Y-30047999D02*
X239610001Y-31584001D01*
X243535001Y-34086999D02*
X243459000Y-34163000D01*
X240488999Y-32462999D02*
X243475001Y-32462999D01*
X243475001Y-32462999D02*
X243535001Y-32522999D01*
D24*
X243459000Y-34163000D02*
X246126000Y-34163000D01*
X241635000Y-34163000D02*
X243459000Y-34163000D01*
D25*
X223139000Y-47371000D02*
X223139000Y-44196000D01*
X224472000Y-44196000D02*
X224536000Y-44132000D01*
X223139000Y-44196000D02*
X224472000Y-44196000D01*
X223139000Y-47371000D02*
X223139000Y-50800000D01*
X223017000Y-50922000D02*
X221996000Y-50922000D01*
X223139000Y-50800000D02*
X223017000Y-50922000D01*
X229362000Y-34150060D02*
X229362000Y-38196400D01*
X228455868Y-34150060D02*
X229362000Y-34150060D01*
X227789518Y-33798399D02*
X228104208Y-33798399D01*
X227141798Y-34446119D02*
X227789518Y-33798399D01*
X225219780Y-34446119D02*
X227141798Y-34446119D01*
X229362000Y-38196400D02*
X229456100Y-38290500D01*
X225020681Y-34247020D02*
X225219780Y-34446119D01*
X224366020Y-34247020D02*
X225020681Y-34247020D01*
X228104208Y-33798399D02*
X228455868Y-34150060D01*
X224422010Y-34303010D02*
X224366020Y-34247020D01*
X224422010Y-36867990D02*
X224422010Y-34303010D01*
X223647000Y-37643000D02*
X224422010Y-36867990D01*
X230451400Y-40056000D02*
X230263700Y-40243700D01*
X231911000Y-40056000D02*
X230451400Y-40056000D01*
X215356874Y-52034874D02*
X215265000Y-51943000D01*
X238085698Y-37240999D02*
X237490000Y-37240999D01*
X238972882Y-38128183D02*
X238085698Y-37240999D01*
X238972882Y-39689165D02*
X238972882Y-38128183D01*
X237185000Y-40056000D02*
X231911000Y-40056000D01*
X237490000Y-39751000D02*
X237185000Y-40056000D01*
X229123300Y-40243700D02*
X228981000Y-40386000D01*
X230263700Y-40243700D02*
X229123300Y-40243700D01*
X220680000Y-29545000D02*
X220680000Y-30600000D01*
X211909999Y-31061999D02*
X211909999Y-29927999D01*
X211909999Y-29927999D02*
X212507999Y-29329999D01*
X232117001Y-29329999D02*
X239012001Y-29329999D01*
X212507999Y-29329999D02*
X220464999Y-29329999D01*
X239012001Y-29329999D02*
X239311001Y-29628999D01*
X220464999Y-29329999D02*
X232117001Y-29329999D01*
X220464999Y-29329999D02*
X220680000Y-29545000D01*
X239012001Y-29449999D02*
X239610001Y-30047999D01*
X221112000Y-50038000D02*
X221996000Y-50922000D01*
X220934000Y-50038000D02*
X221112000Y-50038000D01*
X220680000Y-49784000D02*
X220934000Y-50038000D01*
X216222260Y-51664010D02*
X215575010Y-51664010D01*
X216832270Y-51054000D02*
X216222260Y-51664010D01*
X216860000Y-51054000D02*
X216832270Y-51054000D01*
X215296020Y-51943000D02*
X215265000Y-51943000D01*
X215575010Y-51664010D02*
X215296020Y-51943000D01*
X227145345Y-40386000D02*
X228981000Y-40386000D01*
X226508990Y-41022355D02*
X227145345Y-40386000D01*
X226508990Y-41909010D02*
X226508990Y-41022355D01*
X224536000Y-43882000D02*
X226508990Y-41909010D01*
X224536000Y-44132000D02*
X224536000Y-43882000D01*
X216480010Y-50698923D02*
X215735848Y-49954761D01*
X216832270Y-51054000D02*
X216480010Y-51406260D01*
X213512000Y-44069000D02*
X213385000Y-44196000D01*
X215027000Y-44069000D02*
X213512000Y-44069000D01*
X216504923Y-50698923D02*
X216860000Y-51054000D01*
X216480010Y-50698923D02*
X216504923Y-50698923D01*
%TO.N,Net-(C1-Pad1)*%
X230744300Y-39283700D02*
X230772000Y-39256000D01*
X230263700Y-39283700D02*
X230744300Y-39283700D01*
X230772000Y-39256000D02*
X231911000Y-39256000D01*
X230744000Y-39256000D02*
X230772000Y-39256000D01*
%TO.N,VCC*%
X217297000Y-34671000D02*
X216027000Y-34671000D01*
X218729190Y-33238810D02*
X217297000Y-34671000D01*
X223647000Y-33070286D02*
X224273911Y-32443375D01*
X223647000Y-33147000D02*
X223647000Y-33070286D01*
X227838000Y-34739867D02*
X227872434Y-34705433D01*
X227570975Y-35006892D02*
X227872434Y-34705433D01*
X227570975Y-36943975D02*
X227570975Y-35006892D01*
X225958133Y-48615614D02*
X226313747Y-48260000D01*
X226313747Y-48260000D02*
X227330000Y-48260000D01*
X227330000Y-47371000D02*
X227330000Y-48260000D01*
%TO.N,RESET*%
X236961002Y-42505998D02*
X239010998Y-42505998D01*
X236561000Y-42906000D02*
X236961002Y-42505998D01*
X236561000Y-43906000D02*
X236561000Y-42906000D01*
X224204311Y-50623689D02*
X224536000Y-50292000D01*
X226822000Y-43560000D02*
X226554990Y-43827010D01*
X224536000Y-49001745D02*
X224536000Y-50292000D01*
X225677755Y-47859990D02*
X224536000Y-49001745D01*
X226554990Y-47859990D02*
X225677755Y-47859990D01*
X226568000Y-44831000D02*
X226554990Y-44817990D01*
X227330000Y-44831000D02*
X226568000Y-44831000D01*
X226554990Y-44817990D02*
X226554990Y-47859990D01*
X226554990Y-43827010D02*
X226554990Y-44817990D01*
X224158940Y-49914940D02*
X224536000Y-50292000D01*
X224158940Y-48377012D02*
X224158940Y-49914940D01*
D26*
%TO.N,12VIN*%
X214473000Y-52047000D02*
X213060000Y-53460000D01*
X214473000Y-50800000D02*
X214473000Y-52047000D01*
X215646000Y-50800000D02*
X215900000Y-51054000D01*
X214473000Y-50800000D02*
X215646000Y-50800000D01*
X213385000Y-49712000D02*
X214473000Y-50800000D01*
X213385000Y-48796000D02*
X213385000Y-49712000D01*
%TO.N,Net-(C9-Pad1)*%
X211934999Y-50136999D02*
X212598000Y-50800000D01*
X211934999Y-47685999D02*
X211934999Y-50136999D01*
X213124998Y-46496000D02*
X211934999Y-47685999D01*
X213385000Y-46496000D02*
X213124998Y-46496000D01*
X219685000Y-48489000D02*
X219685000Y-46496000D01*
X220218000Y-50672000D02*
X220090000Y-50800000D01*
D25*
X219685000Y-48596000D02*
X219685000Y-46496000D01*
X218826283Y-49454717D02*
X219685000Y-48596000D01*
X216658480Y-48325001D02*
X217788196Y-49454717D01*
X215214001Y-48325001D02*
X216658480Y-48325001D01*
X217788196Y-49454717D02*
X218826283Y-49454717D01*
X213385000Y-46496000D02*
X215214001Y-48325001D01*
D26*
X221411508Y-49022000D02*
X221996000Y-49022000D01*
X220878508Y-48489000D02*
X221411508Y-49022000D01*
X219685000Y-48489000D02*
X220878508Y-48489000D01*
X219685000Y-50395000D02*
X220090000Y-50800000D01*
X219685000Y-48489000D02*
X219685000Y-50395000D01*
D25*
%TO.N,Net-(D1-Pad2)*%
X243459000Y-38278000D02*
X243459000Y-39624000D01*
%TO.N,Net-(D3-Pad2)*%
X243205000Y-46228000D02*
X243205000Y-47498000D01*
X243205000Y-47498000D02*
X243205000Y-48768000D01*
X243205000Y-48768000D02*
X243205000Y-50038000D01*
D24*
X243205000Y-44674000D02*
X243205000Y-46228000D01*
D25*
%TO.N,D9*%
X224370001Y-31750001D02*
X223220000Y-30600000D01*
X226792660Y-32198359D02*
X226344302Y-31750000D01*
X226344302Y-31750000D02*
X224370001Y-31750001D01*
X228766963Y-32198359D02*
X226792660Y-32198359D01*
X229118624Y-32550020D02*
X228766963Y-32198359D01*
X233515584Y-32998379D02*
X231541282Y-32998379D01*
X231092924Y-32550020D02*
X229118624Y-32550020D01*
X231541282Y-32998379D02*
X231092924Y-32550020D01*
X233867245Y-33350041D02*
X233515584Y-32998379D01*
X235635959Y-33350041D02*
X235635959Y-35280959D01*
X235635959Y-35280959D02*
X235761000Y-35406000D01*
X235635959Y-33350041D02*
X233867245Y-33350041D01*
X223220000Y-30600000D02*
X223220000Y-32391878D01*
X220133999Y-38460999D02*
X220133999Y-40428999D01*
X220705999Y-37888999D02*
X220133999Y-38460999D01*
X220705999Y-37549001D02*
X220705999Y-37888999D01*
X220133999Y-36977001D02*
X220705999Y-37549001D01*
X220133999Y-33380999D02*
X220133999Y-36977001D01*
X220133999Y-40428999D02*
X221234000Y-41529000D01*
X220705999Y-32808999D02*
X220133999Y-33380999D01*
X222802879Y-32808999D02*
X220705999Y-32808999D01*
X223220000Y-32391878D02*
X222802879Y-32808999D01*
%TO.N,D8*%
X225760000Y-30600000D02*
X226958349Y-31798349D01*
X228932651Y-31798349D02*
X229284313Y-32150010D01*
X226958349Y-31798349D02*
X228932651Y-31798349D01*
X231258613Y-32150010D02*
X231706971Y-32598369D01*
X229284313Y-32150010D02*
X231258613Y-32150010D01*
X233681273Y-32598369D02*
X234032934Y-32950031D01*
X231706971Y-32598369D02*
X233681273Y-32598369D01*
X236561000Y-33047062D02*
X236561000Y-35406000D01*
X235898679Y-33047062D02*
X235801648Y-32950031D01*
X236561000Y-33047062D02*
X235898679Y-33047062D01*
X235801648Y-32950031D02*
X234032934Y-32950031D01*
%TO.N,D7*%
X237490000Y-35277000D02*
X237361000Y-35406000D01*
X237490000Y-32550021D02*
X237490000Y-35277000D01*
X234198623Y-32550021D02*
X237490000Y-32550021D01*
X233846962Y-32198359D02*
X234198623Y-32550021D01*
X231872660Y-32198359D02*
X233846962Y-32198359D01*
X229450001Y-31750001D02*
X231424302Y-31750000D01*
X231424302Y-31750000D02*
X231872660Y-32198359D01*
X228300000Y-30600000D02*
X229450001Y-31750001D01*
%TO.N,D6*%
X238125000Y-35370000D02*
X238161000Y-35406000D01*
X238125000Y-32150011D02*
X238125000Y-35370000D01*
X234364312Y-32150011D02*
X238125000Y-32150011D01*
X234012651Y-31798349D02*
X234364312Y-32150011D01*
X232038349Y-31798349D02*
X234012651Y-31798349D01*
X230840000Y-30600000D02*
X232038349Y-31798349D01*
%TO.N,D5*%
X234530001Y-31750001D02*
X239013999Y-31750001D01*
X233380000Y-30600000D02*
X234530001Y-31750001D01*
X238961000Y-31803000D02*
X238961000Y-35406000D01*
X239013999Y-31750001D02*
X238961000Y-31803000D01*
%TO.N,D4*%
X241226002Y-41656000D02*
X240411000Y-41656000D01*
X241511001Y-41371001D02*
X241226002Y-41656000D01*
X241892689Y-40863254D02*
X241511001Y-41244942D01*
X241892689Y-40629389D02*
X241892689Y-40863254D01*
X241511001Y-41244942D02*
X241511001Y-41371001D01*
X241826556Y-40563256D02*
X241892689Y-40629389D01*
%TO.N,D3*%
X242228690Y-41563255D02*
X242228690Y-42378310D01*
X242151000Y-42456000D02*
X240411000Y-42456000D01*
X242228690Y-42378310D02*
X242151000Y-42456000D01*
%TO.N,D2*%
X239179000Y-43688000D02*
X238961000Y-43906000D01*
X240538000Y-43688000D02*
X239179000Y-43688000D01*
%TO.N,SCL*%
X236204444Y-45164446D02*
X236347000Y-45164446D01*
X235985999Y-44946001D02*
X236204444Y-45164446D01*
X235985999Y-44723999D02*
X235985999Y-44946001D01*
X235761000Y-44499000D02*
X235985999Y-44723999D01*
X235761000Y-43906000D02*
X235761000Y-44499000D01*
X208280000Y-43180000D02*
X207030000Y-43180000D01*
X209550000Y-49784000D02*
X209677000Y-49784000D01*
X234769999Y-54610001D02*
X235920000Y-53460000D01*
X212507999Y-54610001D02*
X234769999Y-54610001D01*
X211709000Y-53811002D02*
X212507999Y-54610001D01*
X211709000Y-51943000D02*
X211709000Y-53811002D01*
X209550000Y-49784000D02*
X211709000Y-51943000D01*
X206629999Y-44530001D02*
X207980000Y-43180000D01*
X206629999Y-48908001D02*
X206629999Y-44530001D01*
X207505998Y-49784000D02*
X206629999Y-48908001D01*
X209550000Y-49784000D02*
X207505998Y-49784000D01*
%TO.N,SDA*%
X234902417Y-43964583D02*
X234961000Y-43906000D01*
X234961000Y-44715000D02*
X235458000Y-45212000D01*
X234961000Y-43906000D02*
X234961000Y-44715000D01*
D24*
%TO.N,RXI*%
X242697000Y-53467000D02*
X241007000Y-53467000D01*
X242697000Y-52197000D02*
X242697000Y-53467000D01*
X241007000Y-53467000D02*
X241000000Y-53460000D01*
X244348000Y-49530000D02*
X244330001Y-49547999D01*
X247255001Y-46895001D02*
X247255001Y-49370001D01*
X247095002Y-49530000D02*
X244348000Y-49530000D01*
X247255001Y-49370001D02*
X247095002Y-49530000D01*
X246080000Y-45720000D02*
X247255001Y-46895001D01*
D25*
X244348000Y-50615002D02*
X244245001Y-50718001D01*
X244348000Y-49530000D02*
X244348000Y-50615002D01*
X244245001Y-50718001D02*
X242697000Y-50718001D01*
X242697000Y-50718001D02*
X242697000Y-52197000D01*
X239708989Y-45406011D02*
X240049010Y-45065990D01*
X238046009Y-45406011D02*
X239708989Y-45406011D01*
X237361000Y-44721002D02*
X238046009Y-45406011D01*
X237361000Y-43906000D02*
X237361000Y-44721002D01*
X241039689Y-44788011D02*
X241631700Y-44196000D01*
X240072989Y-44788011D02*
X241039689Y-44788011D01*
X240049010Y-44811990D02*
X240072989Y-44788011D01*
X240049010Y-45065990D02*
X240049010Y-44811990D01*
X241752994Y-44196000D02*
X241873814Y-44316820D01*
X241631700Y-44196000D02*
X241752994Y-44196000D01*
%TO.N,TXO*%
X245673490Y-43586510D02*
X246080000Y-43180000D01*
X238161000Y-43906000D02*
X238161000Y-44721002D01*
X238161000Y-44721002D02*
X238445999Y-45006001D01*
X239536001Y-44591001D02*
X239536001Y-44088010D01*
X238445999Y-45006001D02*
X239476001Y-45006001D01*
X239835992Y-44388001D02*
X240874001Y-44388001D01*
X239476001Y-45006001D02*
X239649000Y-44833002D01*
X239649000Y-44704000D02*
X239536001Y-44591001D01*
X241238001Y-43622999D02*
X241274490Y-43586510D01*
X239649000Y-44833002D02*
X239649000Y-44704000D01*
X241238001Y-44024001D02*
X241238001Y-43622999D01*
X239536001Y-44088010D02*
X239835992Y-44388001D01*
X240874001Y-44388001D02*
X241238001Y-44024001D01*
X241274490Y-43586510D02*
X245673490Y-43586510D01*
%TO.N,A3*%
X232157000Y-46736000D02*
X232157000Y-45848000D01*
X234161000Y-44731000D02*
X234161000Y-43906000D01*
X233426000Y-45466000D02*
X234161000Y-44731000D01*
X232156000Y-45847000D02*
X232157000Y-45848000D01*
X231521000Y-45847000D02*
X232156000Y-45847000D01*
X231469690Y-47423310D02*
X232157000Y-46736000D01*
X231056980Y-48680021D02*
X231469690Y-48267312D01*
X231469690Y-48267312D02*
X231469690Y-47423310D01*
X231056980Y-49498623D02*
X231056980Y-48680021D01*
X230356980Y-50198622D02*
X231056980Y-49498623D01*
X230356980Y-51089989D02*
X230356980Y-50198622D01*
%TO.N,A2*%
X232169700Y-48133000D02*
X231456990Y-48845710D01*
X231456990Y-49664312D02*
X231056980Y-50064321D01*
X231456990Y-48845710D02*
X231456990Y-49664312D01*
X233106990Y-47195710D02*
X233106990Y-46253888D01*
X232169700Y-48133000D02*
X233106990Y-47195710D01*
X233106990Y-46253888D02*
X232943888Y-46253888D01*
X232943888Y-46253888D02*
X232664000Y-45974000D01*
X232664000Y-44603000D02*
X233361000Y-43906000D01*
X232664000Y-45974000D02*
X232664000Y-44603000D01*
X225760000Y-53340000D02*
X226903000Y-53340000D01*
X227747999Y-52189999D02*
X228852001Y-52189999D01*
X227149999Y-52787999D02*
X227747999Y-52189999D01*
X227149999Y-53093001D02*
X227149999Y-52787999D01*
X226903000Y-53340000D02*
X227149999Y-53093001D01*
X228852001Y-52189999D02*
X229252011Y-51789989D01*
X230993011Y-51789989D02*
X231056980Y-51726020D01*
X231056980Y-51726020D02*
X231056980Y-50064321D01*
X229252011Y-51789989D02*
X230993011Y-51789989D01*
%TO.N,A1*%
X232157000Y-49530000D02*
X231456990Y-50230010D01*
X232157000Y-49530000D02*
X232918000Y-49530000D01*
X231775000Y-42592000D02*
X231911000Y-42456000D01*
X231775000Y-43307000D02*
X231775000Y-42592000D01*
X231775000Y-43307000D02*
X232283000Y-43307000D01*
X232156000Y-43434000D02*
X232156000Y-44958000D01*
X232283000Y-43307000D02*
X232156000Y-43434000D01*
X231456990Y-50230010D02*
X231456990Y-52215010D01*
X230287999Y-52189999D02*
X229689999Y-52787999D01*
X231431979Y-52189999D02*
X230287999Y-52189999D01*
X231456990Y-52215010D02*
X231431979Y-52189999D01*
X229689999Y-52787999D02*
X229689999Y-53093001D01*
X229443000Y-53340000D02*
X228300000Y-53340000D01*
X229689999Y-53093001D02*
X229443000Y-53340000D01*
X234592080Y-51702010D02*
X235090637Y-51203453D01*
X232918000Y-51220122D02*
X233399888Y-51702010D01*
X233399888Y-51702010D02*
X234592080Y-51702010D01*
X232918000Y-49530000D02*
X232918000Y-51220122D01*
%TO.N,A0*%
X231456000Y-44189777D02*
X231374990Y-44108767D01*
X231374990Y-44108767D02*
X231374990Y-43160990D01*
X231095998Y-41656000D02*
X231911000Y-41656000D01*
X230810999Y-41940999D02*
X231095998Y-41656000D01*
X230810999Y-42971001D02*
X230810999Y-41940999D01*
X231000988Y-43160990D02*
X230810999Y-42971001D01*
X231374990Y-43160990D02*
X231000988Y-43160990D01*
D24*
X231456000Y-44106909D02*
X231427067Y-44077976D01*
X231456000Y-44189777D02*
X231456000Y-44106909D01*
D25*
X230897699Y-53340000D02*
X230840000Y-53340000D01*
X231857000Y-52380699D02*
X230897699Y-53340000D01*
X231983000Y-50927000D02*
X231857000Y-51053000D01*
X232157000Y-50927000D02*
X231983000Y-50927000D01*
X231857000Y-51053000D02*
X231857000Y-51942000D01*
X231857000Y-51942000D02*
X231857000Y-52380699D01*
%TO.N,SCK*%
X230062000Y-34715072D02*
X231658345Y-34715072D01*
X231658345Y-34715072D02*
X231702417Y-34671000D01*
X231702417Y-36647417D02*
X231911000Y-36856000D01*
X231702417Y-34671000D02*
X231702417Y-36647417D01*
%TO.N,MISO*%
X231044213Y-34198408D02*
X230595855Y-33750050D01*
X232678407Y-34198407D02*
X231044213Y-34198408D01*
X233361000Y-34881000D02*
X232678407Y-34198407D01*
X233361000Y-35406000D02*
X233361000Y-34881000D01*
X228621557Y-33750050D02*
X228269896Y-33398389D01*
X230595855Y-33750050D02*
X228621557Y-33750050D01*
X228269896Y-33398389D02*
X227340109Y-33398389D01*
X226304107Y-34046109D02*
X225596999Y-33339001D01*
X226976109Y-34046109D02*
X226304107Y-34046109D01*
X227340109Y-33682109D02*
X226976109Y-34046109D01*
X227340109Y-33398389D02*
X227340109Y-33682109D01*
X225596999Y-33339001D02*
X225363001Y-33339001D01*
X221295990Y-33847010D02*
X221234000Y-33909000D01*
X224854992Y-33847010D02*
X221295990Y-33847010D01*
X225363001Y-33339001D02*
X224854992Y-33847010D01*
%TO.N,MOSI*%
X234161000Y-35406000D02*
X234161000Y-34250061D01*
X234161000Y-34250061D02*
X234188000Y-34223061D01*
X234175061Y-34150061D02*
X233535868Y-34150061D01*
X234188000Y-34163000D02*
X234175061Y-34150061D01*
X234188000Y-34223061D02*
X234188000Y-34163000D01*
X232983597Y-33847597D02*
X232934399Y-33798399D01*
X233233403Y-33847597D02*
X232983597Y-33847597D01*
X233535868Y-34150061D02*
X233233403Y-33847597D01*
X233233403Y-33847597D02*
X233184206Y-33798399D01*
X231209904Y-33798399D02*
X230975583Y-33564077D01*
X232934399Y-33798399D02*
X231209904Y-33798399D01*
X230975583Y-33564077D02*
X230761546Y-33350040D01*
X228787246Y-33350040D02*
X228435585Y-32998379D01*
X230761546Y-33350040D02*
X228787246Y-33350040D01*
X228435585Y-32998379D02*
X226609623Y-32998379D01*
X226609623Y-33315623D02*
X226640108Y-33346108D01*
X226609623Y-32998379D02*
X226609623Y-33315623D01*
%TO.N,Net-(J6-Pad2)*%
X212144999Y-45445999D02*
X211384989Y-46206009D01*
X215773000Y-46593998D02*
X214625001Y-45445999D01*
X214625001Y-45445999D02*
X212144999Y-45445999D01*
X215773000Y-47625000D02*
X215773000Y-46593998D01*
X211384989Y-46206009D02*
X211384989Y-48711011D01*
X210933978Y-48260000D02*
X208280000Y-48260000D01*
X211384989Y-48711011D02*
X210933978Y-48260000D01*
%TO.N,Net-(R3-Pad1)*%
X220175001Y-42629001D02*
X216027000Y-38481000D01*
X222274001Y-42629001D02*
X220175001Y-42629001D01*
X222377000Y-42526002D02*
X222274001Y-42629001D01*
X222377000Y-35179000D02*
X222377000Y-42526002D01*
%TO.N,Net-(R15-Pad2)*%
X233807000Y-50927000D02*
X233807000Y-50712122D01*
X234481122Y-50038000D02*
X235585000Y-50038000D01*
X233807000Y-50712122D02*
X234481122Y-50038000D01*
X236093000Y-50038000D02*
X237109000Y-51054000D01*
X235585000Y-50038000D02*
X236093000Y-50038000D01*
%TO.N,Net-(R14-Pad2)*%
X233807000Y-49530000D02*
X233807000Y-49327822D01*
X234366822Y-48768000D02*
X235585000Y-48768000D01*
X233807000Y-49327822D02*
X234366822Y-48768000D01*
X236347000Y-48768000D02*
X237109000Y-49530000D01*
X235585000Y-48768000D02*
X236347000Y-48768000D01*
%TO.N,Net-(R13-Pad2)*%
X233819700Y-48133000D02*
X233819700Y-47993300D01*
X234315000Y-47498000D02*
X235585000Y-47498000D01*
X233819700Y-47993300D02*
X234315000Y-47498000D01*
X236474000Y-47498000D02*
X237109000Y-48133000D01*
X235585000Y-47498000D02*
X236474000Y-47498000D01*
%TO.N,Net-(R12-Pad2)*%
X233807000Y-46736000D02*
X233934000Y-46736000D01*
X233934000Y-46736000D02*
X234442000Y-46228000D01*
X236474000Y-46228000D02*
X236982000Y-46736000D01*
X235585000Y-46228000D02*
X236474000Y-46228000D01*
X234442000Y-46228000D02*
X235585000Y-46228000D01*
%TO.N,Net-(R9-Pad1)*%
X220925001Y-44295999D02*
X218444999Y-44295999D01*
X220985001Y-47337491D02*
X221526510Y-47879000D01*
X220985001Y-44355999D02*
X220985001Y-47337491D01*
X220925001Y-44295999D02*
X220985001Y-44355999D01*
X218365499Y-48513414D02*
X218124197Y-48754716D01*
X218365499Y-44375499D02*
X218365499Y-48513414D01*
X218444999Y-44295999D02*
X218365499Y-44375499D01*
X218365499Y-44375499D02*
X218313000Y-44427998D01*
%TO.N,SS*%
X234961000Y-34406000D02*
X234950000Y-34395000D01*
X234961000Y-35406000D02*
X234961000Y-34406000D01*
X234950000Y-34395000D02*
X234950000Y-33750051D01*
X234950000Y-33750051D02*
X233701556Y-33750051D01*
X233701556Y-33750051D02*
X233701554Y-33750049D01*
X233701554Y-33750049D02*
X233349894Y-33398389D01*
X233349894Y-33398389D02*
X231902000Y-33398389D01*
X231375593Y-33398389D02*
X231375591Y-33398387D01*
X231902000Y-33398389D02*
X231375593Y-33398389D01*
X231375591Y-33398387D02*
X230927234Y-32950030D01*
X230927234Y-32950030D02*
X229108000Y-32950030D01*
X228952935Y-32950030D02*
X228601274Y-32598369D01*
X229108000Y-32950030D02*
X228952935Y-32950030D01*
X228601274Y-32598369D02*
X227076000Y-32598369D01*
X227076000Y-32598369D02*
X226626971Y-32598369D01*
X226626971Y-32598369D02*
X226178612Y-32150009D01*
X226178612Y-32150009D02*
X225913991Y-32150009D01*
X225933000Y-32169018D02*
X225933000Y-32639000D01*
X225913991Y-32150009D02*
X225933000Y-32169018D01*
X234961000Y-36630178D02*
X234962863Y-36632041D01*
X234961000Y-35406000D02*
X234961000Y-36630178D01*
%TO.N,Net-(U1-Pad8)*%
X239734999Y-36179999D02*
X240411000Y-36856000D01*
X239734999Y-33063001D02*
X239734999Y-36179999D01*
X239835000Y-32963000D02*
X239734999Y-33063001D01*
X241635000Y-32963000D02*
X239835000Y-32963000D01*
%TO.N,Net-(U1-Pad7)*%
X241635000Y-37432000D02*
X241186001Y-37880999D01*
X241635000Y-35363000D02*
X241635000Y-37432000D01*
%TO.N,Net-(U4-Pad1)*%
X225579726Y-41571851D02*
X222819861Y-41571851D01*
X222172213Y-44597088D02*
X222172213Y-47115411D01*
X222819861Y-43949440D02*
X222172213Y-44597088D01*
X222819861Y-41571851D02*
X222819861Y-43949440D01*
%TO.N,Net-(D4-Pad2)*%
X223647000Y-34797000D02*
X223647000Y-36068000D01*
%TO.N,Net-(J6-Pad1)*%
X216985049Y-40428999D02*
X219342025Y-42785975D01*
X213085999Y-40428999D02*
X216985049Y-40428999D01*
X212513999Y-41000999D02*
X213085999Y-40428999D01*
X212513999Y-41486001D02*
X212513999Y-41000999D01*
X208280000Y-45720000D02*
X212513999Y-41486001D01*
D26*
%TO.N,5V*%
X245446000Y-41274000D02*
X246080000Y-40640000D01*
X243459000Y-41274000D02*
X245446000Y-41274000D01*
X243459000Y-42545000D02*
X243205000Y-42799000D01*
X243459000Y-41274000D02*
X243459000Y-42545000D01*
D25*
X231783500Y-37528500D02*
X231911000Y-37656000D01*
X243459000Y-41274000D02*
X243459000Y-40513000D01*
X242976888Y-40324010D02*
X242683990Y-40031112D01*
X243270010Y-40324010D02*
X242976888Y-40324010D01*
X243459000Y-40513000D02*
X243270010Y-40324010D01*
X242683990Y-40031112D02*
X242683990Y-39751000D01*
X242683990Y-39751000D02*
X241427000Y-39751000D01*
X241122000Y-40056000D02*
X240411000Y-40056000D01*
X241427000Y-39751000D02*
X241122000Y-40056000D01*
X231911000Y-37656000D02*
X232726002Y-37656000D01*
X232726002Y-37656000D02*
X233011001Y-37940999D01*
X231050600Y-37656000D02*
X230416100Y-38290500D01*
X231911000Y-37656000D02*
X231050600Y-37656000D01*
X230416100Y-37376100D02*
X230378000Y-37338000D01*
X230416100Y-38290500D02*
X230416100Y-37376100D01*
X227464872Y-41102475D02*
X227464872Y-41267128D01*
X228105010Y-48245990D02*
X227330000Y-49021000D01*
X228105010Y-43320010D02*
X228105010Y-48245990D01*
X227838000Y-43053000D02*
X228105010Y-43320010D01*
X217563730Y-50800000D02*
X217551000Y-50812730D01*
X217563730Y-50800000D02*
X217551000Y-50800000D01*
X217182260Y-51664010D02*
X216916000Y-51664010D01*
X239595998Y-40056000D02*
X240411000Y-40056000D01*
X239011998Y-40640000D02*
X239595998Y-40056000D01*
X238887715Y-40640000D02*
X239011998Y-40640000D01*
X238219999Y-39972284D02*
X238887715Y-40640000D01*
X238219999Y-37940999D02*
X238219999Y-39972284D01*
X235031000Y-38035998D02*
X234936001Y-37940999D01*
X235031000Y-38735000D02*
X235031000Y-38035998D01*
X234936001Y-37940999D02*
X238219999Y-37940999D01*
X233011001Y-37940999D02*
X234936001Y-37940999D01*
D24*
X215600000Y-52903362D02*
X215600000Y-53340000D01*
X218440000Y-50800000D02*
X218081626Y-50800000D01*
X215600000Y-52681002D02*
X215600000Y-53340000D01*
X215990001Y-52291001D02*
X215600000Y-52681002D01*
X216398304Y-52089020D02*
X215990001Y-52089020D01*
X216798314Y-51689010D02*
X216398304Y-52089020D01*
X215990001Y-52089020D02*
X215990001Y-52291001D01*
X217192616Y-51689010D02*
X216798314Y-51689010D01*
X217563730Y-51317896D02*
X217192616Y-51689010D01*
X217563730Y-50800000D02*
X217563730Y-51317896D01*
X217563730Y-50800000D02*
X218440000Y-50800000D01*
D25*
X227464872Y-41729128D02*
X227284000Y-41910000D01*
X227464872Y-41102475D02*
X227464872Y-41729128D01*
X227284000Y-42377878D02*
X227898561Y-42992439D01*
X227284000Y-41910000D02*
X227284000Y-42377878D01*
X227330000Y-50288002D02*
X227330000Y-49021000D01*
X225887000Y-51054000D02*
X226564002Y-51054000D01*
X226564002Y-51054000D02*
X227330000Y-50288002D01*
X218440000Y-50800000D02*
X219262990Y-50800000D01*
X225836001Y-51104999D02*
X225887000Y-51054000D01*
X219262990Y-50800000D02*
X219389990Y-50927000D01*
X219389990Y-50927000D02*
X219389990Y-51282112D01*
X222795660Y-51722010D02*
X222985834Y-51531836D01*
X222985834Y-51531836D02*
X223295999Y-51842001D01*
X223295999Y-51842001D02*
X225776001Y-51842001D01*
X219389990Y-51282112D02*
X219682888Y-51575010D01*
X219682888Y-51575010D02*
X221146176Y-51575010D01*
X221293176Y-51722010D02*
X222795660Y-51722010D01*
X225776001Y-51842001D02*
X225836001Y-51782001D01*
X221146176Y-51575010D02*
X221293176Y-51722010D01*
X225836001Y-51782001D02*
X225836001Y-51104999D01*
X215854000Y-48895000D02*
X216662781Y-48895000D01*
X216662781Y-48895000D02*
X217622507Y-49854727D01*
X217622507Y-49854727D02*
X218394000Y-49854727D01*
X218394000Y-50754000D02*
X218440000Y-50800000D01*
X218394000Y-49854727D02*
X218394000Y-50754000D01*
%TD*%
D27*
%TO.N,GND*%
X241505766Y-45005389D02*
X241647171Y-45063961D01*
X241797286Y-45093820D01*
X241950342Y-45093820D01*
X242100457Y-45063961D01*
X242140603Y-45047332D01*
X242173567Y-45155999D01*
X242231099Y-45263634D01*
X242308524Y-45357976D01*
X242402866Y-45435401D01*
X242466055Y-45469176D01*
X242405000Y-45469176D01*
X242331095Y-45476455D01*
X242260030Y-45498012D01*
X242194537Y-45533019D01*
X242137131Y-45580131D01*
X242090019Y-45637537D01*
X242055012Y-45703030D01*
X242033455Y-45774095D01*
X242026176Y-45848000D01*
X242026176Y-46608000D01*
X242033455Y-46681905D01*
X242055012Y-46752970D01*
X242090019Y-46818463D01*
X242126570Y-46863000D01*
X242090019Y-46907537D01*
X242055012Y-46973030D01*
X242033455Y-47044095D01*
X242026176Y-47118000D01*
X242026176Y-47878000D01*
X242033455Y-47951905D01*
X242055012Y-48022970D01*
X242090019Y-48088463D01*
X242126570Y-48133000D01*
X242090019Y-48177537D01*
X242055012Y-48243030D01*
X242033455Y-48314095D01*
X242026176Y-48388000D01*
X242026176Y-49148000D01*
X242033455Y-49221905D01*
X242055012Y-49292970D01*
X242090019Y-49358463D01*
X242126570Y-49403000D01*
X242090019Y-49447537D01*
X242055012Y-49513030D01*
X242033455Y-49584095D01*
X242026176Y-49658000D01*
X242026176Y-50418000D01*
X242033455Y-50491905D01*
X242055012Y-50562970D01*
X242090019Y-50628463D01*
X242137131Y-50685869D01*
X242194537Y-50732981D01*
X242220000Y-50746591D01*
X242220001Y-52040122D01*
X242202264Y-52098592D01*
X242195000Y-52172348D01*
X242195000Y-52335698D01*
X242164981Y-52279537D01*
X242117869Y-52222131D01*
X242060463Y-52175019D01*
X241994970Y-52140012D01*
X241923905Y-52118455D01*
X241850000Y-52111176D01*
X240150000Y-52111176D01*
X240076095Y-52118455D01*
X240005030Y-52140012D01*
X239939537Y-52175019D01*
X239882131Y-52222131D01*
X239835019Y-52279537D01*
X239800012Y-52345030D01*
X239778455Y-52416095D01*
X239771176Y-52490000D01*
X239771176Y-54190000D01*
X239778455Y-54263905D01*
X239800012Y-54334970D01*
X239835019Y-54400463D01*
X239882131Y-54457869D01*
X239939537Y-54504981D01*
X240005030Y-54539988D01*
X240076095Y-54561545D01*
X240150000Y-54568824D01*
X241850000Y-54568824D01*
X241923905Y-54561545D01*
X241994970Y-54539988D01*
X242060463Y-54504981D01*
X242117869Y-54457869D01*
X242164981Y-54400463D01*
X242199988Y-54334970D01*
X242221545Y-54263905D01*
X242228824Y-54190000D01*
X242228824Y-53969000D01*
X242672347Y-53969000D01*
X242697000Y-53971428D01*
X242721653Y-53969000D01*
X242795409Y-53961736D01*
X242890036Y-53933031D01*
X242977245Y-53886417D01*
X243053684Y-53823684D01*
X243116417Y-53747245D01*
X243159000Y-53667577D01*
X243159000Y-54716000D01*
X235338579Y-54716000D01*
X235542747Y-54511832D01*
X235562097Y-54519847D01*
X235799151Y-54567000D01*
X236040849Y-54567000D01*
X236277903Y-54519847D01*
X236501202Y-54427353D01*
X236702167Y-54293073D01*
X236873073Y-54122167D01*
X237007353Y-53921202D01*
X237099847Y-53697903D01*
X237147000Y-53460849D01*
X237147000Y-53219151D01*
X237233000Y-53219151D01*
X237233000Y-53460849D01*
X237280153Y-53697903D01*
X237372647Y-53921202D01*
X237506927Y-54122167D01*
X237677833Y-54293073D01*
X237878798Y-54427353D01*
X238102097Y-54519847D01*
X238339151Y-54567000D01*
X238580849Y-54567000D01*
X238817903Y-54519847D01*
X239041202Y-54427353D01*
X239242167Y-54293073D01*
X239413073Y-54122167D01*
X239547353Y-53921202D01*
X239639847Y-53697903D01*
X239687000Y-53460849D01*
X239687000Y-53219151D01*
X239639847Y-52982097D01*
X239547353Y-52758798D01*
X239413073Y-52557833D01*
X239242167Y-52386927D01*
X239041202Y-52252647D01*
X238817903Y-52160153D01*
X238580849Y-52113000D01*
X238339151Y-52113000D01*
X238102097Y-52160153D01*
X237878798Y-52252647D01*
X237677833Y-52386927D01*
X237506927Y-52557833D01*
X237372647Y-52758798D01*
X237280153Y-52982097D01*
X237233000Y-53219151D01*
X237147000Y-53219151D01*
X237099847Y-52982097D01*
X237007353Y-52758798D01*
X236873073Y-52557833D01*
X236702167Y-52386927D01*
X236501202Y-52252647D01*
X236277903Y-52160153D01*
X236040849Y-52113000D01*
X235799151Y-52113000D01*
X235562097Y-52160153D01*
X235338798Y-52252647D01*
X235137833Y-52386927D01*
X234966927Y-52557833D01*
X234832647Y-52758798D01*
X234740153Y-52982097D01*
X234693000Y-53219151D01*
X234693000Y-53460849D01*
X234740153Y-53697903D01*
X234818463Y-53886958D01*
X234572420Y-54133001D01*
X234322239Y-54133001D01*
X234333073Y-54122167D01*
X234467353Y-53921202D01*
X234559847Y-53697903D01*
X234607000Y-53460849D01*
X234607000Y-53219151D01*
X234559847Y-52982097D01*
X234467353Y-52758798D01*
X234333073Y-52557833D01*
X234162167Y-52386927D01*
X233961202Y-52252647D01*
X233783428Y-52179010D01*
X234568665Y-52179010D01*
X234592080Y-52181316D01*
X234615495Y-52179010D01*
X234615503Y-52179010D01*
X234685588Y-52172107D01*
X234775503Y-52144832D01*
X234858369Y-52100539D01*
X234931001Y-52040931D01*
X234945935Y-52022734D01*
X234992512Y-51976157D01*
X235014109Y-51980453D01*
X235167165Y-51980453D01*
X235317280Y-51950594D01*
X235458685Y-51892022D01*
X235585946Y-51806989D01*
X235694173Y-51698762D01*
X235779206Y-51571501D01*
X235837778Y-51430096D01*
X235867637Y-51279981D01*
X235867637Y-51126925D01*
X235837778Y-50976810D01*
X235779206Y-50835405D01*
X235753427Y-50796824D01*
X236177245Y-50796824D01*
X236336296Y-50955875D01*
X236332000Y-50977472D01*
X236332000Y-51130528D01*
X236361859Y-51280643D01*
X236420431Y-51422048D01*
X236505464Y-51549309D01*
X236613691Y-51657536D01*
X236740952Y-51742569D01*
X236882357Y-51801141D01*
X237032472Y-51831000D01*
X237185528Y-51831000D01*
X237335643Y-51801141D01*
X237477048Y-51742569D01*
X237604309Y-51657536D01*
X237712536Y-51549309D01*
X237797569Y-51422048D01*
X237856141Y-51280643D01*
X237886000Y-51130528D01*
X237886000Y-50977472D01*
X237856141Y-50827357D01*
X237797569Y-50685952D01*
X237712536Y-50558691D01*
X237604309Y-50450464D01*
X237477048Y-50365431D01*
X237335643Y-50306859D01*
X237260940Y-50292000D01*
X237335643Y-50277141D01*
X237477048Y-50218569D01*
X237604309Y-50133536D01*
X237712536Y-50025309D01*
X237797569Y-49898048D01*
X237856141Y-49756643D01*
X237886000Y-49606528D01*
X237886000Y-49453472D01*
X237856141Y-49303357D01*
X237797569Y-49161952D01*
X237712536Y-49034691D01*
X237604309Y-48926464D01*
X237477048Y-48841431D01*
X237453072Y-48831500D01*
X237477048Y-48821569D01*
X237604309Y-48736536D01*
X237712536Y-48628309D01*
X237797569Y-48501048D01*
X237856141Y-48359643D01*
X237886000Y-48209528D01*
X237886000Y-48056472D01*
X237856141Y-47906357D01*
X237797569Y-47764952D01*
X237712536Y-47637691D01*
X237604309Y-47529464D01*
X237477048Y-47444431D01*
X237380299Y-47404356D01*
X237477309Y-47339536D01*
X237585536Y-47231309D01*
X237670569Y-47104048D01*
X237729141Y-46962643D01*
X237759000Y-46812528D01*
X237759000Y-46659472D01*
X237729141Y-46509357D01*
X237670569Y-46367952D01*
X237585536Y-46240691D01*
X237477309Y-46132464D01*
X237350048Y-46047431D01*
X237208643Y-45988859D01*
X237058528Y-45959000D01*
X236905472Y-45959000D01*
X236883875Y-45963296D01*
X236827855Y-45907276D01*
X236812921Y-45889079D01*
X236763824Y-45848786D01*
X236763824Y-45848000D01*
X236761276Y-45822127D01*
X236842309Y-45767982D01*
X236950536Y-45659755D01*
X237035569Y-45532494D01*
X237094141Y-45391089D01*
X237124000Y-45240974D01*
X237124000Y-45158581D01*
X237692158Y-45726740D01*
X237707088Y-45744932D01*
X237725279Y-45759861D01*
X237725281Y-45759863D01*
X237733644Y-45766726D01*
X237779720Y-45804540D01*
X237862586Y-45848833D01*
X237952501Y-45876108D01*
X238022586Y-45883011D01*
X238022593Y-45883011D01*
X238046008Y-45885317D01*
X238069423Y-45883011D01*
X239685574Y-45883011D01*
X239708989Y-45885317D01*
X239732404Y-45883011D01*
X239732412Y-45883011D01*
X239802497Y-45876108D01*
X239892412Y-45848833D01*
X239975278Y-45804540D01*
X240047910Y-45744932D01*
X240062844Y-45726735D01*
X240369739Y-45419841D01*
X240387931Y-45404911D01*
X240447539Y-45332279D01*
X240483495Y-45265011D01*
X241016274Y-45265011D01*
X241039689Y-45267317D01*
X241063104Y-45265011D01*
X241063112Y-45265011D01*
X241133197Y-45258108D01*
X241223112Y-45230833D01*
X241305978Y-45186540D01*
X241378610Y-45126932D01*
X241393544Y-45108735D01*
X241500445Y-45001834D01*
X241505766Y-45005389D01*
%TA.AperFunction,Conductor*%
D28*
G36*
X241505766Y-45005389D02*
G01*
X241647171Y-45063961D01*
X241797286Y-45093820D01*
X241950342Y-45093820D01*
X242100457Y-45063961D01*
X242140603Y-45047332D01*
X242173567Y-45155999D01*
X242231099Y-45263634D01*
X242308524Y-45357976D01*
X242402866Y-45435401D01*
X242466055Y-45469176D01*
X242405000Y-45469176D01*
X242331095Y-45476455D01*
X242260030Y-45498012D01*
X242194537Y-45533019D01*
X242137131Y-45580131D01*
X242090019Y-45637537D01*
X242055012Y-45703030D01*
X242033455Y-45774095D01*
X242026176Y-45848000D01*
X242026176Y-46608000D01*
X242033455Y-46681905D01*
X242055012Y-46752970D01*
X242090019Y-46818463D01*
X242126570Y-46863000D01*
X242090019Y-46907537D01*
X242055012Y-46973030D01*
X242033455Y-47044095D01*
X242026176Y-47118000D01*
X242026176Y-47878000D01*
X242033455Y-47951905D01*
X242055012Y-48022970D01*
X242090019Y-48088463D01*
X242126570Y-48133000D01*
X242090019Y-48177537D01*
X242055012Y-48243030D01*
X242033455Y-48314095D01*
X242026176Y-48388000D01*
X242026176Y-49148000D01*
X242033455Y-49221905D01*
X242055012Y-49292970D01*
X242090019Y-49358463D01*
X242126570Y-49403000D01*
X242090019Y-49447537D01*
X242055012Y-49513030D01*
X242033455Y-49584095D01*
X242026176Y-49658000D01*
X242026176Y-50418000D01*
X242033455Y-50491905D01*
X242055012Y-50562970D01*
X242090019Y-50628463D01*
X242137131Y-50685869D01*
X242194537Y-50732981D01*
X242220000Y-50746591D01*
X242220001Y-52040122D01*
X242202264Y-52098592D01*
X242195000Y-52172348D01*
X242195000Y-52335698D01*
X242164981Y-52279537D01*
X242117869Y-52222131D01*
X242060463Y-52175019D01*
X241994970Y-52140012D01*
X241923905Y-52118455D01*
X241850000Y-52111176D01*
X240150000Y-52111176D01*
X240076095Y-52118455D01*
X240005030Y-52140012D01*
X239939537Y-52175019D01*
X239882131Y-52222131D01*
X239835019Y-52279537D01*
X239800012Y-52345030D01*
X239778455Y-52416095D01*
X239771176Y-52490000D01*
X239771176Y-54190000D01*
X239778455Y-54263905D01*
X239800012Y-54334970D01*
X239835019Y-54400463D01*
X239882131Y-54457869D01*
X239939537Y-54504981D01*
X240005030Y-54539988D01*
X240076095Y-54561545D01*
X240150000Y-54568824D01*
X241850000Y-54568824D01*
X241923905Y-54561545D01*
X241994970Y-54539988D01*
X242060463Y-54504981D01*
X242117869Y-54457869D01*
X242164981Y-54400463D01*
X242199988Y-54334970D01*
X242221545Y-54263905D01*
X242228824Y-54190000D01*
X242228824Y-53969000D01*
X242672347Y-53969000D01*
X242697000Y-53971428D01*
X242721653Y-53969000D01*
X242795409Y-53961736D01*
X242890036Y-53933031D01*
X242977245Y-53886417D01*
X243053684Y-53823684D01*
X243116417Y-53747245D01*
X243159000Y-53667577D01*
X243159000Y-54716000D01*
X235338579Y-54716000D01*
X235542747Y-54511832D01*
X235562097Y-54519847D01*
X235799151Y-54567000D01*
X236040849Y-54567000D01*
X236277903Y-54519847D01*
X236501202Y-54427353D01*
X236702167Y-54293073D01*
X236873073Y-54122167D01*
X237007353Y-53921202D01*
X237099847Y-53697903D01*
X237147000Y-53460849D01*
X237147000Y-53219151D01*
X237233000Y-53219151D01*
X237233000Y-53460849D01*
X237280153Y-53697903D01*
X237372647Y-53921202D01*
X237506927Y-54122167D01*
X237677833Y-54293073D01*
X237878798Y-54427353D01*
X238102097Y-54519847D01*
X238339151Y-54567000D01*
X238580849Y-54567000D01*
X238817903Y-54519847D01*
X239041202Y-54427353D01*
X239242167Y-54293073D01*
X239413073Y-54122167D01*
X239547353Y-53921202D01*
X239639847Y-53697903D01*
X239687000Y-53460849D01*
X239687000Y-53219151D01*
X239639847Y-52982097D01*
X239547353Y-52758798D01*
X239413073Y-52557833D01*
X239242167Y-52386927D01*
X239041202Y-52252647D01*
X238817903Y-52160153D01*
X238580849Y-52113000D01*
X238339151Y-52113000D01*
X238102097Y-52160153D01*
X237878798Y-52252647D01*
X237677833Y-52386927D01*
X237506927Y-52557833D01*
X237372647Y-52758798D01*
X237280153Y-52982097D01*
X237233000Y-53219151D01*
X237147000Y-53219151D01*
X237099847Y-52982097D01*
X237007353Y-52758798D01*
X236873073Y-52557833D01*
X236702167Y-52386927D01*
X236501202Y-52252647D01*
X236277903Y-52160153D01*
X236040849Y-52113000D01*
X235799151Y-52113000D01*
X235562097Y-52160153D01*
X235338798Y-52252647D01*
X235137833Y-52386927D01*
X234966927Y-52557833D01*
X234832647Y-52758798D01*
X234740153Y-52982097D01*
X234693000Y-53219151D01*
X234693000Y-53460849D01*
X234740153Y-53697903D01*
X234818463Y-53886958D01*
X234572420Y-54133001D01*
X234322239Y-54133001D01*
X234333073Y-54122167D01*
X234467353Y-53921202D01*
X234559847Y-53697903D01*
X234607000Y-53460849D01*
X234607000Y-53219151D01*
X234559847Y-52982097D01*
X234467353Y-52758798D01*
X234333073Y-52557833D01*
X234162167Y-52386927D01*
X233961202Y-52252647D01*
X233783428Y-52179010D01*
X234568665Y-52179010D01*
X234592080Y-52181316D01*
X234615495Y-52179010D01*
X234615503Y-52179010D01*
X234685588Y-52172107D01*
X234775503Y-52144832D01*
X234858369Y-52100539D01*
X234931001Y-52040931D01*
X234945935Y-52022734D01*
X234992512Y-51976157D01*
X235014109Y-51980453D01*
X235167165Y-51980453D01*
X235317280Y-51950594D01*
X235458685Y-51892022D01*
X235585946Y-51806989D01*
X235694173Y-51698762D01*
X235779206Y-51571501D01*
X235837778Y-51430096D01*
X235867637Y-51279981D01*
X235867637Y-51126925D01*
X235837778Y-50976810D01*
X235779206Y-50835405D01*
X235753427Y-50796824D01*
X236177245Y-50796824D01*
X236336296Y-50955875D01*
X236332000Y-50977472D01*
X236332000Y-51130528D01*
X236361859Y-51280643D01*
X236420431Y-51422048D01*
X236505464Y-51549309D01*
X236613691Y-51657536D01*
X236740952Y-51742569D01*
X236882357Y-51801141D01*
X237032472Y-51831000D01*
X237185528Y-51831000D01*
X237335643Y-51801141D01*
X237477048Y-51742569D01*
X237604309Y-51657536D01*
X237712536Y-51549309D01*
X237797569Y-51422048D01*
X237856141Y-51280643D01*
X237886000Y-51130528D01*
X237886000Y-50977472D01*
X237856141Y-50827357D01*
X237797569Y-50685952D01*
X237712536Y-50558691D01*
X237604309Y-50450464D01*
X237477048Y-50365431D01*
X237335643Y-50306859D01*
X237260940Y-50292000D01*
X237335643Y-50277141D01*
X237477048Y-50218569D01*
X237604309Y-50133536D01*
X237712536Y-50025309D01*
X237797569Y-49898048D01*
X237856141Y-49756643D01*
X237886000Y-49606528D01*
X237886000Y-49453472D01*
X237856141Y-49303357D01*
X237797569Y-49161952D01*
X237712536Y-49034691D01*
X237604309Y-48926464D01*
X237477048Y-48841431D01*
X237453072Y-48831500D01*
X237477048Y-48821569D01*
X237604309Y-48736536D01*
X237712536Y-48628309D01*
X237797569Y-48501048D01*
X237856141Y-48359643D01*
X237886000Y-48209528D01*
X237886000Y-48056472D01*
X237856141Y-47906357D01*
X237797569Y-47764952D01*
X237712536Y-47637691D01*
X237604309Y-47529464D01*
X237477048Y-47444431D01*
X237380299Y-47404356D01*
X237477309Y-47339536D01*
X237585536Y-47231309D01*
X237670569Y-47104048D01*
X237729141Y-46962643D01*
X237759000Y-46812528D01*
X237759000Y-46659472D01*
X237729141Y-46509357D01*
X237670569Y-46367952D01*
X237585536Y-46240691D01*
X237477309Y-46132464D01*
X237350048Y-46047431D01*
X237208643Y-45988859D01*
X237058528Y-45959000D01*
X236905472Y-45959000D01*
X236883875Y-45963296D01*
X236827855Y-45907276D01*
X236812921Y-45889079D01*
X236763824Y-45848786D01*
X236763824Y-45848000D01*
X236761276Y-45822127D01*
X236842309Y-45767982D01*
X236950536Y-45659755D01*
X237035569Y-45532494D01*
X237094141Y-45391089D01*
X237124000Y-45240974D01*
X237124000Y-45158581D01*
X237692158Y-45726740D01*
X237707088Y-45744932D01*
X237725279Y-45759861D01*
X237725281Y-45759863D01*
X237733644Y-45766726D01*
X237779720Y-45804540D01*
X237862586Y-45848833D01*
X237952501Y-45876108D01*
X238022586Y-45883011D01*
X238022593Y-45883011D01*
X238046008Y-45885317D01*
X238069423Y-45883011D01*
X239685574Y-45883011D01*
X239708989Y-45885317D01*
X239732404Y-45883011D01*
X239732412Y-45883011D01*
X239802497Y-45876108D01*
X239892412Y-45848833D01*
X239975278Y-45804540D01*
X240047910Y-45744932D01*
X240062844Y-45726735D01*
X240369739Y-45419841D01*
X240387931Y-45404911D01*
X240447539Y-45332279D01*
X240483495Y-45265011D01*
X241016274Y-45265011D01*
X241039689Y-45267317D01*
X241063104Y-45265011D01*
X241063112Y-45265011D01*
X241133197Y-45258108D01*
X241223112Y-45230833D01*
X241305978Y-45186540D01*
X241378610Y-45126932D01*
X241393544Y-45108735D01*
X241500445Y-45001834D01*
X241505766Y-45005389D01*
G37*
%TD.AperFunction*%
D27*
X218991462Y-51548401D02*
X219009600Y-51570502D01*
X219035560Y-51602134D01*
X219051070Y-51621033D01*
X219069261Y-51635962D01*
X219329033Y-51895734D01*
X219343967Y-51913931D01*
X219416599Y-51973539D01*
X219499465Y-52017832D01*
X219557736Y-52035508D01*
X219589379Y-52045107D01*
X219598226Y-52045978D01*
X219659465Y-52052010D01*
X219659472Y-52052010D01*
X219682887Y-52054316D01*
X219706302Y-52052010D01*
X220946934Y-52052010D01*
X220954255Y-52060931D01*
X221026887Y-52120539D01*
X221109753Y-52164832D01*
X221172102Y-52183745D01*
X221199667Y-52192107D01*
X221204592Y-52192592D01*
X221269753Y-52199010D01*
X221269760Y-52199010D01*
X221293175Y-52201316D01*
X221316590Y-52199010D01*
X222768288Y-52199010D01*
X222638798Y-52252647D01*
X222437833Y-52386927D01*
X222266927Y-52557833D01*
X222132647Y-52758798D01*
X222040153Y-52982097D01*
X221993000Y-53219151D01*
X221993000Y-53460849D01*
X222040153Y-53697903D01*
X222132647Y-53921202D01*
X222266927Y-54122167D01*
X222277761Y-54133001D01*
X221622239Y-54133001D01*
X221633073Y-54122167D01*
X221767353Y-53921202D01*
X221859847Y-53697903D01*
X221907000Y-53460849D01*
X221907000Y-53219151D01*
X221859847Y-52982097D01*
X221767353Y-52758798D01*
X221633073Y-52557833D01*
X221462167Y-52386927D01*
X221261202Y-52252647D01*
X221037903Y-52160153D01*
X220800849Y-52113000D01*
X220559151Y-52113000D01*
X220322097Y-52160153D01*
X220098798Y-52252647D01*
X219897833Y-52386927D01*
X219726927Y-52557833D01*
X219592647Y-52758798D01*
X219543769Y-52876798D01*
X219484157Y-52708748D01*
X219335178Y-52458645D01*
X219140269Y-52242412D01*
X218906920Y-52068359D01*
X218644099Y-51943175D01*
X218496890Y-51898524D01*
X218267000Y-52019845D01*
X218267000Y-53213000D01*
X218287000Y-53213000D01*
X218287000Y-53467000D01*
X218267000Y-53467000D01*
X218267000Y-53487000D01*
X218013000Y-53487000D01*
X218013000Y-53467000D01*
X217993000Y-53467000D01*
X217993000Y-53213000D01*
X218013000Y-53213000D01*
X218013000Y-52019845D01*
X217783110Y-51898524D01*
X217653821Y-51937740D01*
X217901268Y-51690293D01*
X217920414Y-51674580D01*
X217936167Y-51655386D01*
X217980390Y-51601500D01*
X217983147Y-51598141D01*
X217986170Y-51592486D01*
X218018494Y-51609764D01*
X218127077Y-51642702D01*
X218240000Y-51653824D01*
X218640000Y-51653824D01*
X218752923Y-51642702D01*
X218861506Y-51609764D01*
X218961577Y-51556275D01*
X218985275Y-51536826D01*
X218991462Y-51548401D01*
%TA.AperFunction,Conductor*%
D28*
G36*
X218991462Y-51548401D02*
G01*
X219009600Y-51570502D01*
X219035560Y-51602134D01*
X219051070Y-51621033D01*
X219069261Y-51635962D01*
X219329033Y-51895734D01*
X219343967Y-51913931D01*
X219416599Y-51973539D01*
X219499465Y-52017832D01*
X219557736Y-52035508D01*
X219589379Y-52045107D01*
X219598226Y-52045978D01*
X219659465Y-52052010D01*
X219659472Y-52052010D01*
X219682887Y-52054316D01*
X219706302Y-52052010D01*
X220946934Y-52052010D01*
X220954255Y-52060931D01*
X221026887Y-52120539D01*
X221109753Y-52164832D01*
X221172102Y-52183745D01*
X221199667Y-52192107D01*
X221204592Y-52192592D01*
X221269753Y-52199010D01*
X221269760Y-52199010D01*
X221293175Y-52201316D01*
X221316590Y-52199010D01*
X222768288Y-52199010D01*
X222638798Y-52252647D01*
X222437833Y-52386927D01*
X222266927Y-52557833D01*
X222132647Y-52758798D01*
X222040153Y-52982097D01*
X221993000Y-53219151D01*
X221993000Y-53460849D01*
X222040153Y-53697903D01*
X222132647Y-53921202D01*
X222266927Y-54122167D01*
X222277761Y-54133001D01*
X221622239Y-54133001D01*
X221633073Y-54122167D01*
X221767353Y-53921202D01*
X221859847Y-53697903D01*
X221907000Y-53460849D01*
X221907000Y-53219151D01*
X221859847Y-52982097D01*
X221767353Y-52758798D01*
X221633073Y-52557833D01*
X221462167Y-52386927D01*
X221261202Y-52252647D01*
X221037903Y-52160153D01*
X220800849Y-52113000D01*
X220559151Y-52113000D01*
X220322097Y-52160153D01*
X220098798Y-52252647D01*
X219897833Y-52386927D01*
X219726927Y-52557833D01*
X219592647Y-52758798D01*
X219543769Y-52876798D01*
X219484157Y-52708748D01*
X219335178Y-52458645D01*
X219140269Y-52242412D01*
X218906920Y-52068359D01*
X218644099Y-51943175D01*
X218496890Y-51898524D01*
X218267000Y-52019845D01*
X218267000Y-53213000D01*
X218287000Y-53213000D01*
X218287000Y-53467000D01*
X218267000Y-53467000D01*
X218267000Y-53487000D01*
X218013000Y-53487000D01*
X218013000Y-53467000D01*
X217993000Y-53467000D01*
X217993000Y-53213000D01*
X218013000Y-53213000D01*
X218013000Y-52019845D01*
X217783110Y-51898524D01*
X217653821Y-51937740D01*
X217901268Y-51690293D01*
X217920414Y-51674580D01*
X217936167Y-51655386D01*
X217980390Y-51601500D01*
X217983147Y-51598141D01*
X217986170Y-51592486D01*
X218018494Y-51609764D01*
X218127077Y-51642702D01*
X218240000Y-51653824D01*
X218640000Y-51653824D01*
X218752923Y-51642702D01*
X218861506Y-51609764D01*
X218961577Y-51556275D01*
X218985275Y-51536826D01*
X218991462Y-51548401D01*
G37*
%TD.AperFunction*%
D27*
X225950256Y-34366838D02*
X225965186Y-34385030D01*
X225983377Y-34399959D01*
X225983379Y-34399961D01*
X226031125Y-34439145D01*
X226037818Y-34444638D01*
X226120684Y-34488931D01*
X226210599Y-34516206D01*
X226280684Y-34523109D01*
X226280692Y-34523109D01*
X226304107Y-34525415D01*
X226327522Y-34523109D01*
X226952694Y-34523109D01*
X226976109Y-34525415D01*
X226999524Y-34523109D01*
X226999532Y-34523109D01*
X227069617Y-34516206D01*
X227120948Y-34500635D01*
X227095434Y-34628905D01*
X227095434Y-34781961D01*
X227113378Y-34872176D01*
X227100878Y-34913385D01*
X227091669Y-35006892D01*
X227093976Y-35030317D01*
X227093975Y-36328205D01*
X227075666Y-36340439D01*
X226967439Y-36448666D01*
X226882406Y-36575927D01*
X226823834Y-36717332D01*
X226793975Y-36867447D01*
X226793975Y-37020503D01*
X226823834Y-37170618D01*
X226882406Y-37312023D01*
X226967439Y-37439284D01*
X227075666Y-37547511D01*
X227202927Y-37632544D01*
X227344332Y-37691116D01*
X227494447Y-37720975D01*
X227647503Y-37720975D01*
X227797618Y-37691116D01*
X227939023Y-37632544D01*
X228066284Y-37547511D01*
X228174511Y-37439284D01*
X228259544Y-37312023D01*
X228318116Y-37170618D01*
X228347975Y-37020503D01*
X228347975Y-36867447D01*
X228318116Y-36717332D01*
X228259544Y-36575927D01*
X228174511Y-36448666D01*
X228066284Y-36340439D01*
X228047975Y-36328205D01*
X228047975Y-35462739D01*
X228099077Y-35452574D01*
X228240482Y-35394002D01*
X228367743Y-35308969D01*
X228475970Y-35200742D01*
X228561003Y-35073481D01*
X228619575Y-34932076D01*
X228649434Y-34781961D01*
X228649434Y-34628905D01*
X228619575Y-34478790D01*
X228561003Y-34337385D01*
X228475970Y-34210124D01*
X228467681Y-34201835D01*
X228528049Y-34220147D01*
X228598134Y-34227050D01*
X228598142Y-34227050D01*
X228621557Y-34229356D01*
X228644972Y-34227050D01*
X229453595Y-34227050D01*
X229373431Y-34347024D01*
X229314859Y-34488429D01*
X229285000Y-34638544D01*
X229285000Y-34791600D01*
X229314859Y-34941715D01*
X229373431Y-35083120D01*
X229458464Y-35210381D01*
X229566691Y-35318608D01*
X229693952Y-35403641D01*
X229835357Y-35462213D01*
X229985472Y-35492072D01*
X230138528Y-35492072D01*
X230288643Y-35462213D01*
X230430048Y-35403641D01*
X230557309Y-35318608D01*
X230665536Y-35210381D01*
X230677770Y-35192072D01*
X231225417Y-35192072D01*
X231225418Y-36202176D01*
X231111000Y-36202176D01*
X231037095Y-36209455D01*
X230966030Y-36231012D01*
X230900537Y-36266019D01*
X230843131Y-36313131D01*
X230796019Y-36370537D01*
X230761012Y-36436030D01*
X230739455Y-36507095D01*
X230732176Y-36581000D01*
X230732176Y-36643685D01*
X230604643Y-36590859D01*
X230454528Y-36561000D01*
X230301472Y-36561000D01*
X230151357Y-36590859D01*
X230009952Y-36649431D01*
X229882691Y-36734464D01*
X229774464Y-36842691D01*
X229689431Y-36969952D01*
X229630859Y-37111357D01*
X229601000Y-37261472D01*
X229601000Y-37414528D01*
X229612916Y-37474434D01*
X229583100Y-37504250D01*
X229583100Y-38163500D01*
X229603100Y-38163500D01*
X229603100Y-38417500D01*
X229583100Y-38417500D01*
X229583100Y-39060199D01*
X229574876Y-39143700D01*
X229574876Y-39423700D01*
X229577576Y-39451110D01*
X229504587Y-39510453D01*
X229424792Y-39606779D01*
X229365323Y-39716822D01*
X229328465Y-39836352D01*
X229318700Y-39957950D01*
X229477450Y-40116700D01*
X230136700Y-40116700D01*
X230136700Y-40096700D01*
X230390700Y-40096700D01*
X230390700Y-40116700D01*
X230410700Y-40116700D01*
X230410700Y-40370700D01*
X230390700Y-40370700D01*
X230390700Y-40999950D01*
X230549450Y-41158700D01*
X230570777Y-41161765D01*
X230695313Y-41150075D01*
X230732949Y-41138846D01*
X230739455Y-41204905D01*
X230754954Y-41256000D01*
X230739455Y-41307095D01*
X230736083Y-41341336D01*
X230490270Y-41587149D01*
X230472079Y-41602078D01*
X230457150Y-41620269D01*
X230457147Y-41620272D01*
X230443181Y-41637290D01*
X230412471Y-41674710D01*
X230390915Y-41715039D01*
X230368177Y-41757577D01*
X230340902Y-41847492D01*
X230331693Y-41940999D01*
X230334000Y-41964424D01*
X230333999Y-42947586D01*
X230331693Y-42971001D01*
X230333999Y-42994416D01*
X230333999Y-42994423D01*
X230340902Y-43064508D01*
X230368177Y-43154423D01*
X230412470Y-43237290D01*
X230472078Y-43309922D01*
X230490275Y-43324856D01*
X230647133Y-43481714D01*
X230662067Y-43499911D01*
X230734699Y-43559519D01*
X230811550Y-43600597D01*
X230738498Y-43709928D01*
X230679926Y-43851333D01*
X230650067Y-44001448D01*
X230650067Y-44154504D01*
X230679926Y-44304619D01*
X230738498Y-44446024D01*
X230823531Y-44573285D01*
X230931758Y-44681512D01*
X231059019Y-44766545D01*
X231141097Y-44800543D01*
X231125000Y-44881472D01*
X231125000Y-45034528D01*
X231150033Y-45160381D01*
X231025691Y-45243464D01*
X230917464Y-45351691D01*
X230832431Y-45478952D01*
X230773859Y-45620357D01*
X230744000Y-45770472D01*
X230744000Y-45923528D01*
X230773859Y-46073643D01*
X230832431Y-46215048D01*
X230917464Y-46342309D01*
X231025691Y-46450536D01*
X231152952Y-46535569D01*
X231294357Y-46594141D01*
X231378176Y-46610813D01*
X231378176Y-46840245D01*
X231148961Y-47069460D01*
X231130770Y-47084389D01*
X231115841Y-47102580D01*
X231115838Y-47102583D01*
X231103186Y-47118000D01*
X231071162Y-47157021D01*
X231054829Y-47187578D01*
X231026868Y-47239888D01*
X230999593Y-47329803D01*
X230990384Y-47423310D01*
X230992691Y-47446734D01*
X230992690Y-48069732D01*
X230736251Y-48326171D01*
X230718060Y-48341100D01*
X230703131Y-48359291D01*
X230703128Y-48359294D01*
X230658452Y-48413732D01*
X230614159Y-48496598D01*
X230586883Y-48586513D01*
X230577674Y-48680021D01*
X230579981Y-48703445D01*
X230579980Y-49301044D01*
X230036252Y-49844771D01*
X230018060Y-49859701D01*
X230003131Y-49877892D01*
X230003128Y-49877895D01*
X229992300Y-49891089D01*
X229958452Y-49932333D01*
X229917768Y-50008447D01*
X229914159Y-50015199D01*
X229886883Y-50105114D01*
X229877674Y-50198622D01*
X229879981Y-50222046D01*
X229879981Y-50474219D01*
X229861671Y-50486453D01*
X229753444Y-50594680D01*
X229668411Y-50721941D01*
X229609839Y-50863346D01*
X229579980Y-51013461D01*
X229579980Y-51166517D01*
X229609114Y-51312989D01*
X229275426Y-51312989D01*
X229252011Y-51310683D01*
X229228596Y-51312989D01*
X229228588Y-51312989D01*
X229158503Y-51319892D01*
X229068588Y-51347167D01*
X228985722Y-51391460D01*
X228939891Y-51429073D01*
X228913090Y-51451068D01*
X228898160Y-51469260D01*
X228654422Y-51712999D01*
X227771414Y-51712999D01*
X227747999Y-51710693D01*
X227724584Y-51712999D01*
X227724576Y-51712999D01*
X227654491Y-51719902D01*
X227564576Y-51747177D01*
X227481710Y-51791470D01*
X227444115Y-51822324D01*
X227409078Y-51851078D01*
X227394148Y-51869270D01*
X226829270Y-52434149D01*
X226811079Y-52449078D01*
X226796150Y-52467269D01*
X226796147Y-52467272D01*
X226784636Y-52481299D01*
X226751471Y-52521710D01*
X226733650Y-52555050D01*
X226723679Y-52573705D01*
X226713073Y-52557833D01*
X226542167Y-52386927D01*
X226341202Y-52252647D01*
X226128399Y-52164501D01*
X226129856Y-52162725D01*
X226156725Y-52135856D01*
X226174922Y-52120922D01*
X226234530Y-52048290D01*
X226278823Y-51965424D01*
X226306098Y-51875509D01*
X226313001Y-51805424D01*
X226313001Y-51805416D01*
X226315307Y-51782001D01*
X226313001Y-51758586D01*
X226313001Y-51531000D01*
X226540587Y-51531000D01*
X226564002Y-51533306D01*
X226587417Y-51531000D01*
X226587425Y-51531000D01*
X226657510Y-51524097D01*
X226747425Y-51496822D01*
X226830291Y-51452529D01*
X226902923Y-51392921D01*
X226917857Y-51374724D01*
X227650729Y-50641853D01*
X227668921Y-50626923D01*
X227685301Y-50606965D01*
X227728529Y-50554291D01*
X227772822Y-50471425D01*
X227800097Y-50381510D01*
X227800915Y-50373201D01*
X227807000Y-50311425D01*
X227807000Y-50311417D01*
X227809306Y-50288002D01*
X227807000Y-50264587D01*
X227807000Y-49761681D01*
X227826506Y-49755764D01*
X227926577Y-49702275D01*
X228014290Y-49630290D01*
X228086275Y-49542577D01*
X228139764Y-49442506D01*
X228172702Y-49333923D01*
X228183824Y-49221000D01*
X228183824Y-48841756D01*
X228425739Y-48599841D01*
X228443931Y-48584911D01*
X228479400Y-48541693D01*
X228503539Y-48512279D01*
X228547832Y-48429413D01*
X228575107Y-48339498D01*
X228577661Y-48313569D01*
X228582010Y-48269413D01*
X228582010Y-48269405D01*
X228584316Y-48245990D01*
X228582010Y-48222575D01*
X228582010Y-43343424D01*
X228584316Y-43320009D01*
X228582010Y-43296594D01*
X228582010Y-43296587D01*
X228575107Y-43226502D01*
X228547832Y-43136587D01*
X228503539Y-43053721D01*
X228443931Y-42981089D01*
X228425734Y-42966155D01*
X228369767Y-42910188D01*
X228368658Y-42898931D01*
X228341383Y-42809016D01*
X228297090Y-42726150D01*
X228252413Y-42671711D01*
X228027655Y-42446954D01*
X228040275Y-42431577D01*
X228093764Y-42331506D01*
X228126702Y-42222923D01*
X228137824Y-42110000D01*
X228137824Y-41710000D01*
X228126702Y-41597077D01*
X228108648Y-41537560D01*
X228153441Y-41470523D01*
X228212013Y-41329118D01*
X228241872Y-41179003D01*
X228241872Y-41025947D01*
X228212013Y-40875832D01*
X228153441Y-40734427D01*
X228068408Y-40607166D01*
X227990692Y-40529450D01*
X229318700Y-40529450D01*
X229328465Y-40651048D01*
X229365323Y-40770578D01*
X229424792Y-40880621D01*
X229504587Y-40976947D01*
X229601641Y-41055856D01*
X229712224Y-41114314D01*
X229832087Y-41150075D01*
X229956623Y-41161765D01*
X229977950Y-41158700D01*
X230136700Y-40999950D01*
X230136700Y-40370700D01*
X229477450Y-40370700D01*
X229318700Y-40529450D01*
X227990692Y-40529450D01*
X227960181Y-40498939D01*
X227832920Y-40413906D01*
X227691515Y-40355334D01*
X227541400Y-40325475D01*
X227388344Y-40325475D01*
X227238229Y-40355334D01*
X227096824Y-40413906D01*
X226969563Y-40498939D01*
X226861336Y-40607166D01*
X226776303Y-40734427D01*
X226717731Y-40875832D01*
X226687872Y-41025947D01*
X226687872Y-41179003D01*
X226696768Y-41223730D01*
X226687423Y-41228725D01*
X226599710Y-41300710D01*
X226527725Y-41388423D01*
X226474236Y-41488494D01*
X226441298Y-41597077D01*
X226430176Y-41710000D01*
X226430176Y-42110000D01*
X226441298Y-42222923D01*
X226474236Y-42331506D01*
X226527725Y-42431577D01*
X226599710Y-42519290D01*
X226687423Y-42591275D01*
X226787494Y-42644764D01*
X226896077Y-42677702D01*
X226914481Y-42679515D01*
X226945080Y-42716799D01*
X226963271Y-42731728D01*
X227012719Y-42781176D01*
X227009000Y-42781176D01*
X226896077Y-42792298D01*
X226787494Y-42825236D01*
X226687423Y-42878725D01*
X226599710Y-42950710D01*
X226527725Y-43038423D01*
X226474236Y-43138494D01*
X226441298Y-43247077D01*
X226439217Y-43268204D01*
X226234266Y-43473155D01*
X226216069Y-43488089D01*
X226171970Y-43541824D01*
X226174072Y-42882000D01*
X226161812Y-42757518D01*
X226125502Y-42637820D01*
X226066537Y-42527506D01*
X225987185Y-42430815D01*
X225890494Y-42351463D01*
X225819540Y-42313537D01*
X225947774Y-42260420D01*
X226075035Y-42175387D01*
X226183262Y-42067160D01*
X226268295Y-41939899D01*
X226326867Y-41798494D01*
X226356726Y-41648379D01*
X226356726Y-41495323D01*
X226326867Y-41345208D01*
X226268295Y-41203803D01*
X226183262Y-41076542D01*
X226075035Y-40968315D01*
X225947774Y-40883282D01*
X225806369Y-40824710D01*
X225656254Y-40794851D01*
X225503198Y-40794851D01*
X225353083Y-40824710D01*
X225211678Y-40883282D01*
X225084417Y-40968315D01*
X224976190Y-41076542D01*
X224963956Y-41094851D01*
X222854000Y-41094851D01*
X222854000Y-38630544D01*
X222927820Y-38670002D01*
X223047518Y-38706312D01*
X223172000Y-38718572D01*
X223361250Y-38715500D01*
X223520000Y-38556750D01*
X223520000Y-37770000D01*
X223774000Y-37770000D01*
X223774000Y-38556750D01*
X223932750Y-38715500D01*
X224122000Y-38718572D01*
X224246482Y-38706312D01*
X224366180Y-38670002D01*
X224476494Y-38611037D01*
X224492895Y-38597577D01*
X228538035Y-38597577D01*
X228549725Y-38722113D01*
X228585486Y-38841976D01*
X228643944Y-38952559D01*
X228722853Y-39049613D01*
X228819179Y-39129408D01*
X228929222Y-39188877D01*
X229048752Y-39225735D01*
X229170350Y-39235500D01*
X229329100Y-39076750D01*
X229329100Y-38417500D01*
X228699850Y-38417500D01*
X228541100Y-38576250D01*
X228538035Y-38597577D01*
X224492895Y-38597577D01*
X224573185Y-38531685D01*
X224652537Y-38434994D01*
X224711502Y-38324680D01*
X224747812Y-38204982D01*
X224760072Y-38080500D01*
X224758107Y-37983423D01*
X228538035Y-37983423D01*
X228541100Y-38004750D01*
X228699850Y-38163500D01*
X229329100Y-38163500D01*
X229329100Y-37504250D01*
X229170350Y-37345500D01*
X229048752Y-37355265D01*
X228929222Y-37392123D01*
X228819179Y-37451592D01*
X228722853Y-37531387D01*
X228643944Y-37628441D01*
X228585486Y-37739024D01*
X228549725Y-37858887D01*
X228538035Y-37983423D01*
X224758107Y-37983423D01*
X224757000Y-37928750D01*
X224598250Y-37770000D01*
X223774000Y-37770000D01*
X223520000Y-37770000D01*
X223500000Y-37770000D01*
X223500000Y-37516000D01*
X223520000Y-37516000D01*
X223520000Y-37496000D01*
X223774000Y-37496000D01*
X223774000Y-37516000D01*
X224598250Y-37516000D01*
X224757000Y-37357250D01*
X224760072Y-37205500D01*
X224747812Y-37081018D01*
X224711502Y-36961320D01*
X224652537Y-36851006D01*
X224573185Y-36754315D01*
X224476494Y-36674963D01*
X224391334Y-36629443D01*
X224400115Y-36618744D01*
X224455336Y-36515432D01*
X224489342Y-36403331D01*
X224500824Y-36286750D01*
X224500824Y-35849250D01*
X224489342Y-35732669D01*
X224455336Y-35620568D01*
X224400115Y-35517256D01*
X224325799Y-35426701D01*
X224316109Y-35418749D01*
X224331290Y-35406290D01*
X224403275Y-35318577D01*
X224456764Y-35218506D01*
X224489702Y-35109923D01*
X224500824Y-34997000D01*
X224500824Y-34597000D01*
X224489702Y-34484077D01*
X224456764Y-34375494D01*
X224429245Y-34324010D01*
X224831577Y-34324010D01*
X224854992Y-34326316D01*
X224878407Y-34324010D01*
X224878415Y-34324010D01*
X224948500Y-34317107D01*
X225038415Y-34289832D01*
X225121281Y-34245539D01*
X225193913Y-34185931D01*
X225208847Y-34167734D01*
X225480000Y-33896581D01*
X225950256Y-34366838D01*
%TA.AperFunction,Conductor*%
D28*
G36*
X225950256Y-34366838D02*
G01*
X225965186Y-34385030D01*
X225983377Y-34399959D01*
X225983379Y-34399961D01*
X226031125Y-34439145D01*
X226037818Y-34444638D01*
X226120684Y-34488931D01*
X226210599Y-34516206D01*
X226280684Y-34523109D01*
X226280692Y-34523109D01*
X226304107Y-34525415D01*
X226327522Y-34523109D01*
X226952694Y-34523109D01*
X226976109Y-34525415D01*
X226999524Y-34523109D01*
X226999532Y-34523109D01*
X227069617Y-34516206D01*
X227120948Y-34500635D01*
X227095434Y-34628905D01*
X227095434Y-34781961D01*
X227113378Y-34872176D01*
X227100878Y-34913385D01*
X227091669Y-35006892D01*
X227093976Y-35030317D01*
X227093975Y-36328205D01*
X227075666Y-36340439D01*
X226967439Y-36448666D01*
X226882406Y-36575927D01*
X226823834Y-36717332D01*
X226793975Y-36867447D01*
X226793975Y-37020503D01*
X226823834Y-37170618D01*
X226882406Y-37312023D01*
X226967439Y-37439284D01*
X227075666Y-37547511D01*
X227202927Y-37632544D01*
X227344332Y-37691116D01*
X227494447Y-37720975D01*
X227647503Y-37720975D01*
X227797618Y-37691116D01*
X227939023Y-37632544D01*
X228066284Y-37547511D01*
X228174511Y-37439284D01*
X228259544Y-37312023D01*
X228318116Y-37170618D01*
X228347975Y-37020503D01*
X228347975Y-36867447D01*
X228318116Y-36717332D01*
X228259544Y-36575927D01*
X228174511Y-36448666D01*
X228066284Y-36340439D01*
X228047975Y-36328205D01*
X228047975Y-35462739D01*
X228099077Y-35452574D01*
X228240482Y-35394002D01*
X228367743Y-35308969D01*
X228475970Y-35200742D01*
X228561003Y-35073481D01*
X228619575Y-34932076D01*
X228649434Y-34781961D01*
X228649434Y-34628905D01*
X228619575Y-34478790D01*
X228561003Y-34337385D01*
X228475970Y-34210124D01*
X228467681Y-34201835D01*
X228528049Y-34220147D01*
X228598134Y-34227050D01*
X228598142Y-34227050D01*
X228621557Y-34229356D01*
X228644972Y-34227050D01*
X229453595Y-34227050D01*
X229373431Y-34347024D01*
X229314859Y-34488429D01*
X229285000Y-34638544D01*
X229285000Y-34791600D01*
X229314859Y-34941715D01*
X229373431Y-35083120D01*
X229458464Y-35210381D01*
X229566691Y-35318608D01*
X229693952Y-35403641D01*
X229835357Y-35462213D01*
X229985472Y-35492072D01*
X230138528Y-35492072D01*
X230288643Y-35462213D01*
X230430048Y-35403641D01*
X230557309Y-35318608D01*
X230665536Y-35210381D01*
X230677770Y-35192072D01*
X231225417Y-35192072D01*
X231225418Y-36202176D01*
X231111000Y-36202176D01*
X231037095Y-36209455D01*
X230966030Y-36231012D01*
X230900537Y-36266019D01*
X230843131Y-36313131D01*
X230796019Y-36370537D01*
X230761012Y-36436030D01*
X230739455Y-36507095D01*
X230732176Y-36581000D01*
X230732176Y-36643685D01*
X230604643Y-36590859D01*
X230454528Y-36561000D01*
X230301472Y-36561000D01*
X230151357Y-36590859D01*
X230009952Y-36649431D01*
X229882691Y-36734464D01*
X229774464Y-36842691D01*
X229689431Y-36969952D01*
X229630859Y-37111357D01*
X229601000Y-37261472D01*
X229601000Y-37414528D01*
X229612916Y-37474434D01*
X229583100Y-37504250D01*
X229583100Y-38163500D01*
X229603100Y-38163500D01*
X229603100Y-38417500D01*
X229583100Y-38417500D01*
X229583100Y-39060199D01*
X229574876Y-39143700D01*
X229574876Y-39423700D01*
X229577576Y-39451110D01*
X229504587Y-39510453D01*
X229424792Y-39606779D01*
X229365323Y-39716822D01*
X229328465Y-39836352D01*
X229318700Y-39957950D01*
X229477450Y-40116700D01*
X230136700Y-40116700D01*
X230136700Y-40096700D01*
X230390700Y-40096700D01*
X230390700Y-40116700D01*
X230410700Y-40116700D01*
X230410700Y-40370700D01*
X230390700Y-40370700D01*
X230390700Y-40999950D01*
X230549450Y-41158700D01*
X230570777Y-41161765D01*
X230695313Y-41150075D01*
X230732949Y-41138846D01*
X230739455Y-41204905D01*
X230754954Y-41256000D01*
X230739455Y-41307095D01*
X230736083Y-41341336D01*
X230490270Y-41587149D01*
X230472079Y-41602078D01*
X230457150Y-41620269D01*
X230457147Y-41620272D01*
X230443181Y-41637290D01*
X230412471Y-41674710D01*
X230390915Y-41715039D01*
X230368177Y-41757577D01*
X230340902Y-41847492D01*
X230331693Y-41940999D01*
X230334000Y-41964424D01*
X230333999Y-42947586D01*
X230331693Y-42971001D01*
X230333999Y-42994416D01*
X230333999Y-42994423D01*
X230340902Y-43064508D01*
X230368177Y-43154423D01*
X230412470Y-43237290D01*
X230472078Y-43309922D01*
X230490275Y-43324856D01*
X230647133Y-43481714D01*
X230662067Y-43499911D01*
X230734699Y-43559519D01*
X230811550Y-43600597D01*
X230738498Y-43709928D01*
X230679926Y-43851333D01*
X230650067Y-44001448D01*
X230650067Y-44154504D01*
X230679926Y-44304619D01*
X230738498Y-44446024D01*
X230823531Y-44573285D01*
X230931758Y-44681512D01*
X231059019Y-44766545D01*
X231141097Y-44800543D01*
X231125000Y-44881472D01*
X231125000Y-45034528D01*
X231150033Y-45160381D01*
X231025691Y-45243464D01*
X230917464Y-45351691D01*
X230832431Y-45478952D01*
X230773859Y-45620357D01*
X230744000Y-45770472D01*
X230744000Y-45923528D01*
X230773859Y-46073643D01*
X230832431Y-46215048D01*
X230917464Y-46342309D01*
X231025691Y-46450536D01*
X231152952Y-46535569D01*
X231294357Y-46594141D01*
X231378176Y-46610813D01*
X231378176Y-46840245D01*
X231148961Y-47069460D01*
X231130770Y-47084389D01*
X231115841Y-47102580D01*
X231115838Y-47102583D01*
X231103186Y-47118000D01*
X231071162Y-47157021D01*
X231054829Y-47187578D01*
X231026868Y-47239888D01*
X230999593Y-47329803D01*
X230990384Y-47423310D01*
X230992691Y-47446734D01*
X230992690Y-48069732D01*
X230736251Y-48326171D01*
X230718060Y-48341100D01*
X230703131Y-48359291D01*
X230703128Y-48359294D01*
X230658452Y-48413732D01*
X230614159Y-48496598D01*
X230586883Y-48586513D01*
X230577674Y-48680021D01*
X230579981Y-48703445D01*
X230579980Y-49301044D01*
X230036252Y-49844771D01*
X230018060Y-49859701D01*
X230003131Y-49877892D01*
X230003128Y-49877895D01*
X229992300Y-49891089D01*
X229958452Y-49932333D01*
X229917768Y-50008447D01*
X229914159Y-50015199D01*
X229886883Y-50105114D01*
X229877674Y-50198622D01*
X229879981Y-50222046D01*
X229879981Y-50474219D01*
X229861671Y-50486453D01*
X229753444Y-50594680D01*
X229668411Y-50721941D01*
X229609839Y-50863346D01*
X229579980Y-51013461D01*
X229579980Y-51166517D01*
X229609114Y-51312989D01*
X229275426Y-51312989D01*
X229252011Y-51310683D01*
X229228596Y-51312989D01*
X229228588Y-51312989D01*
X229158503Y-51319892D01*
X229068588Y-51347167D01*
X228985722Y-51391460D01*
X228939891Y-51429073D01*
X228913090Y-51451068D01*
X228898160Y-51469260D01*
X228654422Y-51712999D01*
X227771414Y-51712999D01*
X227747999Y-51710693D01*
X227724584Y-51712999D01*
X227724576Y-51712999D01*
X227654491Y-51719902D01*
X227564576Y-51747177D01*
X227481710Y-51791470D01*
X227444115Y-51822324D01*
X227409078Y-51851078D01*
X227394148Y-51869270D01*
X226829270Y-52434149D01*
X226811079Y-52449078D01*
X226796150Y-52467269D01*
X226796147Y-52467272D01*
X226784636Y-52481299D01*
X226751471Y-52521710D01*
X226733650Y-52555050D01*
X226723679Y-52573705D01*
X226713073Y-52557833D01*
X226542167Y-52386927D01*
X226341202Y-52252647D01*
X226128399Y-52164501D01*
X226129856Y-52162725D01*
X226156725Y-52135856D01*
X226174922Y-52120922D01*
X226234530Y-52048290D01*
X226278823Y-51965424D01*
X226306098Y-51875509D01*
X226313001Y-51805424D01*
X226313001Y-51805416D01*
X226315307Y-51782001D01*
X226313001Y-51758586D01*
X226313001Y-51531000D01*
X226540587Y-51531000D01*
X226564002Y-51533306D01*
X226587417Y-51531000D01*
X226587425Y-51531000D01*
X226657510Y-51524097D01*
X226747425Y-51496822D01*
X226830291Y-51452529D01*
X226902923Y-51392921D01*
X226917857Y-51374724D01*
X227650729Y-50641853D01*
X227668921Y-50626923D01*
X227685301Y-50606965D01*
X227728529Y-50554291D01*
X227772822Y-50471425D01*
X227800097Y-50381510D01*
X227800915Y-50373201D01*
X227807000Y-50311425D01*
X227807000Y-50311417D01*
X227809306Y-50288002D01*
X227807000Y-50264587D01*
X227807000Y-49761681D01*
X227826506Y-49755764D01*
X227926577Y-49702275D01*
X228014290Y-49630290D01*
X228086275Y-49542577D01*
X228139764Y-49442506D01*
X228172702Y-49333923D01*
X228183824Y-49221000D01*
X228183824Y-48841756D01*
X228425739Y-48599841D01*
X228443931Y-48584911D01*
X228479400Y-48541693D01*
X228503539Y-48512279D01*
X228547832Y-48429413D01*
X228575107Y-48339498D01*
X228577661Y-48313569D01*
X228582010Y-48269413D01*
X228582010Y-48269405D01*
X228584316Y-48245990D01*
X228582010Y-48222575D01*
X228582010Y-43343424D01*
X228584316Y-43320009D01*
X228582010Y-43296594D01*
X228582010Y-43296587D01*
X228575107Y-43226502D01*
X228547832Y-43136587D01*
X228503539Y-43053721D01*
X228443931Y-42981089D01*
X228425734Y-42966155D01*
X228369767Y-42910188D01*
X228368658Y-42898931D01*
X228341383Y-42809016D01*
X228297090Y-42726150D01*
X228252413Y-42671711D01*
X228027655Y-42446954D01*
X228040275Y-42431577D01*
X228093764Y-42331506D01*
X228126702Y-42222923D01*
X228137824Y-42110000D01*
X228137824Y-41710000D01*
X228126702Y-41597077D01*
X228108648Y-41537560D01*
X228153441Y-41470523D01*
X228212013Y-41329118D01*
X228241872Y-41179003D01*
X228241872Y-41025947D01*
X228212013Y-40875832D01*
X228153441Y-40734427D01*
X228068408Y-40607166D01*
X227990692Y-40529450D01*
X229318700Y-40529450D01*
X229328465Y-40651048D01*
X229365323Y-40770578D01*
X229424792Y-40880621D01*
X229504587Y-40976947D01*
X229601641Y-41055856D01*
X229712224Y-41114314D01*
X229832087Y-41150075D01*
X229956623Y-41161765D01*
X229977950Y-41158700D01*
X230136700Y-40999950D01*
X230136700Y-40370700D01*
X229477450Y-40370700D01*
X229318700Y-40529450D01*
X227990692Y-40529450D01*
X227960181Y-40498939D01*
X227832920Y-40413906D01*
X227691515Y-40355334D01*
X227541400Y-40325475D01*
X227388344Y-40325475D01*
X227238229Y-40355334D01*
X227096824Y-40413906D01*
X226969563Y-40498939D01*
X226861336Y-40607166D01*
X226776303Y-40734427D01*
X226717731Y-40875832D01*
X226687872Y-41025947D01*
X226687872Y-41179003D01*
X226696768Y-41223730D01*
X226687423Y-41228725D01*
X226599710Y-41300710D01*
X226527725Y-41388423D01*
X226474236Y-41488494D01*
X226441298Y-41597077D01*
X226430176Y-41710000D01*
X226430176Y-42110000D01*
X226441298Y-42222923D01*
X226474236Y-42331506D01*
X226527725Y-42431577D01*
X226599710Y-42519290D01*
X226687423Y-42591275D01*
X226787494Y-42644764D01*
X226896077Y-42677702D01*
X226914481Y-42679515D01*
X226945080Y-42716799D01*
X226963271Y-42731728D01*
X227012719Y-42781176D01*
X227009000Y-42781176D01*
X226896077Y-42792298D01*
X226787494Y-42825236D01*
X226687423Y-42878725D01*
X226599710Y-42950710D01*
X226527725Y-43038423D01*
X226474236Y-43138494D01*
X226441298Y-43247077D01*
X226439217Y-43268204D01*
X226234266Y-43473155D01*
X226216069Y-43488089D01*
X226171970Y-43541824D01*
X226174072Y-42882000D01*
X226161812Y-42757518D01*
X226125502Y-42637820D01*
X226066537Y-42527506D01*
X225987185Y-42430815D01*
X225890494Y-42351463D01*
X225819540Y-42313537D01*
X225947774Y-42260420D01*
X226075035Y-42175387D01*
X226183262Y-42067160D01*
X226268295Y-41939899D01*
X226326867Y-41798494D01*
X226356726Y-41648379D01*
X226356726Y-41495323D01*
X226326867Y-41345208D01*
X226268295Y-41203803D01*
X226183262Y-41076542D01*
X226075035Y-40968315D01*
X225947774Y-40883282D01*
X225806369Y-40824710D01*
X225656254Y-40794851D01*
X225503198Y-40794851D01*
X225353083Y-40824710D01*
X225211678Y-40883282D01*
X225084417Y-40968315D01*
X224976190Y-41076542D01*
X224963956Y-41094851D01*
X222854000Y-41094851D01*
X222854000Y-38630544D01*
X222927820Y-38670002D01*
X223047518Y-38706312D01*
X223172000Y-38718572D01*
X223361250Y-38715500D01*
X223520000Y-38556750D01*
X223520000Y-37770000D01*
X223774000Y-37770000D01*
X223774000Y-38556750D01*
X223932750Y-38715500D01*
X224122000Y-38718572D01*
X224246482Y-38706312D01*
X224366180Y-38670002D01*
X224476494Y-38611037D01*
X224492895Y-38597577D01*
X228538035Y-38597577D01*
X228549725Y-38722113D01*
X228585486Y-38841976D01*
X228643944Y-38952559D01*
X228722853Y-39049613D01*
X228819179Y-39129408D01*
X228929222Y-39188877D01*
X229048752Y-39225735D01*
X229170350Y-39235500D01*
X229329100Y-39076750D01*
X229329100Y-38417500D01*
X228699850Y-38417500D01*
X228541100Y-38576250D01*
X228538035Y-38597577D01*
X224492895Y-38597577D01*
X224573185Y-38531685D01*
X224652537Y-38434994D01*
X224711502Y-38324680D01*
X224747812Y-38204982D01*
X224760072Y-38080500D01*
X224758107Y-37983423D01*
X228538035Y-37983423D01*
X228541100Y-38004750D01*
X228699850Y-38163500D01*
X229329100Y-38163500D01*
X229329100Y-37504250D01*
X229170350Y-37345500D01*
X229048752Y-37355265D01*
X228929222Y-37392123D01*
X228819179Y-37451592D01*
X228722853Y-37531387D01*
X228643944Y-37628441D01*
X228585486Y-37739024D01*
X228549725Y-37858887D01*
X228538035Y-37983423D01*
X224758107Y-37983423D01*
X224757000Y-37928750D01*
X224598250Y-37770000D01*
X223774000Y-37770000D01*
X223520000Y-37770000D01*
X223500000Y-37770000D01*
X223500000Y-37516000D01*
X223520000Y-37516000D01*
X223520000Y-37496000D01*
X223774000Y-37496000D01*
X223774000Y-37516000D01*
X224598250Y-37516000D01*
X224757000Y-37357250D01*
X224760072Y-37205500D01*
X224747812Y-37081018D01*
X224711502Y-36961320D01*
X224652537Y-36851006D01*
X224573185Y-36754315D01*
X224476494Y-36674963D01*
X224391334Y-36629443D01*
X224400115Y-36618744D01*
X224455336Y-36515432D01*
X224489342Y-36403331D01*
X224500824Y-36286750D01*
X224500824Y-35849250D01*
X224489342Y-35732669D01*
X224455336Y-35620568D01*
X224400115Y-35517256D01*
X224325799Y-35426701D01*
X224316109Y-35418749D01*
X224331290Y-35406290D01*
X224403275Y-35318577D01*
X224456764Y-35218506D01*
X224489702Y-35109923D01*
X224500824Y-34997000D01*
X224500824Y-34597000D01*
X224489702Y-34484077D01*
X224456764Y-34375494D01*
X224429245Y-34324010D01*
X224831577Y-34324010D01*
X224854992Y-34326316D01*
X224878407Y-34324010D01*
X224878415Y-34324010D01*
X224948500Y-34317107D01*
X225038415Y-34289832D01*
X225121281Y-34245539D01*
X225193913Y-34185931D01*
X225208847Y-34167734D01*
X225480000Y-33896581D01*
X225950256Y-34366838D01*
G37*
%TD.AperFunction*%
D27*
X215328614Y-51512243D02*
X215393136Y-51590864D01*
X215471757Y-51655386D01*
X215561455Y-51703331D01*
X215639728Y-51727075D01*
X215633317Y-51732336D01*
X215570584Y-51808775D01*
X215523970Y-51895984D01*
X215495265Y-51990611D01*
X215485958Y-52085109D01*
X215452832Y-52118235D01*
X215242097Y-52160153D01*
X215072589Y-52230366D01*
X215090927Y-52169913D01*
X215098158Y-52096492D01*
X215103033Y-52047000D01*
X215100000Y-52016206D01*
X215100000Y-51743235D01*
X215156976Y-51696476D01*
X215234401Y-51602134D01*
X215291933Y-51494499D01*
X215301779Y-51462040D01*
X215328614Y-51512243D01*
%TA.AperFunction,Conductor*%
D28*
G36*
X215328614Y-51512243D02*
G01*
X215393136Y-51590864D01*
X215471757Y-51655386D01*
X215561455Y-51703331D01*
X215639728Y-51727075D01*
X215633317Y-51732336D01*
X215570584Y-51808775D01*
X215523970Y-51895984D01*
X215495265Y-51990611D01*
X215485958Y-52085109D01*
X215452832Y-52118235D01*
X215242097Y-52160153D01*
X215072589Y-52230366D01*
X215090927Y-52169913D01*
X215098158Y-52096492D01*
X215103033Y-52047000D01*
X215100000Y-52016206D01*
X215100000Y-51743235D01*
X215156976Y-51696476D01*
X215234401Y-51602134D01*
X215291933Y-51494499D01*
X215301779Y-51462040D01*
X215328614Y-51512243D01*
G37*
%TD.AperFunction*%
D27*
X211031144Y-49031746D02*
X211046069Y-49049932D01*
X211064255Y-49064857D01*
X211064261Y-49064863D01*
X211118700Y-49109540D01*
X211201566Y-49153833D01*
X211291481Y-49181108D01*
X211299865Y-49181934D01*
X211308000Y-49182735D01*
X211308000Y-50106195D01*
X211304966Y-50136999D01*
X211317072Y-50259911D01*
X211346755Y-50357762D01*
X211352925Y-50378102D01*
X211411147Y-50487027D01*
X211489499Y-50582500D01*
X211513421Y-50602132D01*
X211731676Y-50820387D01*
X211731676Y-51256250D01*
X211735483Y-51294903D01*
X210148848Y-49708269D01*
X210147097Y-49690492D01*
X210119822Y-49600577D01*
X210075529Y-49517711D01*
X210015921Y-49445079D01*
X209943289Y-49385471D01*
X209860423Y-49341178D01*
X209770508Y-49313903D01*
X209700423Y-49307000D01*
X209573415Y-49307000D01*
X209550000Y-49304694D01*
X209526585Y-49307000D01*
X208951084Y-49307000D01*
X209088424Y-49169660D01*
X209244591Y-48935938D01*
X209326995Y-48737000D01*
X210736399Y-48737000D01*
X211031144Y-49031746D01*
%TA.AperFunction,Conductor*%
D28*
G36*
X211031144Y-49031746D02*
G01*
X211046069Y-49049932D01*
X211064255Y-49064857D01*
X211064261Y-49064863D01*
X211118700Y-49109540D01*
X211201566Y-49153833D01*
X211291481Y-49181108D01*
X211299865Y-49181934D01*
X211308000Y-49182735D01*
X211308000Y-50106195D01*
X211304966Y-50136999D01*
X211317072Y-50259911D01*
X211346755Y-50357762D01*
X211352925Y-50378102D01*
X211411147Y-50487027D01*
X211489499Y-50582500D01*
X211513421Y-50602132D01*
X211731676Y-50820387D01*
X211731676Y-51256250D01*
X211735483Y-51294903D01*
X210148848Y-49708269D01*
X210147097Y-49690492D01*
X210119822Y-49600577D01*
X210075529Y-49517711D01*
X210015921Y-49445079D01*
X209943289Y-49385471D01*
X209860423Y-49341178D01*
X209770508Y-49313903D01*
X209700423Y-49307000D01*
X209573415Y-49307000D01*
X209550000Y-49304694D01*
X209526585Y-49307000D01*
X208951084Y-49307000D01*
X209088424Y-49169660D01*
X209244591Y-48935938D01*
X209326995Y-48737000D01*
X210736399Y-48737000D01*
X211031144Y-49031746D01*
G37*
%TD.AperFunction*%
D27*
X214860148Y-48645728D02*
X214875080Y-48663922D01*
X214893271Y-48678851D01*
X214893273Y-48678853D01*
X214905049Y-48688517D01*
X214947712Y-48723530D01*
X215030578Y-48767823D01*
X215083860Y-48783986D01*
X215077000Y-48818472D01*
X215077000Y-48971528D01*
X215106859Y-49121643D01*
X215165431Y-49263048D01*
X215250464Y-49390309D01*
X215358691Y-49498536D01*
X215485952Y-49583569D01*
X215627357Y-49642141D01*
X215777472Y-49672000D01*
X215930528Y-49672000D01*
X216080643Y-49642141D01*
X216222048Y-49583569D01*
X216349309Y-49498536D01*
X216457536Y-49390309D01*
X216467940Y-49374738D01*
X217207129Y-50113929D01*
X217145750Y-50109000D01*
X216987000Y-50267750D01*
X216987000Y-50927000D01*
X217007000Y-50927000D01*
X217007000Y-51164692D01*
X216990692Y-51181000D01*
X216987000Y-51181000D01*
X216987000Y-51184692D01*
X216984682Y-51187010D01*
X216822959Y-51187010D01*
X216798314Y-51184583D01*
X216773668Y-51187010D01*
X216773661Y-51187010D01*
X216733000Y-51191015D01*
X216733000Y-51181000D01*
X216713000Y-51181000D01*
X216713000Y-50927000D01*
X216733000Y-50927000D01*
X216733000Y-50267750D01*
X216574250Y-50109000D01*
X216452652Y-50118765D01*
X216333122Y-50155623D01*
X216223079Y-50215092D01*
X216126753Y-50294887D01*
X216083575Y-50347994D01*
X215996028Y-50276147D01*
X215887103Y-50217925D01*
X215768913Y-50182073D01*
X215676794Y-50173000D01*
X215646000Y-50169967D01*
X215615206Y-50173000D01*
X215312409Y-50173000D01*
X215291933Y-50105501D01*
X215234401Y-49997866D01*
X215156976Y-49903524D01*
X215062634Y-49826099D01*
X214954999Y-49768567D01*
X214838208Y-49733139D01*
X214718738Y-49721372D01*
X214734988Y-49690970D01*
X214756545Y-49619905D01*
X214763824Y-49546000D01*
X214763824Y-48549404D01*
X214860148Y-48645728D01*
%TA.AperFunction,Conductor*%
D28*
G36*
X214860148Y-48645728D02*
G01*
X214875080Y-48663922D01*
X214893271Y-48678851D01*
X214893273Y-48678853D01*
X214905049Y-48688517D01*
X214947712Y-48723530D01*
X215030578Y-48767823D01*
X215083860Y-48783986D01*
X215077000Y-48818472D01*
X215077000Y-48971528D01*
X215106859Y-49121643D01*
X215165431Y-49263048D01*
X215250464Y-49390309D01*
X215358691Y-49498536D01*
X215485952Y-49583569D01*
X215627357Y-49642141D01*
X215777472Y-49672000D01*
X215930528Y-49672000D01*
X216080643Y-49642141D01*
X216222048Y-49583569D01*
X216349309Y-49498536D01*
X216457536Y-49390309D01*
X216467940Y-49374738D01*
X217207129Y-50113929D01*
X217145750Y-50109000D01*
X216987000Y-50267750D01*
X216987000Y-50927000D01*
X217007000Y-50927000D01*
X217007000Y-51164692D01*
X216990692Y-51181000D01*
X216987000Y-51181000D01*
X216987000Y-51184692D01*
X216984682Y-51187010D01*
X216822959Y-51187010D01*
X216798314Y-51184583D01*
X216773668Y-51187010D01*
X216773661Y-51187010D01*
X216733000Y-51191015D01*
X216733000Y-51181000D01*
X216713000Y-51181000D01*
X216713000Y-50927000D01*
X216733000Y-50927000D01*
X216733000Y-50267750D01*
X216574250Y-50109000D01*
X216452652Y-50118765D01*
X216333122Y-50155623D01*
X216223079Y-50215092D01*
X216126753Y-50294887D01*
X216083575Y-50347994D01*
X215996028Y-50276147D01*
X215887103Y-50217925D01*
X215768913Y-50182073D01*
X215676794Y-50173000D01*
X215646000Y-50169967D01*
X215615206Y-50173000D01*
X215312409Y-50173000D01*
X215291933Y-50105501D01*
X215234401Y-49997866D01*
X215156976Y-49903524D01*
X215062634Y-49826099D01*
X214954999Y-49768567D01*
X214838208Y-49733139D01*
X214718738Y-49721372D01*
X214734988Y-49690970D01*
X214756545Y-49619905D01*
X214763824Y-49546000D01*
X214763824Y-48549404D01*
X214860148Y-48645728D01*
G37*
%TD.AperFunction*%
D27*
X222123000Y-50795000D02*
X222143000Y-50795000D01*
X222143000Y-51049000D01*
X222123000Y-51049000D01*
X222123000Y-51069000D01*
X221869000Y-51069000D01*
X221869000Y-51049000D01*
X221849000Y-51049000D01*
X221849000Y-50795000D01*
X221869000Y-50795000D01*
X221869000Y-50775000D01*
X222123000Y-50775000D01*
X222123000Y-50795000D01*
%TA.AperFunction,Conductor*%
D28*
G36*
X222123000Y-50795000D02*
G01*
X222143000Y-50795000D01*
X222143000Y-51049000D01*
X222123000Y-51049000D01*
X222123000Y-51069000D01*
X221869000Y-51069000D01*
X221869000Y-51049000D01*
X221849000Y-51049000D01*
X221849000Y-50795000D01*
X221869000Y-50795000D01*
X221869000Y-50775000D01*
X222123000Y-50775000D01*
X222123000Y-50795000D01*
G37*
%TD.AperFunction*%
D27*
X219913080Y-29208359D02*
X219679731Y-29382412D01*
X219484822Y-29598645D01*
X219335843Y-29848748D01*
X219276231Y-30016798D01*
X219227353Y-29898798D01*
X219093073Y-29697833D01*
X218922167Y-29526927D01*
X218721202Y-29392647D01*
X218497903Y-29300153D01*
X218260849Y-29253000D01*
X218019151Y-29253000D01*
X217782097Y-29300153D01*
X217558798Y-29392647D01*
X217357833Y-29526927D01*
X217186927Y-29697833D01*
X217052647Y-29898798D01*
X216960153Y-30122097D01*
X216913000Y-30359151D01*
X216913000Y-30600849D01*
X216960153Y-30837903D01*
X217052647Y-31061202D01*
X217186927Y-31262167D01*
X217357833Y-31433073D01*
X217558798Y-31567353D01*
X217782097Y-31659847D01*
X218019151Y-31707000D01*
X218260849Y-31707000D01*
X218497903Y-31659847D01*
X218721202Y-31567353D01*
X218922167Y-31433073D01*
X219093073Y-31262167D01*
X219227353Y-31061202D01*
X219276231Y-30943202D01*
X219335843Y-31111252D01*
X219484822Y-31361355D01*
X219679731Y-31577588D01*
X219913080Y-31751641D01*
X220175901Y-31876825D01*
X220323110Y-31921476D01*
X220553000Y-31800155D01*
X220553000Y-30607000D01*
X220533000Y-30607000D01*
X220533000Y-30353000D01*
X220553000Y-30353000D01*
X220553000Y-30333000D01*
X220807000Y-30333000D01*
X220807000Y-30353000D01*
X220827000Y-30353000D01*
X220827000Y-30607000D01*
X220807000Y-30607000D01*
X220807000Y-31800155D01*
X221036890Y-31921476D01*
X221184099Y-31876825D01*
X221446920Y-31751641D01*
X221680269Y-31577588D01*
X221875178Y-31361355D01*
X222024157Y-31111252D01*
X222083769Y-30943202D01*
X222132647Y-31061202D01*
X222266927Y-31262167D01*
X222437833Y-31433073D01*
X222638798Y-31567353D01*
X222743001Y-31610515D01*
X222743001Y-32194297D01*
X222605300Y-32331999D01*
X220729413Y-32331999D01*
X220705998Y-32329693D01*
X220682583Y-32331999D01*
X220682576Y-32331999D01*
X220612491Y-32338902D01*
X220522576Y-32366177D01*
X220439710Y-32410470D01*
X220367078Y-32470078D01*
X220352148Y-32488270D01*
X219813275Y-33027144D01*
X219795078Y-33042078D01*
X219735470Y-33114710D01*
X219691177Y-33197577D01*
X219663902Y-33287492D01*
X219656999Y-33357577D01*
X219656999Y-33357584D01*
X219654693Y-33380999D01*
X219656999Y-33404414D01*
X219657000Y-36953576D01*
X219654693Y-36977001D01*
X219663902Y-37070508D01*
X219691177Y-37160423D01*
X219701107Y-37179000D01*
X219735471Y-37243290D01*
X219762291Y-37275970D01*
X219767726Y-37282592D01*
X219795079Y-37315922D01*
X219813270Y-37330851D01*
X220201418Y-37719000D01*
X219813275Y-38107144D01*
X219795078Y-38122078D01*
X219735470Y-38194710D01*
X219691177Y-38277577D01*
X219663902Y-38367492D01*
X219656999Y-38437577D01*
X219656999Y-38437584D01*
X219654693Y-38460999D01*
X219656999Y-38484414D01*
X219657000Y-40405574D01*
X219654693Y-40428999D01*
X219663902Y-40522506D01*
X219691177Y-40612421D01*
X219701845Y-40632378D01*
X219735471Y-40695288D01*
X219795079Y-40767920D01*
X219813270Y-40782849D01*
X220055176Y-41024755D01*
X220055176Y-41834596D01*
X216799704Y-38579125D01*
X216804000Y-38557528D01*
X216804000Y-38404472D01*
X216774141Y-38254357D01*
X216715569Y-38112952D01*
X216630536Y-37985691D01*
X216522309Y-37877464D01*
X216395048Y-37792431D01*
X216253643Y-37733859D01*
X216103528Y-37704000D01*
X215950472Y-37704000D01*
X215800357Y-37733859D01*
X215658952Y-37792431D01*
X215531691Y-37877464D01*
X215423464Y-37985691D01*
X215338431Y-38112952D01*
X215279859Y-38254357D01*
X215250000Y-38404472D01*
X215250000Y-38557528D01*
X215279859Y-38707643D01*
X215338431Y-38849048D01*
X215423464Y-38976309D01*
X215531691Y-39084536D01*
X215658952Y-39169569D01*
X215800357Y-39228141D01*
X215950472Y-39258000D01*
X216103528Y-39258000D01*
X216125125Y-39253704D01*
X216823420Y-39951999D01*
X214291315Y-39951999D01*
X214364294Y-39903236D01*
X214528236Y-39739294D01*
X214657044Y-39546519D01*
X214745769Y-39332318D01*
X214791000Y-39104924D01*
X214791000Y-38873076D01*
X214745769Y-38645682D01*
X214657044Y-38431481D01*
X214528236Y-38238706D01*
X214364294Y-38074764D01*
X214171519Y-37945956D01*
X213957318Y-37857231D01*
X213741002Y-37814204D01*
X213741002Y-37719625D01*
X213963040Y-37840909D01*
X214227881Y-37746070D01*
X214469131Y-37601385D01*
X214677519Y-37412414D01*
X214845037Y-37186420D01*
X214965246Y-36932087D01*
X215005904Y-36798039D01*
X214883915Y-36576000D01*
X213741000Y-36576000D01*
X213741000Y-36596000D01*
X213487000Y-36596000D01*
X213487000Y-36576000D01*
X212344085Y-36576000D01*
X212222096Y-36798039D01*
X212262754Y-36932087D01*
X212382963Y-37186420D01*
X212550481Y-37412414D01*
X212758869Y-37601385D01*
X213000119Y-37746070D01*
X213264960Y-37840909D01*
X213486998Y-37719625D01*
X213486998Y-37814204D01*
X213270682Y-37857231D01*
X213056481Y-37945956D01*
X212863706Y-38074764D01*
X212699764Y-38238706D01*
X212570956Y-38431481D01*
X212482231Y-38645682D01*
X212437000Y-38873076D01*
X212437000Y-39104924D01*
X212482231Y-39332318D01*
X212570956Y-39546519D01*
X212699764Y-39739294D01*
X212863706Y-39903236D01*
X212961215Y-39968389D01*
X212902576Y-39986177D01*
X212819710Y-40030470D01*
X212779785Y-40063236D01*
X212769439Y-40071727D01*
X212747078Y-40090078D01*
X212732148Y-40108270D01*
X212193270Y-40647149D01*
X212175079Y-40662078D01*
X212160150Y-40680269D01*
X212160147Y-40680272D01*
X212150584Y-40691925D01*
X212115471Y-40734710D01*
X212097720Y-40767920D01*
X212071177Y-40817577D01*
X212043902Y-40907492D01*
X212034693Y-41000999D01*
X212037000Y-41024423D01*
X212036999Y-41288421D01*
X209408824Y-43916597D01*
X209408824Y-42130000D01*
X209401545Y-42056095D01*
X209379988Y-41985030D01*
X209344981Y-41919537D01*
X209297869Y-41862131D01*
X209240463Y-41815019D01*
X209174970Y-41780012D01*
X209103905Y-41758455D01*
X209030000Y-41751176D01*
X208885541Y-41751176D01*
X208889660Y-41748424D01*
X209088424Y-41549660D01*
X209244591Y-41315938D01*
X209352162Y-41056241D01*
X209407000Y-40780547D01*
X209407000Y-40499453D01*
X209352162Y-40223759D01*
X209244591Y-39964062D01*
X209088424Y-39730340D01*
X208889660Y-39531576D01*
X208885541Y-39528824D01*
X209030000Y-39528824D01*
X209103905Y-39521545D01*
X209174970Y-39499988D01*
X209240463Y-39464981D01*
X209297869Y-39417869D01*
X209344981Y-39360463D01*
X209379988Y-39294970D01*
X209401545Y-39223905D01*
X209408824Y-39150000D01*
X209408824Y-37050000D01*
X209401545Y-36976095D01*
X209379988Y-36905030D01*
X209344981Y-36839537D01*
X209297869Y-36782131D01*
X209240463Y-36735019D01*
X209213176Y-36720434D01*
X209266609Y-36667001D01*
X209151068Y-36551460D01*
X209420579Y-36449661D01*
X209566463Y-36151523D01*
X209651380Y-35830654D01*
X209672066Y-35499383D01*
X209627728Y-35170443D01*
X209520069Y-34856473D01*
X209420579Y-34670339D01*
X209151066Y-34568539D01*
X208159605Y-35560000D01*
X208173748Y-35574143D01*
X207994143Y-35753748D01*
X207980000Y-35739605D01*
X207965858Y-35753748D01*
X207786253Y-35574143D01*
X207800395Y-35560000D01*
X206808934Y-34568539D01*
X206539421Y-34670339D01*
X206393537Y-34968477D01*
X206308620Y-35289346D01*
X206287934Y-35620617D01*
X206332272Y-35949557D01*
X206439931Y-36263527D01*
X206539421Y-36449661D01*
X206808932Y-36551460D01*
X206693391Y-36667001D01*
X206746824Y-36720434D01*
X206719537Y-36735019D01*
X206662131Y-36782131D01*
X206615019Y-36839537D01*
X206580012Y-36905030D01*
X206558455Y-36976095D01*
X206551176Y-37050000D01*
X206551176Y-39150000D01*
X206558455Y-39223905D01*
X206580012Y-39294970D01*
X206615019Y-39360463D01*
X206662131Y-39417869D01*
X206719537Y-39464981D01*
X206785030Y-39499988D01*
X206856095Y-39521545D01*
X206930000Y-39528824D01*
X207074459Y-39528824D01*
X207070340Y-39531576D01*
X206871576Y-39730340D01*
X206715409Y-39964062D01*
X206607838Y-40223759D01*
X206553000Y-40499453D01*
X206553000Y-40780547D01*
X206607838Y-41056241D01*
X206715409Y-41315938D01*
X206871576Y-41549660D01*
X207070340Y-41748424D01*
X207074459Y-41751176D01*
X206930000Y-41751176D01*
X206856095Y-41758455D01*
X206785030Y-41780012D01*
X206719537Y-41815019D01*
X206662131Y-41862131D01*
X206615019Y-41919537D01*
X206580012Y-41985030D01*
X206558455Y-42056095D01*
X206551176Y-42130000D01*
X206551176Y-43175096D01*
X206550693Y-43180000D01*
X206551176Y-43184904D01*
X206551176Y-43934245D01*
X206309270Y-44176151D01*
X206291079Y-44191080D01*
X206276150Y-44209271D01*
X206276147Y-44209274D01*
X206271916Y-44214430D01*
X206231471Y-44263712D01*
X206212104Y-44299945D01*
X206187177Y-44346579D01*
X206159902Y-44436494D01*
X206150693Y-44530001D01*
X206153000Y-44553426D01*
X206152999Y-48884586D01*
X206150693Y-48908001D01*
X206152999Y-48931416D01*
X206152999Y-48931423D01*
X206159902Y-49001508D01*
X206187177Y-49091423D01*
X206231470Y-49174290D01*
X206291078Y-49246922D01*
X206309275Y-49261856D01*
X207152145Y-50104727D01*
X207167077Y-50122921D01*
X207185268Y-50137850D01*
X207185270Y-50137852D01*
X207209611Y-50157828D01*
X207239709Y-50182529D01*
X207322575Y-50226822D01*
X207412490Y-50254097D01*
X207482575Y-50261000D01*
X207482583Y-50261000D01*
X207505998Y-50263306D01*
X207529413Y-50261000D01*
X209352421Y-50261000D01*
X209510421Y-50419000D01*
X204572000Y-50419000D01*
X204572000Y-34388934D01*
X206988539Y-34388934D01*
X207980000Y-35380395D01*
X208971461Y-34388934D01*
X208922020Y-34258039D01*
X212222096Y-34258039D01*
X212262754Y-34392087D01*
X212382963Y-34646420D01*
X212550481Y-34872414D01*
X212758869Y-35061385D01*
X212954982Y-35179000D01*
X212758869Y-35296615D01*
X212550481Y-35485586D01*
X212382963Y-35711580D01*
X212262754Y-35965913D01*
X212222096Y-36099961D01*
X212344085Y-36322000D01*
X213487000Y-36322000D01*
X213487000Y-34036000D01*
X213741000Y-34036000D01*
X213741000Y-36322000D01*
X214883915Y-36322000D01*
X215005904Y-36099961D01*
X214965246Y-35965913D01*
X214845037Y-35711580D01*
X214677519Y-35485586D01*
X214469131Y-35296615D01*
X214273018Y-35179000D01*
X214469131Y-35061385D01*
X214677519Y-34872414D01*
X214845037Y-34646420D01*
X214869589Y-34594472D01*
X215250000Y-34594472D01*
X215250000Y-34747528D01*
X215279859Y-34897643D01*
X215338431Y-35039048D01*
X215423464Y-35166309D01*
X215531691Y-35274536D01*
X215658952Y-35359569D01*
X215800357Y-35418141D01*
X215950472Y-35448000D01*
X216103528Y-35448000D01*
X216253643Y-35418141D01*
X216395048Y-35359569D01*
X216522309Y-35274536D01*
X216630536Y-35166309D01*
X216642770Y-35148000D01*
X217273585Y-35148000D01*
X217297000Y-35150306D01*
X217320415Y-35148000D01*
X217320423Y-35148000D01*
X217390508Y-35141097D01*
X217480423Y-35113822D01*
X217563289Y-35069529D01*
X217635921Y-35009921D01*
X217650855Y-34991724D01*
X218631065Y-34011514D01*
X218652662Y-34015810D01*
X218805718Y-34015810D01*
X218955833Y-33985951D01*
X219097238Y-33927379D01*
X219224499Y-33842346D01*
X219332726Y-33734119D01*
X219417759Y-33606858D01*
X219476331Y-33465453D01*
X219506190Y-33315338D01*
X219506190Y-33162282D01*
X219476331Y-33012167D01*
X219417759Y-32870762D01*
X219332726Y-32743501D01*
X219224499Y-32635274D01*
X219097238Y-32550241D01*
X218955833Y-32491669D01*
X218805718Y-32461810D01*
X218652662Y-32461810D01*
X218502547Y-32491669D01*
X218361142Y-32550241D01*
X218233881Y-32635274D01*
X218125654Y-32743501D01*
X218040621Y-32870762D01*
X217982049Y-33012167D01*
X217952190Y-33162282D01*
X217952190Y-33315338D01*
X217956486Y-33336935D01*
X217099421Y-34194000D01*
X216642770Y-34194000D01*
X216630536Y-34175691D01*
X216522309Y-34067464D01*
X216395048Y-33982431D01*
X216253643Y-33923859D01*
X216103528Y-33894000D01*
X215950472Y-33894000D01*
X215800357Y-33923859D01*
X215658952Y-33982431D01*
X215531691Y-34067464D01*
X215423464Y-34175691D01*
X215338431Y-34302952D01*
X215279859Y-34444357D01*
X215250000Y-34594472D01*
X214869589Y-34594472D01*
X214965246Y-34392087D01*
X215005904Y-34258039D01*
X214883915Y-34036000D01*
X213741000Y-34036000D01*
X213487000Y-34036000D01*
X212344085Y-34036000D01*
X212222096Y-34258039D01*
X208922020Y-34258039D01*
X208869661Y-34119421D01*
X208571523Y-33973537D01*
X208250654Y-33888620D01*
X207919383Y-33867934D01*
X207590443Y-33912272D01*
X207276473Y-34019931D01*
X207090339Y-34119421D01*
X206988539Y-34388934D01*
X204572000Y-34388934D01*
X204572000Y-33559961D01*
X212222096Y-33559961D01*
X212344085Y-33782000D01*
X213487000Y-33782000D01*
X213487000Y-32638376D01*
X213741000Y-32638376D01*
X213741000Y-33782000D01*
X214883915Y-33782000D01*
X215005904Y-33559961D01*
X214965246Y-33425913D01*
X214845037Y-33171580D01*
X214677519Y-32945586D01*
X214469131Y-32756615D01*
X214227881Y-32611930D01*
X213963040Y-32517091D01*
X213741000Y-32638376D01*
X213487000Y-32638376D01*
X213264960Y-32517091D01*
X213000119Y-32611930D01*
X212758869Y-32756615D01*
X212550481Y-32945586D01*
X212382963Y-33171580D01*
X212262754Y-33425913D01*
X212222096Y-33559961D01*
X204572000Y-33559961D01*
X204572000Y-33401000D01*
X210139000Y-33401000D01*
X210163776Y-33398560D01*
X210187601Y-33391333D01*
X210209557Y-33379597D01*
X210228803Y-33363803D01*
X210244597Y-33344557D01*
X210256333Y-33322601D01*
X210263560Y-33298776D01*
X210266000Y-33274000D01*
X210266000Y-30359151D01*
X211833000Y-30359151D01*
X211833000Y-30600849D01*
X211880153Y-30837903D01*
X211972647Y-31061202D01*
X212106927Y-31262167D01*
X212277833Y-31433073D01*
X212478798Y-31567353D01*
X212702097Y-31659847D01*
X212939151Y-31707000D01*
X213180849Y-31707000D01*
X213417903Y-31659847D01*
X213641202Y-31567353D01*
X213842167Y-31433073D01*
X214013073Y-31262167D01*
X214147353Y-31061202D01*
X214239847Y-30837903D01*
X214287000Y-30600849D01*
X214287000Y-30359151D01*
X214373000Y-30359151D01*
X214373000Y-30600849D01*
X214420153Y-30837903D01*
X214512647Y-31061202D01*
X214646927Y-31262167D01*
X214817833Y-31433073D01*
X215018798Y-31567353D01*
X215242097Y-31659847D01*
X215479151Y-31707000D01*
X215720849Y-31707000D01*
X215957903Y-31659847D01*
X216181202Y-31567353D01*
X216382167Y-31433073D01*
X216553073Y-31262167D01*
X216687353Y-31061202D01*
X216779847Y-30837903D01*
X216827000Y-30600849D01*
X216827000Y-30359151D01*
X216779847Y-30122097D01*
X216687353Y-29898798D01*
X216553073Y-29697833D01*
X216382167Y-29526927D01*
X216181202Y-29392647D01*
X215957903Y-29300153D01*
X215720849Y-29253000D01*
X215479151Y-29253000D01*
X215242097Y-29300153D01*
X215018798Y-29392647D01*
X214817833Y-29526927D01*
X214646927Y-29697833D01*
X214512647Y-29898798D01*
X214420153Y-30122097D01*
X214373000Y-30359151D01*
X214287000Y-30359151D01*
X214239847Y-30122097D01*
X214147353Y-29898798D01*
X214013073Y-29697833D01*
X213842167Y-29526927D01*
X213641202Y-29392647D01*
X213417903Y-29300153D01*
X213180849Y-29253000D01*
X212939151Y-29253000D01*
X212702097Y-29300153D01*
X212478798Y-29392647D01*
X212277833Y-29526927D01*
X212106927Y-29697833D01*
X211972647Y-29898798D01*
X211880153Y-30122097D01*
X211833000Y-30359151D01*
X210266000Y-30359151D01*
X210266000Y-29104000D01*
X220132179Y-29104000D01*
X219913080Y-29208359D01*
%TA.AperFunction,Conductor*%
D28*
G36*
X219913080Y-29208359D02*
G01*
X219679731Y-29382412D01*
X219484822Y-29598645D01*
X219335843Y-29848748D01*
X219276231Y-30016798D01*
X219227353Y-29898798D01*
X219093073Y-29697833D01*
X218922167Y-29526927D01*
X218721202Y-29392647D01*
X218497903Y-29300153D01*
X218260849Y-29253000D01*
X218019151Y-29253000D01*
X217782097Y-29300153D01*
X217558798Y-29392647D01*
X217357833Y-29526927D01*
X217186927Y-29697833D01*
X217052647Y-29898798D01*
X216960153Y-30122097D01*
X216913000Y-30359151D01*
X216913000Y-30600849D01*
X216960153Y-30837903D01*
X217052647Y-31061202D01*
X217186927Y-31262167D01*
X217357833Y-31433073D01*
X217558798Y-31567353D01*
X217782097Y-31659847D01*
X218019151Y-31707000D01*
X218260849Y-31707000D01*
X218497903Y-31659847D01*
X218721202Y-31567353D01*
X218922167Y-31433073D01*
X219093073Y-31262167D01*
X219227353Y-31061202D01*
X219276231Y-30943202D01*
X219335843Y-31111252D01*
X219484822Y-31361355D01*
X219679731Y-31577588D01*
X219913080Y-31751641D01*
X220175901Y-31876825D01*
X220323110Y-31921476D01*
X220553000Y-31800155D01*
X220553000Y-30607000D01*
X220533000Y-30607000D01*
X220533000Y-30353000D01*
X220553000Y-30353000D01*
X220553000Y-30333000D01*
X220807000Y-30333000D01*
X220807000Y-30353000D01*
X220827000Y-30353000D01*
X220827000Y-30607000D01*
X220807000Y-30607000D01*
X220807000Y-31800155D01*
X221036890Y-31921476D01*
X221184099Y-31876825D01*
X221446920Y-31751641D01*
X221680269Y-31577588D01*
X221875178Y-31361355D01*
X222024157Y-31111252D01*
X222083769Y-30943202D01*
X222132647Y-31061202D01*
X222266927Y-31262167D01*
X222437833Y-31433073D01*
X222638798Y-31567353D01*
X222743001Y-31610515D01*
X222743001Y-32194297D01*
X222605300Y-32331999D01*
X220729413Y-32331999D01*
X220705998Y-32329693D01*
X220682583Y-32331999D01*
X220682576Y-32331999D01*
X220612491Y-32338902D01*
X220522576Y-32366177D01*
X220439710Y-32410470D01*
X220367078Y-32470078D01*
X220352148Y-32488270D01*
X219813275Y-33027144D01*
X219795078Y-33042078D01*
X219735470Y-33114710D01*
X219691177Y-33197577D01*
X219663902Y-33287492D01*
X219656999Y-33357577D01*
X219656999Y-33357584D01*
X219654693Y-33380999D01*
X219656999Y-33404414D01*
X219657000Y-36953576D01*
X219654693Y-36977001D01*
X219663902Y-37070508D01*
X219691177Y-37160423D01*
X219701107Y-37179000D01*
X219735471Y-37243290D01*
X219762291Y-37275970D01*
X219767726Y-37282592D01*
X219795079Y-37315922D01*
X219813270Y-37330851D01*
X220201418Y-37719000D01*
X219813275Y-38107144D01*
X219795078Y-38122078D01*
X219735470Y-38194710D01*
X219691177Y-38277577D01*
X219663902Y-38367492D01*
X219656999Y-38437577D01*
X219656999Y-38437584D01*
X219654693Y-38460999D01*
X219656999Y-38484414D01*
X219657000Y-40405574D01*
X219654693Y-40428999D01*
X219663902Y-40522506D01*
X219691177Y-40612421D01*
X219701845Y-40632378D01*
X219735471Y-40695288D01*
X219795079Y-40767920D01*
X219813270Y-40782849D01*
X220055176Y-41024755D01*
X220055176Y-41834596D01*
X216799704Y-38579125D01*
X216804000Y-38557528D01*
X216804000Y-38404472D01*
X216774141Y-38254357D01*
X216715569Y-38112952D01*
X216630536Y-37985691D01*
X216522309Y-37877464D01*
X216395048Y-37792431D01*
X216253643Y-37733859D01*
X216103528Y-37704000D01*
X215950472Y-37704000D01*
X215800357Y-37733859D01*
X215658952Y-37792431D01*
X215531691Y-37877464D01*
X215423464Y-37985691D01*
X215338431Y-38112952D01*
X215279859Y-38254357D01*
X215250000Y-38404472D01*
X215250000Y-38557528D01*
X215279859Y-38707643D01*
X215338431Y-38849048D01*
X215423464Y-38976309D01*
X215531691Y-39084536D01*
X215658952Y-39169569D01*
X215800357Y-39228141D01*
X215950472Y-39258000D01*
X216103528Y-39258000D01*
X216125125Y-39253704D01*
X216823420Y-39951999D01*
X214291315Y-39951999D01*
X214364294Y-39903236D01*
X214528236Y-39739294D01*
X214657044Y-39546519D01*
X214745769Y-39332318D01*
X214791000Y-39104924D01*
X214791000Y-38873076D01*
X214745769Y-38645682D01*
X214657044Y-38431481D01*
X214528236Y-38238706D01*
X214364294Y-38074764D01*
X214171519Y-37945956D01*
X213957318Y-37857231D01*
X213741002Y-37814204D01*
X213741002Y-37719625D01*
X213963040Y-37840909D01*
X214227881Y-37746070D01*
X214469131Y-37601385D01*
X214677519Y-37412414D01*
X214845037Y-37186420D01*
X214965246Y-36932087D01*
X215005904Y-36798039D01*
X214883915Y-36576000D01*
X213741000Y-36576000D01*
X213741000Y-36596000D01*
X213487000Y-36596000D01*
X213487000Y-36576000D01*
X212344085Y-36576000D01*
X212222096Y-36798039D01*
X212262754Y-36932087D01*
X212382963Y-37186420D01*
X212550481Y-37412414D01*
X212758869Y-37601385D01*
X213000119Y-37746070D01*
X213264960Y-37840909D01*
X213486998Y-37719625D01*
X213486998Y-37814204D01*
X213270682Y-37857231D01*
X213056481Y-37945956D01*
X212863706Y-38074764D01*
X212699764Y-38238706D01*
X212570956Y-38431481D01*
X212482231Y-38645682D01*
X212437000Y-38873076D01*
X212437000Y-39104924D01*
X212482231Y-39332318D01*
X212570956Y-39546519D01*
X212699764Y-39739294D01*
X212863706Y-39903236D01*
X212961215Y-39968389D01*
X212902576Y-39986177D01*
X212819710Y-40030470D01*
X212779785Y-40063236D01*
X212769439Y-40071727D01*
X212747078Y-40090078D01*
X212732148Y-40108270D01*
X212193270Y-40647149D01*
X212175079Y-40662078D01*
X212160150Y-40680269D01*
X212160147Y-40680272D01*
X212150584Y-40691925D01*
X212115471Y-40734710D01*
X212097720Y-40767920D01*
X212071177Y-40817577D01*
X212043902Y-40907492D01*
X212034693Y-41000999D01*
X212037000Y-41024423D01*
X212036999Y-41288421D01*
X209408824Y-43916597D01*
X209408824Y-42130000D01*
X209401545Y-42056095D01*
X209379988Y-41985030D01*
X209344981Y-41919537D01*
X209297869Y-41862131D01*
X209240463Y-41815019D01*
X209174970Y-41780012D01*
X209103905Y-41758455D01*
X209030000Y-41751176D01*
X208885541Y-41751176D01*
X208889660Y-41748424D01*
X209088424Y-41549660D01*
X209244591Y-41315938D01*
X209352162Y-41056241D01*
X209407000Y-40780547D01*
X209407000Y-40499453D01*
X209352162Y-40223759D01*
X209244591Y-39964062D01*
X209088424Y-39730340D01*
X208889660Y-39531576D01*
X208885541Y-39528824D01*
X209030000Y-39528824D01*
X209103905Y-39521545D01*
X209174970Y-39499988D01*
X209240463Y-39464981D01*
X209297869Y-39417869D01*
X209344981Y-39360463D01*
X209379988Y-39294970D01*
X209401545Y-39223905D01*
X209408824Y-39150000D01*
X209408824Y-37050000D01*
X209401545Y-36976095D01*
X209379988Y-36905030D01*
X209344981Y-36839537D01*
X209297869Y-36782131D01*
X209240463Y-36735019D01*
X209213176Y-36720434D01*
X209266609Y-36667001D01*
X209151068Y-36551460D01*
X209420579Y-36449661D01*
X209566463Y-36151523D01*
X209651380Y-35830654D01*
X209672066Y-35499383D01*
X209627728Y-35170443D01*
X209520069Y-34856473D01*
X209420579Y-34670339D01*
X209151066Y-34568539D01*
X208159605Y-35560000D01*
X208173748Y-35574143D01*
X207994143Y-35753748D01*
X207980000Y-35739605D01*
X207965858Y-35753748D01*
X207786253Y-35574143D01*
X207800395Y-35560000D01*
X206808934Y-34568539D01*
X206539421Y-34670339D01*
X206393537Y-34968477D01*
X206308620Y-35289346D01*
X206287934Y-35620617D01*
X206332272Y-35949557D01*
X206439931Y-36263527D01*
X206539421Y-36449661D01*
X206808932Y-36551460D01*
X206693391Y-36667001D01*
X206746824Y-36720434D01*
X206719537Y-36735019D01*
X206662131Y-36782131D01*
X206615019Y-36839537D01*
X206580012Y-36905030D01*
X206558455Y-36976095D01*
X206551176Y-37050000D01*
X206551176Y-39150000D01*
X206558455Y-39223905D01*
X206580012Y-39294970D01*
X206615019Y-39360463D01*
X206662131Y-39417869D01*
X206719537Y-39464981D01*
X206785030Y-39499988D01*
X206856095Y-39521545D01*
X206930000Y-39528824D01*
X207074459Y-39528824D01*
X207070340Y-39531576D01*
X206871576Y-39730340D01*
X206715409Y-39964062D01*
X206607838Y-40223759D01*
X206553000Y-40499453D01*
X206553000Y-40780547D01*
X206607838Y-41056241D01*
X206715409Y-41315938D01*
X206871576Y-41549660D01*
X207070340Y-41748424D01*
X207074459Y-41751176D01*
X206930000Y-41751176D01*
X206856095Y-41758455D01*
X206785030Y-41780012D01*
X206719537Y-41815019D01*
X206662131Y-41862131D01*
X206615019Y-41919537D01*
X206580012Y-41985030D01*
X206558455Y-42056095D01*
X206551176Y-42130000D01*
X206551176Y-43175096D01*
X206550693Y-43180000D01*
X206551176Y-43184904D01*
X206551176Y-43934245D01*
X206309270Y-44176151D01*
X206291079Y-44191080D01*
X206276150Y-44209271D01*
X206276147Y-44209274D01*
X206271916Y-44214430D01*
X206231471Y-44263712D01*
X206212104Y-44299945D01*
X206187177Y-44346579D01*
X206159902Y-44436494D01*
X206150693Y-44530001D01*
X206153000Y-44553426D01*
X206152999Y-48884586D01*
X206150693Y-48908001D01*
X206152999Y-48931416D01*
X206152999Y-48931423D01*
X206159902Y-49001508D01*
X206187177Y-49091423D01*
X206231470Y-49174290D01*
X206291078Y-49246922D01*
X206309275Y-49261856D01*
X207152145Y-50104727D01*
X207167077Y-50122921D01*
X207185268Y-50137850D01*
X207185270Y-50137852D01*
X207209611Y-50157828D01*
X207239709Y-50182529D01*
X207322575Y-50226822D01*
X207412490Y-50254097D01*
X207482575Y-50261000D01*
X207482583Y-50261000D01*
X207505998Y-50263306D01*
X207529413Y-50261000D01*
X209352421Y-50261000D01*
X209510421Y-50419000D01*
X204572000Y-50419000D01*
X204572000Y-34388934D01*
X206988539Y-34388934D01*
X207980000Y-35380395D01*
X208971461Y-34388934D01*
X208922020Y-34258039D01*
X212222096Y-34258039D01*
X212262754Y-34392087D01*
X212382963Y-34646420D01*
X212550481Y-34872414D01*
X212758869Y-35061385D01*
X212954982Y-35179000D01*
X212758869Y-35296615D01*
X212550481Y-35485586D01*
X212382963Y-35711580D01*
X212262754Y-35965913D01*
X212222096Y-36099961D01*
X212344085Y-36322000D01*
X213487000Y-36322000D01*
X213487000Y-34036000D01*
X213741000Y-34036000D01*
X213741000Y-36322000D01*
X214883915Y-36322000D01*
X215005904Y-36099961D01*
X214965246Y-35965913D01*
X214845037Y-35711580D01*
X214677519Y-35485586D01*
X214469131Y-35296615D01*
X214273018Y-35179000D01*
X214469131Y-35061385D01*
X214677519Y-34872414D01*
X214845037Y-34646420D01*
X214869589Y-34594472D01*
X215250000Y-34594472D01*
X215250000Y-34747528D01*
X215279859Y-34897643D01*
X215338431Y-35039048D01*
X215423464Y-35166309D01*
X215531691Y-35274536D01*
X215658952Y-35359569D01*
X215800357Y-35418141D01*
X215950472Y-35448000D01*
X216103528Y-35448000D01*
X216253643Y-35418141D01*
X216395048Y-35359569D01*
X216522309Y-35274536D01*
X216630536Y-35166309D01*
X216642770Y-35148000D01*
X217273585Y-35148000D01*
X217297000Y-35150306D01*
X217320415Y-35148000D01*
X217320423Y-35148000D01*
X217390508Y-35141097D01*
X217480423Y-35113822D01*
X217563289Y-35069529D01*
X217635921Y-35009921D01*
X217650855Y-34991724D01*
X218631065Y-34011514D01*
X218652662Y-34015810D01*
X218805718Y-34015810D01*
X218955833Y-33985951D01*
X219097238Y-33927379D01*
X219224499Y-33842346D01*
X219332726Y-33734119D01*
X219417759Y-33606858D01*
X219476331Y-33465453D01*
X219506190Y-33315338D01*
X219506190Y-33162282D01*
X219476331Y-33012167D01*
X219417759Y-32870762D01*
X219332726Y-32743501D01*
X219224499Y-32635274D01*
X219097238Y-32550241D01*
X218955833Y-32491669D01*
X218805718Y-32461810D01*
X218652662Y-32461810D01*
X218502547Y-32491669D01*
X218361142Y-32550241D01*
X218233881Y-32635274D01*
X218125654Y-32743501D01*
X218040621Y-32870762D01*
X217982049Y-33012167D01*
X217952190Y-33162282D01*
X217952190Y-33315338D01*
X217956486Y-33336935D01*
X217099421Y-34194000D01*
X216642770Y-34194000D01*
X216630536Y-34175691D01*
X216522309Y-34067464D01*
X216395048Y-33982431D01*
X216253643Y-33923859D01*
X216103528Y-33894000D01*
X215950472Y-33894000D01*
X215800357Y-33923859D01*
X215658952Y-33982431D01*
X215531691Y-34067464D01*
X215423464Y-34175691D01*
X215338431Y-34302952D01*
X215279859Y-34444357D01*
X215250000Y-34594472D01*
X214869589Y-34594472D01*
X214965246Y-34392087D01*
X215005904Y-34258039D01*
X214883915Y-34036000D01*
X213741000Y-34036000D01*
X213487000Y-34036000D01*
X212344085Y-34036000D01*
X212222096Y-34258039D01*
X208922020Y-34258039D01*
X208869661Y-34119421D01*
X208571523Y-33973537D01*
X208250654Y-33888620D01*
X207919383Y-33867934D01*
X207590443Y-33912272D01*
X207276473Y-34019931D01*
X207090339Y-34119421D01*
X206988539Y-34388934D01*
X204572000Y-34388934D01*
X204572000Y-33559961D01*
X212222096Y-33559961D01*
X212344085Y-33782000D01*
X213487000Y-33782000D01*
X213487000Y-32638376D01*
X213741000Y-32638376D01*
X213741000Y-33782000D01*
X214883915Y-33782000D01*
X215005904Y-33559961D01*
X214965246Y-33425913D01*
X214845037Y-33171580D01*
X214677519Y-32945586D01*
X214469131Y-32756615D01*
X214227881Y-32611930D01*
X213963040Y-32517091D01*
X213741000Y-32638376D01*
X213487000Y-32638376D01*
X213264960Y-32517091D01*
X213000119Y-32611930D01*
X212758869Y-32756615D01*
X212550481Y-32945586D01*
X212382963Y-33171580D01*
X212262754Y-33425913D01*
X212222096Y-33559961D01*
X204572000Y-33559961D01*
X204572000Y-33401000D01*
X210139000Y-33401000D01*
X210163776Y-33398560D01*
X210187601Y-33391333D01*
X210209557Y-33379597D01*
X210228803Y-33363803D01*
X210244597Y-33344557D01*
X210256333Y-33322601D01*
X210263560Y-33298776D01*
X210266000Y-33274000D01*
X210266000Y-30359151D01*
X211833000Y-30359151D01*
X211833000Y-30600849D01*
X211880153Y-30837903D01*
X211972647Y-31061202D01*
X212106927Y-31262167D01*
X212277833Y-31433073D01*
X212478798Y-31567353D01*
X212702097Y-31659847D01*
X212939151Y-31707000D01*
X213180849Y-31707000D01*
X213417903Y-31659847D01*
X213641202Y-31567353D01*
X213842167Y-31433073D01*
X214013073Y-31262167D01*
X214147353Y-31061202D01*
X214239847Y-30837903D01*
X214287000Y-30600849D01*
X214287000Y-30359151D01*
X214373000Y-30359151D01*
X214373000Y-30600849D01*
X214420153Y-30837903D01*
X214512647Y-31061202D01*
X214646927Y-31262167D01*
X214817833Y-31433073D01*
X215018798Y-31567353D01*
X215242097Y-31659847D01*
X215479151Y-31707000D01*
X215720849Y-31707000D01*
X215957903Y-31659847D01*
X216181202Y-31567353D01*
X216382167Y-31433073D01*
X216553073Y-31262167D01*
X216687353Y-31061202D01*
X216779847Y-30837903D01*
X216827000Y-30600849D01*
X216827000Y-30359151D01*
X216779847Y-30122097D01*
X216687353Y-29898798D01*
X216553073Y-29697833D01*
X216382167Y-29526927D01*
X216181202Y-29392647D01*
X215957903Y-29300153D01*
X215720849Y-29253000D01*
X215479151Y-29253000D01*
X215242097Y-29300153D01*
X215018798Y-29392647D01*
X214817833Y-29526927D01*
X214646927Y-29697833D01*
X214512647Y-29898798D01*
X214420153Y-30122097D01*
X214373000Y-30359151D01*
X214287000Y-30359151D01*
X214239847Y-30122097D01*
X214147353Y-29898798D01*
X214013073Y-29697833D01*
X213842167Y-29526927D01*
X213641202Y-29392647D01*
X213417903Y-29300153D01*
X213180849Y-29253000D01*
X212939151Y-29253000D01*
X212702097Y-29300153D01*
X212478798Y-29392647D01*
X212277833Y-29526927D01*
X212106927Y-29697833D01*
X211972647Y-29898798D01*
X211880153Y-30122097D01*
X211833000Y-30359151D01*
X210266000Y-30359151D01*
X210266000Y-29104000D01*
X220132179Y-29104000D01*
X219913080Y-29208359D01*
G37*
%TD.AperFunction*%
D27*
X220907214Y-49404418D02*
X220940042Y-49512641D01*
X220998152Y-49621356D01*
X221076354Y-49716646D01*
X221170410Y-49793835D01*
X221146518Y-49796188D01*
X221026820Y-49832498D01*
X220916506Y-49891463D01*
X220819815Y-49970815D01*
X220740463Y-50067506D01*
X220708620Y-50127079D01*
X220699290Y-50115710D01*
X220611577Y-50043725D01*
X220511506Y-49990236D01*
X220402923Y-49957298D01*
X220312000Y-49948343D01*
X220312000Y-49116000D01*
X220618797Y-49116000D01*
X220907214Y-49404418D01*
%TA.AperFunction,Conductor*%
D28*
G36*
X220907214Y-49404418D02*
G01*
X220940042Y-49512641D01*
X220998152Y-49621356D01*
X221076354Y-49716646D01*
X221170410Y-49793835D01*
X221146518Y-49796188D01*
X221026820Y-49832498D01*
X220916506Y-49891463D01*
X220819815Y-49970815D01*
X220740463Y-50067506D01*
X220708620Y-50127079D01*
X220699290Y-50115710D01*
X220611577Y-50043725D01*
X220511506Y-49990236D01*
X220402923Y-49957298D01*
X220312000Y-49948343D01*
X220312000Y-49116000D01*
X220618797Y-49116000D01*
X220907214Y-49404418D01*
G37*
%TD.AperFunction*%
D27*
X224976190Y-42067160D02*
X225084417Y-42175387D01*
X225189228Y-42245419D01*
X224821750Y-42247000D01*
X224663000Y-42405750D01*
X224663000Y-44005000D01*
X224683000Y-44005000D01*
X224683000Y-44259000D01*
X224663000Y-44259000D01*
X224663000Y-45858250D01*
X224821750Y-46017000D01*
X225536000Y-46020072D01*
X225660482Y-46007812D01*
X225780180Y-45971502D01*
X225890494Y-45912537D01*
X225987185Y-45833185D01*
X226066537Y-45736494D01*
X226077990Y-45715067D01*
X226077991Y-47382990D01*
X225701169Y-47382990D01*
X225677754Y-47380684D01*
X225654339Y-47382990D01*
X225654332Y-47382990D01*
X225593093Y-47389022D01*
X225584246Y-47389893D01*
X225556971Y-47398167D01*
X225494332Y-47417168D01*
X225411466Y-47461461D01*
X225338834Y-47521069D01*
X225323904Y-47539261D01*
X224849469Y-48013696D01*
X224847509Y-48008964D01*
X224762476Y-47881703D01*
X224654249Y-47773476D01*
X224526988Y-47688443D01*
X224385583Y-47629871D01*
X224235468Y-47600012D01*
X224082412Y-47600012D01*
X223932297Y-47629871D01*
X223790892Y-47688443D01*
X223663631Y-47773476D01*
X223555404Y-47881703D01*
X223470371Y-48008964D01*
X223411799Y-48150369D01*
X223381940Y-48300484D01*
X223381940Y-48453540D01*
X223411799Y-48603655D01*
X223441994Y-48676552D01*
X223391030Y-48692012D01*
X223325537Y-48727019D01*
X223268131Y-48774131D01*
X223221019Y-48831537D01*
X223186012Y-48897030D01*
X223164455Y-48968095D01*
X223157176Y-49042000D01*
X223157176Y-49958497D01*
X223075494Y-49891463D01*
X222965180Y-49832498D01*
X222845482Y-49796188D01*
X222821590Y-49793835D01*
X222915646Y-49716646D01*
X222993848Y-49621356D01*
X223051958Y-49512641D01*
X223087741Y-49394677D01*
X223099824Y-49272000D01*
X223099824Y-48772000D01*
X223087741Y-48649323D01*
X223051958Y-48531359D01*
X222993848Y-48422644D01*
X222915646Y-48327354D01*
X222820356Y-48249152D01*
X222711641Y-48191042D01*
X222593677Y-48155259D01*
X222471000Y-48143176D01*
X222258104Y-48143176D01*
X222273651Y-48105643D01*
X222303510Y-47955528D01*
X222303510Y-47881517D01*
X222398856Y-47862552D01*
X222540261Y-47803980D01*
X222667522Y-47718947D01*
X222775749Y-47610720D01*
X222860782Y-47483459D01*
X222919354Y-47342054D01*
X222949213Y-47191939D01*
X222949213Y-47038883D01*
X222919354Y-46888768D01*
X222860782Y-46747363D01*
X222775749Y-46620102D01*
X222667522Y-46511875D01*
X222649213Y-46499641D01*
X222649213Y-44794667D01*
X222900600Y-44543281D01*
X222897928Y-45382000D01*
X222910188Y-45506482D01*
X222946498Y-45626180D01*
X223005463Y-45736494D01*
X223084815Y-45833185D01*
X223181506Y-45912537D01*
X223291820Y-45971502D01*
X223411518Y-46007812D01*
X223536000Y-46020072D01*
X224250250Y-46017000D01*
X224409000Y-45858250D01*
X224409000Y-44259000D01*
X224389000Y-44259000D01*
X224389000Y-44005000D01*
X224409000Y-44005000D01*
X224409000Y-42405750D01*
X224250250Y-42247000D01*
X223536000Y-42243928D01*
X223411518Y-42256188D01*
X223296861Y-42290969D01*
X223296861Y-42048851D01*
X224963956Y-42048851D01*
X224976190Y-42067160D01*
%TA.AperFunction,Conductor*%
D28*
G36*
X224976190Y-42067160D02*
G01*
X225084417Y-42175387D01*
X225189228Y-42245419D01*
X224821750Y-42247000D01*
X224663000Y-42405750D01*
X224663000Y-44005000D01*
X224683000Y-44005000D01*
X224683000Y-44259000D01*
X224663000Y-44259000D01*
X224663000Y-45858250D01*
X224821750Y-46017000D01*
X225536000Y-46020072D01*
X225660482Y-46007812D01*
X225780180Y-45971502D01*
X225890494Y-45912537D01*
X225987185Y-45833185D01*
X226066537Y-45736494D01*
X226077990Y-45715067D01*
X226077991Y-47382990D01*
X225701169Y-47382990D01*
X225677754Y-47380684D01*
X225654339Y-47382990D01*
X225654332Y-47382990D01*
X225593093Y-47389022D01*
X225584246Y-47389893D01*
X225556971Y-47398167D01*
X225494332Y-47417168D01*
X225411466Y-47461461D01*
X225338834Y-47521069D01*
X225323904Y-47539261D01*
X224849469Y-48013696D01*
X224847509Y-48008964D01*
X224762476Y-47881703D01*
X224654249Y-47773476D01*
X224526988Y-47688443D01*
X224385583Y-47629871D01*
X224235468Y-47600012D01*
X224082412Y-47600012D01*
X223932297Y-47629871D01*
X223790892Y-47688443D01*
X223663631Y-47773476D01*
X223555404Y-47881703D01*
X223470371Y-48008964D01*
X223411799Y-48150369D01*
X223381940Y-48300484D01*
X223381940Y-48453540D01*
X223411799Y-48603655D01*
X223441994Y-48676552D01*
X223391030Y-48692012D01*
X223325537Y-48727019D01*
X223268131Y-48774131D01*
X223221019Y-48831537D01*
X223186012Y-48897030D01*
X223164455Y-48968095D01*
X223157176Y-49042000D01*
X223157176Y-49958497D01*
X223075494Y-49891463D01*
X222965180Y-49832498D01*
X222845482Y-49796188D01*
X222821590Y-49793835D01*
X222915646Y-49716646D01*
X222993848Y-49621356D01*
X223051958Y-49512641D01*
X223087741Y-49394677D01*
X223099824Y-49272000D01*
X223099824Y-48772000D01*
X223087741Y-48649323D01*
X223051958Y-48531359D01*
X222993848Y-48422644D01*
X222915646Y-48327354D01*
X222820356Y-48249152D01*
X222711641Y-48191042D01*
X222593677Y-48155259D01*
X222471000Y-48143176D01*
X222258104Y-48143176D01*
X222273651Y-48105643D01*
X222303510Y-47955528D01*
X222303510Y-47881517D01*
X222398856Y-47862552D01*
X222540261Y-47803980D01*
X222667522Y-47718947D01*
X222775749Y-47610720D01*
X222860782Y-47483459D01*
X222919354Y-47342054D01*
X222949213Y-47191939D01*
X222949213Y-47038883D01*
X222919354Y-46888768D01*
X222860782Y-46747363D01*
X222775749Y-46620102D01*
X222667522Y-46511875D01*
X222649213Y-46499641D01*
X222649213Y-44794667D01*
X222900600Y-44543281D01*
X222897928Y-45382000D01*
X222910188Y-45506482D01*
X222946498Y-45626180D01*
X223005463Y-45736494D01*
X223084815Y-45833185D01*
X223181506Y-45912537D01*
X223291820Y-45971502D01*
X223411518Y-46007812D01*
X223536000Y-46020072D01*
X224250250Y-46017000D01*
X224409000Y-45858250D01*
X224409000Y-44259000D01*
X224389000Y-44259000D01*
X224389000Y-44005000D01*
X224409000Y-44005000D01*
X224409000Y-42405750D01*
X224250250Y-42247000D01*
X223536000Y-42243928D01*
X223411518Y-42256188D01*
X223296861Y-42290969D01*
X223296861Y-42048851D01*
X224963956Y-42048851D01*
X224976190Y-42067160D01*
G37*
%TD.AperFunction*%
D27*
X218569321Y-42687851D02*
X218565025Y-42709447D01*
X218565025Y-42862503D01*
X218594884Y-43012618D01*
X218653456Y-43154023D01*
X218738489Y-43281284D01*
X218846716Y-43389511D01*
X218973977Y-43474544D01*
X219115382Y-43533116D01*
X219265497Y-43562975D01*
X219418553Y-43562975D01*
X219568668Y-43533116D01*
X219710073Y-43474544D01*
X219837334Y-43389511D01*
X219945561Y-43281284D01*
X220030594Y-43154023D01*
X220056487Y-43091513D01*
X220081493Y-43099098D01*
X220151578Y-43106001D01*
X220151585Y-43106001D01*
X220175000Y-43108307D01*
X220198415Y-43106001D01*
X222250586Y-43106001D01*
X222274001Y-43108307D01*
X222297416Y-43106001D01*
X222297424Y-43106001D01*
X222342862Y-43101526D01*
X222342862Y-43751859D01*
X221851489Y-44243233D01*
X221833292Y-44258167D01*
X221773684Y-44330799D01*
X221729391Y-44413666D01*
X221702116Y-44503581D01*
X221695213Y-44573666D01*
X221695213Y-44573673D01*
X221692907Y-44597088D01*
X221695213Y-44620503D01*
X221695214Y-46499641D01*
X221676904Y-46511875D01*
X221568677Y-46620102D01*
X221483644Y-46747363D01*
X221462001Y-46799614D01*
X221462001Y-44379414D01*
X221464307Y-44355999D01*
X221462001Y-44332584D01*
X221462001Y-44332576D01*
X221455098Y-44262491D01*
X221427823Y-44172576D01*
X221383530Y-44089710D01*
X221323922Y-44017078D01*
X221305725Y-44002144D01*
X221278856Y-43975275D01*
X221263922Y-43957078D01*
X221191290Y-43897470D01*
X221108424Y-43853177D01*
X221018509Y-43825902D01*
X220948424Y-43818999D01*
X220948416Y-43818999D01*
X220925001Y-43816693D01*
X220901586Y-43818999D01*
X218468414Y-43818999D01*
X218444999Y-43816693D01*
X218421584Y-43818999D01*
X218421576Y-43818999D01*
X218351491Y-43825902D01*
X218261576Y-43853177D01*
X218178710Y-43897470D01*
X218106078Y-43957078D01*
X218091144Y-43975275D01*
X218044775Y-44021644D01*
X218026578Y-44036578D01*
X218011644Y-44054775D01*
X217959148Y-44107271D01*
X217914472Y-44161710D01*
X217870178Y-44244576D01*
X217842903Y-44334491D01*
X217833694Y-44427998D01*
X217842903Y-44521505D01*
X217870178Y-44611420D01*
X217888499Y-44645695D01*
X217888500Y-48011325D01*
X217756149Y-48066147D01*
X217628888Y-48151180D01*
X217520661Y-48259407D01*
X217435628Y-48386668D01*
X217423648Y-48415590D01*
X217012335Y-48004277D01*
X216997401Y-47986080D01*
X216924769Y-47926472D01*
X216841903Y-47882179D01*
X216751988Y-47854904D01*
X216681903Y-47848001D01*
X216681895Y-47848001D01*
X216658480Y-47845695D01*
X216635065Y-47848001D01*
X216520865Y-47848001D01*
X216550000Y-47701528D01*
X216550000Y-47548472D01*
X216520141Y-47398357D01*
X216461569Y-47256952D01*
X216376536Y-47129691D01*
X216268309Y-47021464D01*
X216250000Y-47009230D01*
X216250000Y-46617413D01*
X216252306Y-46593998D01*
X216250000Y-46570583D01*
X216250000Y-46570575D01*
X216243097Y-46500490D01*
X216215822Y-46410575D01*
X216171529Y-46327709D01*
X216149775Y-46301202D01*
X216126852Y-46273270D01*
X216126850Y-46273268D01*
X216111921Y-46255077D01*
X216093729Y-46240147D01*
X214990622Y-45137041D01*
X215010812Y-45070482D01*
X215023072Y-44946000D01*
X215020000Y-44481750D01*
X214861250Y-44323000D01*
X213512000Y-44323000D01*
X213512000Y-44343000D01*
X213258000Y-44343000D01*
X213258000Y-44323000D01*
X211908750Y-44323000D01*
X211750000Y-44481750D01*
X211746928Y-44946000D01*
X211759188Y-45070482D01*
X211779378Y-45137040D01*
X211064265Y-45852154D01*
X211046068Y-45867088D01*
X210986460Y-45939720D01*
X210942167Y-46022587D01*
X210914892Y-46112502D01*
X210907989Y-46182587D01*
X210907989Y-46182594D01*
X210905683Y-46206009D01*
X210907989Y-46229424D01*
X210907990Y-47783000D01*
X209326995Y-47783000D01*
X209244591Y-47584062D01*
X209088424Y-47350340D01*
X208889660Y-47151576D01*
X208885541Y-47148824D01*
X209030000Y-47148824D01*
X209103905Y-47141545D01*
X209174970Y-47119988D01*
X209240463Y-47084981D01*
X209297869Y-47037869D01*
X209344981Y-46980463D01*
X209379988Y-46914970D01*
X209401545Y-46843905D01*
X209408824Y-46770000D01*
X209408824Y-45265755D01*
X211228579Y-43446000D01*
X211746928Y-43446000D01*
X211750000Y-43910250D01*
X211908750Y-44069000D01*
X213258000Y-44069000D01*
X213258000Y-42969750D01*
X213512000Y-42969750D01*
X213512000Y-44069000D01*
X214861250Y-44069000D01*
X215020000Y-43910250D01*
X215023072Y-43446000D01*
X215010812Y-43321518D01*
X214974502Y-43201820D01*
X214915537Y-43091506D01*
X214836185Y-42994815D01*
X214739494Y-42915463D01*
X214629180Y-42856498D01*
X214509482Y-42820188D01*
X214385000Y-42807928D01*
X213670750Y-42811000D01*
X213512000Y-42969750D01*
X213258000Y-42969750D01*
X213099250Y-42811000D01*
X212385000Y-42807928D01*
X212260518Y-42820188D01*
X212140820Y-42856498D01*
X212030506Y-42915463D01*
X211933815Y-42994815D01*
X211854463Y-43091506D01*
X211795498Y-43201820D01*
X211759188Y-43321518D01*
X211746928Y-43446000D01*
X211228579Y-43446000D01*
X212577807Y-42096773D01*
X212699764Y-42279294D01*
X212863706Y-42443236D01*
X213056481Y-42572044D01*
X213270682Y-42660769D01*
X213498076Y-42706000D01*
X213729924Y-42706000D01*
X213957318Y-42660769D01*
X214171519Y-42572044D01*
X214364294Y-42443236D01*
X214528236Y-42279294D01*
X214657044Y-42086519D01*
X214745769Y-41872318D01*
X214791000Y-41644924D01*
X214791000Y-41413076D01*
X214745769Y-41185682D01*
X214657044Y-40971481D01*
X214613290Y-40905999D01*
X216787470Y-40905999D01*
X218569321Y-42687851D01*
%TA.AperFunction,Conductor*%
D28*
G36*
X218569321Y-42687851D02*
G01*
X218565025Y-42709447D01*
X218565025Y-42862503D01*
X218594884Y-43012618D01*
X218653456Y-43154023D01*
X218738489Y-43281284D01*
X218846716Y-43389511D01*
X218973977Y-43474544D01*
X219115382Y-43533116D01*
X219265497Y-43562975D01*
X219418553Y-43562975D01*
X219568668Y-43533116D01*
X219710073Y-43474544D01*
X219837334Y-43389511D01*
X219945561Y-43281284D01*
X220030594Y-43154023D01*
X220056487Y-43091513D01*
X220081493Y-43099098D01*
X220151578Y-43106001D01*
X220151585Y-43106001D01*
X220175000Y-43108307D01*
X220198415Y-43106001D01*
X222250586Y-43106001D01*
X222274001Y-43108307D01*
X222297416Y-43106001D01*
X222297424Y-43106001D01*
X222342862Y-43101526D01*
X222342862Y-43751859D01*
X221851489Y-44243233D01*
X221833292Y-44258167D01*
X221773684Y-44330799D01*
X221729391Y-44413666D01*
X221702116Y-44503581D01*
X221695213Y-44573666D01*
X221695213Y-44573673D01*
X221692907Y-44597088D01*
X221695213Y-44620503D01*
X221695214Y-46499641D01*
X221676904Y-46511875D01*
X221568677Y-46620102D01*
X221483644Y-46747363D01*
X221462001Y-46799614D01*
X221462001Y-44379414D01*
X221464307Y-44355999D01*
X221462001Y-44332584D01*
X221462001Y-44332576D01*
X221455098Y-44262491D01*
X221427823Y-44172576D01*
X221383530Y-44089710D01*
X221323922Y-44017078D01*
X221305725Y-44002144D01*
X221278856Y-43975275D01*
X221263922Y-43957078D01*
X221191290Y-43897470D01*
X221108424Y-43853177D01*
X221018509Y-43825902D01*
X220948424Y-43818999D01*
X220948416Y-43818999D01*
X220925001Y-43816693D01*
X220901586Y-43818999D01*
X218468414Y-43818999D01*
X218444999Y-43816693D01*
X218421584Y-43818999D01*
X218421576Y-43818999D01*
X218351491Y-43825902D01*
X218261576Y-43853177D01*
X218178710Y-43897470D01*
X218106078Y-43957078D01*
X218091144Y-43975275D01*
X218044775Y-44021644D01*
X218026578Y-44036578D01*
X218011644Y-44054775D01*
X217959148Y-44107271D01*
X217914472Y-44161710D01*
X217870178Y-44244576D01*
X217842903Y-44334491D01*
X217833694Y-44427998D01*
X217842903Y-44521505D01*
X217870178Y-44611420D01*
X217888499Y-44645695D01*
X217888500Y-48011325D01*
X217756149Y-48066147D01*
X217628888Y-48151180D01*
X217520661Y-48259407D01*
X217435628Y-48386668D01*
X217423648Y-48415590D01*
X217012335Y-48004277D01*
X216997401Y-47986080D01*
X216924769Y-47926472D01*
X216841903Y-47882179D01*
X216751988Y-47854904D01*
X216681903Y-47848001D01*
X216681895Y-47848001D01*
X216658480Y-47845695D01*
X216635065Y-47848001D01*
X216520865Y-47848001D01*
X216550000Y-47701528D01*
X216550000Y-47548472D01*
X216520141Y-47398357D01*
X216461569Y-47256952D01*
X216376536Y-47129691D01*
X216268309Y-47021464D01*
X216250000Y-47009230D01*
X216250000Y-46617413D01*
X216252306Y-46593998D01*
X216250000Y-46570583D01*
X216250000Y-46570575D01*
X216243097Y-46500490D01*
X216215822Y-46410575D01*
X216171529Y-46327709D01*
X216149775Y-46301202D01*
X216126852Y-46273270D01*
X216126850Y-46273268D01*
X216111921Y-46255077D01*
X216093729Y-46240147D01*
X214990622Y-45137041D01*
X215010812Y-45070482D01*
X215023072Y-44946000D01*
X215020000Y-44481750D01*
X214861250Y-44323000D01*
X213512000Y-44323000D01*
X213512000Y-44343000D01*
X213258000Y-44343000D01*
X213258000Y-44323000D01*
X211908750Y-44323000D01*
X211750000Y-44481750D01*
X211746928Y-44946000D01*
X211759188Y-45070482D01*
X211779378Y-45137040D01*
X211064265Y-45852154D01*
X211046068Y-45867088D01*
X210986460Y-45939720D01*
X210942167Y-46022587D01*
X210914892Y-46112502D01*
X210907989Y-46182587D01*
X210907989Y-46182594D01*
X210905683Y-46206009D01*
X210907989Y-46229424D01*
X210907990Y-47783000D01*
X209326995Y-47783000D01*
X209244591Y-47584062D01*
X209088424Y-47350340D01*
X208889660Y-47151576D01*
X208885541Y-47148824D01*
X209030000Y-47148824D01*
X209103905Y-47141545D01*
X209174970Y-47119988D01*
X209240463Y-47084981D01*
X209297869Y-47037869D01*
X209344981Y-46980463D01*
X209379988Y-46914970D01*
X209401545Y-46843905D01*
X209408824Y-46770000D01*
X209408824Y-45265755D01*
X211228579Y-43446000D01*
X211746928Y-43446000D01*
X211750000Y-43910250D01*
X211908750Y-44069000D01*
X213258000Y-44069000D01*
X213258000Y-42969750D01*
X213512000Y-42969750D01*
X213512000Y-44069000D01*
X214861250Y-44069000D01*
X215020000Y-43910250D01*
X215023072Y-43446000D01*
X215010812Y-43321518D01*
X214974502Y-43201820D01*
X214915537Y-43091506D01*
X214836185Y-42994815D01*
X214739494Y-42915463D01*
X214629180Y-42856498D01*
X214509482Y-42820188D01*
X214385000Y-42807928D01*
X213670750Y-42811000D01*
X213512000Y-42969750D01*
X213258000Y-42969750D01*
X213099250Y-42811000D01*
X212385000Y-42807928D01*
X212260518Y-42820188D01*
X212140820Y-42856498D01*
X212030506Y-42915463D01*
X211933815Y-42994815D01*
X211854463Y-43091506D01*
X211795498Y-43201820D01*
X211759188Y-43321518D01*
X211746928Y-43446000D01*
X211228579Y-43446000D01*
X212577807Y-42096773D01*
X212699764Y-42279294D01*
X212863706Y-42443236D01*
X213056481Y-42572044D01*
X213270682Y-42660769D01*
X213498076Y-42706000D01*
X213729924Y-42706000D01*
X213957318Y-42660769D01*
X214171519Y-42572044D01*
X214364294Y-42443236D01*
X214528236Y-42279294D01*
X214657044Y-42086519D01*
X214745769Y-41872318D01*
X214791000Y-41644924D01*
X214791000Y-41413076D01*
X214745769Y-41185682D01*
X214657044Y-40971481D01*
X214613290Y-40905999D01*
X216787470Y-40905999D01*
X218569321Y-42687851D01*
G37*
%TD.AperFunction*%
D27*
X234283859Y-38508357D02*
X234254000Y-38658472D01*
X234254000Y-38811528D01*
X234283859Y-38961643D01*
X234342431Y-39103048D01*
X234427464Y-39230309D01*
X234535691Y-39338536D01*
X234662952Y-39423569D01*
X234804357Y-39482141D01*
X234954472Y-39512000D01*
X235107528Y-39512000D01*
X235257643Y-39482141D01*
X235399048Y-39423569D01*
X235526309Y-39338536D01*
X235634536Y-39230309D01*
X235719569Y-39103048D01*
X235778141Y-38961643D01*
X235808000Y-38811528D01*
X235808000Y-38658472D01*
X235778141Y-38508357D01*
X235740713Y-38417999D01*
X237742999Y-38417999D01*
X237743000Y-39948859D01*
X237740693Y-39972284D01*
X237749902Y-40065791D01*
X237777177Y-40155706D01*
X237784318Y-40169065D01*
X237821471Y-40238573D01*
X237881079Y-40311205D01*
X237899270Y-40326134D01*
X238533864Y-40960729D01*
X238548794Y-40978921D01*
X238621426Y-41038529D01*
X238704292Y-41082822D01*
X238794207Y-41110097D01*
X238864292Y-41117000D01*
X238864299Y-41117000D01*
X238887714Y-41119306D01*
X238911129Y-41117000D01*
X238988583Y-41117000D01*
X239011998Y-41119306D01*
X239035413Y-41117000D01*
X239035421Y-41117000D01*
X239105506Y-41110097D01*
X239195421Y-41082822D01*
X239232176Y-41063176D01*
X239232176Y-41131000D01*
X239239455Y-41204905D01*
X239254954Y-41256000D01*
X239239455Y-41307095D01*
X239232176Y-41381000D01*
X239232176Y-41757770D01*
X239087526Y-41728998D01*
X238934470Y-41728998D01*
X238784355Y-41758857D01*
X238642950Y-41817429D01*
X238515689Y-41902462D01*
X238407462Y-42010689D01*
X238395228Y-42028998D01*
X236984416Y-42028998D01*
X236961001Y-42026692D01*
X236937586Y-42028998D01*
X236937579Y-42028998D01*
X236867494Y-42035901D01*
X236777579Y-42063176D01*
X236694713Y-42107469D01*
X236622081Y-42167077D01*
X236607151Y-42185269D01*
X236240271Y-42552150D01*
X236222080Y-42567079D01*
X236207151Y-42585270D01*
X236207148Y-42585273D01*
X236197632Y-42596869D01*
X236162472Y-42639711D01*
X236154582Y-42654472D01*
X236118178Y-42722578D01*
X236114182Y-42735752D01*
X236109905Y-42734455D01*
X236036000Y-42727176D01*
X235486000Y-42727176D01*
X235412095Y-42734455D01*
X235361000Y-42749954D01*
X235309905Y-42734455D01*
X235236000Y-42727176D01*
X234686000Y-42727176D01*
X234612095Y-42734455D01*
X234561000Y-42749954D01*
X234509905Y-42734455D01*
X234436000Y-42727176D01*
X233886000Y-42727176D01*
X233812095Y-42734455D01*
X233761000Y-42749954D01*
X233709905Y-42734455D01*
X233636000Y-42727176D01*
X233089824Y-42727176D01*
X233089824Y-42181000D01*
X233082545Y-42107095D01*
X233067046Y-42056000D01*
X233082545Y-42004905D01*
X233089824Y-41931000D01*
X233089824Y-41381000D01*
X233082545Y-41307095D01*
X233067046Y-41256000D01*
X233082545Y-41204905D01*
X233089824Y-41131000D01*
X233089824Y-40841387D01*
X233160010Y-40784350D01*
X233239826Y-40688041D01*
X233299320Y-40578012D01*
X233336206Y-40458490D01*
X233346000Y-40341750D01*
X233187250Y-40183000D01*
X232038000Y-40183000D01*
X232038000Y-40202176D01*
X231784000Y-40202176D01*
X231784000Y-40183000D01*
X231764000Y-40183000D01*
X231764000Y-39929000D01*
X231784000Y-39929000D01*
X231784000Y-39909824D01*
X232038000Y-39909824D01*
X232038000Y-39929000D01*
X233187250Y-39929000D01*
X233346000Y-39770250D01*
X233336206Y-39653510D01*
X233299320Y-39533988D01*
X233239826Y-39423959D01*
X233160010Y-39327650D01*
X233089824Y-39270613D01*
X233089824Y-38981000D01*
X233082545Y-38907095D01*
X233067046Y-38856000D01*
X233082545Y-38804905D01*
X233089824Y-38731000D01*
X233089824Y-38417999D01*
X234321287Y-38417999D01*
X234283859Y-38508357D01*
%TA.AperFunction,Conductor*%
D28*
G36*
X234283859Y-38508357D02*
G01*
X234254000Y-38658472D01*
X234254000Y-38811528D01*
X234283859Y-38961643D01*
X234342431Y-39103048D01*
X234427464Y-39230309D01*
X234535691Y-39338536D01*
X234662952Y-39423569D01*
X234804357Y-39482141D01*
X234954472Y-39512000D01*
X235107528Y-39512000D01*
X235257643Y-39482141D01*
X235399048Y-39423569D01*
X235526309Y-39338536D01*
X235634536Y-39230309D01*
X235719569Y-39103048D01*
X235778141Y-38961643D01*
X235808000Y-38811528D01*
X235808000Y-38658472D01*
X235778141Y-38508357D01*
X235740713Y-38417999D01*
X237742999Y-38417999D01*
X237743000Y-39948859D01*
X237740693Y-39972284D01*
X237749902Y-40065791D01*
X237777177Y-40155706D01*
X237784318Y-40169065D01*
X237821471Y-40238573D01*
X237881079Y-40311205D01*
X237899270Y-40326134D01*
X238533864Y-40960729D01*
X238548794Y-40978921D01*
X238621426Y-41038529D01*
X238704292Y-41082822D01*
X238794207Y-41110097D01*
X238864292Y-41117000D01*
X238864299Y-41117000D01*
X238887714Y-41119306D01*
X238911129Y-41117000D01*
X238988583Y-41117000D01*
X239011998Y-41119306D01*
X239035413Y-41117000D01*
X239035421Y-41117000D01*
X239105506Y-41110097D01*
X239195421Y-41082822D01*
X239232176Y-41063176D01*
X239232176Y-41131000D01*
X239239455Y-41204905D01*
X239254954Y-41256000D01*
X239239455Y-41307095D01*
X239232176Y-41381000D01*
X239232176Y-41757770D01*
X239087526Y-41728998D01*
X238934470Y-41728998D01*
X238784355Y-41758857D01*
X238642950Y-41817429D01*
X238515689Y-41902462D01*
X238407462Y-42010689D01*
X238395228Y-42028998D01*
X236984416Y-42028998D01*
X236961001Y-42026692D01*
X236937586Y-42028998D01*
X236937579Y-42028998D01*
X236867494Y-42035901D01*
X236777579Y-42063176D01*
X236694713Y-42107469D01*
X236622081Y-42167077D01*
X236607151Y-42185269D01*
X236240271Y-42552150D01*
X236222080Y-42567079D01*
X236207151Y-42585270D01*
X236207148Y-42585273D01*
X236197632Y-42596869D01*
X236162472Y-42639711D01*
X236154582Y-42654472D01*
X236118178Y-42722578D01*
X236114182Y-42735752D01*
X236109905Y-42734455D01*
X236036000Y-42727176D01*
X235486000Y-42727176D01*
X235412095Y-42734455D01*
X235361000Y-42749954D01*
X235309905Y-42734455D01*
X235236000Y-42727176D01*
X234686000Y-42727176D01*
X234612095Y-42734455D01*
X234561000Y-42749954D01*
X234509905Y-42734455D01*
X234436000Y-42727176D01*
X233886000Y-42727176D01*
X233812095Y-42734455D01*
X233761000Y-42749954D01*
X233709905Y-42734455D01*
X233636000Y-42727176D01*
X233089824Y-42727176D01*
X233089824Y-42181000D01*
X233082545Y-42107095D01*
X233067046Y-42056000D01*
X233082545Y-42004905D01*
X233089824Y-41931000D01*
X233089824Y-41381000D01*
X233082545Y-41307095D01*
X233067046Y-41256000D01*
X233082545Y-41204905D01*
X233089824Y-41131000D01*
X233089824Y-40841387D01*
X233160010Y-40784350D01*
X233239826Y-40688041D01*
X233299320Y-40578012D01*
X233336206Y-40458490D01*
X233346000Y-40341750D01*
X233187250Y-40183000D01*
X232038000Y-40183000D01*
X232038000Y-40202176D01*
X231784000Y-40202176D01*
X231784000Y-40183000D01*
X231764000Y-40183000D01*
X231764000Y-39929000D01*
X231784000Y-39929000D01*
X231784000Y-39909824D01*
X232038000Y-39909824D01*
X232038000Y-39929000D01*
X233187250Y-39929000D01*
X233346000Y-39770250D01*
X233336206Y-39653510D01*
X233299320Y-39533988D01*
X233239826Y-39423959D01*
X233160010Y-39327650D01*
X233089824Y-39270613D01*
X233089824Y-38981000D01*
X233082545Y-38907095D01*
X233067046Y-38856000D01*
X233082545Y-38804905D01*
X233089824Y-38731000D01*
X233089824Y-38417999D01*
X234321287Y-38417999D01*
X234283859Y-38508357D01*
G37*
%TD.AperFunction*%
D27*
X247456000Y-35012180D02*
X247351641Y-34793080D01*
X247177588Y-34559731D01*
X246961355Y-34364822D01*
X246711252Y-34215843D01*
X246436891Y-34118519D01*
X246207000Y-34239186D01*
X246207000Y-35433000D01*
X246227000Y-35433000D01*
X246227000Y-35687000D01*
X246207000Y-35687000D01*
X246207000Y-37973000D01*
X246227000Y-37973000D01*
X246227000Y-38227000D01*
X246207000Y-38227000D01*
X246207000Y-38247000D01*
X245953000Y-38247000D01*
X245953000Y-38227000D01*
X244759845Y-38227000D01*
X244638524Y-38456890D01*
X244683175Y-38604099D01*
X244808359Y-38866920D01*
X244982412Y-39100269D01*
X245198645Y-39295178D01*
X245448748Y-39444157D01*
X245616798Y-39503769D01*
X245498798Y-39552647D01*
X245297833Y-39686927D01*
X245126927Y-39857833D01*
X244992647Y-40058798D01*
X244900153Y-40282097D01*
X244853000Y-40519151D01*
X244853000Y-40647000D01*
X244121711Y-40647000D01*
X244055577Y-40592725D01*
X243955506Y-40539236D01*
X243936296Y-40533409D01*
X243938306Y-40512999D01*
X243936000Y-40489584D01*
X243936000Y-40489577D01*
X243929097Y-40419492D01*
X243914453Y-40371217D01*
X243955506Y-40358764D01*
X244055577Y-40305275D01*
X244143290Y-40233290D01*
X244215275Y-40145577D01*
X244268764Y-40045506D01*
X244301702Y-39936923D01*
X244312824Y-39824000D01*
X244312824Y-39424000D01*
X244301702Y-39311077D01*
X244268764Y-39202494D01*
X244215275Y-39102423D01*
X244143290Y-39014710D01*
X244082415Y-38964751D01*
X244137799Y-38919299D01*
X244212115Y-38828744D01*
X244267336Y-38725432D01*
X244301342Y-38613331D01*
X244312824Y-38496750D01*
X244312824Y-38059250D01*
X244301342Y-37942669D01*
X244267336Y-37830568D01*
X244212115Y-37727256D01*
X244203334Y-37716557D01*
X244288494Y-37671037D01*
X244385185Y-37591685D01*
X244464537Y-37494994D01*
X244523502Y-37384680D01*
X244559812Y-37264982D01*
X244572072Y-37140500D01*
X244569000Y-36988750D01*
X244410250Y-36830000D01*
X243586000Y-36830000D01*
X243586000Y-36850000D01*
X243332000Y-36850000D01*
X243332000Y-36830000D01*
X242507750Y-36830000D01*
X242349000Y-36988750D01*
X242345928Y-37140500D01*
X242358188Y-37264982D01*
X242394498Y-37384680D01*
X242453463Y-37494994D01*
X242532815Y-37591685D01*
X242629506Y-37671037D01*
X242714666Y-37716557D01*
X242705885Y-37727256D01*
X242650664Y-37830568D01*
X242616658Y-37942669D01*
X242605176Y-38059250D01*
X242605176Y-38496750D01*
X242616658Y-38613331D01*
X242650664Y-38725432D01*
X242705885Y-38828744D01*
X242780201Y-38919299D01*
X242835585Y-38964751D01*
X242774710Y-39014710D01*
X242702725Y-39102423D01*
X242649236Y-39202494D01*
X242627545Y-39274000D01*
X241450414Y-39274000D01*
X241426999Y-39271694D01*
X241403584Y-39274000D01*
X241403577Y-39274000D01*
X241333492Y-39280903D01*
X241243577Y-39308178D01*
X241160711Y-39352471D01*
X241123512Y-39383000D01*
X240538000Y-39383000D01*
X240538000Y-39402176D01*
X240284000Y-39402176D01*
X240284000Y-39383000D01*
X239134750Y-39383000D01*
X238976000Y-39541750D01*
X238985794Y-39658490D01*
X239022680Y-39778012D01*
X239082174Y-39888041D01*
X239085438Y-39891980D01*
X238949857Y-40027562D01*
X238696999Y-39774705D01*
X238696999Y-37964422D01*
X238699306Y-37940999D01*
X238690096Y-37847491D01*
X238662821Y-37757576D01*
X238618528Y-37674710D01*
X238558920Y-37602078D01*
X238486288Y-37542470D01*
X238403422Y-37498177D01*
X238313507Y-37470902D01*
X238243422Y-37463999D01*
X238243421Y-37463999D01*
X238219999Y-37461692D01*
X238196576Y-37463999D01*
X234959416Y-37463999D01*
X234936001Y-37461693D01*
X234912586Y-37463999D01*
X233208580Y-37463999D01*
X233085917Y-37341336D01*
X233082545Y-37307095D01*
X233067046Y-37256000D01*
X233082545Y-37204905D01*
X233089824Y-37131000D01*
X233089824Y-36584824D01*
X233636000Y-36584824D01*
X233709905Y-36577545D01*
X233761000Y-36562046D01*
X233812095Y-36577545D01*
X233886000Y-36584824D01*
X234185863Y-36584824D01*
X234185863Y-36708569D01*
X234215722Y-36858684D01*
X234274294Y-37000089D01*
X234359327Y-37127350D01*
X234467554Y-37235577D01*
X234594815Y-37320610D01*
X234736220Y-37379182D01*
X234886335Y-37409041D01*
X235039391Y-37409041D01*
X235189506Y-37379182D01*
X235330911Y-37320610D01*
X235458172Y-37235577D01*
X235566399Y-37127350D01*
X235651432Y-37000089D01*
X235710004Y-36858684D01*
X235739863Y-36708569D01*
X235739863Y-36584824D01*
X236036000Y-36584824D01*
X236109905Y-36577545D01*
X236161000Y-36562046D01*
X236212095Y-36577545D01*
X236286000Y-36584824D01*
X236836000Y-36584824D01*
X236909905Y-36577545D01*
X236961000Y-36562046D01*
X237012095Y-36577545D01*
X237086000Y-36584824D01*
X237636000Y-36584824D01*
X237709905Y-36577545D01*
X237761000Y-36562046D01*
X237812095Y-36577545D01*
X237886000Y-36584824D01*
X238436000Y-36584824D01*
X238509905Y-36577545D01*
X238561000Y-36562046D01*
X238612095Y-36577545D01*
X238686000Y-36584824D01*
X239232176Y-36584824D01*
X239232176Y-37131000D01*
X239239455Y-37204905D01*
X239254954Y-37256000D01*
X239239455Y-37307095D01*
X239232176Y-37381000D01*
X239232176Y-37931000D01*
X239239455Y-38004905D01*
X239254954Y-38056000D01*
X239239455Y-38107095D01*
X239232176Y-38181000D01*
X239232176Y-38470613D01*
X239161990Y-38527650D01*
X239082174Y-38623959D01*
X239022680Y-38733988D01*
X238985794Y-38853510D01*
X238976000Y-38970250D01*
X239134750Y-39129000D01*
X240284000Y-39129000D01*
X240284000Y-39109824D01*
X240538000Y-39109824D01*
X240538000Y-39129000D01*
X241687250Y-39129000D01*
X241846000Y-38970250D01*
X241836206Y-38853510D01*
X241799320Y-38733988D01*
X241739826Y-38623959D01*
X241660010Y-38527650D01*
X241589824Y-38470613D01*
X241589824Y-38181000D01*
X241587202Y-38154377D01*
X241955729Y-37785851D01*
X241973921Y-37770921D01*
X241991495Y-37749508D01*
X242005516Y-37732423D01*
X242033529Y-37698289D01*
X242077822Y-37615423D01*
X242105097Y-37525508D01*
X242112000Y-37455423D01*
X242112000Y-37455414D01*
X242114306Y-37432001D01*
X242112000Y-37408588D01*
X242112000Y-35941824D01*
X242436990Y-35941824D01*
X242394498Y-36021320D01*
X242358188Y-36141018D01*
X242345928Y-36265500D01*
X242349000Y-36417250D01*
X242507750Y-36576000D01*
X243332000Y-36576000D01*
X243332000Y-36556000D01*
X243586000Y-36556000D01*
X243586000Y-36576000D01*
X244410250Y-36576000D01*
X244569000Y-36417250D01*
X244572072Y-36265500D01*
X244559812Y-36141018D01*
X244523502Y-36021320D01*
X244467683Y-35916890D01*
X244638524Y-35916890D01*
X244683175Y-36064099D01*
X244808359Y-36326920D01*
X244982412Y-36560269D01*
X245198645Y-36755178D01*
X245324255Y-36830000D01*
X245198645Y-36904822D01*
X244982412Y-37099731D01*
X244808359Y-37333080D01*
X244683175Y-37595901D01*
X244638524Y-37743110D01*
X244759845Y-37973000D01*
X245953000Y-37973000D01*
X245953000Y-35687000D01*
X244759845Y-35687000D01*
X244638524Y-35916890D01*
X244467683Y-35916890D01*
X244464537Y-35911006D01*
X244385185Y-35814315D01*
X244288494Y-35734963D01*
X244178180Y-35675998D01*
X244058482Y-35639688D01*
X243934000Y-35627428D01*
X243744750Y-35630500D01*
X243586002Y-35789248D01*
X243586002Y-35704627D01*
X243606545Y-35636905D01*
X243613824Y-35563000D01*
X243613824Y-35203110D01*
X244638524Y-35203110D01*
X244759845Y-35433000D01*
X245953000Y-35433000D01*
X245953000Y-34239186D01*
X245723109Y-34118519D01*
X245448748Y-34215843D01*
X245198645Y-34364822D01*
X244982412Y-34559731D01*
X244808359Y-34793080D01*
X244683175Y-35055901D01*
X244638524Y-35203110D01*
X243613824Y-35203110D01*
X243613824Y-35163000D01*
X243606545Y-35089095D01*
X243584988Y-35018030D01*
X243549981Y-34952537D01*
X243528351Y-34926180D01*
X243585089Y-34896454D01*
X243682434Y-34817905D01*
X243762585Y-34721874D01*
X243822460Y-34612052D01*
X243859760Y-34492658D01*
X243870000Y-34394750D01*
X243711250Y-34236000D01*
X241762000Y-34236000D01*
X241762000Y-34310000D01*
X241508000Y-34310000D01*
X241508000Y-34236000D01*
X241488000Y-34236000D01*
X241488000Y-34090000D01*
X241508000Y-34090000D01*
X241508000Y-34016000D01*
X241762000Y-34016000D01*
X241762000Y-34090000D01*
X243711250Y-34090000D01*
X243870000Y-33931250D01*
X243859760Y-33833342D01*
X243822460Y-33713948D01*
X243762585Y-33604126D01*
X243682434Y-33508095D01*
X243585089Y-33429546D01*
X243530603Y-33401000D01*
X247456000Y-33401000D01*
X247456000Y-35012180D01*
%TA.AperFunction,Conductor*%
D28*
G36*
X247456000Y-35012180D02*
G01*
X247351641Y-34793080D01*
X247177588Y-34559731D01*
X246961355Y-34364822D01*
X246711252Y-34215843D01*
X246436891Y-34118519D01*
X246207000Y-34239186D01*
X246207000Y-35433000D01*
X246227000Y-35433000D01*
X246227000Y-35687000D01*
X246207000Y-35687000D01*
X246207000Y-37973000D01*
X246227000Y-37973000D01*
X246227000Y-38227000D01*
X246207000Y-38227000D01*
X246207000Y-38247000D01*
X245953000Y-38247000D01*
X245953000Y-38227000D01*
X244759845Y-38227000D01*
X244638524Y-38456890D01*
X244683175Y-38604099D01*
X244808359Y-38866920D01*
X244982412Y-39100269D01*
X245198645Y-39295178D01*
X245448748Y-39444157D01*
X245616798Y-39503769D01*
X245498798Y-39552647D01*
X245297833Y-39686927D01*
X245126927Y-39857833D01*
X244992647Y-40058798D01*
X244900153Y-40282097D01*
X244853000Y-40519151D01*
X244853000Y-40647000D01*
X244121711Y-40647000D01*
X244055577Y-40592725D01*
X243955506Y-40539236D01*
X243936296Y-40533409D01*
X243938306Y-40512999D01*
X243936000Y-40489584D01*
X243936000Y-40489577D01*
X243929097Y-40419492D01*
X243914453Y-40371217D01*
X243955506Y-40358764D01*
X244055577Y-40305275D01*
X244143290Y-40233290D01*
X244215275Y-40145577D01*
X244268764Y-40045506D01*
X244301702Y-39936923D01*
X244312824Y-39824000D01*
X244312824Y-39424000D01*
X244301702Y-39311077D01*
X244268764Y-39202494D01*
X244215275Y-39102423D01*
X244143290Y-39014710D01*
X244082415Y-38964751D01*
X244137799Y-38919299D01*
X244212115Y-38828744D01*
X244267336Y-38725432D01*
X244301342Y-38613331D01*
X244312824Y-38496750D01*
X244312824Y-38059250D01*
X244301342Y-37942669D01*
X244267336Y-37830568D01*
X244212115Y-37727256D01*
X244203334Y-37716557D01*
X244288494Y-37671037D01*
X244385185Y-37591685D01*
X244464537Y-37494994D01*
X244523502Y-37384680D01*
X244559812Y-37264982D01*
X244572072Y-37140500D01*
X244569000Y-36988750D01*
X244410250Y-36830000D01*
X243586000Y-36830000D01*
X243586000Y-36850000D01*
X243332000Y-36850000D01*
X243332000Y-36830000D01*
X242507750Y-36830000D01*
X242349000Y-36988750D01*
X242345928Y-37140500D01*
X242358188Y-37264982D01*
X242394498Y-37384680D01*
X242453463Y-37494994D01*
X242532815Y-37591685D01*
X242629506Y-37671037D01*
X242714666Y-37716557D01*
X242705885Y-37727256D01*
X242650664Y-37830568D01*
X242616658Y-37942669D01*
X242605176Y-38059250D01*
X242605176Y-38496750D01*
X242616658Y-38613331D01*
X242650664Y-38725432D01*
X242705885Y-38828744D01*
X242780201Y-38919299D01*
X242835585Y-38964751D01*
X242774710Y-39014710D01*
X242702725Y-39102423D01*
X242649236Y-39202494D01*
X242627545Y-39274000D01*
X241450414Y-39274000D01*
X241426999Y-39271694D01*
X241403584Y-39274000D01*
X241403577Y-39274000D01*
X241333492Y-39280903D01*
X241243577Y-39308178D01*
X241160711Y-39352471D01*
X241123512Y-39383000D01*
X240538000Y-39383000D01*
X240538000Y-39402176D01*
X240284000Y-39402176D01*
X240284000Y-39383000D01*
X239134750Y-39383000D01*
X238976000Y-39541750D01*
X238985794Y-39658490D01*
X239022680Y-39778012D01*
X239082174Y-39888041D01*
X239085438Y-39891980D01*
X238949857Y-40027562D01*
X238696999Y-39774705D01*
X238696999Y-37964422D01*
X238699306Y-37940999D01*
X238690096Y-37847491D01*
X238662821Y-37757576D01*
X238618528Y-37674710D01*
X238558920Y-37602078D01*
X238486288Y-37542470D01*
X238403422Y-37498177D01*
X238313507Y-37470902D01*
X238243422Y-37463999D01*
X238243421Y-37463999D01*
X238219999Y-37461692D01*
X238196576Y-37463999D01*
X234959416Y-37463999D01*
X234936001Y-37461693D01*
X234912586Y-37463999D01*
X233208580Y-37463999D01*
X233085917Y-37341336D01*
X233082545Y-37307095D01*
X233067046Y-37256000D01*
X233082545Y-37204905D01*
X233089824Y-37131000D01*
X233089824Y-36584824D01*
X233636000Y-36584824D01*
X233709905Y-36577545D01*
X233761000Y-36562046D01*
X233812095Y-36577545D01*
X233886000Y-36584824D01*
X234185863Y-36584824D01*
X234185863Y-36708569D01*
X234215722Y-36858684D01*
X234274294Y-37000089D01*
X234359327Y-37127350D01*
X234467554Y-37235577D01*
X234594815Y-37320610D01*
X234736220Y-37379182D01*
X234886335Y-37409041D01*
X235039391Y-37409041D01*
X235189506Y-37379182D01*
X235330911Y-37320610D01*
X235458172Y-37235577D01*
X235566399Y-37127350D01*
X235651432Y-37000089D01*
X235710004Y-36858684D01*
X235739863Y-36708569D01*
X235739863Y-36584824D01*
X236036000Y-36584824D01*
X236109905Y-36577545D01*
X236161000Y-36562046D01*
X236212095Y-36577545D01*
X236286000Y-36584824D01*
X236836000Y-36584824D01*
X236909905Y-36577545D01*
X236961000Y-36562046D01*
X237012095Y-36577545D01*
X237086000Y-36584824D01*
X237636000Y-36584824D01*
X237709905Y-36577545D01*
X237761000Y-36562046D01*
X237812095Y-36577545D01*
X237886000Y-36584824D01*
X238436000Y-36584824D01*
X238509905Y-36577545D01*
X238561000Y-36562046D01*
X238612095Y-36577545D01*
X238686000Y-36584824D01*
X239232176Y-36584824D01*
X239232176Y-37131000D01*
X239239455Y-37204905D01*
X239254954Y-37256000D01*
X239239455Y-37307095D01*
X239232176Y-37381000D01*
X239232176Y-37931000D01*
X239239455Y-38004905D01*
X239254954Y-38056000D01*
X239239455Y-38107095D01*
X239232176Y-38181000D01*
X239232176Y-38470613D01*
X239161990Y-38527650D01*
X239082174Y-38623959D01*
X239022680Y-38733988D01*
X238985794Y-38853510D01*
X238976000Y-38970250D01*
X239134750Y-39129000D01*
X240284000Y-39129000D01*
X240284000Y-39109824D01*
X240538000Y-39109824D01*
X240538000Y-39129000D01*
X241687250Y-39129000D01*
X241846000Y-38970250D01*
X241836206Y-38853510D01*
X241799320Y-38733988D01*
X241739826Y-38623959D01*
X241660010Y-38527650D01*
X241589824Y-38470613D01*
X241589824Y-38181000D01*
X241587202Y-38154377D01*
X241955729Y-37785851D01*
X241973921Y-37770921D01*
X241991495Y-37749508D01*
X242005516Y-37732423D01*
X242033529Y-37698289D01*
X242077822Y-37615423D01*
X242105097Y-37525508D01*
X242112000Y-37455423D01*
X242112000Y-37455414D01*
X242114306Y-37432001D01*
X242112000Y-37408588D01*
X242112000Y-35941824D01*
X242436990Y-35941824D01*
X242394498Y-36021320D01*
X242358188Y-36141018D01*
X242345928Y-36265500D01*
X242349000Y-36417250D01*
X242507750Y-36576000D01*
X243332000Y-36576000D01*
X243332000Y-36556000D01*
X243586000Y-36556000D01*
X243586000Y-36576000D01*
X244410250Y-36576000D01*
X244569000Y-36417250D01*
X244572072Y-36265500D01*
X244559812Y-36141018D01*
X244523502Y-36021320D01*
X244467683Y-35916890D01*
X244638524Y-35916890D01*
X244683175Y-36064099D01*
X244808359Y-36326920D01*
X244982412Y-36560269D01*
X245198645Y-36755178D01*
X245324255Y-36830000D01*
X245198645Y-36904822D01*
X244982412Y-37099731D01*
X244808359Y-37333080D01*
X244683175Y-37595901D01*
X244638524Y-37743110D01*
X244759845Y-37973000D01*
X245953000Y-37973000D01*
X245953000Y-35687000D01*
X244759845Y-35687000D01*
X244638524Y-35916890D01*
X244467683Y-35916890D01*
X244464537Y-35911006D01*
X244385185Y-35814315D01*
X244288494Y-35734963D01*
X244178180Y-35675998D01*
X244058482Y-35639688D01*
X243934000Y-35627428D01*
X243744750Y-35630500D01*
X243586002Y-35789248D01*
X243586002Y-35704627D01*
X243606545Y-35636905D01*
X243613824Y-35563000D01*
X243613824Y-35203110D01*
X244638524Y-35203110D01*
X244759845Y-35433000D01*
X245953000Y-35433000D01*
X245953000Y-34239186D01*
X245723109Y-34118519D01*
X245448748Y-34215843D01*
X245198645Y-34364822D01*
X244982412Y-34559731D01*
X244808359Y-34793080D01*
X244683175Y-35055901D01*
X244638524Y-35203110D01*
X243613824Y-35203110D01*
X243613824Y-35163000D01*
X243606545Y-35089095D01*
X243584988Y-35018030D01*
X243549981Y-34952537D01*
X243528351Y-34926180D01*
X243585089Y-34896454D01*
X243682434Y-34817905D01*
X243762585Y-34721874D01*
X243822460Y-34612052D01*
X243859760Y-34492658D01*
X243870000Y-34394750D01*
X243711250Y-34236000D01*
X241762000Y-34236000D01*
X241762000Y-34310000D01*
X241508000Y-34310000D01*
X241508000Y-34236000D01*
X241488000Y-34236000D01*
X241488000Y-34090000D01*
X241508000Y-34090000D01*
X241508000Y-34016000D01*
X241762000Y-34016000D01*
X241762000Y-34090000D01*
X243711250Y-34090000D01*
X243870000Y-33931250D01*
X243859760Y-33833342D01*
X243822460Y-33713948D01*
X243762585Y-33604126D01*
X243682434Y-33508095D01*
X243585089Y-33429546D01*
X243530603Y-33401000D01*
X247456000Y-33401000D01*
X247456000Y-35012180D01*
G37*
%TD.AperFunction*%
D27*
X228194918Y-33997991D02*
X228099077Y-33958292D01*
X227948962Y-33928433D01*
X227795906Y-33928433D01*
X227743766Y-33938804D01*
X227777662Y-33875389D01*
X228072317Y-33875389D01*
X228194918Y-33997991D01*
%TA.AperFunction,Conductor*%
D28*
G36*
X228194918Y-33997991D02*
G01*
X228099077Y-33958292D01*
X227948962Y-33928433D01*
X227795906Y-33928433D01*
X227743766Y-33938804D01*
X227777662Y-33875389D01*
X228072317Y-33875389D01*
X228194918Y-33997991D01*
G37*
%TD.AperFunction*%
D27*
X243159000Y-32384176D02*
X240035000Y-32384176D01*
X239961095Y-32391455D01*
X239890030Y-32413012D01*
X239824537Y-32448019D01*
X239773713Y-32489729D01*
X239741492Y-32492903D01*
X239651577Y-32520178D01*
X239568711Y-32564471D01*
X239496079Y-32624079D01*
X239481145Y-32642276D01*
X239438000Y-32685421D01*
X239438000Y-31968635D01*
X239456821Y-31933424D01*
X239484096Y-31843509D01*
X239493306Y-31750001D01*
X239484096Y-31656493D01*
X239456821Y-31566578D01*
X239412528Y-31483712D01*
X239352920Y-31411080D01*
X239304169Y-31371071D01*
X239413073Y-31262167D01*
X239547353Y-31061202D01*
X239639847Y-30837903D01*
X239687000Y-30600849D01*
X239687000Y-30359151D01*
X239639847Y-30122097D01*
X239547353Y-29898798D01*
X239413073Y-29697833D01*
X239345240Y-29630000D01*
X239771176Y-29630000D01*
X239771176Y-31330000D01*
X239778455Y-31403905D01*
X239800012Y-31474970D01*
X239835019Y-31540463D01*
X239882131Y-31597869D01*
X239939537Y-31644981D01*
X240005030Y-31679988D01*
X240076095Y-31701545D01*
X240150000Y-31708824D01*
X241850000Y-31708824D01*
X241923905Y-31701545D01*
X241994970Y-31679988D01*
X242060463Y-31644981D01*
X242117869Y-31597869D01*
X242164981Y-31540463D01*
X242199988Y-31474970D01*
X242221545Y-31403905D01*
X242228824Y-31330000D01*
X242228824Y-29630000D01*
X242221545Y-29556095D01*
X242199988Y-29485030D01*
X242164981Y-29419537D01*
X242117869Y-29362131D01*
X242060463Y-29315019D01*
X241994970Y-29280012D01*
X241923905Y-29258455D01*
X241850000Y-29251176D01*
X240150000Y-29251176D01*
X240076095Y-29258455D01*
X240005030Y-29280012D01*
X239939537Y-29315019D01*
X239882131Y-29362131D01*
X239835019Y-29419537D01*
X239800012Y-29485030D01*
X239778455Y-29556095D01*
X239771176Y-29630000D01*
X239345240Y-29630000D01*
X239242167Y-29526927D01*
X239041202Y-29392647D01*
X238817903Y-29300153D01*
X238580849Y-29253000D01*
X238339151Y-29253000D01*
X238102097Y-29300153D01*
X237878798Y-29392647D01*
X237677833Y-29526927D01*
X237506927Y-29697833D01*
X237372647Y-29898798D01*
X237280153Y-30122097D01*
X237233000Y-30359151D01*
X237233000Y-30600849D01*
X237280153Y-30837903D01*
X237372647Y-31061202D01*
X237506927Y-31262167D01*
X237517761Y-31273001D01*
X236862239Y-31273001D01*
X236873073Y-31262167D01*
X237007353Y-31061202D01*
X237099847Y-30837903D01*
X237147000Y-30600849D01*
X237147000Y-30359151D01*
X237099847Y-30122097D01*
X237007353Y-29898798D01*
X236873073Y-29697833D01*
X236702167Y-29526927D01*
X236501202Y-29392647D01*
X236277903Y-29300153D01*
X236040849Y-29253000D01*
X235799151Y-29253000D01*
X235562097Y-29300153D01*
X235338798Y-29392647D01*
X235137833Y-29526927D01*
X234966927Y-29697833D01*
X234832647Y-29898798D01*
X234740153Y-30122097D01*
X234693000Y-30359151D01*
X234693000Y-30600849D01*
X234740153Y-30837903D01*
X234832647Y-31061202D01*
X234966927Y-31262167D01*
X234977761Y-31273001D01*
X234727581Y-31273001D01*
X234481537Y-31026958D01*
X234559847Y-30837903D01*
X234607000Y-30600849D01*
X234607000Y-30359151D01*
X234559847Y-30122097D01*
X234467353Y-29898798D01*
X234333073Y-29697833D01*
X234162167Y-29526927D01*
X233961202Y-29392647D01*
X233737903Y-29300153D01*
X233500849Y-29253000D01*
X233259151Y-29253000D01*
X233022097Y-29300153D01*
X232798798Y-29392647D01*
X232597833Y-29526927D01*
X232426927Y-29697833D01*
X232292647Y-29898798D01*
X232200153Y-30122097D01*
X232153000Y-30359151D01*
X232153000Y-30600849D01*
X232200153Y-30837903D01*
X232292647Y-31061202D01*
X232426927Y-31262167D01*
X232486109Y-31321349D01*
X232235929Y-31321349D01*
X231941537Y-31026958D01*
X232019847Y-30837903D01*
X232067000Y-30600849D01*
X232067000Y-30359151D01*
X232019847Y-30122097D01*
X231927353Y-29898798D01*
X231793073Y-29697833D01*
X231622167Y-29526927D01*
X231421202Y-29392647D01*
X231197903Y-29300153D01*
X230960849Y-29253000D01*
X230719151Y-29253000D01*
X230482097Y-29300153D01*
X230258798Y-29392647D01*
X230057833Y-29526927D01*
X229886927Y-29697833D01*
X229752647Y-29898798D01*
X229660153Y-30122097D01*
X229613000Y-30359151D01*
X229613000Y-30600849D01*
X229660153Y-30837903D01*
X229752647Y-31061202D01*
X229886927Y-31262167D01*
X229897762Y-31273002D01*
X229647582Y-31273002D01*
X229401537Y-31026958D01*
X229479847Y-30837903D01*
X229527000Y-30600849D01*
X229527000Y-30359151D01*
X229479847Y-30122097D01*
X229387353Y-29898798D01*
X229253073Y-29697833D01*
X229082167Y-29526927D01*
X228881202Y-29392647D01*
X228657903Y-29300153D01*
X228420849Y-29253000D01*
X228179151Y-29253000D01*
X227942097Y-29300153D01*
X227718798Y-29392647D01*
X227517833Y-29526927D01*
X227346927Y-29697833D01*
X227212647Y-29898798D01*
X227120153Y-30122097D01*
X227073000Y-30359151D01*
X227073000Y-30600849D01*
X227120153Y-30837903D01*
X227212647Y-31061202D01*
X227346927Y-31262167D01*
X227406109Y-31321349D01*
X227155929Y-31321349D01*
X226861537Y-31026958D01*
X226939847Y-30837903D01*
X226987000Y-30600849D01*
X226987000Y-30359151D01*
X226939847Y-30122097D01*
X226847353Y-29898798D01*
X226713073Y-29697833D01*
X226542167Y-29526927D01*
X226341202Y-29392647D01*
X226117903Y-29300153D01*
X225880849Y-29253000D01*
X225639151Y-29253000D01*
X225402097Y-29300153D01*
X225178798Y-29392647D01*
X224977833Y-29526927D01*
X224806927Y-29697833D01*
X224672647Y-29898798D01*
X224580153Y-30122097D01*
X224533000Y-30359151D01*
X224533000Y-30600849D01*
X224580153Y-30837903D01*
X224672647Y-31061202D01*
X224806927Y-31262167D01*
X224817762Y-31273002D01*
X224567582Y-31273002D01*
X224321537Y-31026958D01*
X224399847Y-30837903D01*
X224447000Y-30600849D01*
X224447000Y-30359151D01*
X224399847Y-30122097D01*
X224307353Y-29898798D01*
X224173073Y-29697833D01*
X224002167Y-29526927D01*
X223801202Y-29392647D01*
X223577903Y-29300153D01*
X223340849Y-29253000D01*
X223099151Y-29253000D01*
X222862097Y-29300153D01*
X222638798Y-29392647D01*
X222437833Y-29526927D01*
X222266927Y-29697833D01*
X222132647Y-29898798D01*
X222083769Y-30016798D01*
X222024157Y-29848748D01*
X221875178Y-29598645D01*
X221680269Y-29382412D01*
X221446920Y-29208359D01*
X221227821Y-29104000D01*
X243159000Y-29104000D01*
X243159000Y-32384176D01*
%TA.AperFunction,Conductor*%
D28*
G36*
X243159000Y-32384176D02*
G01*
X240035000Y-32384176D01*
X239961095Y-32391455D01*
X239890030Y-32413012D01*
X239824537Y-32448019D01*
X239773713Y-32489729D01*
X239741492Y-32492903D01*
X239651577Y-32520178D01*
X239568711Y-32564471D01*
X239496079Y-32624079D01*
X239481145Y-32642276D01*
X239438000Y-32685421D01*
X239438000Y-31968635D01*
X239456821Y-31933424D01*
X239484096Y-31843509D01*
X239493306Y-31750001D01*
X239484096Y-31656493D01*
X239456821Y-31566578D01*
X239412528Y-31483712D01*
X239352920Y-31411080D01*
X239304169Y-31371071D01*
X239413073Y-31262167D01*
X239547353Y-31061202D01*
X239639847Y-30837903D01*
X239687000Y-30600849D01*
X239687000Y-30359151D01*
X239639847Y-30122097D01*
X239547353Y-29898798D01*
X239413073Y-29697833D01*
X239345240Y-29630000D01*
X239771176Y-29630000D01*
X239771176Y-31330000D01*
X239778455Y-31403905D01*
X239800012Y-31474970D01*
X239835019Y-31540463D01*
X239882131Y-31597869D01*
X239939537Y-31644981D01*
X240005030Y-31679988D01*
X240076095Y-31701545D01*
X240150000Y-31708824D01*
X241850000Y-31708824D01*
X241923905Y-31701545D01*
X241994970Y-31679988D01*
X242060463Y-31644981D01*
X242117869Y-31597869D01*
X242164981Y-31540463D01*
X242199988Y-31474970D01*
X242221545Y-31403905D01*
X242228824Y-31330000D01*
X242228824Y-29630000D01*
X242221545Y-29556095D01*
X242199988Y-29485030D01*
X242164981Y-29419537D01*
X242117869Y-29362131D01*
X242060463Y-29315019D01*
X241994970Y-29280012D01*
X241923905Y-29258455D01*
X241850000Y-29251176D01*
X240150000Y-29251176D01*
X240076095Y-29258455D01*
X240005030Y-29280012D01*
X239939537Y-29315019D01*
X239882131Y-29362131D01*
X239835019Y-29419537D01*
X239800012Y-29485030D01*
X239778455Y-29556095D01*
X239771176Y-29630000D01*
X239345240Y-29630000D01*
X239242167Y-29526927D01*
X239041202Y-29392647D01*
X238817903Y-29300153D01*
X238580849Y-29253000D01*
X238339151Y-29253000D01*
X238102097Y-29300153D01*
X237878798Y-29392647D01*
X237677833Y-29526927D01*
X237506927Y-29697833D01*
X237372647Y-29898798D01*
X237280153Y-30122097D01*
X237233000Y-30359151D01*
X237233000Y-30600849D01*
X237280153Y-30837903D01*
X237372647Y-31061202D01*
X237506927Y-31262167D01*
X237517761Y-31273001D01*
X236862239Y-31273001D01*
X236873073Y-31262167D01*
X237007353Y-31061202D01*
X237099847Y-30837903D01*
X237147000Y-30600849D01*
X237147000Y-30359151D01*
X237099847Y-30122097D01*
X237007353Y-29898798D01*
X236873073Y-29697833D01*
X236702167Y-29526927D01*
X236501202Y-29392647D01*
X236277903Y-29300153D01*
X236040849Y-29253000D01*
X235799151Y-29253000D01*
X235562097Y-29300153D01*
X235338798Y-29392647D01*
X235137833Y-29526927D01*
X234966927Y-29697833D01*
X234832647Y-29898798D01*
X234740153Y-30122097D01*
X234693000Y-30359151D01*
X234693000Y-30600849D01*
X234740153Y-30837903D01*
X234832647Y-31061202D01*
X234966927Y-31262167D01*
X234977761Y-31273001D01*
X234727581Y-31273001D01*
X234481537Y-31026958D01*
X234559847Y-30837903D01*
X234607000Y-30600849D01*
X234607000Y-30359151D01*
X234559847Y-30122097D01*
X234467353Y-29898798D01*
X234333073Y-29697833D01*
X234162167Y-29526927D01*
X233961202Y-29392647D01*
X233737903Y-29300153D01*
X233500849Y-29253000D01*
X233259151Y-29253000D01*
X233022097Y-29300153D01*
X232798798Y-29392647D01*
X232597833Y-29526927D01*
X232426927Y-29697833D01*
X232292647Y-29898798D01*
X232200153Y-30122097D01*
X232153000Y-30359151D01*
X232153000Y-30600849D01*
X232200153Y-30837903D01*
X232292647Y-31061202D01*
X232426927Y-31262167D01*
X232486109Y-31321349D01*
X232235929Y-31321349D01*
X231941537Y-31026958D01*
X232019847Y-30837903D01*
X232067000Y-30600849D01*
X232067000Y-30359151D01*
X232019847Y-30122097D01*
X231927353Y-29898798D01*
X231793073Y-29697833D01*
X231622167Y-29526927D01*
X231421202Y-29392647D01*
X231197903Y-29300153D01*
X230960849Y-29253000D01*
X230719151Y-29253000D01*
X230482097Y-29300153D01*
X230258798Y-29392647D01*
X230057833Y-29526927D01*
X229886927Y-29697833D01*
X229752647Y-29898798D01*
X229660153Y-30122097D01*
X229613000Y-30359151D01*
X229613000Y-30600849D01*
X229660153Y-30837903D01*
X229752647Y-31061202D01*
X229886927Y-31262167D01*
X229897762Y-31273002D01*
X229647582Y-31273002D01*
X229401537Y-31026958D01*
X229479847Y-30837903D01*
X229527000Y-30600849D01*
X229527000Y-30359151D01*
X229479847Y-30122097D01*
X229387353Y-29898798D01*
X229253073Y-29697833D01*
X229082167Y-29526927D01*
X228881202Y-29392647D01*
X228657903Y-29300153D01*
X228420849Y-29253000D01*
X228179151Y-29253000D01*
X227942097Y-29300153D01*
X227718798Y-29392647D01*
X227517833Y-29526927D01*
X227346927Y-29697833D01*
X227212647Y-29898798D01*
X227120153Y-30122097D01*
X227073000Y-30359151D01*
X227073000Y-30600849D01*
X227120153Y-30837903D01*
X227212647Y-31061202D01*
X227346927Y-31262167D01*
X227406109Y-31321349D01*
X227155929Y-31321349D01*
X226861537Y-31026958D01*
X226939847Y-30837903D01*
X226987000Y-30600849D01*
X226987000Y-30359151D01*
X226939847Y-30122097D01*
X226847353Y-29898798D01*
X226713073Y-29697833D01*
X226542167Y-29526927D01*
X226341202Y-29392647D01*
X226117903Y-29300153D01*
X225880849Y-29253000D01*
X225639151Y-29253000D01*
X225402097Y-29300153D01*
X225178798Y-29392647D01*
X224977833Y-29526927D01*
X224806927Y-29697833D01*
X224672647Y-29898798D01*
X224580153Y-30122097D01*
X224533000Y-30359151D01*
X224533000Y-30600849D01*
X224580153Y-30837903D01*
X224672647Y-31061202D01*
X224806927Y-31262167D01*
X224817762Y-31273002D01*
X224567582Y-31273002D01*
X224321537Y-31026958D01*
X224399847Y-30837903D01*
X224447000Y-30600849D01*
X224447000Y-30359151D01*
X224399847Y-30122097D01*
X224307353Y-29898798D01*
X224173073Y-29697833D01*
X224002167Y-29526927D01*
X223801202Y-29392647D01*
X223577903Y-29300153D01*
X223340849Y-29253000D01*
X223099151Y-29253000D01*
X222862097Y-29300153D01*
X222638798Y-29392647D01*
X222437833Y-29526927D01*
X222266927Y-29697833D01*
X222132647Y-29898798D01*
X222083769Y-30016798D01*
X222024157Y-29848748D01*
X221875178Y-29598645D01*
X221680269Y-29382412D01*
X221446920Y-29208359D01*
X221227821Y-29104000D01*
X243159000Y-29104000D01*
X243159000Y-32384176D01*
G37*
%TD.AperFunction*%
%TD*%
M02*
