M48
; DRILL file {KiCad (5.1.7)-1} date 02/02/21 18:20:20
; FORMAT={-:-/ absolute / inch / decimal}
; #@! TF.CreationDate,2021-02-02T18:20:20+09:00
; #@! TF.GenerationSoftware,Kicad,Pcbnew,(5.1.7)-1
; #@! TF.FileFunction,Plated,1,2,PTH
FMAT,2
INCH
T1C0.0157
T2C0.0315
T3C0.0394
T4C0.0433
%
G90
G05
T1
X8.2782Y-1.925
X8.4039Y-1.6898
X8.4656Y-1.735
X8.475Y-2.045
X8.4935Y-1.9667
X8.495Y-1.875
X8.4982Y-1.925
X8.505Y-1.365
X8.505Y-1.515
X8.575Y-1.485
X8.5876Y-1.9195
X8.61Y-1.355
X8.6114Y-1.3086
X8.6355Y-1.6845
X8.6882Y-1.96
X8.7215Y-1.885
X8.7469Y-1.8549
X8.7602Y-1.3748
X8.785Y-1.865
X8.8252Y-1.9046
X8.8297Y-1.2773
X8.8811Y-1.6367
X8.895Y-1.285
X8.896Y-1.914
X8.9228Y-1.3128
X8.95Y-1.765
X8.9553Y-1.6182
X8.9595Y-1.4545
X8.9714Y-1.3664
X9.015Y-1.59
X9.0576Y-1.3667
X9.0692Y-2.0114
X9.07Y-1.47
X9.1113Y-1.7354
X9.115Y-1.805
X9.13Y-1.77
X9.1385Y-1.1547
X9.19Y-1.79
X9.2505Y-1.4422
X9.2532Y-1.525
X9.2555Y-2.0159
X9.265Y-1.78
X9.305Y-1.7781
X9.33Y-1.84
X9.335Y-1.895
X9.335Y-1.95
X9.335Y-2.01
X9.35Y-1.4662
X9.35Y-1.565
X9.4084Y-1.5626
X9.4099Y-1.6735
X9.47Y-1.72
X9.4932Y-1.845
X9.5207Y-1.597
X9.5226Y-1.7448
X9.5366Y-1.6363
T2
X8.41Y-1.335
X8.41Y-1.435
X8.41Y-1.535
X8.41Y-1.635
X8.71Y-1.335
X8.71Y-1.435
X8.71Y-1.535
X8.71Y-1.635
T3
X9.6632Y-2.075
X8.3882Y-2.1
X8.4882Y-2.1
X8.5882Y-2.1
X8.6882Y-2.1
X8.7882Y-2.1
X8.8882Y-2.1
X8.9882Y-2.1
X9.0882Y-2.1
X9.1882Y-2.1
X9.2882Y-2.1
X9.3882Y-2.1
X9.4882Y-2.1
X9.6882Y-1.4
X9.6882Y-1.5
X9.6882Y-1.6
X9.6882Y-1.7
X9.6882Y-1.8
X9.6882Y-1.9
X8.3882Y-1.2
X8.4882Y-1.2
X8.5882Y-1.2
X8.6882Y-1.2
X8.7882Y-1.2
X8.8882Y-1.2
X8.9882Y-1.2
X9.0882Y-1.2
X9.1882Y-1.2
X9.2882Y-1.2
X9.3882Y-1.2
X9.4882Y-1.2
X8.1882Y-1.225
X9.6632Y-1.225
X8.1882Y-2.075
T4
X8.1882Y-1.4
X8.1882Y-1.5
X8.1882Y-1.6
X8.1882Y-1.7
X8.1882Y-1.8
X8.1882Y-1.9
T0
M30
