%TF.GenerationSoftware,KiCad,Pcbnew,(5.1.7)-1*%
%TF.CreationDate,2021-02-02T18:20:17+09:00*%
%TF.ProjectId,canboard,63616e62-6f61-4726-942e-6b696361645f,rev?*%
%TF.SameCoordinates,Original*%
%TF.FileFunction,Legend,Top*%
%TF.FilePolarity,Positive*%
%FSLAX46Y46*%
G04 Gerber Fmt 4.6, Leading zero omitted, Abs format (unit mm)*
G04 Created by KiCad (PCBNEW (5.1.7)-1) date 2021-02-02 18:20:17*
%MOMM*%
%LPD*%
G01*
G04 APERTURE LIST*
%ADD10C,0.254000*%
%ADD11C,0.120000*%
%ADD12C,0.150000*%
G04 APERTURE END LIST*
D10*
X228424066Y-39625265D02*
X228411286Y-39726286D01*
X228462408Y-39546694D02*
X228424066Y-39625265D01*
X228526311Y-39490571D02*
X228462408Y-39546694D01*
X228615776Y-39456898D02*
X228526311Y-39490571D01*
X228730801Y-39445673D02*
X228615776Y-39456898D01*
X228848983Y-39450603D02*
X228730801Y-39445673D01*
X228959398Y-39465393D02*
X228848983Y-39450603D01*
X229062045Y-39490042D02*
X228959398Y-39465393D01*
X229156923Y-39524551D02*
X229062045Y-39490042D01*
X229244034Y-39568920D02*
X229156923Y-39524551D01*
X229318939Y-39621426D02*
X229244034Y-39568920D01*
X229377198Y-39680348D02*
X229318939Y-39621426D01*
X229418811Y-39745686D02*
X229377198Y-39680348D01*
X229443780Y-39817440D02*
X229418811Y-39745686D01*
X229452102Y-39895610D02*
X229443780Y-39817440D01*
X229439475Y-39998122D02*
X229452102Y-39895610D01*
X229401592Y-40077855D02*
X229439475Y-39998122D01*
X229338454Y-40134806D02*
X229401592Y-40077855D01*
X229250061Y-40168977D02*
X229338454Y-40134806D01*
X229136413Y-40180367D02*
X229250061Y-40168977D01*
X229017721Y-40175329D02*
X229136413Y-40180367D01*
X228906796Y-40160214D02*
X229017721Y-40175329D01*
X228803639Y-40135023D02*
X228906796Y-40160214D01*
X228708250Y-40099755D02*
X228803639Y-40135023D01*
X228620629Y-40054411D02*
X228708250Y-40099755D01*
X228545265Y-40000980D02*
X228620629Y-40054411D01*
X228486649Y-39941452D02*
X228545265Y-40000980D01*
X228444781Y-39875827D02*
X228486649Y-39941452D01*
X228419659Y-39804105D02*
X228444781Y-39875827D01*
X228411286Y-39726286D02*
X228419659Y-39804105D01*
X229726605Y-39758767D02*
X229737816Y-39912191D01*
X229692969Y-39617370D02*
X229726605Y-39758767D01*
X229636911Y-39488001D02*
X229692969Y-39617370D01*
X229558429Y-39370661D02*
X229636911Y-39488001D01*
X229457523Y-39265348D02*
X229558429Y-39370661D01*
X229339411Y-39175980D02*
X229457523Y-39265348D01*
X229209309Y-39106471D02*
X229339411Y-39175980D01*
X229067217Y-39056821D02*
X229209309Y-39106471D01*
X228913135Y-39027032D02*
X229067217Y-39056821D01*
X228747064Y-39017102D02*
X228913135Y-39027032D01*
X228634564Y-39024360D02*
X228747064Y-39017102D01*
X228532523Y-39046133D02*
X228634564Y-39024360D01*
X228440941Y-39082421D02*
X228532523Y-39046133D01*
X228359819Y-39133224D02*
X228440941Y-39082421D01*
X228289156Y-39198543D02*
X228359819Y-39133224D01*
X228230265Y-39277102D02*
X228289156Y-39198543D01*
X228184462Y-39367625D02*
X228230265Y-39277102D01*
X228151745Y-39470112D02*
X228184462Y-39367625D01*
X228132115Y-39584564D02*
X228151745Y-39470112D01*
X228125571Y-39710980D02*
X228132115Y-39584564D01*
X228136783Y-39864462D02*
X228125571Y-39710980D01*
X228170418Y-40006031D02*
X228136783Y-39864462D01*
X228226477Y-40135686D02*
X228170418Y-40006031D01*
X228304959Y-40253429D02*
X228226477Y-40135686D01*
X228405865Y-40359258D02*
X228304959Y-40253429D01*
X228523977Y-40449143D02*
X228405865Y-40359258D01*
X228654079Y-40519054D02*
X228523977Y-40449143D01*
X228796171Y-40568990D02*
X228654079Y-40519054D01*
X228950253Y-40598952D02*
X228796171Y-40568990D01*
X229116324Y-40608939D02*
X228950253Y-40598952D01*
X229229258Y-40601656D02*
X229116324Y-40608939D01*
X229331579Y-40579806D02*
X229229258Y-40601656D01*
X229423288Y-40543390D02*
X229331579Y-40579806D01*
X229504385Y-40492408D02*
X229423288Y-40543390D01*
X229574870Y-40426860D02*
X229504385Y-40492408D01*
X229633531Y-40348008D02*
X229574870Y-40426860D01*
X229679156Y-40257115D02*
X229633531Y-40348008D01*
X229711745Y-40154181D02*
X229679156Y-40257115D01*
X229731298Y-40039207D02*
X229711745Y-40154181D01*
X229737816Y-39912191D02*
X229731298Y-40039207D01*
X228759819Y-40837893D02*
X229697000Y-41054092D01*
X228714423Y-40828365D02*
X228759819Y-40837893D01*
X228670839Y-40820954D02*
X228714423Y-40828365D01*
X228629066Y-40815661D02*
X228670839Y-40820954D01*
X228589105Y-40812485D02*
X228629066Y-40815661D01*
X228550954Y-40811426D02*
X228589105Y-40812485D01*
X228475119Y-40815782D02*
X228550954Y-40811426D01*
X228406031Y-40828849D02*
X228475119Y-40815782D01*
X228343690Y-40850629D02*
X228406031Y-40828849D01*
X228288097Y-40881120D02*
X228343690Y-40850629D01*
X228239251Y-40920323D02*
X228288097Y-40881120D01*
X228198327Y-40967026D02*
X228239251Y-40920323D01*
X228166496Y-41020017D02*
X228198327Y-40967026D01*
X228143760Y-41079296D02*
X228166496Y-41020017D01*
X228130119Y-41144864D02*
X228143760Y-41079296D01*
X228125571Y-41216719D02*
X228130119Y-41144864D01*
X228127159Y-41258333D02*
X228125571Y-41216719D01*
X228131923Y-41300265D02*
X228127159Y-41258333D01*
X228139864Y-41342517D02*
X228131923Y-41300265D01*
X228150980Y-41385087D02*
X228139864Y-41342517D01*
X228165272Y-41427976D02*
X228150980Y-41385087D01*
X228186554Y-41476286D02*
X228165272Y-41427976D01*
X228218639Y-41535119D02*
X228186554Y-41476286D01*
X228261528Y-41604474D02*
X228218639Y-41535119D01*
X228315221Y-41684353D02*
X228261528Y-41604474D01*
X228379717Y-41774755D02*
X228315221Y-41684353D01*
X228166388Y-41724372D02*
X228379717Y-41774755D01*
X228166388Y-42134130D02*
X228166388Y-41724372D01*
X229697000Y-42486490D02*
X228166388Y-42134130D01*
X229697000Y-42077051D02*
X229697000Y-42486490D01*
X228574551Y-41818441D02*
X229697000Y-42077051D01*
X228530469Y-41733747D02*
X228574551Y-41818441D01*
X228496184Y-41654411D02*
X228530469Y-41733747D01*
X228471694Y-41580431D02*
X228496184Y-41654411D01*
X228457000Y-41511809D02*
X228471694Y-41580431D01*
X228452102Y-41448543D02*
X228457000Y-41511809D01*
X228459462Y-41375189D02*
X228452102Y-41448543D01*
X228481541Y-41318135D02*
X228459462Y-41375189D01*
X228518339Y-41277383D02*
X228481541Y-41318135D01*
X228569857Y-41252931D02*
X228518339Y-41277383D01*
X228636094Y-41244781D02*
X228569857Y-41252931D01*
X228677842Y-41246630D02*
X228636094Y-41244781D01*
X228728339Y-41252179D02*
X228677842Y-41246630D01*
X228787587Y-41261426D02*
X228728339Y-41252179D01*
X228855584Y-41274372D02*
X228787587Y-41261426D01*
X228932332Y-41291018D02*
X228855584Y-41274372D01*
X229697000Y-41466082D02*
X228932332Y-41291018D01*
X229697000Y-41054092D02*
X229697000Y-41466082D01*
X228166388Y-42970865D02*
X228166388Y-42561107D01*
X229697000Y-43323224D02*
X228166388Y-42970865D01*
X229697000Y-42913786D02*
X229697000Y-43323224D01*
X228166388Y-42561107D02*
X229697000Y-42913786D01*
X227615367Y-42851923D02*
X227615367Y-42413148D01*
X227982714Y-42935470D02*
X227615367Y-42851923D01*
X227982714Y-42496694D02*
X227982714Y-42935470D01*
X227615367Y-42413148D02*
X227982714Y-42496694D01*
X228097000Y-43789863D02*
X228097000Y-43378412D01*
X229309245Y-44068760D02*
X228452102Y-43873926D01*
X229353327Y-44149296D02*
X229309245Y-44068760D01*
X229387612Y-44223301D02*
X229353327Y-44149296D01*
X229412102Y-44290776D02*
X229387612Y-44223301D01*
X229426796Y-44351719D02*
X229412102Y-44290776D01*
X229431694Y-44406133D02*
X229426796Y-44351719D01*
X229428856Y-44454372D02*
X229431694Y-44406133D01*
X229420342Y-44497051D02*
X229428856Y-44454372D01*
X229406152Y-44534168D02*
X229420342Y-44497051D01*
X229386286Y-44565724D02*
X229406152Y-44534168D01*
X229360744Y-44591719D02*
X229386286Y-44565724D01*
X229328339Y-44612612D02*
X229360744Y-44591719D01*
X229287886Y-44628862D02*
X229328339Y-44612612D01*
X229239385Y-44640469D02*
X229287886Y-44628862D01*
X229182835Y-44647434D02*
X229239385Y-44640469D01*
X229118237Y-44649755D02*
X229182835Y-44647434D01*
X228997982Y-44644136D02*
X229118237Y-44649755D01*
X228885941Y-44627281D02*
X228997982Y-44644136D01*
X228782115Y-44599188D02*
X228885941Y-44627281D01*
X228686503Y-44559857D02*
X228782115Y-44599188D01*
X228599105Y-44509290D02*
X228686503Y-44559857D01*
X228524143Y-44448798D02*
X228599105Y-44509290D01*
X228465839Y-44379698D02*
X228524143Y-44448798D01*
X228424194Y-44301987D02*
X228465839Y-44379698D01*
X228399207Y-44215667D02*
X228424194Y-44301987D01*
X228390878Y-44120737D02*
X228399207Y-44215667D01*
X228393327Y-44070355D02*
X228390878Y-44120737D01*
X228400673Y-44020482D02*
X228393327Y-44070355D01*
X228412918Y-43971120D02*
X228400673Y-44020482D01*
X228430061Y-43922268D02*
X228412918Y-43971120D01*
X228452102Y-43873926D02*
X228430061Y-43922268D01*
X227615367Y-43676222D02*
X227615367Y-43266783D01*
X228273531Y-43831515D02*
X227615367Y-43676222D01*
X228220265Y-43911298D02*
X228273531Y-43831515D01*
X228178837Y-43994015D02*
X228220265Y-43911298D01*
X228149245Y-44079666D02*
X228178837Y-43994015D01*
X228131490Y-44168250D02*
X228149245Y-44079666D01*
X228125571Y-44259768D02*
X228131490Y-44168250D01*
X228138110Y-44392580D02*
X228125571Y-44259768D01*
X228175724Y-44517038D02*
X228138110Y-44392580D01*
X228238416Y-44633142D02*
X228175724Y-44517038D01*
X228326184Y-44740890D02*
X228238416Y-44633142D01*
X228439028Y-44840284D02*
X228326184Y-44740890D01*
X228569449Y-44925980D02*
X228439028Y-44840284D01*
X228709946Y-44992631D02*
X228569449Y-44925980D01*
X228860520Y-45040240D02*
X228709946Y-44992631D01*
X229021171Y-45068805D02*
X228860520Y-45040240D01*
X229191898Y-45078327D02*
X229021171Y-45068805D01*
X229289117Y-45073677D02*
X229191898Y-45078327D01*
X229377714Y-45059730D02*
X229289117Y-45073677D01*
X229457689Y-45036483D02*
X229377714Y-45059730D01*
X229529041Y-45003939D02*
X229457689Y-45036483D01*
X229591770Y-44962096D02*
X229529041Y-45003939D01*
X229644347Y-44912000D02*
X229591770Y-44962096D01*
X229685240Y-44854698D02*
X229644347Y-44912000D01*
X229714449Y-44790189D02*
X229685240Y-44854698D01*
X229731974Y-44718473D02*
X229714449Y-44790189D01*
X229737816Y-44639551D02*
X229731974Y-44718473D01*
X229728161Y-44546579D02*
X229737816Y-44639551D01*
X229699194Y-44447255D02*
X229728161Y-44546579D01*
X229650916Y-44341579D02*
X229699194Y-44447255D01*
X229583327Y-44229551D02*
X229650916Y-44341579D01*
X229496426Y-44111171D02*
X229583327Y-44229551D01*
X229697000Y-44159959D02*
X229496426Y-44111171D01*
X229697000Y-43749245D02*
X229697000Y-44159959D01*
X227615367Y-43266783D02*
X229697000Y-43749245D01*
X228097000Y-45628550D02*
X228097000Y-45220610D01*
X228097000Y-46954092D02*
X228097000Y-46206656D01*
X227697000Y-45536554D02*
X227697000Y-45128390D01*
X228987816Y-45833429D02*
X227697000Y-45536554D01*
X227697000Y-46374245D02*
X228987816Y-45833429D01*
X227697000Y-46861809D02*
X227697000Y-46374245D01*
X229697000Y-47323224D02*
X227697000Y-46861809D01*
X229697000Y-46915061D02*
X229697000Y-47323224D01*
X228248339Y-46580878D02*
X229697000Y-46915061D01*
X229697000Y-45975329D02*
X228248339Y-46580878D01*
X229697000Y-45589487D02*
X229697000Y-45975329D01*
X227697000Y-45128390D02*
X229697000Y-45589487D01*
X228097000Y-48595163D02*
X228097000Y-47809513D01*
X228962306Y-48672077D02*
X228962306Y-48104793D01*
X228144704Y-48200776D02*
X228962306Y-48672077D01*
X228962306Y-48104793D02*
X228144704Y-48200776D01*
X227697000Y-47866911D02*
X229697000Y-47579921D01*
X227697000Y-48351923D02*
X227697000Y-47866911D01*
X229697000Y-49568122D02*
X227697000Y-48351923D01*
X229697000Y-49101605D02*
X229697000Y-49568122D01*
X229268429Y-48849054D02*
X229697000Y-49101605D01*
X229268429Y-48067485D02*
X229268429Y-48849054D01*
X229697000Y-48017102D02*
X229268429Y-48067485D01*
X229697000Y-47579921D02*
X229697000Y-48017102D01*
X228097000Y-49580692D02*
X228097000Y-49316155D01*
X228097000Y-50876750D02*
X228097000Y-50337859D01*
X227789449Y-49399360D02*
X227864411Y-49262000D01*
X227731145Y-49540010D02*
X227789449Y-49399360D01*
X227689501Y-49683952D02*
X227731145Y-49540010D01*
X227664513Y-49831184D02*
X227689501Y-49683952D01*
X227656184Y-49981707D02*
X227664513Y-49831184D01*
X227670540Y-50176490D02*
X227656184Y-49981707D01*
X227713607Y-50357013D02*
X227670540Y-50176490D01*
X227785386Y-50523276D02*
X227713607Y-50357013D01*
X227885878Y-50675278D02*
X227785386Y-50523276D01*
X228015080Y-50813020D02*
X227885878Y-50675278D01*
X228166184Y-50930571D02*
X228015080Y-50813020D01*
X228332376Y-51022000D02*
X228166184Y-50930571D01*
X228513658Y-51087306D02*
X228332376Y-51022000D01*
X228710029Y-51126490D02*
X228513658Y-51087306D01*
X228921490Y-51139551D02*
X228710029Y-51126490D01*
X229070304Y-51129940D02*
X228921490Y-51139551D01*
X229205010Y-51101107D02*
X229070304Y-51129940D01*
X229325610Y-51053052D02*
X229205010Y-51101107D01*
X229432102Y-50985776D02*
X229325610Y-51053052D01*
X229524487Y-50899277D02*
X229432102Y-50985776D01*
X229601286Y-50796120D02*
X229524487Y-50899277D01*
X229661018Y-50678869D02*
X229601286Y-50796120D01*
X229703684Y-50547523D02*
X229661018Y-50678869D01*
X229729283Y-50402083D02*
X229703684Y-50547523D01*
X229737816Y-50242548D02*
X229729283Y-50402083D01*
X229736898Y-50192198D02*
X229737816Y-50242548D01*
X229734143Y-50140890D02*
X229736898Y-50192198D01*
X229729550Y-50088626D02*
X229734143Y-50140890D01*
X229723122Y-50035406D02*
X229729550Y-50088626D01*
X229714857Y-49981228D02*
X229723122Y-50035406D01*
X229702753Y-49922242D02*
X229714857Y-49981228D01*
X229684806Y-49854596D02*
X229702753Y-49922242D01*
X229661018Y-49778288D02*
X229684806Y-49854596D01*
X229631388Y-49693320D02*
X229661018Y-49778288D01*
X229595916Y-49599691D02*
X229631388Y-49693320D01*
X229186796Y-49506898D02*
X229595916Y-49599691D01*
X229186796Y-49550584D02*
X229186796Y-49506898D01*
X229245253Y-49635782D02*
X229186796Y-49550584D01*
X229294602Y-49713824D02*
X229245253Y-49635782D01*
X229334844Y-49784710D02*
X229294602Y-49713824D01*
X229365980Y-49848441D02*
X229334844Y-49784710D01*
X229388008Y-49905017D02*
X229365980Y-49848441D01*
X229403735Y-49957740D02*
X229388008Y-49905017D01*
X229415967Y-50009915D02*
X229403735Y-49957740D01*
X229424704Y-50061541D02*
X229415967Y-50009915D01*
X229429946Y-50112619D02*
X229424704Y-50061541D01*
X229431694Y-50163148D02*
X229429946Y-50112619D01*
X229426056Y-50252867D02*
X229431694Y-50163148D01*
X229409143Y-50334781D02*
X229426056Y-50252867D01*
X229380954Y-50408888D02*
X229409143Y-50334781D01*
X229341490Y-50475189D02*
X229380954Y-50408888D01*
X229290750Y-50533684D02*
X229341490Y-50475189D01*
X229229628Y-50582816D02*
X229290750Y-50533684D01*
X229159015Y-50621031D02*
X229229628Y-50582816D01*
X229078913Y-50648327D02*
X229159015Y-50621031D01*
X228989321Y-50664704D02*
X229078913Y-50648327D01*
X228890240Y-50670163D02*
X228989321Y-50664704D01*
X228737568Y-50662077D02*
X228890240Y-50670163D01*
X228595112Y-50637816D02*
X228737568Y-50662077D01*
X228462874Y-50597383D02*
X228595112Y-50637816D01*
X228340852Y-50540776D02*
X228462874Y-50597383D01*
X228229047Y-50467995D02*
X228340852Y-50540776D01*
X228133020Y-50382931D02*
X228229047Y-50467995D01*
X228058333Y-50289474D02*
X228133020Y-50382931D01*
X228004985Y-50187625D02*
X228058333Y-50289474D01*
X227972976Y-50077383D02*
X228004985Y-50187625D01*
X227962306Y-49958747D02*
X227972976Y-50077383D01*
X227974551Y-49838327D02*
X227962306Y-49958747D01*
X228011286Y-49722472D02*
X227974551Y-49838327D01*
X228072510Y-49611184D02*
X228011286Y-49722472D01*
X228158224Y-49504462D02*
X228072510Y-49611184D01*
X228268429Y-49402306D02*
X228158224Y-49504462D01*
X228268429Y-49356069D02*
X228268429Y-49402306D01*
X227864411Y-49262000D02*
X228268429Y-49356069D01*
D11*
%TO.C,REF\u002A\u002A*%
X244115000Y-29785000D02*
X245445000Y-29785000D01*
X244115000Y-31115000D02*
X244115000Y-29785000D01*
X244115000Y-32385000D02*
X246775000Y-32385000D01*
X246775000Y-32385000D02*
X246775000Y-32445000D01*
X244115000Y-32385000D02*
X244115000Y-32445000D01*
X244115000Y-32445000D02*
X246775000Y-32445000D01*
X244115000Y-51375000D02*
X245445000Y-51375000D01*
X244115000Y-52705000D02*
X244115000Y-51375000D01*
X244115000Y-53975000D02*
X246775000Y-53975000D01*
X246775000Y-53975000D02*
X246775000Y-54035000D01*
X244115000Y-53975000D02*
X244115000Y-54035000D01*
X244115000Y-54035000D02*
X246775000Y-54035000D01*
X206650000Y-51375000D02*
X207980000Y-51375000D01*
X206650000Y-52705000D02*
X206650000Y-51375000D01*
X206650000Y-53975000D02*
X209310000Y-53975000D01*
X209310000Y-53975000D02*
X209310000Y-54035000D01*
X206650000Y-53975000D02*
X206650000Y-54035000D01*
X206650000Y-54035000D02*
X209310000Y-54035000D01*
X206650000Y-29785000D02*
X207980000Y-29785000D01*
X206650000Y-31115000D02*
X206650000Y-29785000D01*
X206650000Y-32385000D02*
X209310000Y-32385000D01*
X209310000Y-32385000D02*
X209310000Y-32445000D01*
X206650000Y-32385000D02*
X206650000Y-32445000D01*
X206650000Y-32445000D02*
X209310000Y-32445000D01*
%TO.C,J6*%
X205130000Y-44100000D02*
X205130000Y-49880000D01*
X210230000Y-44100000D02*
X210230000Y-49880000D01*
X211350000Y-44100000D02*
X211350000Y-49880000D01*
X204610000Y-44100000D02*
X204610000Y-49880000D01*
X211350000Y-44100000D02*
X204610000Y-44100000D01*
X211350000Y-49880000D02*
X204610000Y-49880000D01*
X205010000Y-43860000D02*
X204370000Y-43860000D01*
X204370000Y-43860000D02*
X204370000Y-44260000D01*
%TO.C,J3*%
X242330000Y-52010000D02*
X242330000Y-53340000D01*
X241000000Y-52010000D02*
X242330000Y-52010000D01*
X239730000Y-52010000D02*
X239730000Y-54670000D01*
X239730000Y-54670000D02*
X211730000Y-54670000D01*
X239730000Y-52010000D02*
X211730000Y-52010000D01*
X211730000Y-52010000D02*
X211730000Y-54670000D01*
%TO.C,J1*%
X242330000Y-29150000D02*
X242330000Y-30480000D01*
X241000000Y-29150000D02*
X242330000Y-29150000D01*
X239730000Y-29150000D02*
X239730000Y-31810000D01*
X239730000Y-31810000D02*
X211730000Y-31810000D01*
X239730000Y-29150000D02*
X211730000Y-29150000D01*
X211730000Y-29150000D02*
X211730000Y-31810000D01*
%TO.C,D3*%
X244165000Y-44736500D02*
X244165000Y-42051500D01*
X244165000Y-42051500D02*
X242245000Y-42051500D01*
X242245000Y-42051500D02*
X242245000Y-44736500D01*
%TO.C,D2*%
X214535500Y-49840000D02*
X211850500Y-49840000D01*
X211850500Y-49840000D02*
X211850500Y-51760000D01*
X211850500Y-51760000D02*
X214535500Y-51760000D01*
%TO.C,Y1*%
X242835000Y-35963000D02*
X240835000Y-35963000D01*
X240835000Y-32363000D02*
X242835000Y-32363000D01*
X240435000Y-33413000D02*
X240035000Y-33413000D01*
X242835000Y-32163000D02*
X240835000Y-32163000D01*
X240835000Y-35963000D02*
X240435000Y-35963000D01*
X240835000Y-32363000D02*
X240435000Y-32363000D01*
X240835000Y-32163000D02*
X240435000Y-32163000D01*
X242835000Y-32363000D02*
X242835000Y-32513000D01*
X240435000Y-32363000D02*
X240435000Y-32513000D01*
X240435000Y-33413000D02*
X240435000Y-33363000D01*
X240435000Y-35963000D02*
X240435000Y-35813000D01*
X242835000Y-35963000D02*
X242835000Y-35813000D01*
%TO.C,U3*%
X218424000Y-42859000D02*
X220074000Y-42859000D01*
X220074000Y-42859000D02*
X220074000Y-32579000D01*
X220074000Y-32579000D02*
X214774000Y-32579000D01*
X214774000Y-32579000D02*
X214774000Y-42859000D01*
X214774000Y-42859000D02*
X216424000Y-42859000D01*
X222564000Y-42919000D02*
X222564000Y-32519000D01*
X222564000Y-32519000D02*
X212284000Y-32519000D01*
X212284000Y-32519000D02*
X212284000Y-42919000D01*
X212284000Y-42919000D02*
X222564000Y-42919000D01*
X216424000Y-42859000D02*
G75*
G02*
X218424000Y-42859000I1000000J0D01*
G01*
%TO.C,U2*%
X218445000Y-49906000D02*
X218445000Y-48646000D01*
X218445000Y-43086000D02*
X218445000Y-44346000D01*
X214685000Y-49906000D02*
X218445000Y-49906000D01*
X212435000Y-43086000D02*
X218445000Y-43086000D01*
D12*
%TO.C,U1*%
X239786000Y-43281000D02*
X239786000Y-43056000D01*
X232536000Y-43281000D02*
X232536000Y-42956000D01*
X232536000Y-36031000D02*
X232536000Y-36356000D01*
X239786000Y-36031000D02*
X239786000Y-36356000D01*
X239786000Y-43281000D02*
X239461000Y-43281000D01*
X239786000Y-36031000D02*
X239461000Y-36031000D01*
X232536000Y-36031000D02*
X232861000Y-36031000D01*
X232536000Y-43281000D02*
X232861000Y-43281000D01*
X239786000Y-43056000D02*
X241211000Y-43056000D01*
D11*
%TO.C,SW2*%
X236635000Y-51368000D02*
X242155000Y-51368000D01*
X234785000Y-45548000D02*
X236635000Y-45548000D01*
X236635000Y-44898000D02*
X236635000Y-45548000D01*
X236635000Y-44898000D02*
X242155000Y-44898000D01*
X242155000Y-44898000D02*
X242155000Y-46167000D01*
X236635000Y-50098000D02*
X236635000Y-51368000D01*
X242155000Y-50098000D02*
X242155000Y-51368000D01*
%TO.C,SW1*%
X225286000Y-51712000D02*
X225786000Y-51712000D01*
X225786000Y-51712000D02*
X225786000Y-42712000D01*
X225786000Y-42712000D02*
X225286000Y-42712000D01*
X223786000Y-42712000D02*
X223286000Y-42712000D01*
X223286000Y-42712000D02*
X223286000Y-51712000D01*
X223286000Y-51712000D02*
X223786000Y-51712000D01*
%TO.C,R19*%
X224169500Y-33734742D02*
X224169500Y-34209258D01*
X223124500Y-33734742D02*
X223124500Y-34209258D01*
%TO.C,R18*%
X227852500Y-48433258D02*
X227852500Y-47958742D01*
X226807500Y-48433258D02*
X226807500Y-47958742D01*
%TO.C,R17*%
X219502258Y-51322500D02*
X219027742Y-51322500D01*
X219502258Y-50277500D02*
X219027742Y-50277500D01*
%TO.C,R15*%
X232744742Y-51449500D02*
X233219258Y-51449500D01*
X232744742Y-50404500D02*
X233219258Y-50404500D01*
%TO.C,R14*%
X232744742Y-50052500D02*
X233219258Y-50052500D01*
X232744742Y-49007500D02*
X233219258Y-49007500D01*
%TO.C,R13*%
X232757442Y-47610500D02*
X233231958Y-47610500D01*
X232757442Y-48655500D02*
X233231958Y-48655500D01*
%TO.C,R12*%
X232744742Y-47258500D02*
X233219258Y-47258500D01*
X232744742Y-46213500D02*
X233219258Y-46213500D01*
%TO.C,R2*%
X242936500Y-40686258D02*
X242936500Y-40211742D01*
X243981500Y-40686258D02*
X243981500Y-40211742D01*
%TO.C,R1*%
X227806500Y-42497742D02*
X227806500Y-42972258D01*
X226761500Y-42497742D02*
X226761500Y-42972258D01*
%TO.C,J5*%
X211590000Y-39960000D02*
X211590000Y-39560000D01*
X210950000Y-39960000D02*
X211590000Y-39960000D01*
X204610000Y-33940000D02*
X211350000Y-33940000D01*
X204610000Y-39720000D02*
X211350000Y-39720000D01*
X211350000Y-39720000D02*
X211350000Y-33940000D01*
X204610000Y-39720000D02*
X204610000Y-33940000D01*
X205730000Y-39720000D02*
X205730000Y-33940000D01*
X210830000Y-39720000D02*
X210830000Y-33940000D01*
%TO.C,J4*%
X211590000Y-45040000D02*
X211590000Y-44640000D01*
X210950000Y-45040000D02*
X211590000Y-45040000D01*
X204610000Y-39020000D02*
X211350000Y-39020000D01*
X204610000Y-44800000D02*
X211350000Y-44800000D01*
X211350000Y-44800000D02*
X211350000Y-39020000D01*
X204610000Y-44800000D02*
X204610000Y-39020000D01*
X205730000Y-44800000D02*
X205730000Y-39020000D01*
X210830000Y-44800000D02*
X210830000Y-39020000D01*
%TO.C,J2*%
X247410000Y-34230000D02*
X244750000Y-34230000D01*
X247410000Y-46990000D02*
X247410000Y-34230000D01*
X244750000Y-46990000D02*
X244750000Y-34230000D01*
X247410000Y-46990000D02*
X244750000Y-46990000D01*
X247410000Y-48260000D02*
X247410000Y-49590000D01*
X247410000Y-49590000D02*
X246080000Y-49590000D01*
%TO.C,D4*%
X222912000Y-36055500D02*
X222912000Y-38340500D01*
X222912000Y-38340500D02*
X224382000Y-38340500D01*
X224382000Y-38340500D02*
X224382000Y-36055500D01*
%TO.C,D1*%
X244194000Y-38290500D02*
X244194000Y-36005500D01*
X244194000Y-36005500D02*
X242724000Y-36005500D01*
X242724000Y-36005500D02*
X242724000Y-38290500D01*
%TO.C,C9*%
X222731000Y-49710748D02*
X222731000Y-50233252D01*
X221261000Y-49710748D02*
X221261000Y-50233252D01*
%TO.C,C4*%
X216487836Y-51414000D02*
X216272164Y-51414000D01*
X216487836Y-50694000D02*
X216272164Y-50694000D01*
%TO.C,C2*%
X230043936Y-38650500D02*
X229828264Y-38650500D01*
X230043936Y-37930500D02*
X229828264Y-37930500D01*
%TO.C,C1*%
X230623700Y-39655864D02*
X230623700Y-39871536D01*
X229903700Y-39655864D02*
X229903700Y-39871536D01*
%TO.C,REF\u002A\u002A*%
D12*
X244746666Y-25852380D02*
X244413333Y-25376190D01*
X244175238Y-25852380D02*
X244175238Y-24852380D01*
X244556190Y-24852380D01*
X244651428Y-24900000D01*
X244699047Y-24947619D01*
X244746666Y-25042857D01*
X244746666Y-25185714D01*
X244699047Y-25280952D01*
X244651428Y-25328571D01*
X244556190Y-25376190D01*
X244175238Y-25376190D01*
X245175238Y-25328571D02*
X245508571Y-25328571D01*
X245651428Y-25852380D02*
X245175238Y-25852380D01*
X245175238Y-24852380D01*
X245651428Y-24852380D01*
X246413333Y-25328571D02*
X246080000Y-25328571D01*
X246080000Y-25852380D02*
X246080000Y-24852380D01*
X246556190Y-24852380D01*
X247080000Y-24852380D02*
X247080000Y-25090476D01*
X246841904Y-24995238D02*
X247080000Y-25090476D01*
X247318095Y-24995238D01*
X246937142Y-25280952D02*
X247080000Y-25090476D01*
X247222857Y-25280952D01*
X247841904Y-24852380D02*
X247841904Y-25090476D01*
X247603809Y-24995238D02*
X247841904Y-25090476D01*
X248080000Y-24995238D01*
X247699047Y-25280952D02*
X247841904Y-25090476D01*
X247984761Y-25280952D01*
X250969666Y-48712380D02*
X250636333Y-48236190D01*
X250398238Y-48712380D02*
X250398238Y-47712380D01*
X250779190Y-47712380D01*
X250874428Y-47760000D01*
X250922047Y-47807619D01*
X250969666Y-47902857D01*
X250969666Y-48045714D01*
X250922047Y-48140952D01*
X250874428Y-48188571D01*
X250779190Y-48236190D01*
X250398238Y-48236190D01*
X251398238Y-48188571D02*
X251731571Y-48188571D01*
X251874428Y-48712380D02*
X251398238Y-48712380D01*
X251398238Y-47712380D01*
X251874428Y-47712380D01*
X252636333Y-48188571D02*
X252303000Y-48188571D01*
X252303000Y-48712380D02*
X252303000Y-47712380D01*
X252779190Y-47712380D01*
X253303000Y-47712380D02*
X253303000Y-47950476D01*
X253064904Y-47855238D02*
X253303000Y-47950476D01*
X253541095Y-47855238D01*
X253160142Y-48140952D02*
X253303000Y-47950476D01*
X253445857Y-48140952D01*
X254064904Y-47712380D02*
X254064904Y-47950476D01*
X253826809Y-47855238D02*
X254064904Y-47950476D01*
X254303000Y-47855238D01*
X253922047Y-48140952D02*
X254064904Y-47950476D01*
X254207761Y-48140952D01*
X196232666Y-50109380D02*
X195899333Y-49633190D01*
X195661238Y-50109380D02*
X195661238Y-49109380D01*
X196042190Y-49109380D01*
X196137428Y-49157000D01*
X196185047Y-49204619D01*
X196232666Y-49299857D01*
X196232666Y-49442714D01*
X196185047Y-49537952D01*
X196137428Y-49585571D01*
X196042190Y-49633190D01*
X195661238Y-49633190D01*
X196661238Y-49585571D02*
X196994571Y-49585571D01*
X197137428Y-50109380D02*
X196661238Y-50109380D01*
X196661238Y-49109380D01*
X197137428Y-49109380D01*
X197899333Y-49585571D02*
X197566000Y-49585571D01*
X197566000Y-50109380D02*
X197566000Y-49109380D01*
X198042190Y-49109380D01*
X198566000Y-49109380D02*
X198566000Y-49347476D01*
X198327904Y-49252238D02*
X198566000Y-49347476D01*
X198804095Y-49252238D01*
X198423142Y-49537952D02*
X198566000Y-49347476D01*
X198708857Y-49537952D01*
X199327904Y-49109380D02*
X199327904Y-49347476D01*
X199089809Y-49252238D02*
X199327904Y-49347476D01*
X199566000Y-49252238D01*
X199185047Y-49537952D02*
X199327904Y-49347476D01*
X199470761Y-49537952D01*
X207281666Y-25852380D02*
X206948333Y-25376190D01*
X206710238Y-25852380D02*
X206710238Y-24852380D01*
X207091190Y-24852380D01*
X207186428Y-24900000D01*
X207234047Y-24947619D01*
X207281666Y-25042857D01*
X207281666Y-25185714D01*
X207234047Y-25280952D01*
X207186428Y-25328571D01*
X207091190Y-25376190D01*
X206710238Y-25376190D01*
X207710238Y-25328571D02*
X208043571Y-25328571D01*
X208186428Y-25852380D02*
X207710238Y-25852380D01*
X207710238Y-24852380D01*
X208186428Y-24852380D01*
X208948333Y-25328571D02*
X208615000Y-25328571D01*
X208615000Y-25852380D02*
X208615000Y-24852380D01*
X209091190Y-24852380D01*
X209615000Y-24852380D02*
X209615000Y-25090476D01*
X209376904Y-24995238D02*
X209615000Y-25090476D01*
X209853095Y-24995238D01*
X209472142Y-25280952D02*
X209615000Y-25090476D01*
X209757857Y-25280952D01*
X210376904Y-24852380D02*
X210376904Y-25090476D01*
X210138809Y-24995238D02*
X210376904Y-25090476D01*
X210615000Y-24995238D01*
X210234047Y-25280952D02*
X210376904Y-25090476D01*
X210519761Y-25280952D01*
%TO.C,J6*%
X211802380Y-47323333D02*
X212516666Y-47323333D01*
X212659523Y-47370952D01*
X212754761Y-47466190D01*
X212802380Y-47609047D01*
X212802380Y-47704285D01*
X211802380Y-46418571D02*
X211802380Y-46609047D01*
X211850000Y-46704285D01*
X211897619Y-46751904D01*
X212040476Y-46847142D01*
X212230952Y-46894761D01*
X212611904Y-46894761D01*
X212707142Y-46847142D01*
X212754761Y-46799523D01*
X212802380Y-46704285D01*
X212802380Y-46513809D01*
X212754761Y-46418571D01*
X212707142Y-46370952D01*
X212611904Y-46323333D01*
X212373809Y-46323333D01*
X212278571Y-46370952D01*
X212230952Y-46418571D01*
X212183333Y-46513809D01*
X212183333Y-46704285D01*
X212230952Y-46799523D01*
X212278571Y-46847142D01*
X212373809Y-46894761D01*
%TO.C,J3*%
X242782380Y-53673333D02*
X243496666Y-53673333D01*
X243639523Y-53720952D01*
X243734761Y-53816190D01*
X243782380Y-53959047D01*
X243782380Y-54054285D01*
X242782380Y-53292380D02*
X242782380Y-52673333D01*
X243163333Y-53006666D01*
X243163333Y-52863809D01*
X243210952Y-52768571D01*
X243258571Y-52720952D01*
X243353809Y-52673333D01*
X243591904Y-52673333D01*
X243687142Y-52720952D01*
X243734761Y-52768571D01*
X243782380Y-52863809D01*
X243782380Y-53149523D01*
X243734761Y-53244761D01*
X243687142Y-53292380D01*
%TO.C,J1*%
X242782380Y-30813333D02*
X243496666Y-30813333D01*
X243639523Y-30860952D01*
X243734761Y-30956190D01*
X243782380Y-31099047D01*
X243782380Y-31194285D01*
X243782380Y-29813333D02*
X243782380Y-30384761D01*
X243782380Y-30099047D02*
X242782380Y-30099047D01*
X242925238Y-30194285D01*
X243020476Y-30289523D01*
X243068095Y-30384761D01*
%TO.C,*%
%TO.C,D3*%
X245307380Y-44474595D02*
X244307380Y-44474595D01*
X244307380Y-44236500D01*
X244355000Y-44093642D01*
X244450238Y-43998404D01*
X244545476Y-43950785D01*
X244735952Y-43903166D01*
X244878809Y-43903166D01*
X245069285Y-43950785D01*
X245164523Y-43998404D01*
X245259761Y-44093642D01*
X245307380Y-44236500D01*
X245307380Y-44474595D01*
X244307380Y-43569833D02*
X244307380Y-42950785D01*
X244688333Y-43284119D01*
X244688333Y-43141261D01*
X244735952Y-43046023D01*
X244783571Y-42998404D01*
X244878809Y-42950785D01*
X245116904Y-42950785D01*
X245212142Y-42998404D01*
X245259761Y-43046023D01*
X245307380Y-43141261D01*
X245307380Y-43426976D01*
X245259761Y-43522214D01*
X245212142Y-43569833D01*
%TO.C,D2*%
X212797404Y-49602380D02*
X212797404Y-48602380D01*
X213035500Y-48602380D01*
X213178357Y-48650000D01*
X213273595Y-48745238D01*
X213321214Y-48840476D01*
X213368833Y-49030952D01*
X213368833Y-49173809D01*
X213321214Y-49364285D01*
X213273595Y-49459523D01*
X213178357Y-49554761D01*
X213035500Y-49602380D01*
X212797404Y-49602380D01*
X213749785Y-48697619D02*
X213797404Y-48650000D01*
X213892642Y-48602380D01*
X214130738Y-48602380D01*
X214225976Y-48650000D01*
X214273595Y-48697619D01*
X214321214Y-48792857D01*
X214321214Y-48888095D01*
X214273595Y-49030952D01*
X213702166Y-49602380D01*
X214321214Y-49602380D01*
%TO.C,Y1*%
X244061190Y-34639190D02*
X244537380Y-34639190D01*
X243537380Y-34972523D02*
X244061190Y-34639190D01*
X243537380Y-34305857D01*
X244537380Y-33448714D02*
X244537380Y-34020142D01*
X244537380Y-33734428D02*
X243537380Y-33734428D01*
X243680238Y-33829666D01*
X243775476Y-33924904D01*
X243823095Y-34020142D01*
%TO.C,U3*%
X216662095Y-43311380D02*
X216662095Y-44120904D01*
X216709714Y-44216142D01*
X216757333Y-44263761D01*
X216852571Y-44311380D01*
X217043047Y-44311380D01*
X217138285Y-44263761D01*
X217185904Y-44216142D01*
X217233523Y-44120904D01*
X217233523Y-43311380D01*
X217614476Y-43311380D02*
X218233523Y-43311380D01*
X217900190Y-43692333D01*
X218043047Y-43692333D01*
X218138285Y-43739952D01*
X218185904Y-43787571D01*
X218233523Y-43882809D01*
X218233523Y-44120904D01*
X218185904Y-44216142D01*
X218138285Y-44263761D01*
X218043047Y-44311380D01*
X217757333Y-44311380D01*
X217662095Y-44263761D01*
X217614476Y-44216142D01*
%TO.C,U2*%
X215773095Y-41448380D02*
X215773095Y-42257904D01*
X215820714Y-42353142D01*
X215868333Y-42400761D01*
X215963571Y-42448380D01*
X216154047Y-42448380D01*
X216249285Y-42400761D01*
X216296904Y-42353142D01*
X216344523Y-42257904D01*
X216344523Y-41448380D01*
X216773095Y-41543619D02*
X216820714Y-41496000D01*
X216915952Y-41448380D01*
X217154047Y-41448380D01*
X217249285Y-41496000D01*
X217296904Y-41543619D01*
X217344523Y-41638857D01*
X217344523Y-41734095D01*
X217296904Y-41876952D01*
X216725476Y-42448380D01*
X217344523Y-42448380D01*
%TO.C,U1*%
X235399095Y-45158380D02*
X235399095Y-45967904D01*
X235446714Y-46063142D01*
X235494333Y-46110761D01*
X235589571Y-46158380D01*
X235780047Y-46158380D01*
X235875285Y-46110761D01*
X235922904Y-46063142D01*
X235970523Y-45967904D01*
X235970523Y-45158380D01*
X236970523Y-46158380D02*
X236399095Y-46158380D01*
X236684809Y-46158380D02*
X236684809Y-45158380D01*
X236589571Y-45301238D01*
X236494333Y-45396476D01*
X236399095Y-45444095D01*
%TO.C,SW2*%
X250969666Y-45616761D02*
X251112523Y-45664380D01*
X251350619Y-45664380D01*
X251445857Y-45616761D01*
X251493476Y-45569142D01*
X251541095Y-45473904D01*
X251541095Y-45378666D01*
X251493476Y-45283428D01*
X251445857Y-45235809D01*
X251350619Y-45188190D01*
X251160142Y-45140571D01*
X251064904Y-45092952D01*
X251017285Y-45045333D01*
X250969666Y-44950095D01*
X250969666Y-44854857D01*
X251017285Y-44759619D01*
X251064904Y-44712000D01*
X251160142Y-44664380D01*
X251398238Y-44664380D01*
X251541095Y-44712000D01*
X251874428Y-44664380D02*
X252112523Y-45664380D01*
X252303000Y-44950095D01*
X252493476Y-45664380D01*
X252731571Y-44664380D01*
X253064904Y-44759619D02*
X253112523Y-44712000D01*
X253207761Y-44664380D01*
X253445857Y-44664380D01*
X253541095Y-44712000D01*
X253588714Y-44759619D01*
X253636333Y-44854857D01*
X253636333Y-44950095D01*
X253588714Y-45092952D01*
X253017285Y-45664380D01*
X253636333Y-45664380D01*
%TO.C,SW1*%
X227053761Y-58864333D02*
X227101380Y-58721476D01*
X227101380Y-58483380D01*
X227053761Y-58388142D01*
X227006142Y-58340523D01*
X226910904Y-58292904D01*
X226815666Y-58292904D01*
X226720428Y-58340523D01*
X226672809Y-58388142D01*
X226625190Y-58483380D01*
X226577571Y-58673857D01*
X226529952Y-58769095D01*
X226482333Y-58816714D01*
X226387095Y-58864333D01*
X226291857Y-58864333D01*
X226196619Y-58816714D01*
X226149000Y-58769095D01*
X226101380Y-58673857D01*
X226101380Y-58435761D01*
X226149000Y-58292904D01*
X226101380Y-57959571D02*
X227101380Y-57721476D01*
X226387095Y-57531000D01*
X227101380Y-57340523D01*
X226101380Y-57102428D01*
X227101380Y-56197666D02*
X227101380Y-56769095D01*
X227101380Y-56483380D02*
X226101380Y-56483380D01*
X226244238Y-56578619D01*
X226339476Y-56673857D01*
X226387095Y-56769095D01*
%TO.C,R19*%
X225529380Y-34614857D02*
X225053190Y-34948190D01*
X225529380Y-35186285D02*
X224529380Y-35186285D01*
X224529380Y-34805333D01*
X224577000Y-34710095D01*
X224624619Y-34662476D01*
X224719857Y-34614857D01*
X224862714Y-34614857D01*
X224957952Y-34662476D01*
X225005571Y-34710095D01*
X225053190Y-34805333D01*
X225053190Y-35186285D01*
X225529380Y-33662476D02*
X225529380Y-34233904D01*
X225529380Y-33948190D02*
X224529380Y-33948190D01*
X224672238Y-34043428D01*
X224767476Y-34138666D01*
X224815095Y-34233904D01*
X225529380Y-33186285D02*
X225529380Y-32995809D01*
X225481761Y-32900571D01*
X225434142Y-32852952D01*
X225291285Y-32757714D01*
X225100809Y-32710095D01*
X224719857Y-32710095D01*
X224624619Y-32757714D01*
X224577000Y-32805333D01*
X224529380Y-32900571D01*
X224529380Y-33091047D01*
X224577000Y-33186285D01*
X224624619Y-33233904D01*
X224719857Y-33281523D01*
X224957952Y-33281523D01*
X225053190Y-33233904D01*
X225100809Y-33186285D01*
X225148428Y-33091047D01*
X225148428Y-32900571D01*
X225100809Y-32805333D01*
X225053190Y-32757714D01*
X224957952Y-32710095D01*
%TO.C,R18*%
X223164380Y-58935857D02*
X222688190Y-59269190D01*
X223164380Y-59507285D02*
X222164380Y-59507285D01*
X222164380Y-59126333D01*
X222212000Y-59031095D01*
X222259619Y-58983476D01*
X222354857Y-58935857D01*
X222497714Y-58935857D01*
X222592952Y-58983476D01*
X222640571Y-59031095D01*
X222688190Y-59126333D01*
X222688190Y-59507285D01*
X223164380Y-57983476D02*
X223164380Y-58554904D01*
X223164380Y-58269190D02*
X222164380Y-58269190D01*
X222307238Y-58364428D01*
X222402476Y-58459666D01*
X222450095Y-58554904D01*
X222592952Y-57412047D02*
X222545333Y-57507285D01*
X222497714Y-57554904D01*
X222402476Y-57602523D01*
X222354857Y-57602523D01*
X222259619Y-57554904D01*
X222212000Y-57507285D01*
X222164380Y-57412047D01*
X222164380Y-57221571D01*
X222212000Y-57126333D01*
X222259619Y-57078714D01*
X222354857Y-57031095D01*
X222402476Y-57031095D01*
X222497714Y-57078714D01*
X222545333Y-57126333D01*
X222592952Y-57221571D01*
X222592952Y-57412047D01*
X222640571Y-57507285D01*
X222688190Y-57554904D01*
X222783428Y-57602523D01*
X222973904Y-57602523D01*
X223069142Y-57554904D01*
X223116761Y-57507285D01*
X223164380Y-57412047D01*
X223164380Y-57221571D01*
X223116761Y-57126333D01*
X223069142Y-57078714D01*
X222973904Y-57031095D01*
X222783428Y-57031095D01*
X222688190Y-57078714D01*
X222640571Y-57126333D01*
X222592952Y-57221571D01*
%TO.C,R17*%
X215465142Y-57094380D02*
X215131809Y-56618190D01*
X214893714Y-57094380D02*
X214893714Y-56094380D01*
X215274666Y-56094380D01*
X215369904Y-56142000D01*
X215417523Y-56189619D01*
X215465142Y-56284857D01*
X215465142Y-56427714D01*
X215417523Y-56522952D01*
X215369904Y-56570571D01*
X215274666Y-56618190D01*
X214893714Y-56618190D01*
X216417523Y-57094380D02*
X215846095Y-57094380D01*
X216131809Y-57094380D02*
X216131809Y-56094380D01*
X216036571Y-56237238D01*
X215941333Y-56332476D01*
X215846095Y-56380095D01*
X216750857Y-56094380D02*
X217417523Y-56094380D01*
X216988952Y-57094380D01*
%TO.C,R15*%
X232339142Y-49949380D02*
X232005809Y-49473190D01*
X231767714Y-49949380D02*
X231767714Y-48949380D01*
X232148666Y-48949380D01*
X232243904Y-48997000D01*
X232291523Y-49044619D01*
X232339142Y-49139857D01*
X232339142Y-49282714D01*
X232291523Y-49377952D01*
X232243904Y-49425571D01*
X232148666Y-49473190D01*
X231767714Y-49473190D01*
X233291523Y-49949380D02*
X232720095Y-49949380D01*
X233005809Y-49949380D02*
X233005809Y-48949380D01*
X232910571Y-49092238D01*
X232815333Y-49187476D01*
X232720095Y-49235095D01*
X234196285Y-48949380D02*
X233720095Y-48949380D01*
X233672476Y-49425571D01*
X233720095Y-49377952D01*
X233815333Y-49330333D01*
X234053428Y-49330333D01*
X234148666Y-49377952D01*
X234196285Y-49425571D01*
X234243904Y-49520809D01*
X234243904Y-49758904D01*
X234196285Y-49854142D01*
X234148666Y-49901761D01*
X234053428Y-49949380D01*
X233815333Y-49949380D01*
X233720095Y-49901761D01*
X233672476Y-49854142D01*
%TO.C,R14*%
X232593142Y-48552380D02*
X232259809Y-48076190D01*
X232021714Y-48552380D02*
X232021714Y-47552380D01*
X232402666Y-47552380D01*
X232497904Y-47600000D01*
X232545523Y-47647619D01*
X232593142Y-47742857D01*
X232593142Y-47885714D01*
X232545523Y-47980952D01*
X232497904Y-48028571D01*
X232402666Y-48076190D01*
X232021714Y-48076190D01*
X233545523Y-48552380D02*
X232974095Y-48552380D01*
X233259809Y-48552380D02*
X233259809Y-47552380D01*
X233164571Y-47695238D01*
X233069333Y-47790476D01*
X232974095Y-47838095D01*
X234402666Y-47885714D02*
X234402666Y-48552380D01*
X234164571Y-47504761D02*
X233926476Y-48219047D01*
X234545523Y-48219047D01*
%TO.C,R13*%
X232351842Y-47155380D02*
X232018509Y-46679190D01*
X231780414Y-47155380D02*
X231780414Y-46155380D01*
X232161366Y-46155380D01*
X232256604Y-46203000D01*
X232304223Y-46250619D01*
X232351842Y-46345857D01*
X232351842Y-46488714D01*
X232304223Y-46583952D01*
X232256604Y-46631571D01*
X232161366Y-46679190D01*
X231780414Y-46679190D01*
X233304223Y-47155380D02*
X232732795Y-47155380D01*
X233018509Y-47155380D02*
X233018509Y-46155380D01*
X232923271Y-46298238D01*
X232828033Y-46393476D01*
X232732795Y-46441095D01*
X233637557Y-46155380D02*
X234256604Y-46155380D01*
X233923271Y-46536333D01*
X234066128Y-46536333D01*
X234161366Y-46583952D01*
X234208985Y-46631571D01*
X234256604Y-46726809D01*
X234256604Y-46964904D01*
X234208985Y-47060142D01*
X234161366Y-47107761D01*
X234066128Y-47155380D01*
X233780414Y-47155380D01*
X233685176Y-47107761D01*
X233637557Y-47060142D01*
%TO.C,R12*%
X232229142Y-45918380D02*
X231895809Y-45442190D01*
X231657714Y-45918380D02*
X231657714Y-44918380D01*
X232038666Y-44918380D01*
X232133904Y-44966000D01*
X232181523Y-45013619D01*
X232229142Y-45108857D01*
X232229142Y-45251714D01*
X232181523Y-45346952D01*
X232133904Y-45394571D01*
X232038666Y-45442190D01*
X231657714Y-45442190D01*
X233181523Y-45918380D02*
X232610095Y-45918380D01*
X232895809Y-45918380D02*
X232895809Y-44918380D01*
X232800571Y-45061238D01*
X232705333Y-45156476D01*
X232610095Y-45204095D01*
X233562476Y-45013619D02*
X233610095Y-44966000D01*
X233705333Y-44918380D01*
X233943428Y-44918380D01*
X234038666Y-44966000D01*
X234086285Y-45013619D01*
X234133904Y-45108857D01*
X234133904Y-45204095D01*
X234086285Y-45346952D01*
X233514857Y-45918380D01*
X234133904Y-45918380D01*
%TO.C,R2*%
X242481380Y-40615666D02*
X242005190Y-40949000D01*
X242481380Y-41187095D02*
X241481380Y-41187095D01*
X241481380Y-40806142D01*
X241529000Y-40710904D01*
X241576619Y-40663285D01*
X241671857Y-40615666D01*
X241814714Y-40615666D01*
X241909952Y-40663285D01*
X241957571Y-40710904D01*
X242005190Y-40806142D01*
X242005190Y-41187095D01*
X241576619Y-40234714D02*
X241529000Y-40187095D01*
X241481380Y-40091857D01*
X241481380Y-39853761D01*
X241529000Y-39758523D01*
X241576619Y-39710904D01*
X241671857Y-39663285D01*
X241767095Y-39663285D01*
X241909952Y-39710904D01*
X242481380Y-40282333D01*
X242481380Y-39663285D01*
%TO.C,R1*%
X230230380Y-56935666D02*
X229754190Y-57269000D01*
X230230380Y-57507095D02*
X229230380Y-57507095D01*
X229230380Y-57126142D01*
X229278000Y-57030904D01*
X229325619Y-56983285D01*
X229420857Y-56935666D01*
X229563714Y-56935666D01*
X229658952Y-56983285D01*
X229706571Y-57030904D01*
X229754190Y-57126142D01*
X229754190Y-57507095D01*
X230230380Y-55983285D02*
X230230380Y-56554714D01*
X230230380Y-56269000D02*
X229230380Y-56269000D01*
X229373238Y-56364238D01*
X229468476Y-56459476D01*
X229516095Y-56554714D01*
%TO.C,J5*%
X199685380Y-37036333D02*
X200399666Y-37036333D01*
X200542523Y-37083952D01*
X200637761Y-37179190D01*
X200685380Y-37322047D01*
X200685380Y-37417285D01*
X199685380Y-36083952D02*
X199685380Y-36560142D01*
X200161571Y-36607761D01*
X200113952Y-36560142D01*
X200066333Y-36464904D01*
X200066333Y-36226809D01*
X200113952Y-36131571D01*
X200161571Y-36083952D01*
X200256809Y-36036333D01*
X200494904Y-36036333D01*
X200590142Y-36083952D01*
X200637761Y-36131571D01*
X200685380Y-36226809D01*
X200685380Y-36464904D01*
X200637761Y-36560142D01*
X200590142Y-36607761D01*
%TO.C,J4*%
X200193380Y-44467976D02*
X200907666Y-44467976D01*
X201050523Y-44515595D01*
X201145761Y-44610833D01*
X201193380Y-44753690D01*
X201193380Y-44848928D01*
X200526714Y-43563214D02*
X201193380Y-43563214D01*
X200145761Y-43801309D02*
X200860047Y-44039404D01*
X200860047Y-43420357D01*
%TO.C,J2*%
X245746666Y-50042380D02*
X245746666Y-50756666D01*
X245699047Y-50899523D01*
X245603809Y-50994761D01*
X245460952Y-51042380D01*
X245365714Y-51042380D01*
X246175238Y-50137619D02*
X246222857Y-50090000D01*
X246318095Y-50042380D01*
X246556190Y-50042380D01*
X246651428Y-50090000D01*
X246699047Y-50137619D01*
X246746666Y-50232857D01*
X246746666Y-50328095D01*
X246699047Y-50470952D01*
X246127619Y-51042380D01*
X246746666Y-51042380D01*
%TO.C,D4*%
X222669380Y-37593595D02*
X221669380Y-37593595D01*
X221669380Y-37355500D01*
X221717000Y-37212642D01*
X221812238Y-37117404D01*
X221907476Y-37069785D01*
X222097952Y-37022166D01*
X222240809Y-37022166D01*
X222431285Y-37069785D01*
X222526523Y-37117404D01*
X222621761Y-37212642D01*
X222669380Y-37355500D01*
X222669380Y-37593595D01*
X222002714Y-36165023D02*
X222669380Y-36165023D01*
X221621761Y-36403119D02*
X222336047Y-36641214D01*
X222336047Y-36022166D01*
%TO.C,D1*%
X245341380Y-38228595D02*
X244341380Y-38228595D01*
X244341380Y-37990500D01*
X244389000Y-37847642D01*
X244484238Y-37752404D01*
X244579476Y-37704785D01*
X244769952Y-37657166D01*
X244912809Y-37657166D01*
X245103285Y-37704785D01*
X245198523Y-37752404D01*
X245293761Y-37847642D01*
X245341380Y-37990500D01*
X245341380Y-38228595D01*
X245341380Y-36704785D02*
X245341380Y-37276214D01*
X245341380Y-36990500D02*
X244341380Y-36990500D01*
X244484238Y-37085738D01*
X244579476Y-37180976D01*
X244627095Y-37276214D01*
%TO.C,C9*%
X224033142Y-50138666D02*
X224080761Y-50186285D01*
X224128380Y-50329142D01*
X224128380Y-50424380D01*
X224080761Y-50567238D01*
X223985523Y-50662476D01*
X223890285Y-50710095D01*
X223699809Y-50757714D01*
X223556952Y-50757714D01*
X223366476Y-50710095D01*
X223271238Y-50662476D01*
X223176000Y-50567238D01*
X223128380Y-50424380D01*
X223128380Y-50329142D01*
X223176000Y-50186285D01*
X223223619Y-50138666D01*
X224128380Y-49662476D02*
X224128380Y-49472000D01*
X224080761Y-49376761D01*
X224033142Y-49329142D01*
X223890285Y-49233904D01*
X223699809Y-49186285D01*
X223318857Y-49186285D01*
X223223619Y-49233904D01*
X223176000Y-49281523D01*
X223128380Y-49376761D01*
X223128380Y-49567238D01*
X223176000Y-49662476D01*
X223223619Y-49710095D01*
X223318857Y-49757714D01*
X223556952Y-49757714D01*
X223652190Y-49710095D01*
X223699809Y-49662476D01*
X223747428Y-49567238D01*
X223747428Y-49376761D01*
X223699809Y-49281523D01*
X223652190Y-49233904D01*
X223556952Y-49186285D01*
%TO.C,C4*%
X217719333Y-57888142D02*
X217671714Y-57935761D01*
X217528857Y-57983380D01*
X217433619Y-57983380D01*
X217290761Y-57935761D01*
X217195523Y-57840523D01*
X217147904Y-57745285D01*
X217100285Y-57554809D01*
X217100285Y-57411952D01*
X217147904Y-57221476D01*
X217195523Y-57126238D01*
X217290761Y-57031000D01*
X217433619Y-56983380D01*
X217528857Y-56983380D01*
X217671714Y-57031000D01*
X217719333Y-57078619D01*
X218576476Y-57316714D02*
X218576476Y-57983380D01*
X218338380Y-56935761D02*
X218100285Y-57650047D01*
X218719333Y-57650047D01*
%TO.C,C2*%
X229769433Y-37568142D02*
X229721814Y-37615761D01*
X229578957Y-37663380D01*
X229483719Y-37663380D01*
X229340861Y-37615761D01*
X229245623Y-37520523D01*
X229198004Y-37425285D01*
X229150385Y-37234809D01*
X229150385Y-37091952D01*
X229198004Y-36901476D01*
X229245623Y-36806238D01*
X229340861Y-36711000D01*
X229483719Y-36663380D01*
X229578957Y-36663380D01*
X229721814Y-36711000D01*
X229769433Y-36758619D01*
X230150385Y-36758619D02*
X230198004Y-36711000D01*
X230293242Y-36663380D01*
X230531338Y-36663380D01*
X230626576Y-36711000D01*
X230674195Y-36758619D01*
X230721814Y-36853857D01*
X230721814Y-36949095D01*
X230674195Y-37091952D01*
X230102766Y-37663380D01*
X230721814Y-37663380D01*
%TO.C,C1*%
X230816142Y-41568666D02*
X230863761Y-41616285D01*
X230911380Y-41759142D01*
X230911380Y-41854380D01*
X230863761Y-41997238D01*
X230768523Y-42092476D01*
X230673285Y-42140095D01*
X230482809Y-42187714D01*
X230339952Y-42187714D01*
X230149476Y-42140095D01*
X230054238Y-42092476D01*
X229959000Y-41997238D01*
X229911380Y-41854380D01*
X229911380Y-41759142D01*
X229959000Y-41616285D01*
X230006619Y-41568666D01*
X230911380Y-40616285D02*
X230911380Y-41187714D01*
X230911380Y-40902000D02*
X229911380Y-40902000D01*
X230054238Y-40997238D01*
X230149476Y-41092476D01*
X230197095Y-41187714D01*
%TD*%
M02*
