%TF.GenerationSoftware,KiCad,Pcbnew,(5.1.7)-1*%
%TF.CreationDate,2021-02-02T18:20:17+09:00*%
%TF.ProjectId,canboard,63616e62-6f61-4726-942e-6b696361645f,rev?*%
%TF.SameCoordinates,Original*%
%TF.FileFunction,Other,User*%
%FSLAX46Y46*%
G04 Gerber Fmt 4.6, Leading zero omitted, Abs format (unit mm)*
G04 Created by KiCad (PCBNEW (5.1.7)-1) date 2021-02-02 18:20:17*
%MOMM*%
%LPD*%
G01*
G04 APERTURE LIST*
%ADD10C,0.050000*%
G04 APERTURE END LIST*
D10*
%TO.C,R16*%
X237031000Y-36747000D02*
X235571000Y-36747000D01*
X235571000Y-36747000D02*
X235571000Y-39707000D01*
X235571000Y-39707000D02*
X237031000Y-39707000D01*
X237031000Y-39707000D02*
X237031000Y-36747000D01*
%TO.C,U4*%
X234706000Y-32384800D02*
X234706000Y-44424800D01*
X234706000Y-44424800D02*
X222846000Y-44424800D01*
X222846000Y-44424800D02*
X222846000Y-32384800D01*
X222846000Y-32384800D02*
X234706000Y-32384800D01*
%TO.C,Y2*%
X238405000Y-43977000D02*
X238405000Y-40477000D01*
X234705000Y-40477000D02*
X234705000Y-43977000D01*
X234705000Y-43977000D02*
X238405000Y-43977000D01*
X238405000Y-40477000D02*
X234705000Y-40477000D01*
%TO.C,U5*%
X220947000Y-44495000D02*
X226347000Y-44495000D01*
X226347000Y-44495000D02*
X226347000Y-51895000D01*
X226347000Y-51895000D02*
X220947000Y-51895000D01*
X220947000Y-51895000D02*
X220947000Y-44495000D01*
%TO.C,R11*%
X220111000Y-39592000D02*
X220111000Y-38132000D01*
X220111000Y-38132000D02*
X217151000Y-38132000D01*
X217151000Y-38132000D02*
X217151000Y-39592000D01*
X217151000Y-39592000D02*
X220111000Y-39592000D01*
%TO.C,R10*%
X220781500Y-48618000D02*
X220781500Y-46378000D01*
X220781500Y-46378000D02*
X216221500Y-46378000D01*
X216221500Y-46378000D02*
X216221500Y-48618000D01*
X216221500Y-48618000D02*
X220781500Y-48618000D01*
%TO.C,R9*%
X217646000Y-48621000D02*
X216186000Y-48621000D01*
X216186000Y-48621000D02*
X216186000Y-51581000D01*
X216186000Y-51581000D02*
X217646000Y-51581000D01*
X217646000Y-51581000D02*
X217646000Y-48621000D01*
%TO.C,R8*%
X220781500Y-46332000D02*
X220781500Y-44092000D01*
X220781500Y-44092000D02*
X216221500Y-44092000D01*
X216221500Y-44092000D02*
X216221500Y-46332000D01*
X216221500Y-46332000D02*
X220781500Y-46332000D01*
%TO.C,R7*%
X237470000Y-46006000D02*
X237470000Y-47466000D01*
X237470000Y-47466000D02*
X240430000Y-47466000D01*
X240430000Y-47466000D02*
X240430000Y-46006000D01*
X240430000Y-46006000D02*
X237470000Y-46006000D01*
%TO.C,R6*%
X237470000Y-47403000D02*
X237470000Y-48863000D01*
X237470000Y-48863000D02*
X240430000Y-48863000D01*
X240430000Y-48863000D02*
X240430000Y-47403000D01*
X240430000Y-47403000D02*
X237470000Y-47403000D01*
%TO.C,R5*%
X240430000Y-48800000D02*
X237470000Y-48800000D01*
X240430000Y-50260000D02*
X240430000Y-48800000D01*
X237470000Y-50260000D02*
X240430000Y-50260000D01*
X237470000Y-48800000D02*
X237470000Y-50260000D01*
%TO.C,R4*%
X240430000Y-50197000D02*
X237470000Y-50197000D01*
X240430000Y-51657000D02*
X240430000Y-50197000D01*
X237470000Y-51657000D02*
X240430000Y-51657000D01*
X237470000Y-50197000D02*
X237470000Y-51657000D01*
%TO.C,R3*%
X215297000Y-38056000D02*
X216757000Y-38056000D01*
X216757000Y-38056000D02*
X216757000Y-35096000D01*
X216757000Y-35096000D02*
X215297000Y-35096000D01*
X215297000Y-35096000D02*
X215297000Y-38056000D01*
%TO.C,C8*%
X217976000Y-50324000D02*
X217976000Y-51784000D01*
X217976000Y-51784000D02*
X220936000Y-51784000D01*
X220936000Y-51784000D02*
X220936000Y-50324000D01*
X220936000Y-50324000D02*
X217976000Y-50324000D01*
%TO.C,C7*%
X222807000Y-44021000D02*
X222807000Y-43101000D01*
X222807000Y-43101000D02*
X220987000Y-43101000D01*
X220987000Y-43101000D02*
X220987000Y-44021000D01*
X220987000Y-44021000D02*
X222807000Y-44021000D01*
%TO.C,C6*%
X220043000Y-32760300D02*
X219123000Y-32760300D01*
X219123000Y-32760300D02*
X219123000Y-34580300D01*
X219123000Y-34580300D02*
X220043000Y-34580300D01*
X220043000Y-34580300D02*
X220043000Y-32760300D01*
%TO.C,C5*%
X216187000Y-39539500D02*
X215267000Y-39539500D01*
X215267000Y-39539500D02*
X215267000Y-41359500D01*
X215267000Y-41359500D02*
X216187000Y-41359500D01*
X216187000Y-41359500D02*
X216187000Y-39539500D01*
%TO.C,C3*%
X243533000Y-49355000D02*
X243533000Y-48435000D01*
X243533000Y-48435000D02*
X241713000Y-48435000D01*
X241713000Y-48435000D02*
X241713000Y-49355000D01*
X241713000Y-49355000D02*
X243533000Y-49355000D01*
%TD*%
M02*
