%TF.GenerationSoftware,KiCad,Pcbnew,(5.1.7)-1*%
%TF.CreationDate,2021-02-02T18:20:17+09:00*%
%TF.ProjectId,canboard,63616e62-6f61-4726-942e-6b696361645f,rev?*%
%TF.SameCoordinates,Original*%
%TF.FileFunction,Other,Fab,Bot*%
%FSLAX46Y46*%
G04 Gerber Fmt 4.6, Leading zero omitted, Abs format (unit mm)*
G04 Created by KiCad (PCBNEW (5.1.7)-1) date 2021-02-02 18:20:17*
%MOMM*%
%LPD*%
G01*
G04 APERTURE LIST*
%ADD10C,0.100000*%
%ADD11C,0.150000*%
%ADD12C,0.060000*%
%ADD13C,0.030000*%
%ADD14C,0.080000*%
%ADD15C,0.120000*%
%ADD16C,0.040000*%
G04 APERTURE END LIST*
D10*
%TO.C,R16*%
X236713500Y-37427000D02*
X235888500Y-37427000D01*
X235888500Y-37427000D02*
X235888500Y-39027000D01*
X235888500Y-39027000D02*
X236713500Y-39027000D01*
X236713500Y-39027000D02*
X236713500Y-37427000D01*
%TO.C,U4*%
X231526000Y-32629800D02*
X225026000Y-32629800D01*
X225026000Y-32629800D02*
X225026000Y-44179800D01*
X225026000Y-44179800D02*
X232526000Y-44179800D01*
X232526000Y-44179800D02*
X232526000Y-33629800D01*
X232526000Y-33629800D02*
X231526000Y-32629800D01*
%TO.C,Y2*%
X237355000Y-43727000D02*
X235755000Y-43727000D01*
X235755000Y-43727000D02*
X235755000Y-40727000D01*
X237355000Y-41227000D02*
X236855000Y-40727000D01*
X237355000Y-41227000D02*
X237355000Y-43727000D01*
X236855000Y-40727000D02*
X235755000Y-40727000D01*
%TO.C,U5*%
X221197000Y-47220000D02*
X221197000Y-50145000D01*
X221197000Y-50145000D02*
X226097000Y-50145000D01*
X226097000Y-50145000D02*
X226097000Y-46245000D01*
X226097000Y-46245000D02*
X222172000Y-46245000D01*
X222172000Y-46245000D02*
X221197000Y-47220000D01*
%TO.C,R11*%
X219431000Y-39274500D02*
X219431000Y-38449500D01*
X219431000Y-38449500D02*
X217831000Y-38449500D01*
X217831000Y-38449500D02*
X217831000Y-39274500D01*
X217831000Y-39274500D02*
X219431000Y-39274500D01*
%TO.C,R10*%
X220101500Y-48298000D02*
X220101500Y-46698000D01*
X220101500Y-46698000D02*
X216901500Y-46698000D01*
X216901500Y-46698000D02*
X216901500Y-48298000D01*
X216901500Y-48298000D02*
X220101500Y-48298000D01*
%TO.C,R9*%
X217328500Y-49301000D02*
X216503500Y-49301000D01*
X216503500Y-49301000D02*
X216503500Y-50901000D01*
X216503500Y-50901000D02*
X217328500Y-50901000D01*
X217328500Y-50901000D02*
X217328500Y-49301000D01*
%TO.C,R8*%
X220101500Y-46012000D02*
X220101500Y-44412000D01*
X220101500Y-44412000D02*
X216901500Y-44412000D01*
X216901500Y-44412000D02*
X216901500Y-46012000D01*
X216901500Y-46012000D02*
X220101500Y-46012000D01*
%TO.C,R7*%
X238150000Y-46323500D02*
X238150000Y-47148500D01*
X238150000Y-47148500D02*
X239750000Y-47148500D01*
X239750000Y-47148500D02*
X239750000Y-46323500D01*
X239750000Y-46323500D02*
X238150000Y-46323500D01*
%TO.C,R6*%
X238150000Y-47720500D02*
X238150000Y-48545500D01*
X238150000Y-48545500D02*
X239750000Y-48545500D01*
X239750000Y-48545500D02*
X239750000Y-47720500D01*
X239750000Y-47720500D02*
X238150000Y-47720500D01*
%TO.C,R5*%
X239750000Y-49117500D02*
X238150000Y-49117500D01*
X239750000Y-49942500D02*
X239750000Y-49117500D01*
X238150000Y-49942500D02*
X239750000Y-49942500D01*
X238150000Y-49117500D02*
X238150000Y-49942500D01*
%TO.C,R4*%
X239750000Y-50514500D02*
X238150000Y-50514500D01*
X239750000Y-51339500D02*
X239750000Y-50514500D01*
X238150000Y-51339500D02*
X239750000Y-51339500D01*
X238150000Y-50514500D02*
X238150000Y-51339500D01*
%TO.C,R3*%
X215614500Y-37376000D02*
X216439500Y-37376000D01*
X216439500Y-37376000D02*
X216439500Y-35776000D01*
X216439500Y-35776000D02*
X215614500Y-35776000D01*
X215614500Y-35776000D02*
X215614500Y-37376000D01*
%TO.C,C8*%
X218656000Y-50654000D02*
X218656000Y-51454000D01*
X218656000Y-51454000D02*
X220256000Y-51454000D01*
X220256000Y-51454000D02*
X220256000Y-50654000D01*
X220256000Y-50654000D02*
X218656000Y-50654000D01*
%TO.C,C7*%
X222397000Y-43811000D02*
X222397000Y-43311000D01*
X222397000Y-43311000D02*
X221397000Y-43311000D01*
X221397000Y-43311000D02*
X221397000Y-43811000D01*
X221397000Y-43811000D02*
X222397000Y-43811000D01*
%TO.C,C6*%
X219833000Y-33170300D02*
X219333000Y-33170300D01*
X219333000Y-33170300D02*
X219333000Y-34170300D01*
X219333000Y-34170300D02*
X219833000Y-34170300D01*
X219833000Y-34170300D02*
X219833000Y-33170300D01*
%TO.C,C5*%
X215977000Y-39949500D02*
X215477000Y-39949500D01*
X215477000Y-39949500D02*
X215477000Y-40949500D01*
X215477000Y-40949500D02*
X215977000Y-40949500D01*
X215977000Y-40949500D02*
X215977000Y-39949500D01*
%TO.C,C3*%
X243123000Y-49145000D02*
X243123000Y-48645000D01*
X243123000Y-48645000D02*
X242123000Y-48645000D01*
X242123000Y-48645000D02*
X242123000Y-49145000D01*
X242123000Y-49145000D02*
X243123000Y-49145000D01*
%TD*%
%TO.C,R16*%
D11*
X238183380Y-37536523D02*
X238183380Y-36965095D01*
X238183380Y-37250809D02*
X237183380Y-37250809D01*
X237326238Y-37155571D01*
X237421476Y-37060333D01*
X237469095Y-36965095D01*
X237183380Y-38155571D02*
X237183380Y-38250809D01*
X237231000Y-38346047D01*
X237278619Y-38393666D01*
X237373857Y-38441285D01*
X237564333Y-38488904D01*
X237802428Y-38488904D01*
X237992904Y-38441285D01*
X238088142Y-38393666D01*
X238135761Y-38346047D01*
X238183380Y-38250809D01*
X238183380Y-38155571D01*
X238135761Y-38060333D01*
X238088142Y-38012714D01*
X237992904Y-37965095D01*
X237802428Y-37917476D01*
X237564333Y-37917476D01*
X237373857Y-37965095D01*
X237278619Y-38012714D01*
X237231000Y-38060333D01*
X237183380Y-38155571D01*
X238183380Y-38917476D02*
X237183380Y-38917476D01*
X238183380Y-39488904D02*
X237611952Y-39060333D01*
X237183380Y-39488904D02*
X237754809Y-38917476D01*
D12*
X236481952Y-37969857D02*
X236291476Y-37836523D01*
X236481952Y-37741285D02*
X236081952Y-37741285D01*
X236081952Y-37893666D01*
X236101000Y-37931761D01*
X236120047Y-37950809D01*
X236158142Y-37969857D01*
X236215285Y-37969857D01*
X236253380Y-37950809D01*
X236272428Y-37931761D01*
X236291476Y-37893666D01*
X236291476Y-37741285D01*
X236481952Y-38350809D02*
X236481952Y-38122238D01*
X236481952Y-38236523D02*
X236081952Y-38236523D01*
X236139095Y-38198428D01*
X236177190Y-38160333D01*
X236196238Y-38122238D01*
X236081952Y-38693666D02*
X236081952Y-38617476D01*
X236101000Y-38579380D01*
X236120047Y-38560333D01*
X236177190Y-38522238D01*
X236253380Y-38503190D01*
X236405761Y-38503190D01*
X236443857Y-38522238D01*
X236462904Y-38541285D01*
X236481952Y-38579380D01*
X236481952Y-38655571D01*
X236462904Y-38693666D01*
X236443857Y-38712714D01*
X236405761Y-38731761D01*
X236310523Y-38731761D01*
X236272428Y-38712714D01*
X236253380Y-38693666D01*
X236234333Y-38655571D01*
X236234333Y-38579380D01*
X236253380Y-38541285D01*
X236272428Y-38522238D01*
X236310523Y-38503190D01*
%TO.C,U4*%
D11*
X234037904Y-45577180D02*
X234037904Y-44577180D01*
X233704571Y-45291466D01*
X233371238Y-44577180D01*
X233371238Y-45577180D01*
X232323619Y-45481942D02*
X232371238Y-45529561D01*
X232514095Y-45577180D01*
X232609333Y-45577180D01*
X232752190Y-45529561D01*
X232847428Y-45434323D01*
X232895047Y-45339085D01*
X232942666Y-45148609D01*
X232942666Y-45005752D01*
X232895047Y-44815276D01*
X232847428Y-44720038D01*
X232752190Y-44624800D01*
X232609333Y-44577180D01*
X232514095Y-44577180D01*
X232371238Y-44624800D01*
X232323619Y-44672419D01*
X231895047Y-45577180D02*
X231895047Y-44577180D01*
X231514095Y-44577180D01*
X231418857Y-44624800D01*
X231371238Y-44672419D01*
X231323619Y-44767657D01*
X231323619Y-44910514D01*
X231371238Y-45005752D01*
X231418857Y-45053371D01*
X231514095Y-45100990D01*
X231895047Y-45100990D01*
X230942666Y-44672419D02*
X230895047Y-44624800D01*
X230799809Y-44577180D01*
X230561714Y-44577180D01*
X230466476Y-44624800D01*
X230418857Y-44672419D01*
X230371238Y-44767657D01*
X230371238Y-44862895D01*
X230418857Y-45005752D01*
X230990285Y-45577180D01*
X230371238Y-45577180D01*
X229466476Y-44577180D02*
X229942666Y-44577180D01*
X229990285Y-45053371D01*
X229942666Y-45005752D01*
X229847428Y-44958133D01*
X229609333Y-44958133D01*
X229514095Y-45005752D01*
X229466476Y-45053371D01*
X229418857Y-45148609D01*
X229418857Y-45386704D01*
X229466476Y-45481942D01*
X229514095Y-45529561D01*
X229609333Y-45577180D01*
X229847428Y-45577180D01*
X229942666Y-45529561D01*
X229990285Y-45481942D01*
X228466476Y-45577180D02*
X229037904Y-45577180D01*
X228752190Y-45577180D02*
X228752190Y-44577180D01*
X228847428Y-44720038D01*
X228942666Y-44815276D01*
X229037904Y-44862895D01*
X227561714Y-44577180D02*
X228037904Y-44577180D01*
X228085523Y-45053371D01*
X228037904Y-45005752D01*
X227942666Y-44958133D01*
X227704571Y-44958133D01*
X227609333Y-45005752D01*
X227561714Y-45053371D01*
X227514095Y-45148609D01*
X227514095Y-45386704D01*
X227561714Y-45481942D01*
X227609333Y-45529561D01*
X227704571Y-45577180D01*
X227942666Y-45577180D01*
X228037904Y-45529561D01*
X228085523Y-45481942D01*
X227085523Y-45196228D02*
X226323619Y-45196228D01*
X225942666Y-45577180D02*
X225418857Y-44910514D01*
X225942666Y-44910514D02*
X225418857Y-45577180D01*
X225085523Y-45529561D02*
X224942666Y-45577180D01*
X224704571Y-45577180D01*
X224609333Y-45529561D01*
X224561714Y-45481942D01*
X224514095Y-45386704D01*
X224514095Y-45291466D01*
X224561714Y-45196228D01*
X224609333Y-45148609D01*
X224704571Y-45100990D01*
X224895047Y-45053371D01*
X224990285Y-45005752D01*
X225037904Y-44958133D01*
X225085523Y-44862895D01*
X225085523Y-44767657D01*
X225037904Y-44672419D01*
X224990285Y-44624800D01*
X224895047Y-44577180D01*
X224656952Y-44577180D01*
X224514095Y-44624800D01*
X223895047Y-44577180D02*
X223704571Y-44577180D01*
X223609333Y-44624800D01*
X223514095Y-44720038D01*
X223466476Y-44910514D01*
X223466476Y-45243847D01*
X223514095Y-45434323D01*
X223609333Y-45529561D01*
X223704571Y-45577180D01*
X223895047Y-45577180D01*
X223990285Y-45529561D01*
X224085523Y-45434323D01*
X224133142Y-45243847D01*
X224133142Y-44910514D01*
X224085523Y-44720038D01*
X223990285Y-44624800D01*
X223895047Y-44577180D01*
X228426904Y-37857180D02*
X228426904Y-38666704D01*
X228379285Y-38761942D01*
X228331666Y-38809561D01*
X228236428Y-38857180D01*
X228045952Y-38857180D01*
X227950714Y-38809561D01*
X227903095Y-38761942D01*
X227855476Y-38666704D01*
X227855476Y-37857180D01*
X226950714Y-38190514D02*
X226950714Y-38857180D01*
X227188809Y-37809561D02*
X227426904Y-38523847D01*
X226807857Y-38523847D01*
%TO.C,Y2*%
D13*
X238331190Y-41331761D02*
X238321666Y-41312714D01*
X238312142Y-41303190D01*
X238293095Y-41293666D01*
X238283571Y-41293666D01*
X238264523Y-41303190D01*
X238255000Y-41312714D01*
X238245476Y-41331761D01*
X238245476Y-41369857D01*
X238255000Y-41388904D01*
X238264523Y-41398428D01*
X238283571Y-41407952D01*
X238293095Y-41407952D01*
X238312142Y-41398428D01*
X238321666Y-41388904D01*
X238331190Y-41369857D01*
X238331190Y-41331761D01*
X238340714Y-41312714D01*
X238350238Y-41303190D01*
X238369285Y-41293666D01*
X238407380Y-41293666D01*
X238426428Y-41303190D01*
X238435952Y-41312714D01*
X238445476Y-41331761D01*
X238445476Y-41369857D01*
X238435952Y-41388904D01*
X238426428Y-41398428D01*
X238407380Y-41407952D01*
X238369285Y-41407952D01*
X238350238Y-41398428D01*
X238340714Y-41388904D01*
X238331190Y-41369857D01*
X238235952Y-41636523D02*
X238493095Y-41465095D01*
X238445476Y-41807952D02*
X238445476Y-41693666D01*
X238445476Y-41750809D02*
X238245476Y-41750809D01*
X238274047Y-41731761D01*
X238293095Y-41712714D01*
X238302619Y-41693666D01*
X238245476Y-41979380D02*
X238245476Y-41941285D01*
X238255000Y-41922238D01*
X238264523Y-41912714D01*
X238293095Y-41893666D01*
X238331190Y-41884142D01*
X238407380Y-41884142D01*
X238426428Y-41893666D01*
X238435952Y-41903190D01*
X238445476Y-41922238D01*
X238445476Y-41960333D01*
X238435952Y-41979380D01*
X238426428Y-41988904D01*
X238407380Y-41998428D01*
X238359761Y-41998428D01*
X238340714Y-41988904D01*
X238331190Y-41979380D01*
X238321666Y-41960333D01*
X238321666Y-41922238D01*
X238331190Y-41903190D01*
X238340714Y-41893666D01*
X238359761Y-41884142D01*
X238235952Y-42227000D02*
X238493095Y-42055571D01*
X238264523Y-42284142D02*
X238255000Y-42293666D01*
X238245476Y-42312714D01*
X238245476Y-42360333D01*
X238255000Y-42379380D01*
X238264523Y-42388904D01*
X238283571Y-42398428D01*
X238302619Y-42398428D01*
X238331190Y-42388904D01*
X238445476Y-42274619D01*
X238445476Y-42398428D01*
X238245476Y-42522238D02*
X238245476Y-42541285D01*
X238255000Y-42560333D01*
X238264523Y-42569857D01*
X238283571Y-42579380D01*
X238321666Y-42588904D01*
X238369285Y-42588904D01*
X238407380Y-42579380D01*
X238426428Y-42569857D01*
X238435952Y-42560333D01*
X238445476Y-42541285D01*
X238445476Y-42522238D01*
X238435952Y-42503190D01*
X238426428Y-42493666D01*
X238407380Y-42484142D01*
X238369285Y-42474619D01*
X238321666Y-42474619D01*
X238283571Y-42484142D01*
X238264523Y-42493666D01*
X238255000Y-42503190D01*
X238245476Y-42522238D01*
X238445476Y-42674619D02*
X238245476Y-42674619D01*
X238388333Y-42741285D01*
X238245476Y-42807952D01*
X238445476Y-42807952D01*
X238445476Y-42903190D02*
X238245476Y-42903190D01*
X238445476Y-42988904D02*
X238340714Y-42988904D01*
X238321666Y-42979380D01*
X238312142Y-42960333D01*
X238312142Y-42931761D01*
X238321666Y-42912714D01*
X238331190Y-42903190D01*
X238312142Y-43065095D02*
X238312142Y-43169857D01*
X238445476Y-43065095D01*
X238445476Y-43169857D01*
D14*
X236490714Y-42041285D02*
X236776428Y-42041285D01*
X236176428Y-41841285D02*
X236490714Y-42041285D01*
X236176428Y-42241285D01*
X236233571Y-42412714D02*
X236205000Y-42441285D01*
X236176428Y-42498428D01*
X236176428Y-42641285D01*
X236205000Y-42698428D01*
X236233571Y-42727000D01*
X236290714Y-42755571D01*
X236347857Y-42755571D01*
X236433571Y-42727000D01*
X236776428Y-42384142D01*
X236776428Y-42755571D01*
%TO.C,U5*%
D11*
X227499380Y-42266428D02*
X226499380Y-42266428D01*
X227213666Y-42599761D01*
X226499380Y-42933095D01*
X227499380Y-42933095D01*
X227404142Y-43980714D02*
X227451761Y-43933095D01*
X227499380Y-43790238D01*
X227499380Y-43695000D01*
X227451761Y-43552142D01*
X227356523Y-43456904D01*
X227261285Y-43409285D01*
X227070809Y-43361666D01*
X226927952Y-43361666D01*
X226737476Y-43409285D01*
X226642238Y-43456904D01*
X226547000Y-43552142D01*
X226499380Y-43695000D01*
X226499380Y-43790238D01*
X226547000Y-43933095D01*
X226594619Y-43980714D01*
X227499380Y-44409285D02*
X226499380Y-44409285D01*
X226499380Y-44790238D01*
X226547000Y-44885476D01*
X226594619Y-44933095D01*
X226689857Y-44980714D01*
X226832714Y-44980714D01*
X226927952Y-44933095D01*
X226975571Y-44885476D01*
X227023190Y-44790238D01*
X227023190Y-44409285D01*
X226594619Y-45361666D02*
X226547000Y-45409285D01*
X226499380Y-45504523D01*
X226499380Y-45742619D01*
X226547000Y-45837857D01*
X226594619Y-45885476D01*
X226689857Y-45933095D01*
X226785095Y-45933095D01*
X226927952Y-45885476D01*
X227499380Y-45314047D01*
X227499380Y-45933095D01*
X226499380Y-46837857D02*
X226499380Y-46361666D01*
X226975571Y-46314047D01*
X226927952Y-46361666D01*
X226880333Y-46456904D01*
X226880333Y-46695000D01*
X226927952Y-46790238D01*
X226975571Y-46837857D01*
X227070809Y-46885476D01*
X227308904Y-46885476D01*
X227404142Y-46837857D01*
X227451761Y-46790238D01*
X227499380Y-46695000D01*
X227499380Y-46456904D01*
X227451761Y-46361666D01*
X227404142Y-46314047D01*
X226499380Y-47742619D02*
X226499380Y-47552142D01*
X226547000Y-47456904D01*
X226594619Y-47409285D01*
X226737476Y-47314047D01*
X226927952Y-47266428D01*
X227308904Y-47266428D01*
X227404142Y-47314047D01*
X227451761Y-47361666D01*
X227499380Y-47456904D01*
X227499380Y-47647380D01*
X227451761Y-47742619D01*
X227404142Y-47790238D01*
X227308904Y-47837857D01*
X227070809Y-47837857D01*
X226975571Y-47790238D01*
X226927952Y-47742619D01*
X226880333Y-47647380D01*
X226880333Y-47456904D01*
X226927952Y-47361666D01*
X226975571Y-47314047D01*
X227070809Y-47266428D01*
X227499380Y-48790238D02*
X227499380Y-48218809D01*
X227499380Y-48504523D02*
X226499380Y-48504523D01*
X226642238Y-48409285D01*
X226737476Y-48314047D01*
X226785095Y-48218809D01*
X227118428Y-49218809D02*
X227118428Y-49980714D01*
X226975571Y-50456904D02*
X226975571Y-50790238D01*
X227499380Y-50933095D02*
X227499380Y-50456904D01*
X226499380Y-50456904D01*
X226499380Y-50933095D01*
X227118428Y-51361666D02*
X227118428Y-52123571D01*
X227451761Y-52552142D02*
X227499380Y-52695000D01*
X227499380Y-52933095D01*
X227451761Y-53028333D01*
X227404142Y-53075952D01*
X227308904Y-53123571D01*
X227213666Y-53123571D01*
X227118428Y-53075952D01*
X227070809Y-53028333D01*
X227023190Y-52933095D01*
X226975571Y-52742619D01*
X226927952Y-52647380D01*
X226880333Y-52599761D01*
X226785095Y-52552142D01*
X226689857Y-52552142D01*
X226594619Y-52599761D01*
X226547000Y-52647380D01*
X226499380Y-52742619D01*
X226499380Y-52980714D01*
X226547000Y-53123571D01*
X227499380Y-53552142D02*
X226499380Y-53552142D01*
X227499380Y-54123571D01*
X226499380Y-54123571D01*
X223110333Y-47448333D02*
X223903666Y-47448333D01*
X223997000Y-47495000D01*
X224043666Y-47541666D01*
X224090333Y-47635000D01*
X224090333Y-47821666D01*
X224043666Y-47915000D01*
X223997000Y-47961666D01*
X223903666Y-48008333D01*
X223110333Y-48008333D01*
X223110333Y-48941666D02*
X223110333Y-48475000D01*
X223577000Y-48428333D01*
X223530333Y-48475000D01*
X223483666Y-48568333D01*
X223483666Y-48801666D01*
X223530333Y-48895000D01*
X223577000Y-48941666D01*
X223670333Y-48988333D01*
X223903666Y-48988333D01*
X223997000Y-48941666D01*
X224043666Y-48895000D01*
X224090333Y-48801666D01*
X224090333Y-48568333D01*
X224043666Y-48475000D01*
X223997000Y-48428333D01*
%TO.C,R11*%
X219321476Y-40744380D02*
X219892904Y-40744380D01*
X219607190Y-40744380D02*
X219607190Y-39744380D01*
X219702428Y-39887238D01*
X219797666Y-39982476D01*
X219892904Y-40030095D01*
X218702428Y-39744380D02*
X218607190Y-39744380D01*
X218511952Y-39792000D01*
X218464333Y-39839619D01*
X218416714Y-39934857D01*
X218369095Y-40125333D01*
X218369095Y-40363428D01*
X218416714Y-40553904D01*
X218464333Y-40649142D01*
X218511952Y-40696761D01*
X218607190Y-40744380D01*
X218702428Y-40744380D01*
X218797666Y-40696761D01*
X218845285Y-40649142D01*
X218892904Y-40553904D01*
X218940523Y-40363428D01*
X218940523Y-40125333D01*
X218892904Y-39934857D01*
X218845285Y-39839619D01*
X218797666Y-39792000D01*
X218702428Y-39744380D01*
X217940523Y-40744380D02*
X217940523Y-39744380D01*
X217369095Y-40744380D02*
X217797666Y-40172952D01*
X217369095Y-39744380D02*
X217940523Y-40315809D01*
D12*
X218888142Y-39042952D02*
X219021476Y-38852476D01*
X219116714Y-39042952D02*
X219116714Y-38642952D01*
X218964333Y-38642952D01*
X218926238Y-38662000D01*
X218907190Y-38681047D01*
X218888142Y-38719142D01*
X218888142Y-38776285D01*
X218907190Y-38814380D01*
X218926238Y-38833428D01*
X218964333Y-38852476D01*
X219116714Y-38852476D01*
X218507190Y-39042952D02*
X218735761Y-39042952D01*
X218621476Y-39042952D02*
X218621476Y-38642952D01*
X218659571Y-38700095D01*
X218697666Y-38738190D01*
X218735761Y-38757238D01*
X218126238Y-39042952D02*
X218354809Y-39042952D01*
X218240523Y-39042952D02*
X218240523Y-38642952D01*
X218278619Y-38700095D01*
X218316714Y-38738190D01*
X218354809Y-38757238D01*
%TO.C,R10*%
D11*
X218739595Y-48770380D02*
X219215785Y-48770380D01*
X219263404Y-49246571D01*
X219215785Y-49198952D01*
X219120547Y-49151333D01*
X218882452Y-49151333D01*
X218787214Y-49198952D01*
X218739595Y-49246571D01*
X218691976Y-49341809D01*
X218691976Y-49579904D01*
X218739595Y-49675142D01*
X218787214Y-49722761D01*
X218882452Y-49770380D01*
X219120547Y-49770380D01*
X219215785Y-49722761D01*
X219263404Y-49675142D01*
X217834833Y-48770380D02*
X218025309Y-48770380D01*
X218120547Y-48818000D01*
X218168166Y-48865619D01*
X218263404Y-49008476D01*
X218311023Y-49198952D01*
X218311023Y-49579904D01*
X218263404Y-49675142D01*
X218215785Y-49722761D01*
X218120547Y-49770380D01*
X217930071Y-49770380D01*
X217834833Y-49722761D01*
X217787214Y-49675142D01*
X217739595Y-49579904D01*
X217739595Y-49341809D01*
X217787214Y-49246571D01*
X217834833Y-49198952D01*
X217930071Y-49151333D01*
X218120547Y-49151333D01*
X218215785Y-49198952D01*
X218263404Y-49246571D01*
X218311023Y-49341809D01*
D15*
X219015785Y-47859904D02*
X219282452Y-47478952D01*
X219472928Y-47859904D02*
X219472928Y-47059904D01*
X219168166Y-47059904D01*
X219091976Y-47098000D01*
X219053880Y-47136095D01*
X219015785Y-47212285D01*
X219015785Y-47326571D01*
X219053880Y-47402761D01*
X219091976Y-47440857D01*
X219168166Y-47478952D01*
X219472928Y-47478952D01*
X218253880Y-47859904D02*
X218711023Y-47859904D01*
X218482452Y-47859904D02*
X218482452Y-47059904D01*
X218558642Y-47174190D01*
X218634833Y-47250380D01*
X218711023Y-47288476D01*
X217758642Y-47059904D02*
X217682452Y-47059904D01*
X217606261Y-47098000D01*
X217568166Y-47136095D01*
X217530071Y-47212285D01*
X217491976Y-47364666D01*
X217491976Y-47555142D01*
X217530071Y-47707523D01*
X217568166Y-47783714D01*
X217606261Y-47821809D01*
X217682452Y-47859904D01*
X217758642Y-47859904D01*
X217834833Y-47821809D01*
X217872928Y-47783714D01*
X217911023Y-47707523D01*
X217949119Y-47555142D01*
X217949119Y-47364666D01*
X217911023Y-47212285D01*
X217872928Y-47136095D01*
X217834833Y-47098000D01*
X217758642Y-47059904D01*
%TO.C,R9*%
D11*
X217798380Y-48815285D02*
X217798380Y-49434333D01*
X218179333Y-49101000D01*
X218179333Y-49243857D01*
X218226952Y-49339095D01*
X218274571Y-49386714D01*
X218369809Y-49434333D01*
X218607904Y-49434333D01*
X218703142Y-49386714D01*
X218750761Y-49339095D01*
X218798380Y-49243857D01*
X218798380Y-48958142D01*
X218750761Y-48862904D01*
X218703142Y-48815285D01*
X217798380Y-50053380D02*
X217798380Y-50148619D01*
X217846000Y-50243857D01*
X217893619Y-50291476D01*
X217988857Y-50339095D01*
X218179333Y-50386714D01*
X218417428Y-50386714D01*
X218607904Y-50339095D01*
X218703142Y-50291476D01*
X218750761Y-50243857D01*
X218798380Y-50148619D01*
X218798380Y-50053380D01*
X218750761Y-49958142D01*
X218703142Y-49910523D01*
X218607904Y-49862904D01*
X218417428Y-49815285D01*
X218179333Y-49815285D01*
X217988857Y-49862904D01*
X217893619Y-49910523D01*
X217846000Y-49958142D01*
X217798380Y-50053380D01*
X217798380Y-51005761D02*
X217798380Y-51101000D01*
X217846000Y-51196238D01*
X217893619Y-51243857D01*
X217988857Y-51291476D01*
X218179333Y-51339095D01*
X218417428Y-51339095D01*
X218607904Y-51291476D01*
X218703142Y-51243857D01*
X218750761Y-51196238D01*
X218798380Y-51101000D01*
X218798380Y-51005761D01*
X218750761Y-50910523D01*
X218703142Y-50862904D01*
X218607904Y-50815285D01*
X218417428Y-50767666D01*
X218179333Y-50767666D01*
X217988857Y-50815285D01*
X217893619Y-50862904D01*
X217846000Y-50910523D01*
X217798380Y-51005761D01*
D12*
X217096952Y-50034333D02*
X216906476Y-49901000D01*
X217096952Y-49805761D02*
X216696952Y-49805761D01*
X216696952Y-49958142D01*
X216716000Y-49996238D01*
X216735047Y-50015285D01*
X216773142Y-50034333D01*
X216830285Y-50034333D01*
X216868380Y-50015285D01*
X216887428Y-49996238D01*
X216906476Y-49958142D01*
X216906476Y-49805761D01*
X217096952Y-50224809D02*
X217096952Y-50301000D01*
X217077904Y-50339095D01*
X217058857Y-50358142D01*
X217001714Y-50396238D01*
X216925523Y-50415285D01*
X216773142Y-50415285D01*
X216735047Y-50396238D01*
X216716000Y-50377190D01*
X216696952Y-50339095D01*
X216696952Y-50262904D01*
X216716000Y-50224809D01*
X216735047Y-50205761D01*
X216773142Y-50186714D01*
X216868380Y-50186714D01*
X216906476Y-50205761D01*
X216925523Y-50224809D01*
X216944571Y-50262904D01*
X216944571Y-50339095D01*
X216925523Y-50377190D01*
X216906476Y-50396238D01*
X216868380Y-50415285D01*
%TO.C,R8*%
D11*
X218739595Y-46484380D02*
X219215785Y-46484380D01*
X219263404Y-46960571D01*
X219215785Y-46912952D01*
X219120547Y-46865333D01*
X218882452Y-46865333D01*
X218787214Y-46912952D01*
X218739595Y-46960571D01*
X218691976Y-47055809D01*
X218691976Y-47293904D01*
X218739595Y-47389142D01*
X218787214Y-47436761D01*
X218882452Y-47484380D01*
X219120547Y-47484380D01*
X219215785Y-47436761D01*
X219263404Y-47389142D01*
X217834833Y-46484380D02*
X218025309Y-46484380D01*
X218120547Y-46532000D01*
X218168166Y-46579619D01*
X218263404Y-46722476D01*
X218311023Y-46912952D01*
X218311023Y-47293904D01*
X218263404Y-47389142D01*
X218215785Y-47436761D01*
X218120547Y-47484380D01*
X217930071Y-47484380D01*
X217834833Y-47436761D01*
X217787214Y-47389142D01*
X217739595Y-47293904D01*
X217739595Y-47055809D01*
X217787214Y-46960571D01*
X217834833Y-46912952D01*
X217930071Y-46865333D01*
X218120547Y-46865333D01*
X218215785Y-46912952D01*
X218263404Y-46960571D01*
X218311023Y-47055809D01*
D15*
X218634833Y-45573904D02*
X218901500Y-45192952D01*
X219091976Y-45573904D02*
X219091976Y-44773904D01*
X218787214Y-44773904D01*
X218711023Y-44812000D01*
X218672928Y-44850095D01*
X218634833Y-44926285D01*
X218634833Y-45040571D01*
X218672928Y-45116761D01*
X218711023Y-45154857D01*
X218787214Y-45192952D01*
X219091976Y-45192952D01*
X218177690Y-45116761D02*
X218253880Y-45078666D01*
X218291976Y-45040571D01*
X218330071Y-44964380D01*
X218330071Y-44926285D01*
X218291976Y-44850095D01*
X218253880Y-44812000D01*
X218177690Y-44773904D01*
X218025309Y-44773904D01*
X217949119Y-44812000D01*
X217911023Y-44850095D01*
X217872928Y-44926285D01*
X217872928Y-44964380D01*
X217911023Y-45040571D01*
X217949119Y-45078666D01*
X218025309Y-45116761D01*
X218177690Y-45116761D01*
X218253880Y-45154857D01*
X218291976Y-45192952D01*
X218330071Y-45269142D01*
X218330071Y-45421523D01*
X218291976Y-45497714D01*
X218253880Y-45535809D01*
X218177690Y-45573904D01*
X218025309Y-45573904D01*
X217949119Y-45535809D01*
X217911023Y-45497714D01*
X217872928Y-45421523D01*
X217872928Y-45269142D01*
X217911023Y-45192952D01*
X217949119Y-45154857D01*
X218025309Y-45116761D01*
%TO.C,R7*%
D11*
X239640476Y-45758380D02*
X240211904Y-45758380D01*
X239926190Y-45758380D02*
X239926190Y-44758380D01*
X240021428Y-44901238D01*
X240116666Y-44996476D01*
X240211904Y-45044095D01*
X239021428Y-44758380D02*
X238926190Y-44758380D01*
X238830952Y-44806000D01*
X238783333Y-44853619D01*
X238735714Y-44948857D01*
X238688095Y-45139333D01*
X238688095Y-45377428D01*
X238735714Y-45567904D01*
X238783333Y-45663142D01*
X238830952Y-45710761D01*
X238926190Y-45758380D01*
X239021428Y-45758380D01*
X239116666Y-45710761D01*
X239164285Y-45663142D01*
X239211904Y-45567904D01*
X239259523Y-45377428D01*
X239259523Y-45139333D01*
X239211904Y-44948857D01*
X239164285Y-44853619D01*
X239116666Y-44806000D01*
X239021428Y-44758380D01*
X238259523Y-45758380D02*
X238259523Y-44758380D01*
X237688095Y-45758380D02*
X238116666Y-45186952D01*
X237688095Y-44758380D02*
X238259523Y-45329809D01*
D12*
X239016666Y-46916952D02*
X239150000Y-46726476D01*
X239245238Y-46916952D02*
X239245238Y-46516952D01*
X239092857Y-46516952D01*
X239054761Y-46536000D01*
X239035714Y-46555047D01*
X239016666Y-46593142D01*
X239016666Y-46650285D01*
X239035714Y-46688380D01*
X239054761Y-46707428D01*
X239092857Y-46726476D01*
X239245238Y-46726476D01*
X238883333Y-46516952D02*
X238616666Y-46516952D01*
X238788095Y-46916952D01*
%TO.C,R6*%
D11*
X239640476Y-47155380D02*
X240211904Y-47155380D01*
X239926190Y-47155380D02*
X239926190Y-46155380D01*
X240021428Y-46298238D01*
X240116666Y-46393476D01*
X240211904Y-46441095D01*
X239021428Y-46155380D02*
X238926190Y-46155380D01*
X238830952Y-46203000D01*
X238783333Y-46250619D01*
X238735714Y-46345857D01*
X238688095Y-46536333D01*
X238688095Y-46774428D01*
X238735714Y-46964904D01*
X238783333Y-47060142D01*
X238830952Y-47107761D01*
X238926190Y-47155380D01*
X239021428Y-47155380D01*
X239116666Y-47107761D01*
X239164285Y-47060142D01*
X239211904Y-46964904D01*
X239259523Y-46774428D01*
X239259523Y-46536333D01*
X239211904Y-46345857D01*
X239164285Y-46250619D01*
X239116666Y-46203000D01*
X239021428Y-46155380D01*
X238259523Y-47155380D02*
X238259523Y-46155380D01*
X237688095Y-47155380D02*
X238116666Y-46583952D01*
X237688095Y-46155380D02*
X238259523Y-46726809D01*
D12*
X239016666Y-48313952D02*
X239150000Y-48123476D01*
X239245238Y-48313952D02*
X239245238Y-47913952D01*
X239092857Y-47913952D01*
X239054761Y-47933000D01*
X239035714Y-47952047D01*
X239016666Y-47990142D01*
X239016666Y-48047285D01*
X239035714Y-48085380D01*
X239054761Y-48104428D01*
X239092857Y-48123476D01*
X239245238Y-48123476D01*
X238673809Y-47913952D02*
X238750000Y-47913952D01*
X238788095Y-47933000D01*
X238807142Y-47952047D01*
X238845238Y-48009190D01*
X238864285Y-48085380D01*
X238864285Y-48237761D01*
X238845238Y-48275857D01*
X238826190Y-48294904D01*
X238788095Y-48313952D01*
X238711904Y-48313952D01*
X238673809Y-48294904D01*
X238654761Y-48275857D01*
X238635714Y-48237761D01*
X238635714Y-48142523D01*
X238654761Y-48104428D01*
X238673809Y-48085380D01*
X238711904Y-48066333D01*
X238788095Y-48066333D01*
X238826190Y-48085380D01*
X238845238Y-48104428D01*
X238864285Y-48142523D01*
%TO.C,R5*%
D11*
X239640476Y-48552380D02*
X240211904Y-48552380D01*
X239926190Y-48552380D02*
X239926190Y-47552380D01*
X240021428Y-47695238D01*
X240116666Y-47790476D01*
X240211904Y-47838095D01*
X239021428Y-47552380D02*
X238926190Y-47552380D01*
X238830952Y-47600000D01*
X238783333Y-47647619D01*
X238735714Y-47742857D01*
X238688095Y-47933333D01*
X238688095Y-48171428D01*
X238735714Y-48361904D01*
X238783333Y-48457142D01*
X238830952Y-48504761D01*
X238926190Y-48552380D01*
X239021428Y-48552380D01*
X239116666Y-48504761D01*
X239164285Y-48457142D01*
X239211904Y-48361904D01*
X239259523Y-48171428D01*
X239259523Y-47933333D01*
X239211904Y-47742857D01*
X239164285Y-47647619D01*
X239116666Y-47600000D01*
X239021428Y-47552380D01*
X238259523Y-48552380D02*
X238259523Y-47552380D01*
X237688095Y-48552380D02*
X238116666Y-47980952D01*
X237688095Y-47552380D02*
X238259523Y-48123809D01*
D12*
X239016666Y-49710952D02*
X239150000Y-49520476D01*
X239245238Y-49710952D02*
X239245238Y-49310952D01*
X239092857Y-49310952D01*
X239054761Y-49330000D01*
X239035714Y-49349047D01*
X239016666Y-49387142D01*
X239016666Y-49444285D01*
X239035714Y-49482380D01*
X239054761Y-49501428D01*
X239092857Y-49520476D01*
X239245238Y-49520476D01*
X238654761Y-49310952D02*
X238845238Y-49310952D01*
X238864285Y-49501428D01*
X238845238Y-49482380D01*
X238807142Y-49463333D01*
X238711904Y-49463333D01*
X238673809Y-49482380D01*
X238654761Y-49501428D01*
X238635714Y-49539523D01*
X238635714Y-49634761D01*
X238654761Y-49672857D01*
X238673809Y-49691904D01*
X238711904Y-49710952D01*
X238807142Y-49710952D01*
X238845238Y-49691904D01*
X238864285Y-49672857D01*
%TO.C,R4*%
D11*
X239640476Y-49949380D02*
X240211904Y-49949380D01*
X239926190Y-49949380D02*
X239926190Y-48949380D01*
X240021428Y-49092238D01*
X240116666Y-49187476D01*
X240211904Y-49235095D01*
X239021428Y-48949380D02*
X238926190Y-48949380D01*
X238830952Y-48997000D01*
X238783333Y-49044619D01*
X238735714Y-49139857D01*
X238688095Y-49330333D01*
X238688095Y-49568428D01*
X238735714Y-49758904D01*
X238783333Y-49854142D01*
X238830952Y-49901761D01*
X238926190Y-49949380D01*
X239021428Y-49949380D01*
X239116666Y-49901761D01*
X239164285Y-49854142D01*
X239211904Y-49758904D01*
X239259523Y-49568428D01*
X239259523Y-49330333D01*
X239211904Y-49139857D01*
X239164285Y-49044619D01*
X239116666Y-48997000D01*
X239021428Y-48949380D01*
X238259523Y-49949380D02*
X238259523Y-48949380D01*
X237688095Y-49949380D02*
X238116666Y-49377952D01*
X237688095Y-48949380D02*
X238259523Y-49520809D01*
D12*
X239016666Y-51107952D02*
X239150000Y-50917476D01*
X239245238Y-51107952D02*
X239245238Y-50707952D01*
X239092857Y-50707952D01*
X239054761Y-50727000D01*
X239035714Y-50746047D01*
X239016666Y-50784142D01*
X239016666Y-50841285D01*
X239035714Y-50879380D01*
X239054761Y-50898428D01*
X239092857Y-50917476D01*
X239245238Y-50917476D01*
X238673809Y-50841285D02*
X238673809Y-51107952D01*
X238769047Y-50688904D02*
X238864285Y-50974619D01*
X238616666Y-50974619D01*
%TO.C,R3*%
D11*
X215049380Y-35885523D02*
X215049380Y-35314095D01*
X215049380Y-35599809D02*
X214049380Y-35599809D01*
X214192238Y-35504571D01*
X214287476Y-35409333D01*
X214335095Y-35314095D01*
X214049380Y-36504571D02*
X214049380Y-36599809D01*
X214097000Y-36695047D01*
X214144619Y-36742666D01*
X214239857Y-36790285D01*
X214430333Y-36837904D01*
X214668428Y-36837904D01*
X214858904Y-36790285D01*
X214954142Y-36742666D01*
X215001761Y-36695047D01*
X215049380Y-36599809D01*
X215049380Y-36504571D01*
X215001761Y-36409333D01*
X214954142Y-36361714D01*
X214858904Y-36314095D01*
X214668428Y-36266476D01*
X214430333Y-36266476D01*
X214239857Y-36314095D01*
X214144619Y-36361714D01*
X214097000Y-36409333D01*
X214049380Y-36504571D01*
X215049380Y-37266476D02*
X214049380Y-37266476D01*
X215049380Y-37837904D02*
X214477952Y-37409333D01*
X214049380Y-37837904D02*
X214620809Y-37266476D01*
D12*
X216207952Y-36509333D02*
X216017476Y-36376000D01*
X216207952Y-36280761D02*
X215807952Y-36280761D01*
X215807952Y-36433142D01*
X215827000Y-36471238D01*
X215846047Y-36490285D01*
X215884142Y-36509333D01*
X215941285Y-36509333D01*
X215979380Y-36490285D01*
X215998428Y-36471238D01*
X216017476Y-36433142D01*
X216017476Y-36280761D01*
X215807952Y-36642666D02*
X215807952Y-36890285D01*
X215960333Y-36756952D01*
X215960333Y-36814095D01*
X215979380Y-36852190D01*
X215998428Y-36871238D01*
X216036523Y-36890285D01*
X216131761Y-36890285D01*
X216169857Y-36871238D01*
X216188904Y-36852190D01*
X216207952Y-36814095D01*
X216207952Y-36699809D01*
X216188904Y-36661714D01*
X216169857Y-36642666D01*
%TO.C,C8*%
D11*
X221575047Y-49409714D02*
X221575047Y-50076380D01*
X221813142Y-49028761D02*
X222051238Y-49743047D01*
X221432190Y-49743047D01*
X221146476Y-49076380D02*
X220479809Y-49076380D01*
X220908380Y-50076380D01*
X219908380Y-49076380D02*
X219813142Y-49076380D01*
X219717904Y-49124000D01*
X219670285Y-49171619D01*
X219622666Y-49266857D01*
X219575047Y-49457333D01*
X219575047Y-49695428D01*
X219622666Y-49885904D01*
X219670285Y-49981142D01*
X219717904Y-50028761D01*
X219813142Y-50076380D01*
X219908380Y-50076380D01*
X220003619Y-50028761D01*
X220051238Y-49981142D01*
X220098857Y-49885904D01*
X220146476Y-49695428D01*
X220146476Y-49457333D01*
X220098857Y-49266857D01*
X220051238Y-49171619D01*
X220003619Y-49124000D01*
X219908380Y-49076380D01*
X218956000Y-49076380D02*
X218860761Y-49076380D01*
X218765523Y-49124000D01*
X218717904Y-49171619D01*
X218670285Y-49266857D01*
X218622666Y-49457333D01*
X218622666Y-49695428D01*
X218670285Y-49885904D01*
X218717904Y-49981142D01*
X218765523Y-50028761D01*
X218860761Y-50076380D01*
X218956000Y-50076380D01*
X219051238Y-50028761D01*
X219098857Y-49981142D01*
X219146476Y-49885904D01*
X219194095Y-49695428D01*
X219194095Y-49457333D01*
X219146476Y-49266857D01*
X219098857Y-49171619D01*
X219051238Y-49124000D01*
X218956000Y-49076380D01*
X218194095Y-49409714D02*
X218194095Y-50409714D01*
X218194095Y-49457333D02*
X218098857Y-49409714D01*
X217908380Y-49409714D01*
X217813142Y-49457333D01*
X217765523Y-49504952D01*
X217717904Y-49600190D01*
X217717904Y-49885904D01*
X217765523Y-49981142D01*
X217813142Y-50028761D01*
X217908380Y-50076380D01*
X218098857Y-50076380D01*
X218194095Y-50028761D01*
X216956000Y-49552571D02*
X217289333Y-49552571D01*
X217289333Y-50076380D02*
X217289333Y-49076380D01*
X216813142Y-49076380D01*
D12*
X219522666Y-51196857D02*
X219541714Y-51215904D01*
X219598857Y-51234952D01*
X219636952Y-51234952D01*
X219694095Y-51215904D01*
X219732190Y-51177809D01*
X219751238Y-51139714D01*
X219770285Y-51063523D01*
X219770285Y-51006380D01*
X219751238Y-50930190D01*
X219732190Y-50892095D01*
X219694095Y-50854000D01*
X219636952Y-50834952D01*
X219598857Y-50834952D01*
X219541714Y-50854000D01*
X219522666Y-50873047D01*
X219294095Y-51006380D02*
X219332190Y-50987333D01*
X219351238Y-50968285D01*
X219370285Y-50930190D01*
X219370285Y-50911142D01*
X219351238Y-50873047D01*
X219332190Y-50854000D01*
X219294095Y-50834952D01*
X219217904Y-50834952D01*
X219179809Y-50854000D01*
X219160761Y-50873047D01*
X219141714Y-50911142D01*
X219141714Y-50930190D01*
X219160761Y-50968285D01*
X219179809Y-50987333D01*
X219217904Y-51006380D01*
X219294095Y-51006380D01*
X219332190Y-51025428D01*
X219351238Y-51044476D01*
X219370285Y-51082571D01*
X219370285Y-51158761D01*
X219351238Y-51196857D01*
X219332190Y-51215904D01*
X219294095Y-51234952D01*
X219217904Y-51234952D01*
X219179809Y-51215904D01*
X219160761Y-51196857D01*
X219141714Y-51158761D01*
X219141714Y-51082571D01*
X219160761Y-51044476D01*
X219179809Y-51025428D01*
X219217904Y-51006380D01*
%TO.C,C7*%
D11*
X223539857Y-44173380D02*
X223444619Y-44173380D01*
X223349380Y-44221000D01*
X223301761Y-44268619D01*
X223254142Y-44363857D01*
X223206523Y-44554333D01*
X223206523Y-44792428D01*
X223254142Y-44982904D01*
X223301761Y-45078142D01*
X223349380Y-45125761D01*
X223444619Y-45173380D01*
X223539857Y-45173380D01*
X223635095Y-45125761D01*
X223682714Y-45078142D01*
X223730333Y-44982904D01*
X223777952Y-44792428D01*
X223777952Y-44554333D01*
X223730333Y-44363857D01*
X223682714Y-44268619D01*
X223635095Y-44221000D01*
X223539857Y-44173380D01*
X222777952Y-45078142D02*
X222730333Y-45125761D01*
X222777952Y-45173380D01*
X222825571Y-45125761D01*
X222777952Y-45078142D01*
X222777952Y-45173380D01*
X221777952Y-45173380D02*
X222349380Y-45173380D01*
X222063666Y-45173380D02*
X222063666Y-44173380D01*
X222158904Y-44316238D01*
X222254142Y-44411476D01*
X222349380Y-44459095D01*
X220920809Y-44506714D02*
X220920809Y-45173380D01*
X221349380Y-44506714D02*
X221349380Y-45030523D01*
X221301761Y-45125761D01*
X221206523Y-45173380D01*
X221063666Y-45173380D01*
X220968428Y-45125761D01*
X220920809Y-45078142D01*
X220111285Y-44649571D02*
X220444619Y-44649571D01*
X220444619Y-45173380D02*
X220444619Y-44173380D01*
X219968428Y-44173380D01*
D16*
X221938666Y-43650285D02*
X221950571Y-43662190D01*
X221986285Y-43674095D01*
X222010095Y-43674095D01*
X222045809Y-43662190D01*
X222069619Y-43638380D01*
X222081523Y-43614571D01*
X222093428Y-43566952D01*
X222093428Y-43531238D01*
X222081523Y-43483619D01*
X222069619Y-43459809D01*
X222045809Y-43436000D01*
X222010095Y-43424095D01*
X221986285Y-43424095D01*
X221950571Y-43436000D01*
X221938666Y-43447904D01*
X221855333Y-43424095D02*
X221688666Y-43424095D01*
X221795809Y-43674095D01*
%TO.C,C6*%
D11*
X220195380Y-32027442D02*
X220195380Y-32122680D01*
X220243000Y-32217919D01*
X220290619Y-32265538D01*
X220385857Y-32313157D01*
X220576333Y-32360776D01*
X220814428Y-32360776D01*
X221004904Y-32313157D01*
X221100142Y-32265538D01*
X221147761Y-32217919D01*
X221195380Y-32122680D01*
X221195380Y-32027442D01*
X221147761Y-31932204D01*
X221100142Y-31884585D01*
X221004904Y-31836966D01*
X220814428Y-31789347D01*
X220576333Y-31789347D01*
X220385857Y-31836966D01*
X220290619Y-31884585D01*
X220243000Y-31932204D01*
X220195380Y-32027442D01*
X221100142Y-32789347D02*
X221147761Y-32836966D01*
X221195380Y-32789347D01*
X221147761Y-32741728D01*
X221100142Y-32789347D01*
X221195380Y-32789347D01*
X221195380Y-33789347D02*
X221195380Y-33217919D01*
X221195380Y-33503633D02*
X220195380Y-33503633D01*
X220338238Y-33408395D01*
X220433476Y-33313157D01*
X220481095Y-33217919D01*
X220528714Y-34646490D02*
X221195380Y-34646490D01*
X220528714Y-34217919D02*
X221052523Y-34217919D01*
X221147761Y-34265538D01*
X221195380Y-34360776D01*
X221195380Y-34503633D01*
X221147761Y-34598871D01*
X221100142Y-34646490D01*
X220671571Y-35456014D02*
X220671571Y-35122680D01*
X221195380Y-35122680D02*
X220195380Y-35122680D01*
X220195380Y-35598871D01*
D16*
X219672285Y-33628633D02*
X219684190Y-33616728D01*
X219696095Y-33581014D01*
X219696095Y-33557204D01*
X219684190Y-33521490D01*
X219660380Y-33497680D01*
X219636571Y-33485776D01*
X219588952Y-33473871D01*
X219553238Y-33473871D01*
X219505619Y-33485776D01*
X219481809Y-33497680D01*
X219458000Y-33521490D01*
X219446095Y-33557204D01*
X219446095Y-33581014D01*
X219458000Y-33616728D01*
X219469904Y-33628633D01*
X219446095Y-33842919D02*
X219446095Y-33795300D01*
X219458000Y-33771490D01*
X219469904Y-33759585D01*
X219505619Y-33735776D01*
X219553238Y-33723871D01*
X219648476Y-33723871D01*
X219672285Y-33735776D01*
X219684190Y-33747680D01*
X219696095Y-33771490D01*
X219696095Y-33819109D01*
X219684190Y-33842919D01*
X219672285Y-33854823D01*
X219648476Y-33866728D01*
X219588952Y-33866728D01*
X219565142Y-33854823D01*
X219553238Y-33842919D01*
X219541333Y-33819109D01*
X219541333Y-33771490D01*
X219553238Y-33747680D01*
X219565142Y-33735776D01*
X219588952Y-33723871D01*
%TO.C,C5*%
D11*
X216339380Y-38806642D02*
X216339380Y-38901880D01*
X216387000Y-38997119D01*
X216434619Y-39044738D01*
X216529857Y-39092357D01*
X216720333Y-39139976D01*
X216958428Y-39139976D01*
X217148904Y-39092357D01*
X217244142Y-39044738D01*
X217291761Y-38997119D01*
X217339380Y-38901880D01*
X217339380Y-38806642D01*
X217291761Y-38711404D01*
X217244142Y-38663785D01*
X217148904Y-38616166D01*
X216958428Y-38568547D01*
X216720333Y-38568547D01*
X216529857Y-38616166D01*
X216434619Y-38663785D01*
X216387000Y-38711404D01*
X216339380Y-38806642D01*
X217244142Y-39568547D02*
X217291761Y-39616166D01*
X217339380Y-39568547D01*
X217291761Y-39520928D01*
X217244142Y-39568547D01*
X217339380Y-39568547D01*
X217339380Y-40568547D02*
X217339380Y-39997119D01*
X217339380Y-40282833D02*
X216339380Y-40282833D01*
X216482238Y-40187595D01*
X216577476Y-40092357D01*
X216625095Y-39997119D01*
X216672714Y-41425690D02*
X217339380Y-41425690D01*
X216672714Y-40997119D02*
X217196523Y-40997119D01*
X217291761Y-41044738D01*
X217339380Y-41139976D01*
X217339380Y-41282833D01*
X217291761Y-41378071D01*
X217244142Y-41425690D01*
X216815571Y-42235214D02*
X216815571Y-41901880D01*
X217339380Y-41901880D02*
X216339380Y-41901880D01*
X216339380Y-42378071D01*
D16*
X215816285Y-40407833D02*
X215828190Y-40395928D01*
X215840095Y-40360214D01*
X215840095Y-40336404D01*
X215828190Y-40300690D01*
X215804380Y-40276880D01*
X215780571Y-40264976D01*
X215732952Y-40253071D01*
X215697238Y-40253071D01*
X215649619Y-40264976D01*
X215625809Y-40276880D01*
X215602000Y-40300690D01*
X215590095Y-40336404D01*
X215590095Y-40360214D01*
X215602000Y-40395928D01*
X215613904Y-40407833D01*
X215590095Y-40634023D02*
X215590095Y-40514976D01*
X215709142Y-40503071D01*
X215697238Y-40514976D01*
X215685333Y-40538785D01*
X215685333Y-40598309D01*
X215697238Y-40622119D01*
X215709142Y-40634023D01*
X215732952Y-40645928D01*
X215792476Y-40645928D01*
X215816285Y-40634023D01*
X215828190Y-40622119D01*
X215840095Y-40598309D01*
X215840095Y-40538785D01*
X215828190Y-40514976D01*
X215816285Y-40503071D01*
%TO.C,C3*%
D11*
X244265857Y-49507380D02*
X244170619Y-49507380D01*
X244075380Y-49555000D01*
X244027761Y-49602619D01*
X243980142Y-49697857D01*
X243932523Y-49888333D01*
X243932523Y-50126428D01*
X243980142Y-50316904D01*
X244027761Y-50412142D01*
X244075380Y-50459761D01*
X244170619Y-50507380D01*
X244265857Y-50507380D01*
X244361095Y-50459761D01*
X244408714Y-50412142D01*
X244456333Y-50316904D01*
X244503952Y-50126428D01*
X244503952Y-49888333D01*
X244456333Y-49697857D01*
X244408714Y-49602619D01*
X244361095Y-49555000D01*
X244265857Y-49507380D01*
X243503952Y-50412142D02*
X243456333Y-50459761D01*
X243503952Y-50507380D01*
X243551571Y-50459761D01*
X243503952Y-50412142D01*
X243503952Y-50507380D01*
X242503952Y-50507380D02*
X243075380Y-50507380D01*
X242789666Y-50507380D02*
X242789666Y-49507380D01*
X242884904Y-49650238D01*
X242980142Y-49745476D01*
X243075380Y-49793095D01*
X241646809Y-49840714D02*
X241646809Y-50507380D01*
X242075380Y-49840714D02*
X242075380Y-50364523D01*
X242027761Y-50459761D01*
X241932523Y-50507380D01*
X241789666Y-50507380D01*
X241694428Y-50459761D01*
X241646809Y-50412142D01*
X240837285Y-49983571D02*
X241170619Y-49983571D01*
X241170619Y-50507380D02*
X241170619Y-49507380D01*
X240694428Y-49507380D01*
D16*
X242664666Y-48984285D02*
X242676571Y-48996190D01*
X242712285Y-49008095D01*
X242736095Y-49008095D01*
X242771809Y-48996190D01*
X242795619Y-48972380D01*
X242807523Y-48948571D01*
X242819428Y-48900952D01*
X242819428Y-48865238D01*
X242807523Y-48817619D01*
X242795619Y-48793809D01*
X242771809Y-48770000D01*
X242736095Y-48758095D01*
X242712285Y-48758095D01*
X242676571Y-48770000D01*
X242664666Y-48781904D01*
X242581333Y-48758095D02*
X242426571Y-48758095D01*
X242509904Y-48853333D01*
X242474190Y-48853333D01*
X242450380Y-48865238D01*
X242438476Y-48877142D01*
X242426571Y-48900952D01*
X242426571Y-48960476D01*
X242438476Y-48984285D01*
X242450380Y-48996190D01*
X242474190Y-49008095D01*
X242545619Y-49008095D01*
X242569428Y-48996190D01*
X242581333Y-48984285D01*
%TD*%
M02*
