%TF.GenerationSoftware,KiCad,Pcbnew,(5.1.7)-1*%
%TF.CreationDate,2021-02-02T18:20:17+09:00*%
%TF.ProjectId,canboard,63616e62-6f61-4726-942e-6b696361645f,rev?*%
%TF.SameCoordinates,Original*%
%TF.FileFunction,Soldermask,Bot*%
%TF.FilePolarity,Negative*%
%FSLAX46Y46*%
G04 Gerber Fmt 4.6, Leading zero omitted, Abs format (unit mm)*
G04 Created by KiCad (PCBNEW (5.1.7)-1) date 2021-02-02 18:20:17*
%MOMM*%
%LPD*%
G01*
G04 APERTURE LIST*
%ADD10R,1.700000X1.700000*%
%ADD11C,2.100000*%
%ADD12R,2.100000X2.100000*%
%ADD13O,1.700000X1.700000*%
%ADD14R,3.200000X0.400000*%
%ADD15O,1.600000X1.600000*%
%ADD16R,1.600000X1.600000*%
G04 APERTURE END LIST*
D10*
%TO.C,REF\u002A\u002A*%
X245445000Y-31115000D03*
%TD*%
%TO.C,REF\u002A\u002A*%
X245445000Y-52705000D03*
%TD*%
%TO.C,REF\u002A\u002A*%
X207980000Y-52705000D03*
%TD*%
%TO.C,REF\u002A\u002A*%
X207980000Y-31115000D03*
%TD*%
%TO.C,R16*%
G36*
G01*
X236026000Y-38652000D02*
X236576000Y-38652000D01*
G75*
G02*
X236776000Y-38852000I0J-200000D01*
G01*
X236776000Y-39252000D01*
G75*
G02*
X236576000Y-39452000I-200000J0D01*
G01*
X236026000Y-39452000D01*
G75*
G02*
X235826000Y-39252000I0J200000D01*
G01*
X235826000Y-38852000D01*
G75*
G02*
X236026000Y-38652000I200000J0D01*
G01*
G37*
G36*
G01*
X236026000Y-37002000D02*
X236576000Y-37002000D01*
G75*
G02*
X236776000Y-37202000I0J-200000D01*
G01*
X236776000Y-37602000D01*
G75*
G02*
X236576000Y-37802000I-200000J0D01*
G01*
X236026000Y-37802000D01*
G75*
G02*
X235826000Y-37602000I0J200000D01*
G01*
X235826000Y-37202000D01*
G75*
G02*
X236026000Y-37002000I200000J0D01*
G01*
G37*
%TD*%
D11*
%TO.C,J6*%
X207980000Y-48260000D03*
D12*
X207980000Y-45720000D03*
%TD*%
D10*
%TO.C,J3*%
X241000000Y-53340000D03*
D13*
X238460000Y-53340000D03*
X235920000Y-53340000D03*
X233380000Y-53340000D03*
X230840000Y-53340000D03*
X228300000Y-53340000D03*
X225760000Y-53340000D03*
X223220000Y-53340000D03*
X220680000Y-53340000D03*
X218140000Y-53340000D03*
X215600000Y-53340000D03*
X213060000Y-53340000D03*
%TD*%
D10*
%TO.C,J1*%
X241000000Y-30480000D03*
D13*
X238460000Y-30480000D03*
X235920000Y-30480000D03*
X233380000Y-30480000D03*
X230840000Y-30480000D03*
X228300000Y-30480000D03*
X225760000Y-30480000D03*
X223220000Y-30480000D03*
X220680000Y-30480000D03*
X218140000Y-30480000D03*
X215600000Y-30480000D03*
X213060000Y-30480000D03*
%TD*%
%TO.C,U4*%
G36*
G01*
X225151000Y-33174800D02*
X225151000Y-33474800D01*
G75*
G02*
X225001000Y-33624800I-150000J0D01*
G01*
X223251000Y-33624800D01*
G75*
G02*
X223101000Y-33474800I0J150000D01*
G01*
X223101000Y-33174800D01*
G75*
G02*
X223251000Y-33024800I150000J0D01*
G01*
X225001000Y-33024800D01*
G75*
G02*
X225151000Y-33174800I0J-150000D01*
G01*
G37*
G36*
G01*
X225151000Y-34444800D02*
X225151000Y-34744800D01*
G75*
G02*
X225001000Y-34894800I-150000J0D01*
G01*
X223251000Y-34894800D01*
G75*
G02*
X223101000Y-34744800I0J150000D01*
G01*
X223101000Y-34444800D01*
G75*
G02*
X223251000Y-34294800I150000J0D01*
G01*
X225001000Y-34294800D01*
G75*
G02*
X225151000Y-34444800I0J-150000D01*
G01*
G37*
G36*
G01*
X225151000Y-35714800D02*
X225151000Y-36014800D01*
G75*
G02*
X225001000Y-36164800I-150000J0D01*
G01*
X223251000Y-36164800D01*
G75*
G02*
X223101000Y-36014800I0J150000D01*
G01*
X223101000Y-35714800D01*
G75*
G02*
X223251000Y-35564800I150000J0D01*
G01*
X225001000Y-35564800D01*
G75*
G02*
X225151000Y-35714800I0J-150000D01*
G01*
G37*
G36*
G01*
X225151000Y-36984800D02*
X225151000Y-37284800D01*
G75*
G02*
X225001000Y-37434800I-150000J0D01*
G01*
X223251000Y-37434800D01*
G75*
G02*
X223101000Y-37284800I0J150000D01*
G01*
X223101000Y-36984800D01*
G75*
G02*
X223251000Y-36834800I150000J0D01*
G01*
X225001000Y-36834800D01*
G75*
G02*
X225151000Y-36984800I0J-150000D01*
G01*
G37*
G36*
G01*
X225151000Y-38254800D02*
X225151000Y-38554800D01*
G75*
G02*
X225001000Y-38704800I-150000J0D01*
G01*
X223251000Y-38704800D01*
G75*
G02*
X223101000Y-38554800I0J150000D01*
G01*
X223101000Y-38254800D01*
G75*
G02*
X223251000Y-38104800I150000J0D01*
G01*
X225001000Y-38104800D01*
G75*
G02*
X225151000Y-38254800I0J-150000D01*
G01*
G37*
G36*
G01*
X225151000Y-39524800D02*
X225151000Y-39824800D01*
G75*
G02*
X225001000Y-39974800I-150000J0D01*
G01*
X223251000Y-39974800D01*
G75*
G02*
X223101000Y-39824800I0J150000D01*
G01*
X223101000Y-39524800D01*
G75*
G02*
X223251000Y-39374800I150000J0D01*
G01*
X225001000Y-39374800D01*
G75*
G02*
X225151000Y-39524800I0J-150000D01*
G01*
G37*
G36*
G01*
X225151000Y-40794800D02*
X225151000Y-41094800D01*
G75*
G02*
X225001000Y-41244800I-150000J0D01*
G01*
X223251000Y-41244800D01*
G75*
G02*
X223101000Y-41094800I0J150000D01*
G01*
X223101000Y-40794800D01*
G75*
G02*
X223251000Y-40644800I150000J0D01*
G01*
X225001000Y-40644800D01*
G75*
G02*
X225151000Y-40794800I0J-150000D01*
G01*
G37*
G36*
G01*
X225151000Y-42064800D02*
X225151000Y-42364800D01*
G75*
G02*
X225001000Y-42514800I-150000J0D01*
G01*
X223251000Y-42514800D01*
G75*
G02*
X223101000Y-42364800I0J150000D01*
G01*
X223101000Y-42064800D01*
G75*
G02*
X223251000Y-41914800I150000J0D01*
G01*
X225001000Y-41914800D01*
G75*
G02*
X225151000Y-42064800I0J-150000D01*
G01*
G37*
G36*
G01*
X225151000Y-43334800D02*
X225151000Y-43634800D01*
G75*
G02*
X225001000Y-43784800I-150000J0D01*
G01*
X223251000Y-43784800D01*
G75*
G02*
X223101000Y-43634800I0J150000D01*
G01*
X223101000Y-43334800D01*
G75*
G02*
X223251000Y-43184800I150000J0D01*
G01*
X225001000Y-43184800D01*
G75*
G02*
X225151000Y-43334800I0J-150000D01*
G01*
G37*
G36*
G01*
X234451000Y-43334800D02*
X234451000Y-43634800D01*
G75*
G02*
X234301000Y-43784800I-150000J0D01*
G01*
X232551000Y-43784800D01*
G75*
G02*
X232401000Y-43634800I0J150000D01*
G01*
X232401000Y-43334800D01*
G75*
G02*
X232551000Y-43184800I150000J0D01*
G01*
X234301000Y-43184800D01*
G75*
G02*
X234451000Y-43334800I0J-150000D01*
G01*
G37*
G36*
G01*
X234451000Y-42064800D02*
X234451000Y-42364800D01*
G75*
G02*
X234301000Y-42514800I-150000J0D01*
G01*
X232551000Y-42514800D01*
G75*
G02*
X232401000Y-42364800I0J150000D01*
G01*
X232401000Y-42064800D01*
G75*
G02*
X232551000Y-41914800I150000J0D01*
G01*
X234301000Y-41914800D01*
G75*
G02*
X234451000Y-42064800I0J-150000D01*
G01*
G37*
G36*
G01*
X234451000Y-40794800D02*
X234451000Y-41094800D01*
G75*
G02*
X234301000Y-41244800I-150000J0D01*
G01*
X232551000Y-41244800D01*
G75*
G02*
X232401000Y-41094800I0J150000D01*
G01*
X232401000Y-40794800D01*
G75*
G02*
X232551000Y-40644800I150000J0D01*
G01*
X234301000Y-40644800D01*
G75*
G02*
X234451000Y-40794800I0J-150000D01*
G01*
G37*
G36*
G01*
X234451000Y-39524800D02*
X234451000Y-39824800D01*
G75*
G02*
X234301000Y-39974800I-150000J0D01*
G01*
X232551000Y-39974800D01*
G75*
G02*
X232401000Y-39824800I0J150000D01*
G01*
X232401000Y-39524800D01*
G75*
G02*
X232551000Y-39374800I150000J0D01*
G01*
X234301000Y-39374800D01*
G75*
G02*
X234451000Y-39524800I0J-150000D01*
G01*
G37*
G36*
G01*
X234451000Y-38254800D02*
X234451000Y-38554800D01*
G75*
G02*
X234301000Y-38704800I-150000J0D01*
G01*
X232551000Y-38704800D01*
G75*
G02*
X232401000Y-38554800I0J150000D01*
G01*
X232401000Y-38254800D01*
G75*
G02*
X232551000Y-38104800I150000J0D01*
G01*
X234301000Y-38104800D01*
G75*
G02*
X234451000Y-38254800I0J-150000D01*
G01*
G37*
G36*
G01*
X234451000Y-36984800D02*
X234451000Y-37284800D01*
G75*
G02*
X234301000Y-37434800I-150000J0D01*
G01*
X232551000Y-37434800D01*
G75*
G02*
X232401000Y-37284800I0J150000D01*
G01*
X232401000Y-36984800D01*
G75*
G02*
X232551000Y-36834800I150000J0D01*
G01*
X234301000Y-36834800D01*
G75*
G02*
X234451000Y-36984800I0J-150000D01*
G01*
G37*
G36*
G01*
X234451000Y-35714800D02*
X234451000Y-36014800D01*
G75*
G02*
X234301000Y-36164800I-150000J0D01*
G01*
X232551000Y-36164800D01*
G75*
G02*
X232401000Y-36014800I0J150000D01*
G01*
X232401000Y-35714800D01*
G75*
G02*
X232551000Y-35564800I150000J0D01*
G01*
X234301000Y-35564800D01*
G75*
G02*
X234451000Y-35714800I0J-150000D01*
G01*
G37*
G36*
G01*
X234451000Y-34444800D02*
X234451000Y-34744800D01*
G75*
G02*
X234301000Y-34894800I-150000J0D01*
G01*
X232551000Y-34894800D01*
G75*
G02*
X232401000Y-34744800I0J150000D01*
G01*
X232401000Y-34444800D01*
G75*
G02*
X232551000Y-34294800I150000J0D01*
G01*
X234301000Y-34294800D01*
G75*
G02*
X234451000Y-34444800I0J-150000D01*
G01*
G37*
G36*
G01*
X234451000Y-33174800D02*
X234451000Y-33474800D01*
G75*
G02*
X234301000Y-33624800I-150000J0D01*
G01*
X232551000Y-33624800D01*
G75*
G02*
X232401000Y-33474800I0J150000D01*
G01*
X232401000Y-33174800D01*
G75*
G02*
X232551000Y-33024800I150000J0D01*
G01*
X234301000Y-33024800D01*
G75*
G02*
X234451000Y-33174800I0J-150000D01*
G01*
G37*
%TD*%
D14*
%TO.C,Y2*%
X236555000Y-43427000D03*
X236555000Y-42227000D03*
X236555000Y-41027000D03*
%TD*%
%TO.C,U5*%
G36*
G01*
X221592000Y-49695000D02*
X221892000Y-49695000D01*
G75*
G02*
X222042000Y-49845000I0J-150000D01*
G01*
X222042000Y-51495000D01*
G75*
G02*
X221892000Y-51645000I-150000J0D01*
G01*
X221592000Y-51645000D01*
G75*
G02*
X221442000Y-51495000I0J150000D01*
G01*
X221442000Y-49845000D01*
G75*
G02*
X221592000Y-49695000I150000J0D01*
G01*
G37*
G36*
G01*
X222862000Y-49695000D02*
X223162000Y-49695000D01*
G75*
G02*
X223312000Y-49845000I0J-150000D01*
G01*
X223312000Y-51495000D01*
G75*
G02*
X223162000Y-51645000I-150000J0D01*
G01*
X222862000Y-51645000D01*
G75*
G02*
X222712000Y-51495000I0J150000D01*
G01*
X222712000Y-49845000D01*
G75*
G02*
X222862000Y-49695000I150000J0D01*
G01*
G37*
G36*
G01*
X224132000Y-49695000D02*
X224432000Y-49695000D01*
G75*
G02*
X224582000Y-49845000I0J-150000D01*
G01*
X224582000Y-51495000D01*
G75*
G02*
X224432000Y-51645000I-150000J0D01*
G01*
X224132000Y-51645000D01*
G75*
G02*
X223982000Y-51495000I0J150000D01*
G01*
X223982000Y-49845000D01*
G75*
G02*
X224132000Y-49695000I150000J0D01*
G01*
G37*
G36*
G01*
X225402000Y-49695000D02*
X225702000Y-49695000D01*
G75*
G02*
X225852000Y-49845000I0J-150000D01*
G01*
X225852000Y-51495000D01*
G75*
G02*
X225702000Y-51645000I-150000J0D01*
G01*
X225402000Y-51645000D01*
G75*
G02*
X225252000Y-51495000I0J150000D01*
G01*
X225252000Y-49845000D01*
G75*
G02*
X225402000Y-49695000I150000J0D01*
G01*
G37*
G36*
G01*
X225402000Y-44745000D02*
X225702000Y-44745000D01*
G75*
G02*
X225852000Y-44895000I0J-150000D01*
G01*
X225852000Y-46545000D01*
G75*
G02*
X225702000Y-46695000I-150000J0D01*
G01*
X225402000Y-46695000D01*
G75*
G02*
X225252000Y-46545000I0J150000D01*
G01*
X225252000Y-44895000D01*
G75*
G02*
X225402000Y-44745000I150000J0D01*
G01*
G37*
G36*
G01*
X224132000Y-44745000D02*
X224432000Y-44745000D01*
G75*
G02*
X224582000Y-44895000I0J-150000D01*
G01*
X224582000Y-46545000D01*
G75*
G02*
X224432000Y-46695000I-150000J0D01*
G01*
X224132000Y-46695000D01*
G75*
G02*
X223982000Y-46545000I0J150000D01*
G01*
X223982000Y-44895000D01*
G75*
G02*
X224132000Y-44745000I150000J0D01*
G01*
G37*
G36*
G01*
X222862000Y-44745000D02*
X223162000Y-44745000D01*
G75*
G02*
X223312000Y-44895000I0J-150000D01*
G01*
X223312000Y-46545000D01*
G75*
G02*
X223162000Y-46695000I-150000J0D01*
G01*
X222862000Y-46695000D01*
G75*
G02*
X222712000Y-46545000I0J150000D01*
G01*
X222712000Y-44895000D01*
G75*
G02*
X222862000Y-44745000I150000J0D01*
G01*
G37*
G36*
G01*
X221592000Y-44745000D02*
X221892000Y-44745000D01*
G75*
G02*
X222042000Y-44895000I0J-150000D01*
G01*
X222042000Y-46545000D01*
G75*
G02*
X221892000Y-46695000I-150000J0D01*
G01*
X221592000Y-46695000D01*
G75*
G02*
X221442000Y-46545000I0J150000D01*
G01*
X221442000Y-44895000D01*
G75*
G02*
X221592000Y-44745000I150000J0D01*
G01*
G37*
%TD*%
D15*
%TO.C,U3*%
X213614000Y-41529000D03*
X221234000Y-33909000D03*
X213614000Y-38989000D03*
X221234000Y-36449000D03*
X213614000Y-36449000D03*
X221234000Y-38989000D03*
X213614000Y-33909000D03*
D16*
X221234000Y-41529000D03*
%TD*%
%TO.C,R11*%
G36*
G01*
X218206000Y-38587000D02*
X218206000Y-39137000D01*
G75*
G02*
X218006000Y-39337000I-200000J0D01*
G01*
X217606000Y-39337000D01*
G75*
G02*
X217406000Y-39137000I0J200000D01*
G01*
X217406000Y-38587000D01*
G75*
G02*
X217606000Y-38387000I200000J0D01*
G01*
X218006000Y-38387000D01*
G75*
G02*
X218206000Y-38587000I0J-200000D01*
G01*
G37*
G36*
G01*
X219856000Y-38587000D02*
X219856000Y-39137000D01*
G75*
G02*
X219656000Y-39337000I-200000J0D01*
G01*
X219256000Y-39337000D01*
G75*
G02*
X219056000Y-39137000I0J200000D01*
G01*
X219056000Y-38587000D01*
G75*
G02*
X219256000Y-38387000I200000J0D01*
G01*
X219656000Y-38387000D01*
G75*
G02*
X219856000Y-38587000I0J-200000D01*
G01*
G37*
%TD*%
%TO.C,R10*%
G36*
G01*
X217601500Y-46872997D02*
X217601500Y-48123003D01*
G75*
G02*
X217351503Y-48373000I-249997J0D01*
G01*
X216726497Y-48373000D01*
G75*
G02*
X216476500Y-48123003I0J249997D01*
G01*
X216476500Y-46872997D01*
G75*
G02*
X216726497Y-46623000I249997J0D01*
G01*
X217351503Y-46623000D01*
G75*
G02*
X217601500Y-46872997I0J-249997D01*
G01*
G37*
G36*
G01*
X220526500Y-46872997D02*
X220526500Y-48123003D01*
G75*
G02*
X220276503Y-48373000I-249997J0D01*
G01*
X219651497Y-48373000D01*
G75*
G02*
X219401500Y-48123003I0J249997D01*
G01*
X219401500Y-46872997D01*
G75*
G02*
X219651497Y-46623000I249997J0D01*
G01*
X220276503Y-46623000D01*
G75*
G02*
X220526500Y-46872997I0J-249997D01*
G01*
G37*
%TD*%
%TO.C,R9*%
G36*
G01*
X216641000Y-50526000D02*
X217191000Y-50526000D01*
G75*
G02*
X217391000Y-50726000I0J-200000D01*
G01*
X217391000Y-51126000D01*
G75*
G02*
X217191000Y-51326000I-200000J0D01*
G01*
X216641000Y-51326000D01*
G75*
G02*
X216441000Y-51126000I0J200000D01*
G01*
X216441000Y-50726000D01*
G75*
G02*
X216641000Y-50526000I200000J0D01*
G01*
G37*
G36*
G01*
X216641000Y-48876000D02*
X217191000Y-48876000D01*
G75*
G02*
X217391000Y-49076000I0J-200000D01*
G01*
X217391000Y-49476000D01*
G75*
G02*
X217191000Y-49676000I-200000J0D01*
G01*
X216641000Y-49676000D01*
G75*
G02*
X216441000Y-49476000I0J200000D01*
G01*
X216441000Y-49076000D01*
G75*
G02*
X216641000Y-48876000I200000J0D01*
G01*
G37*
%TD*%
%TO.C,R8*%
G36*
G01*
X217601500Y-44586997D02*
X217601500Y-45837003D01*
G75*
G02*
X217351503Y-46087000I-249997J0D01*
G01*
X216726497Y-46087000D01*
G75*
G02*
X216476500Y-45837003I0J249997D01*
G01*
X216476500Y-44586997D01*
G75*
G02*
X216726497Y-44337000I249997J0D01*
G01*
X217351503Y-44337000D01*
G75*
G02*
X217601500Y-44586997I0J-249997D01*
G01*
G37*
G36*
G01*
X220526500Y-44586997D02*
X220526500Y-45837003D01*
G75*
G02*
X220276503Y-46087000I-249997J0D01*
G01*
X219651497Y-46087000D01*
G75*
G02*
X219401500Y-45837003I0J249997D01*
G01*
X219401500Y-44586997D01*
G75*
G02*
X219651497Y-44337000I249997J0D01*
G01*
X220276503Y-44337000D01*
G75*
G02*
X220526500Y-44586997I0J-249997D01*
G01*
G37*
%TD*%
%TO.C,R7*%
G36*
G01*
X239375000Y-47011000D02*
X239375000Y-46461000D01*
G75*
G02*
X239575000Y-46261000I200000J0D01*
G01*
X239975000Y-46261000D01*
G75*
G02*
X240175000Y-46461000I0J-200000D01*
G01*
X240175000Y-47011000D01*
G75*
G02*
X239975000Y-47211000I-200000J0D01*
G01*
X239575000Y-47211000D01*
G75*
G02*
X239375000Y-47011000I0J200000D01*
G01*
G37*
G36*
G01*
X237725000Y-47011000D02*
X237725000Y-46461000D01*
G75*
G02*
X237925000Y-46261000I200000J0D01*
G01*
X238325000Y-46261000D01*
G75*
G02*
X238525000Y-46461000I0J-200000D01*
G01*
X238525000Y-47011000D01*
G75*
G02*
X238325000Y-47211000I-200000J0D01*
G01*
X237925000Y-47211000D01*
G75*
G02*
X237725000Y-47011000I0J200000D01*
G01*
G37*
%TD*%
%TO.C,R6*%
G36*
G01*
X239375000Y-48408000D02*
X239375000Y-47858000D01*
G75*
G02*
X239575000Y-47658000I200000J0D01*
G01*
X239975000Y-47658000D01*
G75*
G02*
X240175000Y-47858000I0J-200000D01*
G01*
X240175000Y-48408000D01*
G75*
G02*
X239975000Y-48608000I-200000J0D01*
G01*
X239575000Y-48608000D01*
G75*
G02*
X239375000Y-48408000I0J200000D01*
G01*
G37*
G36*
G01*
X237725000Y-48408000D02*
X237725000Y-47858000D01*
G75*
G02*
X237925000Y-47658000I200000J0D01*
G01*
X238325000Y-47658000D01*
G75*
G02*
X238525000Y-47858000I0J-200000D01*
G01*
X238525000Y-48408000D01*
G75*
G02*
X238325000Y-48608000I-200000J0D01*
G01*
X237925000Y-48608000D01*
G75*
G02*
X237725000Y-48408000I0J200000D01*
G01*
G37*
%TD*%
%TO.C,R5*%
G36*
G01*
X237725000Y-49805000D02*
X237725000Y-49255000D01*
G75*
G02*
X237925000Y-49055000I200000J0D01*
G01*
X238325000Y-49055000D01*
G75*
G02*
X238525000Y-49255000I0J-200000D01*
G01*
X238525000Y-49805000D01*
G75*
G02*
X238325000Y-50005000I-200000J0D01*
G01*
X237925000Y-50005000D01*
G75*
G02*
X237725000Y-49805000I0J200000D01*
G01*
G37*
G36*
G01*
X239375000Y-49805000D02*
X239375000Y-49255000D01*
G75*
G02*
X239575000Y-49055000I200000J0D01*
G01*
X239975000Y-49055000D01*
G75*
G02*
X240175000Y-49255000I0J-200000D01*
G01*
X240175000Y-49805000D01*
G75*
G02*
X239975000Y-50005000I-200000J0D01*
G01*
X239575000Y-50005000D01*
G75*
G02*
X239375000Y-49805000I0J200000D01*
G01*
G37*
%TD*%
%TO.C,R4*%
G36*
G01*
X237725000Y-51202000D02*
X237725000Y-50652000D01*
G75*
G02*
X237925000Y-50452000I200000J0D01*
G01*
X238325000Y-50452000D01*
G75*
G02*
X238525000Y-50652000I0J-200000D01*
G01*
X238525000Y-51202000D01*
G75*
G02*
X238325000Y-51402000I-200000J0D01*
G01*
X237925000Y-51402000D01*
G75*
G02*
X237725000Y-51202000I0J200000D01*
G01*
G37*
G36*
G01*
X239375000Y-51202000D02*
X239375000Y-50652000D01*
G75*
G02*
X239575000Y-50452000I200000J0D01*
G01*
X239975000Y-50452000D01*
G75*
G02*
X240175000Y-50652000I0J-200000D01*
G01*
X240175000Y-51202000D01*
G75*
G02*
X239975000Y-51402000I-200000J0D01*
G01*
X239575000Y-51402000D01*
G75*
G02*
X239375000Y-51202000I0J200000D01*
G01*
G37*
%TD*%
%TO.C,R3*%
G36*
G01*
X216302000Y-36151000D02*
X215752000Y-36151000D01*
G75*
G02*
X215552000Y-35951000I0J200000D01*
G01*
X215552000Y-35551000D01*
G75*
G02*
X215752000Y-35351000I200000J0D01*
G01*
X216302000Y-35351000D01*
G75*
G02*
X216502000Y-35551000I0J-200000D01*
G01*
X216502000Y-35951000D01*
G75*
G02*
X216302000Y-36151000I-200000J0D01*
G01*
G37*
G36*
G01*
X216302000Y-37801000D02*
X215752000Y-37801000D01*
G75*
G02*
X215552000Y-37601000I0J200000D01*
G01*
X215552000Y-37201000D01*
G75*
G02*
X215752000Y-37001000I200000J0D01*
G01*
X216302000Y-37001000D01*
G75*
G02*
X216502000Y-37201000I0J-200000D01*
G01*
X216502000Y-37601000D01*
G75*
G02*
X216302000Y-37801000I-200000J0D01*
G01*
G37*
%TD*%
D12*
%TO.C,J5*%
X207980000Y-38100000D03*
D11*
X207980000Y-35560000D03*
%TD*%
D12*
%TO.C,J4*%
X207980000Y-43180000D03*
D11*
X207980000Y-40640000D03*
%TD*%
D13*
%TO.C,J2*%
X246080000Y-35560000D03*
X246080000Y-38100000D03*
X246080000Y-40640000D03*
X246080000Y-43180000D03*
X246080000Y-45720000D03*
D10*
X246080000Y-48260000D03*
%TD*%
%TO.C,C8*%
G36*
G01*
X219781000Y-51304000D02*
X219781000Y-50804000D01*
G75*
G02*
X220006000Y-50579000I225000J0D01*
G01*
X220456000Y-50579000D01*
G75*
G02*
X220681000Y-50804000I0J-225000D01*
G01*
X220681000Y-51304000D01*
G75*
G02*
X220456000Y-51529000I-225000J0D01*
G01*
X220006000Y-51529000D01*
G75*
G02*
X219781000Y-51304000I0J225000D01*
G01*
G37*
G36*
G01*
X218231000Y-51304000D02*
X218231000Y-50804000D01*
G75*
G02*
X218456000Y-50579000I225000J0D01*
G01*
X218906000Y-50579000D01*
G75*
G02*
X219131000Y-50804000I0J-225000D01*
G01*
X219131000Y-51304000D01*
G75*
G02*
X218906000Y-51529000I-225000J0D01*
G01*
X218456000Y-51529000D01*
G75*
G02*
X218231000Y-51304000I0J225000D01*
G01*
G37*
%TD*%
%TO.C,C7*%
G36*
G01*
X221697000Y-43391000D02*
X221697000Y-43731000D01*
G75*
G02*
X221557000Y-43871000I-140000J0D01*
G01*
X221277000Y-43871000D01*
G75*
G02*
X221137000Y-43731000I0J140000D01*
G01*
X221137000Y-43391000D01*
G75*
G02*
X221277000Y-43251000I140000J0D01*
G01*
X221557000Y-43251000D01*
G75*
G02*
X221697000Y-43391000I0J-140000D01*
G01*
G37*
G36*
G01*
X222657000Y-43391000D02*
X222657000Y-43731000D01*
G75*
G02*
X222517000Y-43871000I-140000J0D01*
G01*
X222237000Y-43871000D01*
G75*
G02*
X222097000Y-43731000I0J140000D01*
G01*
X222097000Y-43391000D01*
G75*
G02*
X222237000Y-43251000I140000J0D01*
G01*
X222517000Y-43251000D01*
G75*
G02*
X222657000Y-43391000I0J-140000D01*
G01*
G37*
%TD*%
%TO.C,C6*%
G36*
G01*
X219413000Y-33870300D02*
X219753000Y-33870300D01*
G75*
G02*
X219893000Y-34010300I0J-140000D01*
G01*
X219893000Y-34290300D01*
G75*
G02*
X219753000Y-34430300I-140000J0D01*
G01*
X219413000Y-34430300D01*
G75*
G02*
X219273000Y-34290300I0J140000D01*
G01*
X219273000Y-34010300D01*
G75*
G02*
X219413000Y-33870300I140000J0D01*
G01*
G37*
G36*
G01*
X219413000Y-32910300D02*
X219753000Y-32910300D01*
G75*
G02*
X219893000Y-33050300I0J-140000D01*
G01*
X219893000Y-33330300D01*
G75*
G02*
X219753000Y-33470300I-140000J0D01*
G01*
X219413000Y-33470300D01*
G75*
G02*
X219273000Y-33330300I0J140000D01*
G01*
X219273000Y-33050300D01*
G75*
G02*
X219413000Y-32910300I140000J0D01*
G01*
G37*
%TD*%
%TO.C,C5*%
G36*
G01*
X215557000Y-40649500D02*
X215897000Y-40649500D01*
G75*
G02*
X216037000Y-40789500I0J-140000D01*
G01*
X216037000Y-41069500D01*
G75*
G02*
X215897000Y-41209500I-140000J0D01*
G01*
X215557000Y-41209500D01*
G75*
G02*
X215417000Y-41069500I0J140000D01*
G01*
X215417000Y-40789500D01*
G75*
G02*
X215557000Y-40649500I140000J0D01*
G01*
G37*
G36*
G01*
X215557000Y-39689500D02*
X215897000Y-39689500D01*
G75*
G02*
X216037000Y-39829500I0J-140000D01*
G01*
X216037000Y-40109500D01*
G75*
G02*
X215897000Y-40249500I-140000J0D01*
G01*
X215557000Y-40249500D01*
G75*
G02*
X215417000Y-40109500I0J140000D01*
G01*
X215417000Y-39829500D01*
G75*
G02*
X215557000Y-39689500I140000J0D01*
G01*
G37*
%TD*%
%TO.C,C3*%
G36*
G01*
X242423000Y-48725000D02*
X242423000Y-49065000D01*
G75*
G02*
X242283000Y-49205000I-140000J0D01*
G01*
X242003000Y-49205000D01*
G75*
G02*
X241863000Y-49065000I0J140000D01*
G01*
X241863000Y-48725000D01*
G75*
G02*
X242003000Y-48585000I140000J0D01*
G01*
X242283000Y-48585000D01*
G75*
G02*
X242423000Y-48725000I0J-140000D01*
G01*
G37*
G36*
G01*
X243383000Y-48725000D02*
X243383000Y-49065000D01*
G75*
G02*
X243243000Y-49205000I-140000J0D01*
G01*
X242963000Y-49205000D01*
G75*
G02*
X242823000Y-49065000I0J140000D01*
G01*
X242823000Y-48725000D01*
G75*
G02*
X242963000Y-48585000I140000J0D01*
G01*
X243243000Y-48585000D01*
G75*
G02*
X243383000Y-48725000I0J-140000D01*
G01*
G37*
%TD*%
M02*
