%TF.GenerationSoftware,KiCad,Pcbnew,(5.1.7)-1*%
%TF.CreationDate,2021-02-02T18:20:17+09:00*%
%TF.ProjectId,canboard,63616e62-6f61-4726-942e-6b696361645f,rev?*%
%TF.SameCoordinates,Original*%
%TF.FileFunction,Other,User*%
%FSLAX46Y46*%
G04 Gerber Fmt 4.6, Leading zero omitted, Abs format (unit mm)*
G04 Created by KiCad (PCBNEW (5.1.7)-1) date 2021-02-02 18:20:17*
%MOMM*%
%LPD*%
G01*
G04 APERTURE LIST*
%ADD10C,0.050000*%
G04 APERTURE END LIST*
D10*
%TO.C,REF\u002A\u002A*%
X247245000Y-29315000D02*
X243645000Y-29315000D01*
X247245000Y-32915000D02*
X247245000Y-29315000D01*
X243645000Y-32915000D02*
X247245000Y-32915000D01*
X243645000Y-29315000D02*
X243645000Y-32915000D01*
X247245000Y-50905000D02*
X243645000Y-50905000D01*
X247245000Y-54505000D02*
X247245000Y-50905000D01*
X243645000Y-54505000D02*
X247245000Y-54505000D01*
X243645000Y-50905000D02*
X243645000Y-54505000D01*
X209780000Y-50905000D02*
X206180000Y-50905000D01*
X209780000Y-54505000D02*
X209780000Y-50905000D01*
X206180000Y-54505000D02*
X209780000Y-54505000D01*
X206180000Y-50905000D02*
X206180000Y-54505000D01*
X209780000Y-29315000D02*
X206180000Y-29315000D01*
X209780000Y-32915000D02*
X209780000Y-29315000D01*
X206180000Y-32915000D02*
X209780000Y-32915000D01*
X206180000Y-29315000D02*
X206180000Y-32915000D01*
%TO.C,J6*%
X211730000Y-43720000D02*
X204230000Y-43720000D01*
X204230000Y-43720000D02*
X204230000Y-50260000D01*
X204230000Y-50260000D02*
X211730000Y-50260000D01*
X211730000Y-50260000D02*
X211730000Y-43720000D01*
%TO.C,J3*%
X242800000Y-55140000D02*
X242800000Y-51540000D01*
X211250000Y-55140000D02*
X242800000Y-55140000D01*
X211250000Y-51540000D02*
X211250000Y-55140000D01*
X242800000Y-51540000D02*
X211250000Y-51540000D01*
%TO.C,J1*%
X242800000Y-32280000D02*
X242800000Y-28680000D01*
X211250000Y-32280000D02*
X242800000Y-32280000D01*
X211250000Y-28680000D02*
X211250000Y-32280000D01*
X242800000Y-28680000D02*
X211250000Y-28680000D01*
%TO.C,D3*%
X242255000Y-42056500D02*
X244155000Y-42056500D01*
X244155000Y-42056500D02*
X244155000Y-45416500D01*
X244155000Y-45416500D02*
X242255000Y-45416500D01*
X242255000Y-45416500D02*
X242255000Y-42056500D01*
%TO.C,D2*%
X211855500Y-51750000D02*
X211855500Y-49850000D01*
X211855500Y-49850000D02*
X215215500Y-49850000D01*
X215215500Y-49850000D02*
X215215500Y-51750000D01*
X215215500Y-51750000D02*
X211855500Y-51750000D01*
%TO.C,Y1*%
X239785000Y-35913000D02*
X239785000Y-32413000D01*
X243485000Y-32413000D02*
X243485000Y-35913000D01*
X243485000Y-35913000D02*
X239785000Y-35913000D01*
X239785000Y-32413000D02*
X243485000Y-32413000D01*
%TO.C,U3*%
X222784000Y-43129000D02*
X222784000Y-32329000D01*
X222784000Y-32329000D02*
X212084000Y-32329000D01*
X212084000Y-32329000D02*
X212084000Y-43129000D01*
X212084000Y-43129000D02*
X222784000Y-43129000D01*
%TO.C,U2*%
X220935000Y-42896000D02*
X212135000Y-42896000D01*
X220935000Y-50096000D02*
X220935000Y-42896000D01*
X212135000Y-50096000D02*
X220935000Y-50096000D01*
X212135000Y-42896000D02*
X212135000Y-50096000D01*
%TO.C,U1*%
X241461000Y-44956000D02*
X241461000Y-34356000D01*
X230861000Y-44956000D02*
X230861000Y-34356000D01*
X241461000Y-44956000D02*
X230861000Y-44956000D01*
X241461000Y-34356000D02*
X230861000Y-34356000D01*
%TO.C,SW2*%
X234495000Y-44633000D02*
X234495000Y-51633000D01*
X234495000Y-51633000D02*
X244295000Y-51633000D01*
X244295000Y-51633000D02*
X244295000Y-44633000D01*
X244295000Y-44633000D02*
X234495000Y-44633000D01*
%TO.C,SW1*%
X226036000Y-42462000D02*
X223036000Y-42462000D01*
X223036000Y-42462000D02*
X223036000Y-51962000D01*
X223036000Y-51962000D02*
X226036000Y-51962000D01*
X226036000Y-51962000D02*
X226036000Y-42462000D01*
%TO.C,R19*%
X222917000Y-32492000D02*
X224377000Y-32492000D01*
X224377000Y-32492000D02*
X224377000Y-35452000D01*
X224377000Y-35452000D02*
X222917000Y-35452000D01*
X222917000Y-35452000D02*
X222917000Y-32492000D01*
%TO.C,R18*%
X228060000Y-46716000D02*
X228060000Y-49676000D01*
X226600000Y-46716000D02*
X228060000Y-46716000D01*
X226600000Y-49676000D02*
X226600000Y-46716000D01*
X228060000Y-49676000D02*
X226600000Y-49676000D01*
%TO.C,R17*%
X220745000Y-50070000D02*
X220745000Y-51530000D01*
X220745000Y-51530000D02*
X217785000Y-51530000D01*
X217785000Y-51530000D02*
X217785000Y-50070000D01*
X217785000Y-50070000D02*
X220745000Y-50070000D01*
%TO.C,R15*%
X234462000Y-51657000D02*
X231502000Y-51657000D01*
X234462000Y-50197000D02*
X234462000Y-51657000D01*
X231502000Y-50197000D02*
X234462000Y-50197000D01*
X231502000Y-51657000D02*
X231502000Y-50197000D01*
%TO.C,R14*%
X234462000Y-50260000D02*
X231502000Y-50260000D01*
X234462000Y-48800000D02*
X234462000Y-50260000D01*
X231502000Y-48800000D02*
X234462000Y-48800000D01*
X231502000Y-50260000D02*
X231502000Y-48800000D01*
%TO.C,R13*%
X231514700Y-48863000D02*
X231514700Y-47403000D01*
X231514700Y-47403000D02*
X234474700Y-47403000D01*
X234474700Y-47403000D02*
X234474700Y-48863000D01*
X234474700Y-48863000D02*
X231514700Y-48863000D01*
%TO.C,R12*%
X234462000Y-47466000D02*
X231502000Y-47466000D01*
X234462000Y-46006000D02*
X234462000Y-47466000D01*
X231502000Y-46006000D02*
X234462000Y-46006000D01*
X231502000Y-47466000D02*
X231502000Y-46006000D01*
%TO.C,R2*%
X244189000Y-41929000D02*
X242729000Y-41929000D01*
X242729000Y-41929000D02*
X242729000Y-38969000D01*
X242729000Y-38969000D02*
X244189000Y-38969000D01*
X244189000Y-38969000D02*
X244189000Y-41929000D01*
%TO.C,R1*%
X226554000Y-41255000D02*
X228014000Y-41255000D01*
X228014000Y-41255000D02*
X228014000Y-44215000D01*
X228014000Y-44215000D02*
X226554000Y-44215000D01*
X226554000Y-44215000D02*
X226554000Y-41255000D01*
%TO.C,J5*%
X204230000Y-33560000D02*
X204230000Y-40100000D01*
X211730000Y-33560000D02*
X204230000Y-33560000D01*
X211730000Y-40100000D02*
X211730000Y-33560000D01*
X204230000Y-40100000D02*
X211730000Y-40100000D01*
%TO.C,J4*%
X204230000Y-38640000D02*
X204230000Y-45180000D01*
X211730000Y-38640000D02*
X204230000Y-38640000D01*
X211730000Y-45180000D02*
X211730000Y-38640000D01*
X204230000Y-45180000D02*
X211730000Y-45180000D01*
%TO.C,J2*%
X247880000Y-50060000D02*
X247880000Y-33760000D01*
X247880000Y-33760000D02*
X244280000Y-33760000D01*
X244280000Y-33760000D02*
X244280000Y-50060000D01*
X244280000Y-50060000D02*
X247880000Y-50060000D01*
%TO.C,D4*%
X224377000Y-38335500D02*
X222917000Y-38335500D01*
X222917000Y-38335500D02*
X222917000Y-35375500D01*
X222917000Y-35375500D02*
X224377000Y-35375500D01*
X224377000Y-35375500D02*
X224377000Y-38335500D01*
%TO.C,D1*%
X242729000Y-36010500D02*
X244189000Y-36010500D01*
X244189000Y-36010500D02*
X244189000Y-38970500D01*
X244189000Y-38970500D02*
X242729000Y-38970500D01*
X242729000Y-38970500D02*
X242729000Y-36010500D01*
%TO.C,C9*%
X221016000Y-48272000D02*
X222976000Y-48272000D01*
X222976000Y-48272000D02*
X222976000Y-51672000D01*
X222976000Y-51672000D02*
X221016000Y-51672000D01*
X221016000Y-51672000D02*
X221016000Y-48272000D01*
%TO.C,C4*%
X217290000Y-50594000D02*
X217290000Y-51514000D01*
X217290000Y-51514000D02*
X215470000Y-51514000D01*
X215470000Y-51514000D02*
X215470000Y-50594000D01*
X215470000Y-50594000D02*
X217290000Y-50594000D01*
%TO.C,C2*%
X230846100Y-37830500D02*
X230846100Y-38750500D01*
X230846100Y-38750500D02*
X229026100Y-38750500D01*
X229026100Y-38750500D02*
X229026100Y-37830500D01*
X229026100Y-37830500D02*
X230846100Y-37830500D01*
%TO.C,C1*%
X229803700Y-38853700D02*
X230723700Y-38853700D01*
X230723700Y-38853700D02*
X230723700Y-40673700D01*
X230723700Y-40673700D02*
X229803700Y-40673700D01*
X229803700Y-40673700D02*
X229803700Y-38853700D01*
%TD*%
M02*
