%TF.GenerationSoftware,KiCad,Pcbnew,(5.1.7)-1*%
%TF.CreationDate,2020-10-24T02:10:46+09:00*%
%TF.ProjectId,canboard,63616e62-6f61-4726-942e-6b696361645f,rev?*%
%TF.SameCoordinates,Original*%
%TF.FileFunction,Soldermask,Top*%
%TF.FilePolarity,Negative*%
%FSLAX46Y46*%
G04 Gerber Fmt 4.6, Leading zero omitted, Abs format (unit mm)*
G04 Created by KiCad (PCBNEW (5.1.7)-1) date 2020-10-24 02:10:46*
%MOMM*%
%LPD*%
G01*
G04 APERTURE LIST*
%ADD10O,1.700000X1.700000*%
%ADD11R,1.700000X1.700000*%
%ADD12R,2.000000X2.500000*%
%ADD13R,3.200000X0.400000*%
%ADD14O,1.600000X1.600000*%
%ADD15R,1.600000X1.600000*%
%ADD16R,0.550000X1.600000*%
%ADD17R,1.600000X0.550000*%
%ADD18R,1.600000X0.760000*%
%ADD19C,2.100000*%
%ADD20R,2.100000X2.100000*%
%ADD21R,2.000000X1.100000*%
%ADD22R,0.800000X1.100000*%
G04 APERTURE END LIST*
%TO.C,R9*%
G36*
G01*
X241891000Y-28427000D02*
X241891000Y-28977000D01*
G75*
G02*
X241691000Y-29177000I-200000J0D01*
G01*
X241291000Y-29177000D01*
G75*
G02*
X241091000Y-28977000I0J200000D01*
G01*
X241091000Y-28427000D01*
G75*
G02*
X241291000Y-28227000I200000J0D01*
G01*
X241691000Y-28227000D01*
G75*
G02*
X241891000Y-28427000I0J-200000D01*
G01*
G37*
G36*
G01*
X243541000Y-28427000D02*
X243541000Y-28977000D01*
G75*
G02*
X243341000Y-29177000I-200000J0D01*
G01*
X242941000Y-29177000D01*
G75*
G02*
X242741000Y-28977000I0J200000D01*
G01*
X242741000Y-28427000D01*
G75*
G02*
X242941000Y-28227000I200000J0D01*
G01*
X243341000Y-28227000D01*
G75*
G02*
X243541000Y-28427000I0J-200000D01*
G01*
G37*
%TD*%
D10*
%TO.C,J2*%
X208280000Y-48260000D03*
X208280000Y-45720000D03*
X208280000Y-43180000D03*
X208280000Y-40640000D03*
X208280000Y-38100000D03*
D11*
X208280000Y-35560000D03*
%TD*%
D12*
%TO.C,SW1*%
X224790000Y-37656000D03*
X224790000Y-31496000D03*
%TD*%
D13*
%TO.C,Y1*%
X216408000Y-48330000D03*
X216408000Y-49530000D03*
X216408000Y-50730000D03*
%TD*%
%TO.C,U4*%
G36*
G01*
X231755000Y-50142000D02*
X231755000Y-50442000D01*
G75*
G02*
X231605000Y-50592000I-150000J0D01*
G01*
X229855000Y-50592000D01*
G75*
G02*
X229705000Y-50442000I0J150000D01*
G01*
X229705000Y-50142000D01*
G75*
G02*
X229855000Y-49992000I150000J0D01*
G01*
X231605000Y-49992000D01*
G75*
G02*
X231755000Y-50142000I0J-150000D01*
G01*
G37*
G36*
G01*
X231755000Y-48872000D02*
X231755000Y-49172000D01*
G75*
G02*
X231605000Y-49322000I-150000J0D01*
G01*
X229855000Y-49322000D01*
G75*
G02*
X229705000Y-49172000I0J150000D01*
G01*
X229705000Y-48872000D01*
G75*
G02*
X229855000Y-48722000I150000J0D01*
G01*
X231605000Y-48722000D01*
G75*
G02*
X231755000Y-48872000I0J-150000D01*
G01*
G37*
G36*
G01*
X231755000Y-47602000D02*
X231755000Y-47902000D01*
G75*
G02*
X231605000Y-48052000I-150000J0D01*
G01*
X229855000Y-48052000D01*
G75*
G02*
X229705000Y-47902000I0J150000D01*
G01*
X229705000Y-47602000D01*
G75*
G02*
X229855000Y-47452000I150000J0D01*
G01*
X231605000Y-47452000D01*
G75*
G02*
X231755000Y-47602000I0J-150000D01*
G01*
G37*
G36*
G01*
X231755000Y-46332000D02*
X231755000Y-46632000D01*
G75*
G02*
X231605000Y-46782000I-150000J0D01*
G01*
X229855000Y-46782000D01*
G75*
G02*
X229705000Y-46632000I0J150000D01*
G01*
X229705000Y-46332000D01*
G75*
G02*
X229855000Y-46182000I150000J0D01*
G01*
X231605000Y-46182000D01*
G75*
G02*
X231755000Y-46332000I0J-150000D01*
G01*
G37*
G36*
G01*
X231755000Y-45062000D02*
X231755000Y-45362000D01*
G75*
G02*
X231605000Y-45512000I-150000J0D01*
G01*
X229855000Y-45512000D01*
G75*
G02*
X229705000Y-45362000I0J150000D01*
G01*
X229705000Y-45062000D01*
G75*
G02*
X229855000Y-44912000I150000J0D01*
G01*
X231605000Y-44912000D01*
G75*
G02*
X231755000Y-45062000I0J-150000D01*
G01*
G37*
G36*
G01*
X231755000Y-43792000D02*
X231755000Y-44092000D01*
G75*
G02*
X231605000Y-44242000I-150000J0D01*
G01*
X229855000Y-44242000D01*
G75*
G02*
X229705000Y-44092000I0J150000D01*
G01*
X229705000Y-43792000D01*
G75*
G02*
X229855000Y-43642000I150000J0D01*
G01*
X231605000Y-43642000D01*
G75*
G02*
X231755000Y-43792000I0J-150000D01*
G01*
G37*
G36*
G01*
X231755000Y-42522000D02*
X231755000Y-42822000D01*
G75*
G02*
X231605000Y-42972000I-150000J0D01*
G01*
X229855000Y-42972000D01*
G75*
G02*
X229705000Y-42822000I0J150000D01*
G01*
X229705000Y-42522000D01*
G75*
G02*
X229855000Y-42372000I150000J0D01*
G01*
X231605000Y-42372000D01*
G75*
G02*
X231755000Y-42522000I0J-150000D01*
G01*
G37*
G36*
G01*
X231755000Y-41252000D02*
X231755000Y-41552000D01*
G75*
G02*
X231605000Y-41702000I-150000J0D01*
G01*
X229855000Y-41702000D01*
G75*
G02*
X229705000Y-41552000I0J150000D01*
G01*
X229705000Y-41252000D01*
G75*
G02*
X229855000Y-41102000I150000J0D01*
G01*
X231605000Y-41102000D01*
G75*
G02*
X231755000Y-41252000I0J-150000D01*
G01*
G37*
G36*
G01*
X231755000Y-39982000D02*
X231755000Y-40282000D01*
G75*
G02*
X231605000Y-40432000I-150000J0D01*
G01*
X229855000Y-40432000D01*
G75*
G02*
X229705000Y-40282000I0J150000D01*
G01*
X229705000Y-39982000D01*
G75*
G02*
X229855000Y-39832000I150000J0D01*
G01*
X231605000Y-39832000D01*
G75*
G02*
X231755000Y-39982000I0J-150000D01*
G01*
G37*
G36*
G01*
X241055000Y-39982000D02*
X241055000Y-40282000D01*
G75*
G02*
X240905000Y-40432000I-150000J0D01*
G01*
X239155000Y-40432000D01*
G75*
G02*
X239005000Y-40282000I0J150000D01*
G01*
X239005000Y-39982000D01*
G75*
G02*
X239155000Y-39832000I150000J0D01*
G01*
X240905000Y-39832000D01*
G75*
G02*
X241055000Y-39982000I0J-150000D01*
G01*
G37*
G36*
G01*
X241055000Y-41252000D02*
X241055000Y-41552000D01*
G75*
G02*
X240905000Y-41702000I-150000J0D01*
G01*
X239155000Y-41702000D01*
G75*
G02*
X239005000Y-41552000I0J150000D01*
G01*
X239005000Y-41252000D01*
G75*
G02*
X239155000Y-41102000I150000J0D01*
G01*
X240905000Y-41102000D01*
G75*
G02*
X241055000Y-41252000I0J-150000D01*
G01*
G37*
G36*
G01*
X241055000Y-42522000D02*
X241055000Y-42822000D01*
G75*
G02*
X240905000Y-42972000I-150000J0D01*
G01*
X239155000Y-42972000D01*
G75*
G02*
X239005000Y-42822000I0J150000D01*
G01*
X239005000Y-42522000D01*
G75*
G02*
X239155000Y-42372000I150000J0D01*
G01*
X240905000Y-42372000D01*
G75*
G02*
X241055000Y-42522000I0J-150000D01*
G01*
G37*
G36*
G01*
X241055000Y-43792000D02*
X241055000Y-44092000D01*
G75*
G02*
X240905000Y-44242000I-150000J0D01*
G01*
X239155000Y-44242000D01*
G75*
G02*
X239005000Y-44092000I0J150000D01*
G01*
X239005000Y-43792000D01*
G75*
G02*
X239155000Y-43642000I150000J0D01*
G01*
X240905000Y-43642000D01*
G75*
G02*
X241055000Y-43792000I0J-150000D01*
G01*
G37*
G36*
G01*
X241055000Y-45062000D02*
X241055000Y-45362000D01*
G75*
G02*
X240905000Y-45512000I-150000J0D01*
G01*
X239155000Y-45512000D01*
G75*
G02*
X239005000Y-45362000I0J150000D01*
G01*
X239005000Y-45062000D01*
G75*
G02*
X239155000Y-44912000I150000J0D01*
G01*
X240905000Y-44912000D01*
G75*
G02*
X241055000Y-45062000I0J-150000D01*
G01*
G37*
G36*
G01*
X241055000Y-46332000D02*
X241055000Y-46632000D01*
G75*
G02*
X240905000Y-46782000I-150000J0D01*
G01*
X239155000Y-46782000D01*
G75*
G02*
X239005000Y-46632000I0J150000D01*
G01*
X239005000Y-46332000D01*
G75*
G02*
X239155000Y-46182000I150000J0D01*
G01*
X240905000Y-46182000D01*
G75*
G02*
X241055000Y-46332000I0J-150000D01*
G01*
G37*
G36*
G01*
X241055000Y-47602000D02*
X241055000Y-47902000D01*
G75*
G02*
X240905000Y-48052000I-150000J0D01*
G01*
X239155000Y-48052000D01*
G75*
G02*
X239005000Y-47902000I0J150000D01*
G01*
X239005000Y-47602000D01*
G75*
G02*
X239155000Y-47452000I150000J0D01*
G01*
X240905000Y-47452000D01*
G75*
G02*
X241055000Y-47602000I0J-150000D01*
G01*
G37*
G36*
G01*
X241055000Y-48872000D02*
X241055000Y-49172000D01*
G75*
G02*
X240905000Y-49322000I-150000J0D01*
G01*
X239155000Y-49322000D01*
G75*
G02*
X239005000Y-49172000I0J150000D01*
G01*
X239005000Y-48872000D01*
G75*
G02*
X239155000Y-48722000I150000J0D01*
G01*
X240905000Y-48722000D01*
G75*
G02*
X241055000Y-48872000I0J-150000D01*
G01*
G37*
G36*
G01*
X241055000Y-50142000D02*
X241055000Y-50442000D01*
G75*
G02*
X240905000Y-50592000I-150000J0D01*
G01*
X239155000Y-50592000D01*
G75*
G02*
X239005000Y-50442000I0J150000D01*
G01*
X239005000Y-50142000D01*
G75*
G02*
X239155000Y-49992000I150000J0D01*
G01*
X240905000Y-49992000D01*
G75*
G02*
X241055000Y-50142000I0J-150000D01*
G01*
G37*
%TD*%
D14*
%TO.C,U3*%
X213868000Y-31242000D03*
X221488000Y-38862000D03*
X216408000Y-31242000D03*
X218948000Y-38862000D03*
X218948000Y-31242000D03*
X216408000Y-38862000D03*
X221488000Y-31242000D03*
D15*
X213868000Y-38862000D03*
%TD*%
D16*
%TO.C,U1*%
X220720000Y-41470000D03*
X221520000Y-41470000D03*
X222320000Y-41470000D03*
X223120000Y-41470000D03*
X223920000Y-41470000D03*
X224720000Y-41470000D03*
X225520000Y-41470000D03*
X226320000Y-41470000D03*
D17*
X227770000Y-42920000D03*
X227770000Y-43720000D03*
X227770000Y-44520000D03*
X227770000Y-45320000D03*
X227770000Y-46120000D03*
X227770000Y-46920000D03*
X227770000Y-47720000D03*
X227770000Y-48520000D03*
D16*
X226320000Y-49970000D03*
X225520000Y-49970000D03*
X224720000Y-49970000D03*
X223920000Y-49970000D03*
X223120000Y-49970000D03*
X222320000Y-49970000D03*
X221520000Y-49970000D03*
X220720000Y-49970000D03*
D17*
X219270000Y-48520000D03*
X219270000Y-47720000D03*
X219270000Y-46920000D03*
X219270000Y-46120000D03*
X219270000Y-45320000D03*
X219270000Y-44520000D03*
X219270000Y-43720000D03*
X219270000Y-42920000D03*
%TD*%
D18*
%TO.C,SW2*%
X239268000Y-31115000D03*
X231648000Y-34925000D03*
X239268000Y-32385000D03*
X231648000Y-33655000D03*
X239268000Y-33655000D03*
X231648000Y-32385000D03*
X239268000Y-34925000D03*
X231648000Y-31115000D03*
%TD*%
%TO.C,R18*%
G36*
G01*
X241829000Y-36468000D02*
X241279000Y-36468000D01*
G75*
G02*
X241079000Y-36268000I0J200000D01*
G01*
X241079000Y-35868000D01*
G75*
G02*
X241279000Y-35668000I200000J0D01*
G01*
X241829000Y-35668000D01*
G75*
G02*
X242029000Y-35868000I0J-200000D01*
G01*
X242029000Y-36268000D01*
G75*
G02*
X241829000Y-36468000I-200000J0D01*
G01*
G37*
G36*
G01*
X241829000Y-38118000D02*
X241279000Y-38118000D01*
G75*
G02*
X241079000Y-37918000I0J200000D01*
G01*
X241079000Y-37518000D01*
G75*
G02*
X241279000Y-37318000I200000J0D01*
G01*
X241829000Y-37318000D01*
G75*
G02*
X242029000Y-37518000I0J-200000D01*
G01*
X242029000Y-37918000D01*
G75*
G02*
X241829000Y-38118000I-200000J0D01*
G01*
G37*
%TD*%
%TO.C,R16*%
G36*
G01*
X242803000Y-37446000D02*
X243353000Y-37446000D01*
G75*
G02*
X243553000Y-37646000I0J-200000D01*
G01*
X243553000Y-38046000D01*
G75*
G02*
X243353000Y-38246000I-200000J0D01*
G01*
X242803000Y-38246000D01*
G75*
G02*
X242603000Y-38046000I0J200000D01*
G01*
X242603000Y-37646000D01*
G75*
G02*
X242803000Y-37446000I200000J0D01*
G01*
G37*
G36*
G01*
X242803000Y-35796000D02*
X243353000Y-35796000D01*
G75*
G02*
X243553000Y-35996000I0J-200000D01*
G01*
X243553000Y-36396000D01*
G75*
G02*
X243353000Y-36596000I-200000J0D01*
G01*
X242803000Y-36596000D01*
G75*
G02*
X242603000Y-36396000I0J200000D01*
G01*
X242603000Y-35996000D01*
G75*
G02*
X242803000Y-35796000I200000J0D01*
G01*
G37*
%TD*%
%TO.C,R15*%
G36*
G01*
X229342000Y-35073000D02*
X229342000Y-34523000D01*
G75*
G02*
X229542000Y-34323000I200000J0D01*
G01*
X229942000Y-34323000D01*
G75*
G02*
X230142000Y-34523000I0J-200000D01*
G01*
X230142000Y-35073000D01*
G75*
G02*
X229942000Y-35273000I-200000J0D01*
G01*
X229542000Y-35273000D01*
G75*
G02*
X229342000Y-35073000I0J200000D01*
G01*
G37*
G36*
G01*
X227692000Y-35073000D02*
X227692000Y-34523000D01*
G75*
G02*
X227892000Y-34323000I200000J0D01*
G01*
X228292000Y-34323000D01*
G75*
G02*
X228492000Y-34523000I0J-200000D01*
G01*
X228492000Y-35073000D01*
G75*
G02*
X228292000Y-35273000I-200000J0D01*
G01*
X227892000Y-35273000D01*
G75*
G02*
X227692000Y-35073000I0J200000D01*
G01*
G37*
%TD*%
%TO.C,R14*%
G36*
G01*
X229470000Y-33803000D02*
X229470000Y-33253000D01*
G75*
G02*
X229670000Y-33053000I200000J0D01*
G01*
X230070000Y-33053000D01*
G75*
G02*
X230270000Y-33253000I0J-200000D01*
G01*
X230270000Y-33803000D01*
G75*
G02*
X230070000Y-34003000I-200000J0D01*
G01*
X229670000Y-34003000D01*
G75*
G02*
X229470000Y-33803000I0J200000D01*
G01*
G37*
G36*
G01*
X227820000Y-33803000D02*
X227820000Y-33253000D01*
G75*
G02*
X228020000Y-33053000I200000J0D01*
G01*
X228420000Y-33053000D01*
G75*
G02*
X228620000Y-33253000I0J-200000D01*
G01*
X228620000Y-33803000D01*
G75*
G02*
X228420000Y-34003000I-200000J0D01*
G01*
X228020000Y-34003000D01*
G75*
G02*
X227820000Y-33803000I0J200000D01*
G01*
G37*
%TD*%
%TO.C,R13*%
G36*
G01*
X229342000Y-32533000D02*
X229342000Y-31983000D01*
G75*
G02*
X229542000Y-31783000I200000J0D01*
G01*
X229942000Y-31783000D01*
G75*
G02*
X230142000Y-31983000I0J-200000D01*
G01*
X230142000Y-32533000D01*
G75*
G02*
X229942000Y-32733000I-200000J0D01*
G01*
X229542000Y-32733000D01*
G75*
G02*
X229342000Y-32533000I0J200000D01*
G01*
G37*
G36*
G01*
X227692000Y-32533000D02*
X227692000Y-31983000D01*
G75*
G02*
X227892000Y-31783000I200000J0D01*
G01*
X228292000Y-31783000D01*
G75*
G02*
X228492000Y-31983000I0J-200000D01*
G01*
X228492000Y-32533000D01*
G75*
G02*
X228292000Y-32733000I-200000J0D01*
G01*
X227892000Y-32733000D01*
G75*
G02*
X227692000Y-32533000I0J200000D01*
G01*
G37*
%TD*%
%TO.C,R12*%
G36*
G01*
X229470000Y-31263000D02*
X229470000Y-30713000D01*
G75*
G02*
X229670000Y-30513000I200000J0D01*
G01*
X230070000Y-30513000D01*
G75*
G02*
X230270000Y-30713000I0J-200000D01*
G01*
X230270000Y-31263000D01*
G75*
G02*
X230070000Y-31463000I-200000J0D01*
G01*
X229670000Y-31463000D01*
G75*
G02*
X229470000Y-31263000I0J200000D01*
G01*
G37*
G36*
G01*
X227820000Y-31263000D02*
X227820000Y-30713000D01*
G75*
G02*
X228020000Y-30513000I200000J0D01*
G01*
X228420000Y-30513000D01*
G75*
G02*
X228620000Y-30713000I0J-200000D01*
G01*
X228620000Y-31263000D01*
G75*
G02*
X228420000Y-31463000I-200000J0D01*
G01*
X228020000Y-31463000D01*
G75*
G02*
X227820000Y-31263000I0J200000D01*
G01*
G37*
%TD*%
%TO.C,R10*%
G36*
G01*
X243277500Y-32629001D02*
X243277500Y-31378999D01*
G75*
G02*
X243527499Y-31129000I249999J0D01*
G01*
X244152501Y-31129000D01*
G75*
G02*
X244402500Y-31378999I0J-249999D01*
G01*
X244402500Y-32629001D01*
G75*
G02*
X244152501Y-32879000I-249999J0D01*
G01*
X243527499Y-32879000D01*
G75*
G02*
X243277500Y-32629001I0J249999D01*
G01*
G37*
G36*
G01*
X246202500Y-32629001D02*
X246202500Y-31378999D01*
G75*
G02*
X246452499Y-31129000I249999J0D01*
G01*
X247077501Y-31129000D01*
G75*
G02*
X247327500Y-31378999I0J-249999D01*
G01*
X247327500Y-32629001D01*
G75*
G02*
X247077501Y-32879000I-249999J0D01*
G01*
X246452499Y-32879000D01*
G75*
G02*
X246202500Y-32629001I0J249999D01*
G01*
G37*
%TD*%
%TO.C,R8*%
G36*
G01*
X242433001Y-31419500D02*
X241182999Y-31419500D01*
G75*
G02*
X240933000Y-31169501I0J249999D01*
G01*
X240933000Y-30544499D01*
G75*
G02*
X241182999Y-30294500I249999J0D01*
G01*
X242433001Y-30294500D01*
G75*
G02*
X242683000Y-30544499I0J-249999D01*
G01*
X242683000Y-31169501D01*
G75*
G02*
X242433001Y-31419500I-249999J0D01*
G01*
G37*
G36*
G01*
X242433001Y-34344500D02*
X241182999Y-34344500D01*
G75*
G02*
X240933000Y-34094501I0J249999D01*
G01*
X240933000Y-33469499D01*
G75*
G02*
X241182999Y-33219500I249999J0D01*
G01*
X242433001Y-33219500D01*
G75*
G02*
X242683000Y-33469499I0J-249999D01*
G01*
X242683000Y-34094501D01*
G75*
G02*
X242433001Y-34344500I-249999J0D01*
G01*
G37*
%TD*%
%TO.C,R2*%
G36*
G01*
X211053000Y-44176000D02*
X211603000Y-44176000D01*
G75*
G02*
X211803000Y-44376000I0J-200000D01*
G01*
X211803000Y-44776000D01*
G75*
G02*
X211603000Y-44976000I-200000J0D01*
G01*
X211053000Y-44976000D01*
G75*
G02*
X210853000Y-44776000I0J200000D01*
G01*
X210853000Y-44376000D01*
G75*
G02*
X211053000Y-44176000I200000J0D01*
G01*
G37*
G36*
G01*
X211053000Y-42526000D02*
X211603000Y-42526000D01*
G75*
G02*
X211803000Y-42726000I0J-200000D01*
G01*
X211803000Y-43126000D01*
G75*
G02*
X211603000Y-43326000I-200000J0D01*
G01*
X211053000Y-43326000D01*
G75*
G02*
X210853000Y-43126000I0J200000D01*
G01*
X210853000Y-42726000D01*
G75*
G02*
X211053000Y-42526000I200000J0D01*
G01*
G37*
%TD*%
%TO.C,R1*%
G36*
G01*
X230969000Y-36809000D02*
X230969000Y-37359000D01*
G75*
G02*
X230769000Y-37559000I-200000J0D01*
G01*
X230369000Y-37559000D01*
G75*
G02*
X230169000Y-37359000I0J200000D01*
G01*
X230169000Y-36809000D01*
G75*
G02*
X230369000Y-36609000I200000J0D01*
G01*
X230769000Y-36609000D01*
G75*
G02*
X230969000Y-36809000I0J-200000D01*
G01*
G37*
G36*
G01*
X232619000Y-36809000D02*
X232619000Y-37359000D01*
G75*
G02*
X232419000Y-37559000I-200000J0D01*
G01*
X232019000Y-37559000D01*
G75*
G02*
X231819000Y-37359000I0J200000D01*
G01*
X231819000Y-36809000D01*
G75*
G02*
X232019000Y-36609000I200000J0D01*
G01*
X232419000Y-36609000D01*
G75*
G02*
X232619000Y-36809000I0J-200000D01*
G01*
G37*
%TD*%
D19*
%TO.C,J6*%
X246380000Y-53340000D03*
X246380000Y-50800000D03*
X246380000Y-48260000D03*
D20*
X246380000Y-45720000D03*
%TD*%
D19*
%TO.C,J4*%
X246380000Y-40640000D03*
D20*
X246380000Y-43180000D03*
%TD*%
D10*
%TO.C,J3*%
X238760000Y-27940000D03*
X236220000Y-27940000D03*
X233680000Y-27940000D03*
X231140000Y-27940000D03*
X228600000Y-27940000D03*
X226060000Y-27940000D03*
X223520000Y-27940000D03*
X220980000Y-27940000D03*
X218440000Y-27940000D03*
X215900000Y-27940000D03*
X213360000Y-27940000D03*
D11*
X210820000Y-27940000D03*
%TD*%
D10*
%TO.C,J1*%
X238760000Y-53340000D03*
X236220000Y-53340000D03*
X233680000Y-53340000D03*
X231140000Y-53340000D03*
X228600000Y-53340000D03*
X226060000Y-53340000D03*
X223520000Y-53340000D03*
X220980000Y-53340000D03*
X218440000Y-53340000D03*
X215900000Y-53340000D03*
X213360000Y-53340000D03*
D11*
X210820000Y-53340000D03*
%TD*%
D21*
%TO.C,D3*%
X237744000Y-37592000D03*
D22*
X239644000Y-37592000D03*
%TD*%
%TO.C,D1*%
G36*
G01*
X211584250Y-46614500D02*
X211071750Y-46614500D01*
G75*
G02*
X210853000Y-46395750I0J218750D01*
G01*
X210853000Y-45958250D01*
G75*
G02*
X211071750Y-45739500I218750J0D01*
G01*
X211584250Y-45739500D01*
G75*
G02*
X211803000Y-45958250I0J-218750D01*
G01*
X211803000Y-46395750D01*
G75*
G02*
X211584250Y-46614500I-218750J0D01*
G01*
G37*
G36*
G01*
X211584250Y-48189500D02*
X211071750Y-48189500D01*
G75*
G02*
X210853000Y-47970750I0J218750D01*
G01*
X210853000Y-47533250D01*
G75*
G02*
X211071750Y-47314500I218750J0D01*
G01*
X211584250Y-47314500D01*
G75*
G02*
X211803000Y-47533250I0J-218750D01*
G01*
X211803000Y-47970750D01*
G75*
G02*
X211584250Y-48189500I-218750J0D01*
G01*
G37*
%TD*%
%TO.C,C7*%
G36*
G01*
X244178000Y-37058000D02*
X244518000Y-37058000D01*
G75*
G02*
X244658000Y-37198000I0J-140000D01*
G01*
X244658000Y-37478000D01*
G75*
G02*
X244518000Y-37618000I-140000J0D01*
G01*
X244178000Y-37618000D01*
G75*
G02*
X244038000Y-37478000I0J140000D01*
G01*
X244038000Y-37198000D01*
G75*
G02*
X244178000Y-37058000I140000J0D01*
G01*
G37*
G36*
G01*
X244178000Y-36098000D02*
X244518000Y-36098000D01*
G75*
G02*
X244658000Y-36238000I0J-140000D01*
G01*
X244658000Y-36518000D01*
G75*
G02*
X244518000Y-36658000I-140000J0D01*
G01*
X244178000Y-36658000D01*
G75*
G02*
X244038000Y-36518000I0J140000D01*
G01*
X244038000Y-36238000D01*
G75*
G02*
X244178000Y-36098000I140000J0D01*
G01*
G37*
%TD*%
M02*
