%TF.GenerationSoftware,KiCad,Pcbnew,(5.1.7)-1*%
%TF.CreationDate,2020-10-24T02:10:45+09:00*%
%TF.ProjectId,canboard,63616e62-6f61-4726-942e-6b696361645f,rev?*%
%TF.SameCoordinates,Original*%
%TF.FileFunction,Legend,Top*%
%TF.FilePolarity,Positive*%
%FSLAX46Y46*%
G04 Gerber Fmt 4.6, Leading zero omitted, Abs format (unit mm)*
G04 Created by KiCad (PCBNEW (5.1.7)-1) date 2020-10-24 02:10:45*
%MOMM*%
%LPD*%
G01*
G04 APERTURE LIST*
%ADD10C,0.120000*%
%ADD11C,0.150000*%
G04 APERTURE END LIST*
D10*
%TO.C,R9*%
X242553258Y-28179500D02*
X242078742Y-28179500D01*
X242553258Y-29224500D02*
X242078742Y-29224500D01*
%TO.C,J2*%
X206950000Y-34230000D02*
X208280000Y-34230000D01*
X206950000Y-35560000D02*
X206950000Y-34230000D01*
X206950000Y-36830000D02*
X209610000Y-36830000D01*
X209610000Y-36830000D02*
X209610000Y-49590000D01*
X206950000Y-36830000D02*
X206950000Y-49590000D01*
X206950000Y-49590000D02*
X209610000Y-49590000D01*
%TO.C,SW1*%
X223540000Y-39076000D02*
X224040000Y-39076000D01*
X223540000Y-30076000D02*
X223540000Y-39076000D01*
X224040000Y-30076000D02*
X223540000Y-30076000D01*
X226040000Y-30076000D02*
X225540000Y-30076000D01*
X226040000Y-39076000D02*
X226040000Y-30076000D01*
X225540000Y-39076000D02*
X226040000Y-39076000D01*
%TO.C,Y1*%
X215208000Y-47730000D02*
X215208000Y-47880000D01*
X217608000Y-47730000D02*
X217608000Y-47880000D01*
X217608000Y-50280000D02*
X217608000Y-50330000D01*
X217608000Y-51330000D02*
X217608000Y-51180000D01*
X215208000Y-51330000D02*
X215208000Y-51180000D01*
X217208000Y-51530000D02*
X217608000Y-51530000D01*
X217208000Y-51330000D02*
X217608000Y-51330000D01*
X217208000Y-47730000D02*
X217608000Y-47730000D01*
X215208000Y-51530000D02*
X217208000Y-51530000D01*
X217608000Y-50280000D02*
X218008000Y-50280000D01*
X217208000Y-51330000D02*
X215208000Y-51330000D01*
X215208000Y-47730000D02*
X217208000Y-47730000D01*
%TO.C,U4*%
X239240000Y-50852000D02*
X241055000Y-50852000D01*
X239240000Y-51097000D02*
X239240000Y-50852000D01*
X235380000Y-51097000D02*
X239240000Y-51097000D01*
X231520000Y-51097000D02*
X231520000Y-50852000D01*
X235380000Y-51097000D02*
X231520000Y-51097000D01*
X239240000Y-39327000D02*
X239240000Y-39572000D01*
X235380000Y-39327000D02*
X239240000Y-39327000D01*
X231520000Y-39327000D02*
X231520000Y-39572000D01*
X235380000Y-39327000D02*
X231520000Y-39327000D01*
%TO.C,U3*%
X212478000Y-29912000D02*
X212478000Y-40192000D01*
X222878000Y-29912000D02*
X212478000Y-29912000D01*
X222878000Y-40192000D02*
X222878000Y-29912000D01*
X212478000Y-40192000D02*
X222878000Y-40192000D01*
X212538000Y-32402000D02*
X212538000Y-34052000D01*
X222818000Y-32402000D02*
X212538000Y-32402000D01*
X222818000Y-37702000D02*
X222818000Y-32402000D01*
X212538000Y-37702000D02*
X222818000Y-37702000D01*
X212538000Y-36052000D02*
X212538000Y-37702000D01*
X212538000Y-34052000D02*
G75*
G02*
X212538000Y-36052000I0J-1000000D01*
G01*
D11*
%TO.C,U1*%
X219895000Y-42320000D02*
X218470000Y-42320000D01*
X227145000Y-42095000D02*
X226820000Y-42095000D01*
X227145000Y-49345000D02*
X226820000Y-49345000D01*
X219895000Y-49345000D02*
X220220000Y-49345000D01*
X219895000Y-42095000D02*
X220220000Y-42095000D01*
X219895000Y-49345000D02*
X219895000Y-49020000D01*
X227145000Y-49345000D02*
X227145000Y-49020000D01*
X227145000Y-42095000D02*
X227145000Y-42420000D01*
X219895000Y-42095000D02*
X219895000Y-42320000D01*
D10*
%TO.C,SW2*%
X238218000Y-34985000D02*
X238218000Y-36255000D01*
X232698000Y-34985000D02*
X232698000Y-36255000D01*
X238218000Y-29785000D02*
X238218000Y-31054000D01*
X232698000Y-29785000D02*
X238218000Y-29785000D01*
X232698000Y-29785000D02*
X232698000Y-30435000D01*
X230848000Y-30435000D02*
X232698000Y-30435000D01*
X232698000Y-36255000D02*
X238218000Y-36255000D01*
%TO.C,R18*%
X242076500Y-37130258D02*
X242076500Y-36655742D01*
X241031500Y-37130258D02*
X241031500Y-36655742D01*
%TO.C,R16*%
X242555500Y-36783742D02*
X242555500Y-37258258D01*
X243600500Y-36783742D02*
X243600500Y-37258258D01*
%TO.C,R15*%
X228679742Y-35320500D02*
X229154258Y-35320500D01*
X228679742Y-34275500D02*
X229154258Y-34275500D01*
%TO.C,R14*%
X228807742Y-34050500D02*
X229282258Y-34050500D01*
X228807742Y-33005500D02*
X229282258Y-33005500D01*
%TO.C,R13*%
X228679742Y-32780500D02*
X229154258Y-32780500D01*
X228679742Y-31735500D02*
X229154258Y-31735500D01*
%TO.C,R12*%
X228807742Y-31510500D02*
X229282258Y-31510500D01*
X228807742Y-30465500D02*
X229282258Y-30465500D01*
%TO.C,R10*%
X244575436Y-31094000D02*
X246029564Y-31094000D01*
X244575436Y-32914000D02*
X246029564Y-32914000D01*
%TO.C,R8*%
X242718000Y-33046564D02*
X242718000Y-31592436D01*
X240898000Y-33046564D02*
X240898000Y-31592436D01*
%TO.C,R2*%
X210805500Y-43513742D02*
X210805500Y-43988258D01*
X211850500Y-43513742D02*
X211850500Y-43988258D01*
%TO.C,R1*%
X231631258Y-36561500D02*
X231156742Y-36561500D01*
X231631258Y-37606500D02*
X231156742Y-37606500D01*
%TO.C,J6*%
X242770000Y-43860000D02*
X242770000Y-44260000D01*
X243410000Y-43860000D02*
X242770000Y-43860000D01*
X249750000Y-54961000D02*
X243010000Y-54961000D01*
X249750000Y-44100000D02*
X243010000Y-44100000D01*
X243010000Y-44100000D02*
X243010000Y-54961000D01*
X249750000Y-44100000D02*
X249750000Y-54961000D01*
X248630000Y-44100000D02*
X248630000Y-54961000D01*
X243530000Y-44100000D02*
X243530000Y-54961000D01*
%TO.C,J4*%
X249990000Y-45040000D02*
X249990000Y-44640000D01*
X249350000Y-45040000D02*
X249990000Y-45040000D01*
X243010000Y-39020000D02*
X249750000Y-39020000D01*
X243010000Y-44800000D02*
X249750000Y-44800000D01*
X249750000Y-44800000D02*
X249750000Y-39020000D01*
X243010000Y-44800000D02*
X243010000Y-39020000D01*
X244130000Y-44800000D02*
X244130000Y-39020000D01*
X249230000Y-44800000D02*
X249230000Y-39020000D01*
%TO.C,J3*%
X209490000Y-29270000D02*
X209490000Y-27940000D01*
X210820000Y-29270000D02*
X209490000Y-29270000D01*
X212090000Y-29270000D02*
X212090000Y-26610000D01*
X212090000Y-26610000D02*
X240090000Y-26610000D01*
X212090000Y-29270000D02*
X240090000Y-29270000D01*
X240090000Y-29270000D02*
X240090000Y-26610000D01*
%TO.C,J1*%
X209490000Y-54670000D02*
X209490000Y-53340000D01*
X210820000Y-54670000D02*
X209490000Y-54670000D01*
X212090000Y-54670000D02*
X212090000Y-52010000D01*
X212090000Y-52010000D02*
X240090000Y-52010000D01*
X212090000Y-54670000D02*
X240090000Y-54670000D01*
X240090000Y-54670000D02*
X240090000Y-52010000D01*
%TO.C,D3*%
X236594000Y-36792000D02*
X239644000Y-36792000D01*
X236594000Y-38392000D02*
X236594000Y-36792000D01*
X239644000Y-38392000D02*
X236594000Y-38392000D01*
%TO.C,D1*%
X212063000Y-48449500D02*
X212063000Y-46164500D01*
X210593000Y-48449500D02*
X212063000Y-48449500D01*
X210593000Y-46164500D02*
X210593000Y-48449500D01*
%TO.C,C7*%
X243988000Y-36750164D02*
X243988000Y-36965836D01*
X244708000Y-36750164D02*
X244708000Y-36965836D01*
%TO.C,R9*%
D11*
X242149333Y-30584380D02*
X241816000Y-30108190D01*
X241577904Y-30584380D02*
X241577904Y-29584380D01*
X241958857Y-29584380D01*
X242054095Y-29632000D01*
X242101714Y-29679619D01*
X242149333Y-29774857D01*
X242149333Y-29917714D01*
X242101714Y-30012952D01*
X242054095Y-30060571D01*
X241958857Y-30108190D01*
X241577904Y-30108190D01*
X242625523Y-30584380D02*
X242816000Y-30584380D01*
X242911238Y-30536761D01*
X242958857Y-30489142D01*
X243054095Y-30346285D01*
X243101714Y-30155809D01*
X243101714Y-29774857D01*
X243054095Y-29679619D01*
X243006476Y-29632000D01*
X242911238Y-29584380D01*
X242720761Y-29584380D01*
X242625523Y-29632000D01*
X242577904Y-29679619D01*
X242530285Y-29774857D01*
X242530285Y-30012952D01*
X242577904Y-30108190D01*
X242625523Y-30155809D01*
X242720761Y-30203428D01*
X242911238Y-30203428D01*
X243006476Y-30155809D01*
X243054095Y-30108190D01*
X243101714Y-30012952D01*
%TO.C,J2*%
X207946666Y-32682380D02*
X207946666Y-33396666D01*
X207899047Y-33539523D01*
X207803809Y-33634761D01*
X207660952Y-33682380D01*
X207565714Y-33682380D01*
X208375238Y-32777619D02*
X208422857Y-32730000D01*
X208518095Y-32682380D01*
X208756190Y-32682380D01*
X208851428Y-32730000D01*
X208899047Y-32777619D01*
X208946666Y-32872857D01*
X208946666Y-32968095D01*
X208899047Y-33110952D01*
X208327619Y-33682380D01*
X208946666Y-33682380D01*
%TO.C,SW1*%
X227734761Y-35909333D02*
X227782380Y-35766476D01*
X227782380Y-35528380D01*
X227734761Y-35433142D01*
X227687142Y-35385523D01*
X227591904Y-35337904D01*
X227496666Y-35337904D01*
X227401428Y-35385523D01*
X227353809Y-35433142D01*
X227306190Y-35528380D01*
X227258571Y-35718857D01*
X227210952Y-35814095D01*
X227163333Y-35861714D01*
X227068095Y-35909333D01*
X226972857Y-35909333D01*
X226877619Y-35861714D01*
X226830000Y-35814095D01*
X226782380Y-35718857D01*
X226782380Y-35480761D01*
X226830000Y-35337904D01*
X226782380Y-35004571D02*
X227782380Y-34766476D01*
X227068095Y-34576000D01*
X227782380Y-34385523D01*
X226782380Y-34147428D01*
X227782380Y-33242666D02*
X227782380Y-33814095D01*
X227782380Y-33528380D02*
X226782380Y-33528380D01*
X226925238Y-33623619D01*
X227020476Y-33718857D01*
X227068095Y-33814095D01*
%TO.C,Y1*%
X213934190Y-50006190D02*
X214410380Y-50006190D01*
X213410380Y-50339523D02*
X213934190Y-50006190D01*
X213410380Y-49672857D01*
X214410380Y-48815714D02*
X214410380Y-49387142D01*
X214410380Y-49101428D02*
X213410380Y-49101428D01*
X213553238Y-49196666D01*
X213648476Y-49291904D01*
X213696095Y-49387142D01*
%TO.C,U4*%
X234618095Y-51384380D02*
X234618095Y-52193904D01*
X234665714Y-52289142D01*
X234713333Y-52336761D01*
X234808571Y-52384380D01*
X234999047Y-52384380D01*
X235094285Y-52336761D01*
X235141904Y-52289142D01*
X235189523Y-52193904D01*
X235189523Y-51384380D01*
X236094285Y-51717714D02*
X236094285Y-52384380D01*
X235856190Y-51336761D02*
X235618095Y-52051047D01*
X236237142Y-52051047D01*
%TO.C,U3*%
X210990380Y-35813904D02*
X211799904Y-35813904D01*
X211895142Y-35766285D01*
X211942761Y-35718666D01*
X211990380Y-35623428D01*
X211990380Y-35432952D01*
X211942761Y-35337714D01*
X211895142Y-35290095D01*
X211799904Y-35242476D01*
X210990380Y-35242476D01*
X210990380Y-34861523D02*
X210990380Y-34242476D01*
X211371333Y-34575809D01*
X211371333Y-34432952D01*
X211418952Y-34337714D01*
X211466571Y-34290095D01*
X211561809Y-34242476D01*
X211799904Y-34242476D01*
X211895142Y-34290095D01*
X211942761Y-34337714D01*
X211990380Y-34432952D01*
X211990380Y-34718666D01*
X211942761Y-34813904D01*
X211895142Y-34861523D01*
%TO.C,U1*%
X222758095Y-39122380D02*
X222758095Y-39931904D01*
X222805714Y-40027142D01*
X222853333Y-40074761D01*
X222948571Y-40122380D01*
X223139047Y-40122380D01*
X223234285Y-40074761D01*
X223281904Y-40027142D01*
X223329523Y-39931904D01*
X223329523Y-39122380D01*
X224329523Y-40122380D02*
X223758095Y-40122380D01*
X224043809Y-40122380D02*
X224043809Y-39122380D01*
X223948571Y-39265238D01*
X223853333Y-39360476D01*
X223758095Y-39408095D01*
%TO.C,SW2*%
X234124666Y-29189761D02*
X234267523Y-29237380D01*
X234505619Y-29237380D01*
X234600857Y-29189761D01*
X234648476Y-29142142D01*
X234696095Y-29046904D01*
X234696095Y-28951666D01*
X234648476Y-28856428D01*
X234600857Y-28808809D01*
X234505619Y-28761190D01*
X234315142Y-28713571D01*
X234219904Y-28665952D01*
X234172285Y-28618333D01*
X234124666Y-28523095D01*
X234124666Y-28427857D01*
X234172285Y-28332619D01*
X234219904Y-28285000D01*
X234315142Y-28237380D01*
X234553238Y-28237380D01*
X234696095Y-28285000D01*
X235029428Y-28237380D02*
X235267523Y-29237380D01*
X235458000Y-28523095D01*
X235648476Y-29237380D01*
X235886571Y-28237380D01*
X236219904Y-28332619D02*
X236267523Y-28285000D01*
X236362761Y-28237380D01*
X236600857Y-28237380D01*
X236696095Y-28285000D01*
X236743714Y-28332619D01*
X236791333Y-28427857D01*
X236791333Y-28523095D01*
X236743714Y-28665952D01*
X236172285Y-29237380D01*
X236791333Y-29237380D01*
%TO.C,R18*%
X240576380Y-37535857D02*
X240100190Y-37869190D01*
X240576380Y-38107285D02*
X239576380Y-38107285D01*
X239576380Y-37726333D01*
X239624000Y-37631095D01*
X239671619Y-37583476D01*
X239766857Y-37535857D01*
X239909714Y-37535857D01*
X240004952Y-37583476D01*
X240052571Y-37631095D01*
X240100190Y-37726333D01*
X240100190Y-38107285D01*
X240576380Y-36583476D02*
X240576380Y-37154904D01*
X240576380Y-36869190D02*
X239576380Y-36869190D01*
X239719238Y-36964428D01*
X239814476Y-37059666D01*
X239862095Y-37154904D01*
X240004952Y-36012047D02*
X239957333Y-36107285D01*
X239909714Y-36154904D01*
X239814476Y-36202523D01*
X239766857Y-36202523D01*
X239671619Y-36154904D01*
X239624000Y-36107285D01*
X239576380Y-36012047D01*
X239576380Y-35821571D01*
X239624000Y-35726333D01*
X239671619Y-35678714D01*
X239766857Y-35631095D01*
X239814476Y-35631095D01*
X239909714Y-35678714D01*
X239957333Y-35726333D01*
X240004952Y-35821571D01*
X240004952Y-36012047D01*
X240052571Y-36107285D01*
X240100190Y-36154904D01*
X240195428Y-36202523D01*
X240385904Y-36202523D01*
X240481142Y-36154904D01*
X240528761Y-36107285D01*
X240576380Y-36012047D01*
X240576380Y-35821571D01*
X240528761Y-35726333D01*
X240481142Y-35678714D01*
X240385904Y-35631095D01*
X240195428Y-35631095D01*
X240100190Y-35678714D01*
X240052571Y-35726333D01*
X240004952Y-35821571D01*
%TO.C,R16*%
X244960380Y-37663857D02*
X244484190Y-37997190D01*
X244960380Y-38235285D02*
X243960380Y-38235285D01*
X243960380Y-37854333D01*
X244008000Y-37759095D01*
X244055619Y-37711476D01*
X244150857Y-37663857D01*
X244293714Y-37663857D01*
X244388952Y-37711476D01*
X244436571Y-37759095D01*
X244484190Y-37854333D01*
X244484190Y-38235285D01*
X244960380Y-36711476D02*
X244960380Y-37282904D01*
X244960380Y-36997190D02*
X243960380Y-36997190D01*
X244103238Y-37092428D01*
X244198476Y-37187666D01*
X244246095Y-37282904D01*
X243960380Y-35854333D02*
X243960380Y-36044809D01*
X244008000Y-36140047D01*
X244055619Y-36187666D01*
X244198476Y-36282904D01*
X244388952Y-36330523D01*
X244769904Y-36330523D01*
X244865142Y-36282904D01*
X244912761Y-36235285D01*
X244960380Y-36140047D01*
X244960380Y-35949571D01*
X244912761Y-35854333D01*
X244865142Y-35806714D01*
X244769904Y-35759095D01*
X244531809Y-35759095D01*
X244436571Y-35806714D01*
X244388952Y-35854333D01*
X244341333Y-35949571D01*
X244341333Y-36140047D01*
X244388952Y-36235285D01*
X244436571Y-36282904D01*
X244531809Y-36330523D01*
%TO.C,R15*%
X228274142Y-33820380D02*
X227940809Y-33344190D01*
X227702714Y-33820380D02*
X227702714Y-32820380D01*
X228083666Y-32820380D01*
X228178904Y-32868000D01*
X228226523Y-32915619D01*
X228274142Y-33010857D01*
X228274142Y-33153714D01*
X228226523Y-33248952D01*
X228178904Y-33296571D01*
X228083666Y-33344190D01*
X227702714Y-33344190D01*
X229226523Y-33820380D02*
X228655095Y-33820380D01*
X228940809Y-33820380D02*
X228940809Y-32820380D01*
X228845571Y-32963238D01*
X228750333Y-33058476D01*
X228655095Y-33106095D01*
X230131285Y-32820380D02*
X229655095Y-32820380D01*
X229607476Y-33296571D01*
X229655095Y-33248952D01*
X229750333Y-33201333D01*
X229988428Y-33201333D01*
X230083666Y-33248952D01*
X230131285Y-33296571D01*
X230178904Y-33391809D01*
X230178904Y-33629904D01*
X230131285Y-33725142D01*
X230083666Y-33772761D01*
X229988428Y-33820380D01*
X229750333Y-33820380D01*
X229655095Y-33772761D01*
X229607476Y-33725142D01*
%TO.C,R14*%
X228402142Y-32550380D02*
X228068809Y-32074190D01*
X227830714Y-32550380D02*
X227830714Y-31550380D01*
X228211666Y-31550380D01*
X228306904Y-31598000D01*
X228354523Y-31645619D01*
X228402142Y-31740857D01*
X228402142Y-31883714D01*
X228354523Y-31978952D01*
X228306904Y-32026571D01*
X228211666Y-32074190D01*
X227830714Y-32074190D01*
X229354523Y-32550380D02*
X228783095Y-32550380D01*
X229068809Y-32550380D02*
X229068809Y-31550380D01*
X228973571Y-31693238D01*
X228878333Y-31788476D01*
X228783095Y-31836095D01*
X230211666Y-31883714D02*
X230211666Y-32550380D01*
X229973571Y-31502761D02*
X229735476Y-32217047D01*
X230354523Y-32217047D01*
%TO.C,R13*%
X228274142Y-31280380D02*
X227940809Y-30804190D01*
X227702714Y-31280380D02*
X227702714Y-30280380D01*
X228083666Y-30280380D01*
X228178904Y-30328000D01*
X228226523Y-30375619D01*
X228274142Y-30470857D01*
X228274142Y-30613714D01*
X228226523Y-30708952D01*
X228178904Y-30756571D01*
X228083666Y-30804190D01*
X227702714Y-30804190D01*
X229226523Y-31280380D02*
X228655095Y-31280380D01*
X228940809Y-31280380D02*
X228940809Y-30280380D01*
X228845571Y-30423238D01*
X228750333Y-30518476D01*
X228655095Y-30566095D01*
X229559857Y-30280380D02*
X230178904Y-30280380D01*
X229845571Y-30661333D01*
X229988428Y-30661333D01*
X230083666Y-30708952D01*
X230131285Y-30756571D01*
X230178904Y-30851809D01*
X230178904Y-31089904D01*
X230131285Y-31185142D01*
X230083666Y-31232761D01*
X229988428Y-31280380D01*
X229702714Y-31280380D01*
X229607476Y-31232761D01*
X229559857Y-31185142D01*
%TO.C,R12*%
X228402142Y-30010380D02*
X228068809Y-29534190D01*
X227830714Y-30010380D02*
X227830714Y-29010380D01*
X228211666Y-29010380D01*
X228306904Y-29058000D01*
X228354523Y-29105619D01*
X228402142Y-29200857D01*
X228402142Y-29343714D01*
X228354523Y-29438952D01*
X228306904Y-29486571D01*
X228211666Y-29534190D01*
X227830714Y-29534190D01*
X229354523Y-30010380D02*
X228783095Y-30010380D01*
X229068809Y-30010380D02*
X229068809Y-29010380D01*
X228973571Y-29153238D01*
X228878333Y-29248476D01*
X228783095Y-29296095D01*
X229735476Y-29105619D02*
X229783095Y-29058000D01*
X229878333Y-29010380D01*
X230116428Y-29010380D01*
X230211666Y-29058000D01*
X230259285Y-29105619D01*
X230306904Y-29200857D01*
X230306904Y-29296095D01*
X230259285Y-29438952D01*
X229687857Y-30010380D01*
X230306904Y-30010380D01*
%TO.C,R10*%
X244659642Y-30636380D02*
X244326309Y-30160190D01*
X244088214Y-30636380D02*
X244088214Y-29636380D01*
X244469166Y-29636380D01*
X244564404Y-29684000D01*
X244612023Y-29731619D01*
X244659642Y-29826857D01*
X244659642Y-29969714D01*
X244612023Y-30064952D01*
X244564404Y-30112571D01*
X244469166Y-30160190D01*
X244088214Y-30160190D01*
X245612023Y-30636380D02*
X245040595Y-30636380D01*
X245326309Y-30636380D02*
X245326309Y-29636380D01*
X245231071Y-29779238D01*
X245135833Y-29874476D01*
X245040595Y-29922095D01*
X246231071Y-29636380D02*
X246326309Y-29636380D01*
X246421547Y-29684000D01*
X246469166Y-29731619D01*
X246516785Y-29826857D01*
X246564404Y-30017333D01*
X246564404Y-30255428D01*
X246516785Y-30445904D01*
X246469166Y-30541142D01*
X246421547Y-30588761D01*
X246326309Y-30636380D01*
X246231071Y-30636380D01*
X246135833Y-30588761D01*
X246088214Y-30541142D01*
X246040595Y-30445904D01*
X245992976Y-30255428D01*
X245992976Y-30017333D01*
X246040595Y-29826857D01*
X246088214Y-29731619D01*
X246135833Y-29684000D01*
X246231071Y-29636380D01*
%TO.C,R8*%
X240440380Y-32486166D02*
X239964190Y-32819500D01*
X240440380Y-33057595D02*
X239440380Y-33057595D01*
X239440380Y-32676642D01*
X239488000Y-32581404D01*
X239535619Y-32533785D01*
X239630857Y-32486166D01*
X239773714Y-32486166D01*
X239868952Y-32533785D01*
X239916571Y-32581404D01*
X239964190Y-32676642D01*
X239964190Y-33057595D01*
X239868952Y-31914738D02*
X239821333Y-32009976D01*
X239773714Y-32057595D01*
X239678476Y-32105214D01*
X239630857Y-32105214D01*
X239535619Y-32057595D01*
X239488000Y-32009976D01*
X239440380Y-31914738D01*
X239440380Y-31724261D01*
X239488000Y-31629023D01*
X239535619Y-31581404D01*
X239630857Y-31533785D01*
X239678476Y-31533785D01*
X239773714Y-31581404D01*
X239821333Y-31629023D01*
X239868952Y-31724261D01*
X239868952Y-31914738D01*
X239916571Y-32009976D01*
X239964190Y-32057595D01*
X240059428Y-32105214D01*
X240249904Y-32105214D01*
X240345142Y-32057595D01*
X240392761Y-32009976D01*
X240440380Y-31914738D01*
X240440380Y-31724261D01*
X240392761Y-31629023D01*
X240345142Y-31581404D01*
X240249904Y-31533785D01*
X240059428Y-31533785D01*
X239964190Y-31581404D01*
X239916571Y-31629023D01*
X239868952Y-31724261D01*
%TO.C,R2*%
X213210380Y-43917666D02*
X212734190Y-44251000D01*
X213210380Y-44489095D02*
X212210380Y-44489095D01*
X212210380Y-44108142D01*
X212258000Y-44012904D01*
X212305619Y-43965285D01*
X212400857Y-43917666D01*
X212543714Y-43917666D01*
X212638952Y-43965285D01*
X212686571Y-44012904D01*
X212734190Y-44108142D01*
X212734190Y-44489095D01*
X212305619Y-43536714D02*
X212258000Y-43489095D01*
X212210380Y-43393857D01*
X212210380Y-43155761D01*
X212258000Y-43060523D01*
X212305619Y-43012904D01*
X212400857Y-42965285D01*
X212496095Y-42965285D01*
X212638952Y-43012904D01*
X213210380Y-43584333D01*
X213210380Y-42965285D01*
%TO.C,R1*%
X231227333Y-38966380D02*
X230894000Y-38490190D01*
X230655904Y-38966380D02*
X230655904Y-37966380D01*
X231036857Y-37966380D01*
X231132095Y-38014000D01*
X231179714Y-38061619D01*
X231227333Y-38156857D01*
X231227333Y-38299714D01*
X231179714Y-38394952D01*
X231132095Y-38442571D01*
X231036857Y-38490190D01*
X230655904Y-38490190D01*
X232179714Y-38966380D02*
X231608285Y-38966380D01*
X231894000Y-38966380D02*
X231894000Y-37966380D01*
X231798761Y-38109238D01*
X231703523Y-38204476D01*
X231608285Y-38252095D01*
%TO.C,J6*%
X250202380Y-49863333D02*
X250916666Y-49863333D01*
X251059523Y-49910952D01*
X251154761Y-50006190D01*
X251202380Y-50149047D01*
X251202380Y-50244285D01*
X250202380Y-48958571D02*
X250202380Y-49149047D01*
X250250000Y-49244285D01*
X250297619Y-49291904D01*
X250440476Y-49387142D01*
X250630952Y-49434761D01*
X251011904Y-49434761D01*
X251107142Y-49387142D01*
X251154761Y-49339523D01*
X251202380Y-49244285D01*
X251202380Y-49053809D01*
X251154761Y-48958571D01*
X251107142Y-48910952D01*
X251011904Y-48863333D01*
X250773809Y-48863333D01*
X250678571Y-48910952D01*
X250630952Y-48958571D01*
X250583333Y-49053809D01*
X250583333Y-49244285D01*
X250630952Y-49339523D01*
X250678571Y-49387142D01*
X250773809Y-49434761D01*
%TO.C,J4*%
X241462380Y-42243333D02*
X242176666Y-42243333D01*
X242319523Y-42290952D01*
X242414761Y-42386190D01*
X242462380Y-42529047D01*
X242462380Y-42624285D01*
X241795714Y-41338571D02*
X242462380Y-41338571D01*
X241414761Y-41576666D02*
X242129047Y-41814761D01*
X242129047Y-41195714D01*
%TO.C,J3*%
X207942380Y-28273333D02*
X208656666Y-28273333D01*
X208799523Y-28320952D01*
X208894761Y-28416190D01*
X208942380Y-28559047D01*
X208942380Y-28654285D01*
X207942380Y-27892380D02*
X207942380Y-27273333D01*
X208323333Y-27606666D01*
X208323333Y-27463809D01*
X208370952Y-27368571D01*
X208418571Y-27320952D01*
X208513809Y-27273333D01*
X208751904Y-27273333D01*
X208847142Y-27320952D01*
X208894761Y-27368571D01*
X208942380Y-27463809D01*
X208942380Y-27749523D01*
X208894761Y-27844761D01*
X208847142Y-27892380D01*
%TO.C,J1*%
X207942380Y-53673333D02*
X208656666Y-53673333D01*
X208799523Y-53720952D01*
X208894761Y-53816190D01*
X208942380Y-53959047D01*
X208942380Y-54054285D01*
X208942380Y-52673333D02*
X208942380Y-53244761D01*
X208942380Y-52959047D02*
X207942380Y-52959047D01*
X208085238Y-53054285D01*
X208180476Y-53149523D01*
X208228095Y-53244761D01*
%TO.C,D3*%
X237655904Y-36444380D02*
X237655904Y-35444380D01*
X237894000Y-35444380D01*
X238036857Y-35492000D01*
X238132095Y-35587238D01*
X238179714Y-35682476D01*
X238227333Y-35872952D01*
X238227333Y-36015809D01*
X238179714Y-36206285D01*
X238132095Y-36301523D01*
X238036857Y-36396761D01*
X237894000Y-36444380D01*
X237655904Y-36444380D01*
X238560666Y-35444380D02*
X239179714Y-35444380D01*
X238846380Y-35825333D01*
X238989238Y-35825333D01*
X239084476Y-35872952D01*
X239132095Y-35920571D01*
X239179714Y-36015809D01*
X239179714Y-36253904D01*
X239132095Y-36349142D01*
X239084476Y-36396761D01*
X238989238Y-36444380D01*
X238703523Y-36444380D01*
X238608285Y-36396761D01*
X238560666Y-36349142D01*
%TO.C,D1*%
X210350380Y-47702595D02*
X209350380Y-47702595D01*
X209350380Y-47464500D01*
X209398000Y-47321642D01*
X209493238Y-47226404D01*
X209588476Y-47178785D01*
X209778952Y-47131166D01*
X209921809Y-47131166D01*
X210112285Y-47178785D01*
X210207523Y-47226404D01*
X210302761Y-47321642D01*
X210350380Y-47464500D01*
X210350380Y-47702595D01*
X210350380Y-46178785D02*
X210350380Y-46750214D01*
X210350380Y-46464500D02*
X209350380Y-46464500D01*
X209493238Y-46559738D01*
X209588476Y-46654976D01*
X209636095Y-46750214D01*
%TO.C,C7*%
X245865142Y-37024666D02*
X245912761Y-37072285D01*
X245960380Y-37215142D01*
X245960380Y-37310380D01*
X245912761Y-37453238D01*
X245817523Y-37548476D01*
X245722285Y-37596095D01*
X245531809Y-37643714D01*
X245388952Y-37643714D01*
X245198476Y-37596095D01*
X245103238Y-37548476D01*
X245008000Y-37453238D01*
X244960380Y-37310380D01*
X244960380Y-37215142D01*
X245008000Y-37072285D01*
X245055619Y-37024666D01*
X244960380Y-36691333D02*
X244960380Y-36024666D01*
X245960380Y-36453238D01*
%TD*%
M02*
