%TF.GenerationSoftware,KiCad,Pcbnew,(5.1.7)-1*%
%TF.CreationDate,2020-10-24T02:10:45+09:00*%
%TF.ProjectId,canboard,63616e62-6f61-4726-942e-6b696361645f,rev?*%
%TF.SameCoordinates,Original*%
%TF.FileFunction,Copper,L1,Top*%
%TF.FilePolarity,Positive*%
%FSLAX46Y46*%
G04 Gerber Fmt 4.6, Leading zero omitted, Abs format (unit mm)*
G04 Created by KiCad (PCBNEW (5.1.7)-1) date 2020-10-24 02:10:45*
%MOMM*%
%LPD*%
G01*
G04 APERTURE LIST*
%TA.AperFunction,ComponentPad*%
%ADD10O,1.700000X1.700000*%
%TD*%
%TA.AperFunction,ComponentPad*%
%ADD11R,1.700000X1.700000*%
%TD*%
%TA.AperFunction,SMDPad,CuDef*%
%ADD12R,2.000000X2.500000*%
%TD*%
%TA.AperFunction,SMDPad,CuDef*%
%ADD13R,3.200000X0.400000*%
%TD*%
%TA.AperFunction,ComponentPad*%
%ADD14O,1.600000X1.600000*%
%TD*%
%TA.AperFunction,ComponentPad*%
%ADD15R,1.600000X1.600000*%
%TD*%
%TA.AperFunction,SMDPad,CuDef*%
%ADD16R,0.550000X1.600000*%
%TD*%
%TA.AperFunction,SMDPad,CuDef*%
%ADD17R,1.600000X0.550000*%
%TD*%
%TA.AperFunction,SMDPad,CuDef*%
%ADD18R,1.600000X0.760000*%
%TD*%
%TA.AperFunction,ComponentPad*%
%ADD19C,2.100000*%
%TD*%
%TA.AperFunction,ComponentPad*%
%ADD20R,2.100000X2.100000*%
%TD*%
%TA.AperFunction,SMDPad,CuDef*%
%ADD21R,2.000000X1.100000*%
%TD*%
%TA.AperFunction,SMDPad,CuDef*%
%ADD22R,0.800000X1.100000*%
%TD*%
%TA.AperFunction,ViaPad*%
%ADD23C,0.800000*%
%TD*%
%TA.AperFunction,Conductor*%
%ADD24C,0.250000*%
%TD*%
G04 APERTURE END LIST*
%TO.P,R9,2*%
%TO.N,Net-(C8-Pad1)*%
%TA.AperFunction,SMDPad,CuDef*%
G36*
G01*
X241891000Y-28427000D02*
X241891000Y-28977000D01*
G75*
G02*
X241691000Y-29177000I-200000J0D01*
G01*
X241291000Y-29177000D01*
G75*
G02*
X241091000Y-28977000I0J200000D01*
G01*
X241091000Y-28427000D01*
G75*
G02*
X241291000Y-28227000I200000J0D01*
G01*
X241691000Y-28227000D01*
G75*
G02*
X241891000Y-28427000I0J-200000D01*
G01*
G37*
%TD.AperFunction*%
%TO.P,R9,1*%
%TO.N,Net-(R9-Pad1)*%
%TA.AperFunction,SMDPad,CuDef*%
G36*
G01*
X243541000Y-28427000D02*
X243541000Y-28977000D01*
G75*
G02*
X243341000Y-29177000I-200000J0D01*
G01*
X242941000Y-29177000D01*
G75*
G02*
X242741000Y-28977000I0J200000D01*
G01*
X242741000Y-28427000D01*
G75*
G02*
X242941000Y-28227000I200000J0D01*
G01*
X243341000Y-28227000D01*
G75*
G02*
X243541000Y-28427000I0J-200000D01*
G01*
G37*
%TD.AperFunction*%
%TD*%
D10*
%TO.P,J2,6*%
%TO.N,GND*%
X208280000Y-48260000D03*
%TO.P,J2,5*%
X208280000Y-45720000D03*
%TO.P,J2,4*%
%TO.N,VCC*%
X208280000Y-43180000D03*
%TO.P,J2,3*%
%TO.N,TXO*%
X208280000Y-40640000D03*
%TO.P,J2,2*%
%TO.N,RXI*%
X208280000Y-38100000D03*
D11*
%TO.P,J2,1*%
%TO.N,DTR*%
X208280000Y-35560000D03*
%TD*%
D12*
%TO.P,SW1,1*%
%TO.N,RESET*%
X224790000Y-37656000D03*
%TO.P,SW1,2*%
%TO.N,GND*%
X224790000Y-31496000D03*
%TD*%
D13*
%TO.P,Y1,3*%
%TO.N,Net-(U1-Pad7)*%
X216408000Y-48330000D03*
%TO.P,Y1,2*%
%TO.N,GND*%
X216408000Y-49530000D03*
%TO.P,Y1,1*%
%TO.N,Net-(U1-Pad8)*%
X216408000Y-50730000D03*
%TD*%
%TO.P,U4,18*%
%TO.N,VCC*%
%TA.AperFunction,SMDPad,CuDef*%
G36*
G01*
X231755000Y-50142000D02*
X231755000Y-50442000D01*
G75*
G02*
X231605000Y-50592000I-150000J0D01*
G01*
X229855000Y-50592000D01*
G75*
G02*
X229705000Y-50442000I0J150000D01*
G01*
X229705000Y-50142000D01*
G75*
G02*
X229855000Y-49992000I150000J0D01*
G01*
X231605000Y-49992000D01*
G75*
G02*
X231755000Y-50142000I0J-150000D01*
G01*
G37*
%TD.AperFunction*%
%TO.P,U4,17*%
%TO.N,Net-(R3-Pad1)*%
%TA.AperFunction,SMDPad,CuDef*%
G36*
G01*
X231755000Y-48872000D02*
X231755000Y-49172000D01*
G75*
G02*
X231605000Y-49322000I-150000J0D01*
G01*
X229855000Y-49322000D01*
G75*
G02*
X229705000Y-49172000I0J150000D01*
G01*
X229705000Y-48872000D01*
G75*
G02*
X229855000Y-48722000I150000J0D01*
G01*
X231605000Y-48722000D01*
G75*
G02*
X231755000Y-48872000I0J-150000D01*
G01*
G37*
%TD.AperFunction*%
%TO.P,U4,16*%
%TO.N,SS*%
%TA.AperFunction,SMDPad,CuDef*%
G36*
G01*
X231755000Y-47602000D02*
X231755000Y-47902000D01*
G75*
G02*
X231605000Y-48052000I-150000J0D01*
G01*
X229855000Y-48052000D01*
G75*
G02*
X229705000Y-47902000I0J150000D01*
G01*
X229705000Y-47602000D01*
G75*
G02*
X229855000Y-47452000I150000J0D01*
G01*
X231605000Y-47452000D01*
G75*
G02*
X231755000Y-47602000I0J-150000D01*
G01*
G37*
%TD.AperFunction*%
%TO.P,U4,15*%
%TO.N,MISO*%
%TA.AperFunction,SMDPad,CuDef*%
G36*
G01*
X231755000Y-46332000D02*
X231755000Y-46632000D01*
G75*
G02*
X231605000Y-46782000I-150000J0D01*
G01*
X229855000Y-46782000D01*
G75*
G02*
X229705000Y-46632000I0J150000D01*
G01*
X229705000Y-46332000D01*
G75*
G02*
X229855000Y-46182000I150000J0D01*
G01*
X231605000Y-46182000D01*
G75*
G02*
X231755000Y-46332000I0J-150000D01*
G01*
G37*
%TD.AperFunction*%
%TO.P,U4,14*%
%TO.N,MOSI*%
%TA.AperFunction,SMDPad,CuDef*%
G36*
G01*
X231755000Y-45062000D02*
X231755000Y-45362000D01*
G75*
G02*
X231605000Y-45512000I-150000J0D01*
G01*
X229855000Y-45512000D01*
G75*
G02*
X229705000Y-45362000I0J150000D01*
G01*
X229705000Y-45062000D01*
G75*
G02*
X229855000Y-44912000I150000J0D01*
G01*
X231605000Y-44912000D01*
G75*
G02*
X231755000Y-45062000I0J-150000D01*
G01*
G37*
%TD.AperFunction*%
%TO.P,U4,13*%
%TO.N,SCK*%
%TA.AperFunction,SMDPad,CuDef*%
G36*
G01*
X231755000Y-43792000D02*
X231755000Y-44092000D01*
G75*
G02*
X231605000Y-44242000I-150000J0D01*
G01*
X229855000Y-44242000D01*
G75*
G02*
X229705000Y-44092000I0J150000D01*
G01*
X229705000Y-43792000D01*
G75*
G02*
X229855000Y-43642000I150000J0D01*
G01*
X231605000Y-43642000D01*
G75*
G02*
X231755000Y-43792000I0J-150000D01*
G01*
G37*
%TD.AperFunction*%
%TO.P,U4,12*%
%TO.N,D2*%
%TA.AperFunction,SMDPad,CuDef*%
G36*
G01*
X231755000Y-42522000D02*
X231755000Y-42822000D01*
G75*
G02*
X231605000Y-42972000I-150000J0D01*
G01*
X229855000Y-42972000D01*
G75*
G02*
X229705000Y-42822000I0J150000D01*
G01*
X229705000Y-42522000D01*
G75*
G02*
X229855000Y-42372000I150000J0D01*
G01*
X231605000Y-42372000D01*
G75*
G02*
X231755000Y-42522000I0J-150000D01*
G01*
G37*
%TD.AperFunction*%
%TO.P,U4,11*%
%TO.N,N/C*%
%TA.AperFunction,SMDPad,CuDef*%
G36*
G01*
X231755000Y-41252000D02*
X231755000Y-41552000D01*
G75*
G02*
X231605000Y-41702000I-150000J0D01*
G01*
X229855000Y-41702000D01*
G75*
G02*
X229705000Y-41552000I0J150000D01*
G01*
X229705000Y-41252000D01*
G75*
G02*
X229855000Y-41102000I150000J0D01*
G01*
X231605000Y-41102000D01*
G75*
G02*
X231755000Y-41252000I0J-150000D01*
G01*
G37*
%TD.AperFunction*%
%TO.P,U4,10*%
%TA.AperFunction,SMDPad,CuDef*%
G36*
G01*
X231755000Y-39982000D02*
X231755000Y-40282000D01*
G75*
G02*
X231605000Y-40432000I-150000J0D01*
G01*
X229855000Y-40432000D01*
G75*
G02*
X229705000Y-40282000I0J150000D01*
G01*
X229705000Y-39982000D01*
G75*
G02*
X229855000Y-39832000I150000J0D01*
G01*
X231605000Y-39832000D01*
G75*
G02*
X231755000Y-39982000I0J-150000D01*
G01*
G37*
%TD.AperFunction*%
%TO.P,U4,9*%
%TO.N,GND*%
%TA.AperFunction,SMDPad,CuDef*%
G36*
G01*
X241055000Y-39982000D02*
X241055000Y-40282000D01*
G75*
G02*
X240905000Y-40432000I-150000J0D01*
G01*
X239155000Y-40432000D01*
G75*
G02*
X239005000Y-40282000I0J150000D01*
G01*
X239005000Y-39982000D01*
G75*
G02*
X239155000Y-39832000I150000J0D01*
G01*
X240905000Y-39832000D01*
G75*
G02*
X241055000Y-39982000I0J-150000D01*
G01*
G37*
%TD.AperFunction*%
%TO.P,U4,8*%
%TO.N,Net-(U4-Pad8)*%
%TA.AperFunction,SMDPad,CuDef*%
G36*
G01*
X241055000Y-41252000D02*
X241055000Y-41552000D01*
G75*
G02*
X240905000Y-41702000I-150000J0D01*
G01*
X239155000Y-41702000D01*
G75*
G02*
X239005000Y-41552000I0J150000D01*
G01*
X239005000Y-41252000D01*
G75*
G02*
X239155000Y-41102000I150000J0D01*
G01*
X240905000Y-41102000D01*
G75*
G02*
X241055000Y-41252000I0J-150000D01*
G01*
G37*
%TD.AperFunction*%
%TO.P,U4,7*%
%TO.N,Net-(U4-Pad7)*%
%TA.AperFunction,SMDPad,CuDef*%
G36*
G01*
X241055000Y-42522000D02*
X241055000Y-42822000D01*
G75*
G02*
X240905000Y-42972000I-150000J0D01*
G01*
X239155000Y-42972000D01*
G75*
G02*
X239005000Y-42822000I0J150000D01*
G01*
X239005000Y-42522000D01*
G75*
G02*
X239155000Y-42372000I150000J0D01*
G01*
X240905000Y-42372000D01*
G75*
G02*
X241055000Y-42522000I0J-150000D01*
G01*
G37*
%TD.AperFunction*%
%TO.P,U4,6*%
%TO.N,N/C*%
%TA.AperFunction,SMDPad,CuDef*%
G36*
G01*
X241055000Y-43792000D02*
X241055000Y-44092000D01*
G75*
G02*
X240905000Y-44242000I-150000J0D01*
G01*
X239155000Y-44242000D01*
G75*
G02*
X239005000Y-44092000I0J150000D01*
G01*
X239005000Y-43792000D01*
G75*
G02*
X239155000Y-43642000I150000J0D01*
G01*
X240905000Y-43642000D01*
G75*
G02*
X241055000Y-43792000I0J-150000D01*
G01*
G37*
%TD.AperFunction*%
%TO.P,U4,5*%
%TA.AperFunction,SMDPad,CuDef*%
G36*
G01*
X241055000Y-45062000D02*
X241055000Y-45362000D01*
G75*
G02*
X240905000Y-45512000I-150000J0D01*
G01*
X239155000Y-45512000D01*
G75*
G02*
X239005000Y-45362000I0J150000D01*
G01*
X239005000Y-45062000D01*
G75*
G02*
X239155000Y-44912000I150000J0D01*
G01*
X240905000Y-44912000D01*
G75*
G02*
X241055000Y-45062000I0J-150000D01*
G01*
G37*
%TD.AperFunction*%
%TO.P,U4,4*%
%TA.AperFunction,SMDPad,CuDef*%
G36*
G01*
X241055000Y-46332000D02*
X241055000Y-46632000D01*
G75*
G02*
X240905000Y-46782000I-150000J0D01*
G01*
X239155000Y-46782000D01*
G75*
G02*
X239005000Y-46632000I0J150000D01*
G01*
X239005000Y-46332000D01*
G75*
G02*
X239155000Y-46182000I150000J0D01*
G01*
X240905000Y-46182000D01*
G75*
G02*
X241055000Y-46332000I0J-150000D01*
G01*
G37*
%TD.AperFunction*%
%TO.P,U4,3*%
%TA.AperFunction,SMDPad,CuDef*%
G36*
G01*
X241055000Y-47602000D02*
X241055000Y-47902000D01*
G75*
G02*
X240905000Y-48052000I-150000J0D01*
G01*
X239155000Y-48052000D01*
G75*
G02*
X239005000Y-47902000I0J150000D01*
G01*
X239005000Y-47602000D01*
G75*
G02*
X239155000Y-47452000I150000J0D01*
G01*
X240905000Y-47452000D01*
G75*
G02*
X241055000Y-47602000I0J-150000D01*
G01*
G37*
%TD.AperFunction*%
%TO.P,U4,2*%
%TO.N,Net-(U4-Pad2)*%
%TA.AperFunction,SMDPad,CuDef*%
G36*
G01*
X241055000Y-48872000D02*
X241055000Y-49172000D01*
G75*
G02*
X240905000Y-49322000I-150000J0D01*
G01*
X239155000Y-49322000D01*
G75*
G02*
X239005000Y-49172000I0J150000D01*
G01*
X239005000Y-48872000D01*
G75*
G02*
X239155000Y-48722000I150000J0D01*
G01*
X240905000Y-48722000D01*
G75*
G02*
X241055000Y-48872000I0J-150000D01*
G01*
G37*
%TD.AperFunction*%
%TO.P,U4,1*%
%TO.N,Net-(U4-Pad1)*%
%TA.AperFunction,SMDPad,CuDef*%
G36*
G01*
X241055000Y-50142000D02*
X241055000Y-50442000D01*
G75*
G02*
X240905000Y-50592000I-150000J0D01*
G01*
X239155000Y-50592000D01*
G75*
G02*
X239005000Y-50442000I0J150000D01*
G01*
X239005000Y-50142000D01*
G75*
G02*
X239155000Y-49992000I150000J0D01*
G01*
X240905000Y-49992000D01*
G75*
G02*
X241055000Y-50142000I0J-150000D01*
G01*
G37*
%TD.AperFunction*%
%TD*%
D14*
%TO.P,U3,8*%
%TO.N,VCC*%
X213868000Y-31242000D03*
%TO.P,U3,4*%
%TO.N,MISO*%
X221488000Y-38862000D03*
%TO.P,U3,7*%
%TO.N,N/C*%
X216408000Y-31242000D03*
%TO.P,U3,3*%
%TO.N,MOSI*%
X218948000Y-38862000D03*
%TO.P,U3,6*%
%TO.N,VCC*%
X218948000Y-31242000D03*
%TO.P,U3,2*%
%TO.N,SCK*%
X216408000Y-38862000D03*
%TO.P,U3,5*%
%TO.N,GND*%
X221488000Y-31242000D03*
D15*
%TO.P,U3,1*%
%TO.N,D9*%
X213868000Y-38862000D03*
%TD*%
D16*
%TO.P,U1,32*%
%TO.N,D2*%
X220720000Y-41470000D03*
%TO.P,U1,31*%
%TO.N,TXO*%
X221520000Y-41470000D03*
%TO.P,U1,30*%
%TO.N,RXI*%
X222320000Y-41470000D03*
%TO.P,U1,29*%
%TO.N,RESET*%
X223120000Y-41470000D03*
%TO.P,U1,28*%
%TO.N,SCL*%
X223920000Y-41470000D03*
%TO.P,U1,27*%
%TO.N,SDA*%
X224720000Y-41470000D03*
%TO.P,U1,26*%
%TO.N,A3*%
X225520000Y-41470000D03*
%TO.P,U1,25*%
%TO.N,A2*%
X226320000Y-41470000D03*
D17*
%TO.P,U1,24*%
%TO.N,A1*%
X227770000Y-42920000D03*
%TO.P,U1,23*%
%TO.N,A0*%
X227770000Y-43720000D03*
%TO.P,U1,22*%
%TO.N,N/C*%
X227770000Y-44520000D03*
%TO.P,U1,21*%
%TO.N,GND*%
X227770000Y-45320000D03*
%TO.P,U1,20*%
%TO.N,Net-(C1-Pad1)*%
X227770000Y-46120000D03*
%TO.P,U1,19*%
%TO.N,N/C*%
X227770000Y-46920000D03*
%TO.P,U1,18*%
%TO.N,VCC*%
X227770000Y-47720000D03*
%TO.P,U1,17*%
%TO.N,SCK*%
X227770000Y-48520000D03*
D16*
%TO.P,U1,16*%
%TO.N,MISO*%
X226320000Y-49970000D03*
%TO.P,U1,15*%
%TO.N,MOSI*%
X225520000Y-49970000D03*
%TO.P,U1,14*%
%TO.N,SS*%
X224720000Y-49970000D03*
%TO.P,U1,13*%
%TO.N,D9*%
X223920000Y-49970000D03*
%TO.P,U1,12*%
%TO.N,D8*%
X223120000Y-49970000D03*
%TO.P,U1,11*%
%TO.N,D7*%
X222320000Y-49970000D03*
%TO.P,U1,10*%
%TO.N,D6*%
X221520000Y-49970000D03*
%TO.P,U1,9*%
%TO.N,D5*%
X220720000Y-49970000D03*
D17*
%TO.P,U1,8*%
%TO.N,Net-(U1-Pad8)*%
X219270000Y-48520000D03*
%TO.P,U1,7*%
%TO.N,Net-(U1-Pad7)*%
X219270000Y-47720000D03*
%TO.P,U1,6*%
%TO.N,N/C*%
X219270000Y-46920000D03*
%TO.P,U1,5*%
%TO.N,GND*%
X219270000Y-46120000D03*
%TO.P,U1,4*%
%TO.N,VCC*%
X219270000Y-45320000D03*
%TO.P,U1,3*%
%TO.N,N/C*%
X219270000Y-44520000D03*
%TO.P,U1,2*%
%TO.N,D4*%
X219270000Y-43720000D03*
%TO.P,U1,1*%
%TO.N,D3*%
X219270000Y-42920000D03*
%TD*%
D18*
%TO.P,SW2,8*%
%TO.N,Net-(D3-Pad2)*%
X239268000Y-31115000D03*
%TO.P,SW2,4*%
%TO.N,Net-(R15-Pad2)*%
X231648000Y-34925000D03*
%TO.P,SW2,7*%
%TO.N,Net-(D3-Pad2)*%
X239268000Y-32385000D03*
%TO.P,SW2,3*%
%TO.N,Net-(R14-Pad2)*%
X231648000Y-33655000D03*
%TO.P,SW2,6*%
%TO.N,Net-(D3-Pad2)*%
X239268000Y-33655000D03*
%TO.P,SW2,2*%
%TO.N,Net-(R13-Pad2)*%
X231648000Y-32385000D03*
%TO.P,SW2,5*%
%TO.N,Net-(D3-Pad2)*%
X239268000Y-34925000D03*
%TO.P,SW2,1*%
%TO.N,Net-(R12-Pad2)*%
X231648000Y-31115000D03*
%TD*%
%TO.P,R18,2*%
%TO.N,VCC*%
%TA.AperFunction,SMDPad,CuDef*%
G36*
G01*
X241829000Y-36468000D02*
X241279000Y-36468000D01*
G75*
G02*
X241079000Y-36268000I0J200000D01*
G01*
X241079000Y-35868000D01*
G75*
G02*
X241279000Y-35668000I200000J0D01*
G01*
X241829000Y-35668000D01*
G75*
G02*
X242029000Y-35868000I0J-200000D01*
G01*
X242029000Y-36268000D01*
G75*
G02*
X241829000Y-36468000I-200000J0D01*
G01*
G37*
%TD.AperFunction*%
%TO.P,R18,1*%
%TA.AperFunction,SMDPad,CuDef*%
G36*
G01*
X241829000Y-38118000D02*
X241279000Y-38118000D01*
G75*
G02*
X241079000Y-37918000I0J200000D01*
G01*
X241079000Y-37518000D01*
G75*
G02*
X241279000Y-37318000I200000J0D01*
G01*
X241829000Y-37318000D01*
G75*
G02*
X242029000Y-37518000I0J-200000D01*
G01*
X242029000Y-37918000D01*
G75*
G02*
X241829000Y-38118000I-200000J0D01*
G01*
G37*
%TD.AperFunction*%
%TD*%
%TO.P,R16,2*%
%TO.N,GND*%
%TA.AperFunction,SMDPad,CuDef*%
G36*
G01*
X242803000Y-37446000D02*
X243353000Y-37446000D01*
G75*
G02*
X243553000Y-37646000I0J-200000D01*
G01*
X243553000Y-38046000D01*
G75*
G02*
X243353000Y-38246000I-200000J0D01*
G01*
X242803000Y-38246000D01*
G75*
G02*
X242603000Y-38046000I0J200000D01*
G01*
X242603000Y-37646000D01*
G75*
G02*
X242803000Y-37446000I200000J0D01*
G01*
G37*
%TD.AperFunction*%
%TO.P,R16,1*%
%TO.N,VCC*%
%TA.AperFunction,SMDPad,CuDef*%
G36*
G01*
X242803000Y-35796000D02*
X243353000Y-35796000D01*
G75*
G02*
X243553000Y-35996000I0J-200000D01*
G01*
X243553000Y-36396000D01*
G75*
G02*
X243353000Y-36596000I-200000J0D01*
G01*
X242803000Y-36596000D01*
G75*
G02*
X242603000Y-36396000I0J200000D01*
G01*
X242603000Y-35996000D01*
G75*
G02*
X242803000Y-35796000I200000J0D01*
G01*
G37*
%TD.AperFunction*%
%TD*%
%TO.P,R15,2*%
%TO.N,Net-(R15-Pad2)*%
%TA.AperFunction,SMDPad,CuDef*%
G36*
G01*
X229342000Y-35073000D02*
X229342000Y-34523000D01*
G75*
G02*
X229542000Y-34323000I200000J0D01*
G01*
X229942000Y-34323000D01*
G75*
G02*
X230142000Y-34523000I0J-200000D01*
G01*
X230142000Y-35073000D01*
G75*
G02*
X229942000Y-35273000I-200000J0D01*
G01*
X229542000Y-35273000D01*
G75*
G02*
X229342000Y-35073000I0J200000D01*
G01*
G37*
%TD.AperFunction*%
%TO.P,R15,1*%
%TO.N,A0*%
%TA.AperFunction,SMDPad,CuDef*%
G36*
G01*
X227692000Y-35073000D02*
X227692000Y-34523000D01*
G75*
G02*
X227892000Y-34323000I200000J0D01*
G01*
X228292000Y-34323000D01*
G75*
G02*
X228492000Y-34523000I0J-200000D01*
G01*
X228492000Y-35073000D01*
G75*
G02*
X228292000Y-35273000I-200000J0D01*
G01*
X227892000Y-35273000D01*
G75*
G02*
X227692000Y-35073000I0J200000D01*
G01*
G37*
%TD.AperFunction*%
%TD*%
%TO.P,R14,2*%
%TO.N,Net-(R14-Pad2)*%
%TA.AperFunction,SMDPad,CuDef*%
G36*
G01*
X229470000Y-33803000D02*
X229470000Y-33253000D01*
G75*
G02*
X229670000Y-33053000I200000J0D01*
G01*
X230070000Y-33053000D01*
G75*
G02*
X230270000Y-33253000I0J-200000D01*
G01*
X230270000Y-33803000D01*
G75*
G02*
X230070000Y-34003000I-200000J0D01*
G01*
X229670000Y-34003000D01*
G75*
G02*
X229470000Y-33803000I0J200000D01*
G01*
G37*
%TD.AperFunction*%
%TO.P,R14,1*%
%TO.N,A1*%
%TA.AperFunction,SMDPad,CuDef*%
G36*
G01*
X227820000Y-33803000D02*
X227820000Y-33253000D01*
G75*
G02*
X228020000Y-33053000I200000J0D01*
G01*
X228420000Y-33053000D01*
G75*
G02*
X228620000Y-33253000I0J-200000D01*
G01*
X228620000Y-33803000D01*
G75*
G02*
X228420000Y-34003000I-200000J0D01*
G01*
X228020000Y-34003000D01*
G75*
G02*
X227820000Y-33803000I0J200000D01*
G01*
G37*
%TD.AperFunction*%
%TD*%
%TO.P,R13,2*%
%TO.N,Net-(R13-Pad2)*%
%TA.AperFunction,SMDPad,CuDef*%
G36*
G01*
X229342000Y-32533000D02*
X229342000Y-31983000D01*
G75*
G02*
X229542000Y-31783000I200000J0D01*
G01*
X229942000Y-31783000D01*
G75*
G02*
X230142000Y-31983000I0J-200000D01*
G01*
X230142000Y-32533000D01*
G75*
G02*
X229942000Y-32733000I-200000J0D01*
G01*
X229542000Y-32733000D01*
G75*
G02*
X229342000Y-32533000I0J200000D01*
G01*
G37*
%TD.AperFunction*%
%TO.P,R13,1*%
%TO.N,A2*%
%TA.AperFunction,SMDPad,CuDef*%
G36*
G01*
X227692000Y-32533000D02*
X227692000Y-31983000D01*
G75*
G02*
X227892000Y-31783000I200000J0D01*
G01*
X228292000Y-31783000D01*
G75*
G02*
X228492000Y-31983000I0J-200000D01*
G01*
X228492000Y-32533000D01*
G75*
G02*
X228292000Y-32733000I-200000J0D01*
G01*
X227892000Y-32733000D01*
G75*
G02*
X227692000Y-32533000I0J200000D01*
G01*
G37*
%TD.AperFunction*%
%TD*%
%TO.P,R12,2*%
%TO.N,Net-(R12-Pad2)*%
%TA.AperFunction,SMDPad,CuDef*%
G36*
G01*
X229470000Y-31263000D02*
X229470000Y-30713000D01*
G75*
G02*
X229670000Y-30513000I200000J0D01*
G01*
X230070000Y-30513000D01*
G75*
G02*
X230270000Y-30713000I0J-200000D01*
G01*
X230270000Y-31263000D01*
G75*
G02*
X230070000Y-31463000I-200000J0D01*
G01*
X229670000Y-31463000D01*
G75*
G02*
X229470000Y-31263000I0J200000D01*
G01*
G37*
%TD.AperFunction*%
%TO.P,R12,1*%
%TO.N,A3*%
%TA.AperFunction,SMDPad,CuDef*%
G36*
G01*
X227820000Y-31263000D02*
X227820000Y-30713000D01*
G75*
G02*
X228020000Y-30513000I200000J0D01*
G01*
X228420000Y-30513000D01*
G75*
G02*
X228620000Y-30713000I0J-200000D01*
G01*
X228620000Y-31263000D01*
G75*
G02*
X228420000Y-31463000I-200000J0D01*
G01*
X228020000Y-31463000D01*
G75*
G02*
X227820000Y-31263000I0J200000D01*
G01*
G37*
%TD.AperFunction*%
%TD*%
%TO.P,R10,1*%
%TO.N,Net-(C8-Pad1)*%
%TA.AperFunction,SMDPad,CuDef*%
G36*
G01*
X243277500Y-32629001D02*
X243277500Y-31378999D01*
G75*
G02*
X243527499Y-31129000I249999J0D01*
G01*
X244152501Y-31129000D01*
G75*
G02*
X244402500Y-31378999I0J-249999D01*
G01*
X244402500Y-32629001D01*
G75*
G02*
X244152501Y-32879000I-249999J0D01*
G01*
X243527499Y-32879000D01*
G75*
G02*
X243277500Y-32629001I0J249999D01*
G01*
G37*
%TD.AperFunction*%
%TO.P,R10,2*%
%TO.N,Net-(J6-Pad3)*%
%TA.AperFunction,SMDPad,CuDef*%
G36*
G01*
X246202500Y-32629001D02*
X246202500Y-31378999D01*
G75*
G02*
X246452499Y-31129000I249999J0D01*
G01*
X247077501Y-31129000D01*
G75*
G02*
X247327500Y-31378999I0J-249999D01*
G01*
X247327500Y-32629001D01*
G75*
G02*
X247077501Y-32879000I-249999J0D01*
G01*
X246452499Y-32879000D01*
G75*
G02*
X246202500Y-32629001I0J249999D01*
G01*
G37*
%TD.AperFunction*%
%TD*%
%TO.P,R8,2*%
%TO.N,Net-(C8-Pad1)*%
%TA.AperFunction,SMDPad,CuDef*%
G36*
G01*
X242433001Y-31419500D02*
X241182999Y-31419500D01*
G75*
G02*
X240933000Y-31169501I0J249999D01*
G01*
X240933000Y-30544499D01*
G75*
G02*
X241182999Y-30294500I249999J0D01*
G01*
X242433001Y-30294500D01*
G75*
G02*
X242683000Y-30544499I0J-249999D01*
G01*
X242683000Y-31169501D01*
G75*
G02*
X242433001Y-31419500I-249999J0D01*
G01*
G37*
%TD.AperFunction*%
%TO.P,R8,1*%
%TO.N,Net-(J6-Pad2)*%
%TA.AperFunction,SMDPad,CuDef*%
G36*
G01*
X242433001Y-34344500D02*
X241182999Y-34344500D01*
G75*
G02*
X240933000Y-34094501I0J249999D01*
G01*
X240933000Y-33469499D01*
G75*
G02*
X241182999Y-33219500I249999J0D01*
G01*
X242433001Y-33219500D01*
G75*
G02*
X242683000Y-33469499I0J-249999D01*
G01*
X242683000Y-34094501D01*
G75*
G02*
X242433001Y-34344500I-249999J0D01*
G01*
G37*
%TD.AperFunction*%
%TD*%
%TO.P,R2,2*%
%TO.N,Net-(D1-Pad2)*%
%TA.AperFunction,SMDPad,CuDef*%
G36*
G01*
X211053000Y-44176000D02*
X211603000Y-44176000D01*
G75*
G02*
X211803000Y-44376000I0J-200000D01*
G01*
X211803000Y-44776000D01*
G75*
G02*
X211603000Y-44976000I-200000J0D01*
G01*
X211053000Y-44976000D01*
G75*
G02*
X210853000Y-44776000I0J200000D01*
G01*
X210853000Y-44376000D01*
G75*
G02*
X211053000Y-44176000I200000J0D01*
G01*
G37*
%TD.AperFunction*%
%TO.P,R2,1*%
%TO.N,VCC*%
%TA.AperFunction,SMDPad,CuDef*%
G36*
G01*
X211053000Y-42526000D02*
X211603000Y-42526000D01*
G75*
G02*
X211803000Y-42726000I0J-200000D01*
G01*
X211803000Y-43126000D01*
G75*
G02*
X211603000Y-43326000I-200000J0D01*
G01*
X211053000Y-43326000D01*
G75*
G02*
X210853000Y-43126000I0J200000D01*
G01*
X210853000Y-42726000D01*
G75*
G02*
X211053000Y-42526000I200000J0D01*
G01*
G37*
%TD.AperFunction*%
%TD*%
%TO.P,R1,2*%
%TO.N,RESET*%
%TA.AperFunction,SMDPad,CuDef*%
G36*
G01*
X230969000Y-36809000D02*
X230969000Y-37359000D01*
G75*
G02*
X230769000Y-37559000I-200000J0D01*
G01*
X230369000Y-37559000D01*
G75*
G02*
X230169000Y-37359000I0J200000D01*
G01*
X230169000Y-36809000D01*
G75*
G02*
X230369000Y-36609000I200000J0D01*
G01*
X230769000Y-36609000D01*
G75*
G02*
X230969000Y-36809000I0J-200000D01*
G01*
G37*
%TD.AperFunction*%
%TO.P,R1,1*%
%TO.N,VCC*%
%TA.AperFunction,SMDPad,CuDef*%
G36*
G01*
X232619000Y-36809000D02*
X232619000Y-37359000D01*
G75*
G02*
X232419000Y-37559000I-200000J0D01*
G01*
X232019000Y-37559000D01*
G75*
G02*
X231819000Y-37359000I0J200000D01*
G01*
X231819000Y-36809000D01*
G75*
G02*
X232019000Y-36609000I200000J0D01*
G01*
X232419000Y-36609000D01*
G75*
G02*
X232619000Y-36809000I0J-200000D01*
G01*
G37*
%TD.AperFunction*%
%TD*%
D19*
%TO.P,J6,4*%
%TO.N,GND*%
X246380000Y-53340000D03*
%TO.P,J6,3*%
%TO.N,Net-(J6-Pad3)*%
X246380000Y-50800000D03*
%TO.P,J6,2*%
%TO.N,Net-(J6-Pad2)*%
X246380000Y-48260000D03*
D20*
%TO.P,J6,1*%
%TO.N,VCC*%
X246380000Y-45720000D03*
%TD*%
D19*
%TO.P,J4,2*%
%TO.N,SDA*%
X246380000Y-40640000D03*
D20*
%TO.P,J4,1*%
%TO.N,SCL*%
X246380000Y-43180000D03*
%TD*%
D10*
%TO.P,J3,12*%
%TO.N,12VIN*%
X238760000Y-27940000D03*
%TO.P,J3,11*%
%TO.N,VCC*%
X236220000Y-27940000D03*
%TO.P,J3,10*%
%TO.N,GND*%
X233680000Y-27940000D03*
%TO.P,J3,9*%
%TO.N,RESET*%
X231140000Y-27940000D03*
%TO.P,J3,8*%
%TO.N,A3*%
X228600000Y-27940000D03*
%TO.P,J3,7*%
%TO.N,A2*%
X226060000Y-27940000D03*
%TO.P,J3,6*%
%TO.N,A1*%
X223520000Y-27940000D03*
%TO.P,J3,5*%
%TO.N,A0*%
X220980000Y-27940000D03*
%TO.P,J3,4*%
%TO.N,SDA*%
X218440000Y-27940000D03*
%TO.P,J3,3*%
%TO.N,SCL*%
X215900000Y-27940000D03*
%TO.P,J3,2*%
%TO.N,TXO*%
X213360000Y-27940000D03*
D11*
%TO.P,J3,1*%
%TO.N,RXI*%
X210820000Y-27940000D03*
%TD*%
D10*
%TO.P,J1,12*%
%TO.N,SCK*%
X238760000Y-53340000D03*
%TO.P,J1,11*%
%TO.N,MOSI*%
X236220000Y-53340000D03*
%TO.P,J1,10*%
%TO.N,MISO*%
X233680000Y-53340000D03*
%TO.P,J1,9*%
%TO.N,GND*%
X231140000Y-53340000D03*
%TO.P,J1,8*%
%TO.N,D9*%
X228600000Y-53340000D03*
%TO.P,J1,7*%
%TO.N,D8*%
X226060000Y-53340000D03*
%TO.P,J1,6*%
%TO.N,D7*%
X223520000Y-53340000D03*
%TO.P,J1,5*%
%TO.N,D6*%
X220980000Y-53340000D03*
%TO.P,J1,4*%
%TO.N,D5*%
X218440000Y-53340000D03*
%TO.P,J1,3*%
%TO.N,D4*%
X215900000Y-53340000D03*
%TO.P,J1,2*%
%TO.N,D3*%
X213360000Y-53340000D03*
D11*
%TO.P,J1,1*%
%TO.N,D2*%
X210820000Y-53340000D03*
%TD*%
D21*
%TO.P,D3,1*%
%TO.N,VCC*%
X237744000Y-37592000D03*
D22*
%TO.P,D3,2*%
%TO.N,Net-(D3-Pad2)*%
X239644000Y-37592000D03*
%TD*%
%TO.P,D1,2*%
%TO.N,Net-(D1-Pad2)*%
%TA.AperFunction,SMDPad,CuDef*%
G36*
G01*
X211584250Y-46614500D02*
X211071750Y-46614500D01*
G75*
G02*
X210853000Y-46395750I0J218750D01*
G01*
X210853000Y-45958250D01*
G75*
G02*
X211071750Y-45739500I218750J0D01*
G01*
X211584250Y-45739500D01*
G75*
G02*
X211803000Y-45958250I0J-218750D01*
G01*
X211803000Y-46395750D01*
G75*
G02*
X211584250Y-46614500I-218750J0D01*
G01*
G37*
%TD.AperFunction*%
%TO.P,D1,1*%
%TO.N,GND*%
%TA.AperFunction,SMDPad,CuDef*%
G36*
G01*
X211584250Y-48189500D02*
X211071750Y-48189500D01*
G75*
G02*
X210853000Y-47970750I0J218750D01*
G01*
X210853000Y-47533250D01*
G75*
G02*
X211071750Y-47314500I218750J0D01*
G01*
X211584250Y-47314500D01*
G75*
G02*
X211803000Y-47533250I0J-218750D01*
G01*
X211803000Y-47970750D01*
G75*
G02*
X211584250Y-48189500I-218750J0D01*
G01*
G37*
%TD.AperFunction*%
%TD*%
%TO.P,C7,2*%
%TO.N,GND*%
%TA.AperFunction,SMDPad,CuDef*%
G36*
G01*
X244178000Y-37058000D02*
X244518000Y-37058000D01*
G75*
G02*
X244658000Y-37198000I0J-140000D01*
G01*
X244658000Y-37478000D01*
G75*
G02*
X244518000Y-37618000I-140000J0D01*
G01*
X244178000Y-37618000D01*
G75*
G02*
X244038000Y-37478000I0J140000D01*
G01*
X244038000Y-37198000D01*
G75*
G02*
X244178000Y-37058000I140000J0D01*
G01*
G37*
%TD.AperFunction*%
%TO.P,C7,1*%
%TO.N,VCC*%
%TA.AperFunction,SMDPad,CuDef*%
G36*
G01*
X244178000Y-36098000D02*
X244518000Y-36098000D01*
G75*
G02*
X244658000Y-36238000I0J-140000D01*
G01*
X244658000Y-36518000D01*
G75*
G02*
X244518000Y-36658000I-140000J0D01*
G01*
X244178000Y-36658000D01*
G75*
G02*
X244038000Y-36518000I0J140000D01*
G01*
X244038000Y-36238000D01*
G75*
G02*
X244178000Y-36098000I140000J0D01*
G01*
G37*
%TD.AperFunction*%
%TD*%
D23*
%TO.N,GND*%
X218436347Y-49526347D03*
X217932000Y-46228000D03*
X226553575Y-45226963D03*
X220726000Y-47244000D03*
X240030000Y-39370000D03*
X243971653Y-38993653D03*
%TO.N,Net-(C1-Pad1)*%
X226314000Y-46228000D03*
%TO.N,VCC*%
X238919000Y-36068000D03*
X232156000Y-50800000D03*
X236728000Y-34366002D03*
X217174653Y-41143347D03*
X220980000Y-44450000D03*
X244856000Y-34798000D03*
%TO.N,RESET*%
X225044000Y-35052000D03*
X227584000Y-36068000D03*
X229108000Y-37084000D03*
%TO.N,Net-(C8-Pad1)*%
X244348000Y-29972000D03*
%TO.N,Net-(C9-Pad1)*%
X237744000Y-34290000D03*
X236474000Y-36322000D03*
%TO.N,D9*%
X222758000Y-48260000D03*
%TO.N,D4*%
X217932000Y-43688000D03*
%TO.N,D3*%
X217932000Y-42687997D03*
%TO.N,D2*%
X226314000Y-44196000D03*
X232410000Y-43180000D03*
%TO.N,SCL*%
X221483347Y-36834653D03*
X224013037Y-42686425D03*
%TO.N,SDA*%
X222758000Y-37084000D03*
X225044000Y-42926000D03*
%TO.N,TXO*%
X210058000Y-36576000D03*
X210058000Y-38608000D03*
%TO.N,A3*%
X225552000Y-39878000D03*
%TO.N,A2*%
X226563347Y-37841347D03*
%TO.N,A1*%
X225335000Y-34095276D03*
X226822000Y-33782000D03*
X226822000Y-36830000D03*
%TO.N,SCK*%
X227815456Y-49109240D03*
X223232949Y-46990000D03*
%TO.N,MISO*%
X227108348Y-49816348D03*
X224790000Y-47498000D03*
%TO.N,MOSI*%
X223957949Y-48052701D03*
%TO.N,Net-(J6-Pad3)*%
X246126000Y-33849235D03*
%TO.N,Net-(J6-Pad2)*%
X244348000Y-33782000D03*
%TO.N,Net-(R3-Pad1)*%
X228854000Y-50546000D03*
X232156000Y-49022000D03*
%TO.N,Net-(R15-Pad2)*%
X232918000Y-34544000D03*
%TO.N,Net-(R14-Pad2)*%
X232918000Y-33274000D03*
%TO.N,Net-(R13-Pad2)*%
X232918000Y-32258000D03*
%TO.N,Net-(R12-Pad2)*%
X232918000Y-31242000D03*
%TO.N,Net-(R9-Pad1)*%
X243332000Y-29972000D03*
%TO.N,Net-(U4-Pad8)*%
X236474000Y-45826011D03*
%TO.N,Net-(U4-Pad7)*%
X238252000Y-45826011D03*
%TO.N,Net-(U4-Pad2)*%
X241681138Y-41032659D03*
%TO.N,Net-(U4-Pad1)*%
X243332000Y-41148000D03*
%TD*%
D24*
%TO.N,GND*%
X224790000Y-31496000D02*
X224790000Y-29720820D01*
X219804999Y-28542999D02*
X219804999Y-27375999D01*
X220982820Y-29720820D02*
X219804999Y-28542999D01*
X224790000Y-29720820D02*
X223014820Y-29720820D01*
X223014820Y-29720820D02*
X222760820Y-29720820D01*
X220415999Y-26764999D02*
X233520999Y-26764999D01*
X219804999Y-27375999D02*
X220415999Y-26764999D01*
X233680000Y-26924000D02*
X233680000Y-27940000D01*
X233520999Y-26764999D02*
X233680000Y-26924000D01*
X245204999Y-54515001D02*
X246380000Y-53340000D01*
X232315001Y-54515001D02*
X245204999Y-54515001D01*
X231140000Y-53340000D02*
X232315001Y-54515001D01*
X214482999Y-51190001D02*
X214547999Y-51255001D01*
X214482999Y-49605001D02*
X214482999Y-51190001D01*
X214558000Y-49530000D02*
X214482999Y-49605001D01*
X216408000Y-49530000D02*
X214558000Y-49530000D01*
X214831001Y-51255001D02*
X214884000Y-51308000D01*
X214547999Y-51255001D02*
X214831001Y-51255001D01*
X214884000Y-51308000D02*
X217170000Y-51308000D01*
X220415999Y-54515001D02*
X229964999Y-54515001D01*
X220002998Y-54102000D02*
X220415999Y-54515001D01*
X219417002Y-54102000D02*
X220002998Y-54102000D01*
X219004001Y-54515001D02*
X219417002Y-54102000D01*
X229964999Y-54515001D02*
X231140000Y-53340000D01*
X217875999Y-54515001D02*
X219004001Y-54515001D01*
X217170000Y-51308000D02*
X217170000Y-53809002D01*
X218432694Y-49530000D02*
X218436347Y-49526347D01*
X216408000Y-49530000D02*
X218432694Y-49530000D01*
X218040000Y-46120000D02*
X217932000Y-46228000D01*
X219270000Y-46120000D02*
X218040000Y-46120000D01*
X240030000Y-40132000D02*
X240030000Y-39116000D01*
X226646612Y-45320000D02*
X226553575Y-45226963D01*
X227770000Y-45320000D02*
X226646612Y-45320000D01*
X221488000Y-29972000D02*
X221739180Y-29720820D01*
X221488000Y-31242000D02*
X221488000Y-29972000D01*
X221739180Y-29720820D02*
X220982820Y-29720820D01*
X223014820Y-29720820D02*
X221739180Y-29720820D01*
X208280000Y-45720000D02*
X208280000Y-48260000D01*
X210820000Y-48260000D02*
X211328000Y-47752000D01*
X208280000Y-48260000D02*
X210820000Y-48260000D01*
X217424000Y-54610000D02*
X217697499Y-54336501D01*
X209804998Y-54610000D02*
X217424000Y-54610000D01*
X209644999Y-54450001D02*
X209804998Y-54610000D01*
X209644999Y-49435001D02*
X209644999Y-54450001D01*
X211328000Y-47752000D02*
X209644999Y-49435001D01*
X217697499Y-54336501D02*
X217875999Y-54515001D01*
X217170000Y-53809002D02*
X217697499Y-54336501D01*
X220167685Y-46120000D02*
X219270000Y-46120000D01*
X220726000Y-46678315D02*
X220167685Y-46120000D01*
X220726000Y-47244000D02*
X220726000Y-46678315D01*
X243332000Y-50292000D02*
X246380000Y-53340000D01*
X244856000Y-40132000D02*
X244856000Y-50292000D01*
X240030000Y-40132000D02*
X244856000Y-40132000D01*
X243332000Y-50292000D02*
X244856000Y-50292000D01*
X243078000Y-38100000D02*
X243971653Y-38993653D01*
X243078000Y-37846000D02*
X243078000Y-38100000D01*
X243586000Y-37338000D02*
X243078000Y-37846000D01*
X244348000Y-37338000D02*
X243586000Y-37338000D01*
%TO.N,Net-(C1-Pad1)*%
X227662000Y-46228000D02*
X227770000Y-46120000D01*
X226314000Y-46228000D02*
X227662000Y-46228000D01*
%TO.N,VCC*%
X237744000Y-37243000D02*
X238919000Y-36068000D01*
X237744000Y-37592000D02*
X237744000Y-37243000D01*
X219416000Y-45466000D02*
X219270000Y-45320000D01*
X234365998Y-34937002D02*
X232219000Y-37084000D01*
X234365998Y-34366002D02*
X234365998Y-34937002D01*
X236728000Y-34366002D02*
X234365998Y-34366002D01*
X234365998Y-34366002D02*
X234188000Y-34366002D01*
X217822999Y-30116999D02*
X218948000Y-31242000D01*
X214993001Y-30116999D02*
X217822999Y-30116999D01*
X213868000Y-31242000D02*
X214993001Y-30116999D01*
X226732998Y-47720000D02*
X227770000Y-47720000D01*
X224332998Y-45320000D02*
X226732998Y-47720000D01*
X219270000Y-45320000D02*
X224332998Y-45320000D01*
X211074000Y-43180000D02*
X211328000Y-42926000D01*
X208280000Y-43180000D02*
X211074000Y-43180000D01*
X240804999Y-38467001D02*
X241554000Y-37718000D01*
X238619001Y-38467001D02*
X240804999Y-38467001D01*
X237744000Y-37592000D02*
X238619001Y-38467001D01*
X247680000Y-45720000D02*
X246380000Y-45720000D01*
X247755001Y-39979999D02*
X247755001Y-45644999D01*
X247755001Y-45644999D02*
X247680000Y-45720000D01*
X212710653Y-41143347D02*
X217174653Y-41143347D01*
X211328000Y-42526000D02*
X212710653Y-41143347D01*
X211328000Y-42926000D02*
X211328000Y-42526000D01*
X220980000Y-44450000D02*
X220980000Y-45212000D01*
X231648000Y-50292000D02*
X232156000Y-50800000D01*
X230730000Y-50292000D02*
X231648000Y-50292000D01*
X241554000Y-36068000D02*
X241554000Y-34798000D01*
X241554000Y-34798000D02*
X244856000Y-34798000D01*
X244856000Y-34798000D02*
X244856000Y-38608000D01*
X244856000Y-38608000D02*
X247650000Y-38608000D01*
X247650000Y-39874998D02*
X247755001Y-39979999D01*
X247650000Y-38608000D02*
X247650000Y-39874998D01*
X242950000Y-36068000D02*
X243078000Y-36196000D01*
X241554000Y-36068000D02*
X242950000Y-36068000D01*
X244166000Y-36196000D02*
X244348000Y-36378000D01*
X243078000Y-36196000D02*
X244166000Y-36196000D01*
%TO.N,RESET*%
X228945010Y-31480468D02*
X228945010Y-35162468D01*
X229050008Y-31375470D02*
X228945010Y-31480468D01*
X229050010Y-30029990D02*
X229050008Y-31375470D01*
X231140000Y-27940000D02*
X229050010Y-30029990D01*
X225310020Y-37656000D02*
X224790000Y-37656000D01*
X223120000Y-41470000D02*
X223120000Y-38246000D01*
X223710000Y-37656000D02*
X224790000Y-37656000D01*
X223120000Y-38246000D02*
X223710000Y-37656000D01*
X225645002Y-36800998D02*
X224790000Y-37656000D01*
X224790000Y-36156000D02*
X224790000Y-37656000D01*
X228945010Y-35162468D02*
X228945010Y-35218488D01*
X230569000Y-36483998D02*
X230569000Y-37084000D01*
X229899002Y-35814000D02*
X230569000Y-36483998D01*
X229540522Y-35814000D02*
X229899002Y-35814000D01*
X224961000Y-35135000D02*
X225044000Y-35052000D01*
X224961000Y-35985000D02*
X224961000Y-35135000D01*
X224961000Y-35985000D02*
X224790000Y-36156000D01*
X224790000Y-37656000D02*
X225488000Y-37656000D01*
X228945010Y-35218488D02*
X229540522Y-35814000D01*
X224790000Y-37656000D02*
X226378000Y-36068000D01*
X226378000Y-36068000D02*
X226822000Y-36068000D01*
X226822000Y-36068000D02*
X227330000Y-36068000D01*
X227330000Y-36068000D02*
X227584000Y-36068000D01*
X229108000Y-37084000D02*
X230569000Y-37084000D01*
%TO.N,Net-(C8-Pad1)*%
X241808000Y-30857000D02*
X241808000Y-32004000D01*
X242062000Y-32258000D02*
X243963000Y-32258000D01*
X241808000Y-32004000D02*
X242062000Y-32258000D01*
X241491000Y-30540000D02*
X241808000Y-30857000D01*
X241491000Y-28702000D02*
X241491000Y-30540000D01*
X244348000Y-29972000D02*
X244348000Y-30226000D01*
X243840000Y-30734000D02*
X243840000Y-32004000D01*
X244348000Y-30226000D02*
X243840000Y-30734000D01*
%TO.N,Net-(C9-Pad1)*%
X237744000Y-35052000D02*
X236474000Y-36322000D01*
X237744000Y-34290000D02*
X237744000Y-35052000D01*
%TO.N,Net-(D1-Pad2)*%
X211328000Y-44576000D02*
X211328000Y-46177000D01*
%TO.N,Net-(D3-Pad2)*%
X239268000Y-34925000D02*
X239268000Y-33655000D01*
X239268000Y-33655000D02*
X239268000Y-32385000D01*
X239268000Y-31115000D02*
X239268000Y-32385000D01*
X239268000Y-34925000D02*
X239903000Y-34925000D01*
X239644000Y-35184000D02*
X239644000Y-37592000D01*
X239903000Y-34925000D02*
X239644000Y-35184000D01*
%TO.N,D9*%
X223920000Y-49970000D02*
X223920000Y-51606989D01*
X223920000Y-51606989D02*
X224028001Y-51714990D01*
X228130998Y-52870998D02*
X228600000Y-53340000D01*
X227330000Y-52870998D02*
X228130998Y-52870998D01*
X224028001Y-51714990D02*
X225071400Y-51714990D01*
X226624001Y-52164999D02*
X227330000Y-52870998D01*
X225521409Y-52164999D02*
X226624001Y-52164999D01*
X225071400Y-51714990D02*
X225521409Y-52164999D01*
X223920000Y-49109998D02*
X223920000Y-49970000D01*
X223070002Y-48260000D02*
X223920000Y-49109998D01*
X222758000Y-48260000D02*
X223070002Y-48260000D01*
%TO.N,D8*%
X223120000Y-49970000D02*
X223120000Y-52018999D01*
X224884999Y-52164999D02*
X226060000Y-53340000D01*
X223266000Y-52164999D02*
X224884999Y-52164999D01*
X223120000Y-52018999D02*
X223266000Y-52164999D01*
%TO.N,D7*%
X222320000Y-52140000D02*
X223520000Y-53340000D01*
X222320000Y-49970000D02*
X222320000Y-52140000D01*
%TO.N,D6*%
X221520000Y-52800000D02*
X220980000Y-53340000D01*
X221520000Y-49970000D02*
X221520000Y-52800000D01*
%TO.N,D5*%
X220720000Y-49970000D02*
X220720000Y-52064000D01*
X219615001Y-52164999D02*
X218440000Y-53340000D01*
X220619001Y-52164999D02*
X219615001Y-52164999D01*
X220720000Y-52064000D02*
X220619001Y-52164999D01*
%TO.N,D4*%
X217964000Y-43720000D02*
X217932000Y-43688000D01*
X219270000Y-43720000D02*
X217964000Y-43720000D01*
%TO.N,D3*%
X218497685Y-42687997D02*
X218694000Y-42884312D01*
X217932000Y-42687997D02*
X218497685Y-42687997D01*
X219234312Y-42884312D02*
X219270000Y-42920000D01*
X218694000Y-42884312D02*
X219234312Y-42884312D01*
%TO.N,D2*%
X216101001Y-47804999D02*
X214547999Y-47804999D01*
X214547999Y-47804999D02*
X214371599Y-47981399D01*
X216662000Y-47244000D02*
X216101001Y-47804999D01*
X216662000Y-42884995D02*
X216662000Y-47244000D01*
X218076995Y-41470000D02*
X216662000Y-42884995D01*
X220720000Y-41470000D02*
X218076995Y-41470000D01*
X214371599Y-49079991D02*
X213868000Y-49583590D01*
X214371599Y-47981399D02*
X214371599Y-49079991D01*
X213773001Y-52164999D02*
X212795999Y-52164999D01*
X213868000Y-52070000D02*
X213773001Y-52164999D01*
X213868000Y-49583590D02*
X213868000Y-52070000D01*
X211620998Y-53340000D02*
X210820000Y-53340000D01*
X212795999Y-52164999D02*
X211620998Y-53340000D01*
X226277001Y-44159001D02*
X226314000Y-44196000D01*
X222359001Y-44159001D02*
X226277001Y-44159001D01*
X220720000Y-42520000D02*
X222359001Y-44159001D01*
X220720000Y-41470000D02*
X220720000Y-42520000D01*
X232410000Y-43180000D02*
X232410000Y-42926000D01*
X232156000Y-42672000D02*
X230730000Y-42672000D01*
X232410000Y-42926000D02*
X232156000Y-42672000D01*
%TO.N,SCL*%
X212742999Y-31782001D02*
X213472998Y-32512000D01*
X212742999Y-30701999D02*
X212742999Y-31782001D01*
X215504998Y-27940000D02*
X212742999Y-30701999D01*
X215900000Y-27940000D02*
X215504998Y-27940000D01*
X213472998Y-32512000D02*
X219456000Y-32512000D01*
X219456000Y-34807306D02*
X221483347Y-36834653D01*
X219456000Y-32512000D02*
X219456000Y-34807306D01*
X224013037Y-41563037D02*
X223920000Y-41470000D01*
X224013037Y-42686425D02*
X224013037Y-41563037D01*
%TO.N,SDA*%
X220073001Y-34399001D02*
X222758000Y-37084000D01*
X220073001Y-29573001D02*
X220073001Y-34399001D01*
X218440000Y-27940000D02*
X220073001Y-29573001D01*
X224790000Y-41540000D02*
X224720000Y-41470000D01*
X225044000Y-42926000D02*
X224790000Y-42926000D01*
X224790000Y-42926000D02*
X224790000Y-41540000D01*
%TO.N,RXI*%
X210820000Y-27940000D02*
X210820000Y-28448000D01*
X210820000Y-28448000D02*
X209550000Y-29718000D01*
X209550000Y-29718000D02*
X209550000Y-34036000D01*
X207104999Y-36924999D02*
X208280000Y-38100000D01*
X207104999Y-34449999D02*
X207104999Y-36924999D01*
X207518998Y-34036000D02*
X207104999Y-34449999D01*
X209550000Y-34036000D02*
X207518998Y-34036000D01*
X222320000Y-40420000D02*
X222320000Y-41470000D01*
X222613001Y-40126999D02*
X222320000Y-40420000D01*
X222613001Y-38321999D02*
X222613001Y-40126999D01*
X222028001Y-37736999D02*
X222613001Y-38321999D01*
X208643001Y-37736999D02*
X222028001Y-37736999D01*
X208280000Y-38100000D02*
X208643001Y-37736999D01*
%TO.N,TXO*%
X213360000Y-27940000D02*
X211836000Y-29464000D01*
X211836000Y-29464000D02*
X210440410Y-29464000D01*
X210440410Y-29464000D02*
X210000010Y-29904400D01*
X221520000Y-40420000D02*
X221520000Y-41470000D01*
X221444999Y-40344999D02*
X221520000Y-40420000D01*
X208280000Y-40640000D02*
X208575001Y-40344999D01*
X210000010Y-36518010D02*
X210058000Y-36576000D01*
X210000010Y-29904400D02*
X210000010Y-36518010D01*
X210058000Y-38608000D02*
X210058000Y-40303998D01*
X210099001Y-40344999D02*
X221444999Y-40344999D01*
X210058000Y-40303998D02*
X210099001Y-40344999D01*
X208575001Y-40344999D02*
X210099001Y-40344999D01*
%TO.N,A3*%
X228600000Y-30608000D02*
X228220000Y-30988000D01*
X228600000Y-27940000D02*
X228600000Y-30608000D01*
X225552000Y-41438000D02*
X225520000Y-41470000D01*
X225552000Y-39878000D02*
X225552000Y-41438000D01*
%TO.N,A2*%
X227494990Y-30495532D02*
X227494990Y-31660990D01*
X228149990Y-30187990D02*
X227802532Y-30187990D01*
X228149990Y-29267990D02*
X228149990Y-30187990D01*
X228092000Y-29210000D02*
X228149990Y-29267990D01*
X227838000Y-29210000D02*
X228092000Y-29210000D01*
X227802532Y-30187990D02*
X227494990Y-30495532D01*
X227424999Y-28796999D02*
X227838000Y-29210000D01*
X227424999Y-28288999D02*
X227424999Y-28796999D01*
X227494990Y-31660990D02*
X228092000Y-32258000D01*
X227076000Y-27940000D02*
X227424999Y-28288999D01*
X226060000Y-27940000D02*
X227076000Y-27940000D01*
X226563347Y-41226653D02*
X226320000Y-41470000D01*
X226563347Y-37841347D02*
X226563347Y-41226653D01*
%TO.N,A1*%
X223520000Y-27940000D02*
X224282000Y-27940000D01*
X226662999Y-29115001D02*
X226974989Y-28803011D01*
X225457001Y-29115001D02*
X226662999Y-29115001D01*
X224282000Y-27940000D02*
X225457001Y-29115001D01*
X226974989Y-28803011D02*
X226974990Y-28983400D01*
X226974990Y-28983400D02*
X227699980Y-29708390D01*
X227699980Y-29708390D02*
X227699980Y-29737980D01*
X227616131Y-29737981D02*
X227044980Y-30309132D01*
X227699980Y-29737980D02*
X227616131Y-29737981D01*
X228144522Y-33528000D02*
X228220000Y-33528000D01*
X227330000Y-32713478D02*
X228144522Y-33528000D01*
X227330000Y-32258000D02*
X227330000Y-32713478D01*
X227044980Y-31972980D02*
X227330000Y-32258000D01*
X227044980Y-30309132D02*
X227044980Y-31972980D01*
X227076000Y-37270000D02*
X227076000Y-42920000D01*
X226508724Y-34095276D02*
X226822000Y-33782000D01*
X225335000Y-34095276D02*
X226508724Y-34095276D01*
X226822000Y-37016000D02*
X227076000Y-37270000D01*
X226822000Y-36830000D02*
X226822000Y-37016000D01*
%TO.N,A0*%
X227494990Y-33514878D02*
X227494990Y-34200990D01*
X226879991Y-32899879D02*
X227494990Y-33514878D01*
X222250000Y-28409002D02*
X222955999Y-29115001D01*
X224282000Y-28956000D02*
X224661590Y-28956000D01*
X227494990Y-34200990D02*
X228092000Y-34798000D01*
X224661590Y-28956000D02*
X225270601Y-29565011D01*
X224122999Y-29115001D02*
X224282000Y-28956000D01*
X226879990Y-32569990D02*
X226879991Y-32899879D01*
X222250000Y-27940000D02*
X222250000Y-28409002D01*
X225270601Y-29565011D02*
X226849399Y-29565011D01*
X226849399Y-29565011D02*
X227001045Y-29716657D01*
X220980000Y-27940000D02*
X222250000Y-27940000D01*
X222955999Y-29115001D02*
X224122999Y-29115001D01*
X227001045Y-29716657D02*
X226594970Y-30122732D01*
X226594970Y-30122732D02*
X226594970Y-32284970D01*
X226594970Y-32284970D02*
X226879990Y-32569990D01*
X228092000Y-36955590D02*
X228220010Y-37083600D01*
X228220010Y-37083600D02*
X228220010Y-42319999D01*
X228830001Y-42319999D02*
X228895001Y-42384999D01*
X228220010Y-42319999D02*
X228830001Y-42319999D01*
X228895001Y-42384999D02*
X228895001Y-43392999D01*
X228568000Y-43720000D02*
X227770000Y-43720000D01*
X228895001Y-43392999D02*
X228568000Y-43720000D01*
X228092000Y-34798000D02*
X228092000Y-35052000D01*
X228092000Y-35052000D02*
X228600000Y-35560000D01*
X228600000Y-36447590D02*
X228092000Y-36955590D01*
X228600000Y-35560000D02*
X228600000Y-36447590D01*
%TO.N,SCK*%
X238290998Y-52870998D02*
X238760000Y-53340000D01*
X237490000Y-52870998D02*
X238290998Y-52870998D01*
X236784001Y-52164999D02*
X237490000Y-52870998D01*
X235655999Y-52164999D02*
X236784001Y-52164999D01*
X235400010Y-52420988D02*
X235655999Y-52164999D01*
X235300988Y-52420988D02*
X235400010Y-52420988D01*
X231755000Y-43942000D02*
X233172000Y-45359000D01*
X230730000Y-43942000D02*
X231755000Y-43942000D01*
X227770000Y-49063784D02*
X227815456Y-49109240D01*
X227770000Y-48520000D02*
X227770000Y-49063784D01*
X233172000Y-45359000D02*
X233934000Y-45359000D01*
X233934000Y-51054000D02*
X234442000Y-51562000D01*
X233934000Y-45359000D02*
X233934000Y-51054000D01*
X234442000Y-51562000D02*
X234950000Y-52070000D01*
X234950000Y-52070000D02*
X235300988Y-52420988D01*
X234567591Y-51687591D02*
X234950000Y-52070000D01*
X226885002Y-48520000D02*
X227770000Y-48520000D01*
X224955003Y-46590001D02*
X226885002Y-48520000D01*
X223632948Y-46590001D02*
X224955003Y-46590001D01*
X223232949Y-46990000D02*
X223632948Y-46590001D01*
%TO.N,MISO*%
X233172000Y-53340000D02*
X233680000Y-53340000D01*
X226473652Y-49816348D02*
X226320000Y-49970000D01*
X227108348Y-49816348D02*
X226473652Y-49816348D01*
X232918000Y-52578000D02*
X233680000Y-53340000D01*
X232918000Y-46883000D02*
X232918000Y-52578000D01*
X232156000Y-46883000D02*
X232918000Y-46883000D01*
X231755000Y-46482000D02*
X232156000Y-46883000D01*
X230730000Y-46482000D02*
X231755000Y-46482000D01*
X221488000Y-38862000D02*
X221234000Y-38862000D01*
X226320000Y-49028000D02*
X226320000Y-49970000D01*
X224790000Y-47498000D02*
X226320000Y-49028000D01*
%TO.N,MOSI*%
X228895001Y-45855001D02*
X229910999Y-45855001D01*
X229910999Y-45855001D02*
X230554000Y-45212000D01*
X228895001Y-49055001D02*
X228895001Y-45855001D01*
X226855001Y-51095001D02*
X228895001Y-49055001D01*
X225784999Y-51095001D02*
X226855001Y-51095001D01*
X225520000Y-50830002D02*
X225784999Y-51095001D01*
X225520000Y-49970000D02*
X225520000Y-50830002D01*
X234950000Y-52870998D02*
X235750998Y-52870998D01*
X235750998Y-52870998D02*
X236220000Y-53340000D01*
X234216602Y-52137600D02*
X234950000Y-52870998D01*
X231755000Y-45212000D02*
X232606010Y-46063010D01*
X230730000Y-45212000D02*
X231755000Y-45212000D01*
X233368010Y-46063010D02*
X232606010Y-46063010D01*
X233747600Y-52137600D02*
X234216602Y-52137600D01*
X233368010Y-51758010D02*
X233747600Y-52137600D01*
X233368010Y-51365990D02*
X233368010Y-51758010D01*
X233368010Y-46063010D02*
X233368010Y-51365990D01*
X224357948Y-48452700D02*
X224982700Y-48452700D01*
X223957949Y-48052701D02*
X224357948Y-48452700D01*
X225520000Y-48990000D02*
X225520000Y-49970000D01*
X224982700Y-48452700D02*
X225520000Y-48990000D01*
%TO.N,Net-(J6-Pad3)*%
X248655020Y-38340200D02*
X247906820Y-37592000D01*
X248655020Y-48524980D02*
X248655020Y-38340200D01*
X246380000Y-50800000D02*
X248655020Y-48524980D01*
X247906820Y-37592000D02*
X246380000Y-37592000D01*
X246380000Y-34223692D02*
X246005543Y-33849235D01*
X246380000Y-37592000D02*
X246380000Y-34223692D01*
X246765000Y-33210235D02*
X246126000Y-33849235D01*
X246765000Y-32004000D02*
X246765000Y-33210235D01*
%TO.N,Net-(J6-Pad2)*%
X241808000Y-33782000D02*
X244348000Y-33782000D01*
X248205011Y-38526601D02*
X247778410Y-38100000D01*
X248205011Y-47919913D02*
X248205011Y-38526601D01*
X247864924Y-48260000D02*
X248205011Y-47919913D01*
X246380000Y-48260000D02*
X247864924Y-48260000D01*
X245618000Y-38100000D02*
X245560010Y-38157990D01*
X247778410Y-38100000D02*
X245618000Y-38100000D01*
X244913002Y-33782000D02*
X244348000Y-33782000D01*
X245581001Y-35146001D02*
X245581001Y-34449999D01*
X245364000Y-35363002D02*
X245581001Y-35146001D01*
X245364000Y-38100000D02*
X245364000Y-35363002D01*
X245421990Y-38157990D02*
X245364000Y-38100000D01*
X245581001Y-34449999D02*
X244913002Y-33782000D01*
X245560010Y-38157990D02*
X245421990Y-38157990D01*
%TO.N,Net-(R3-Pad1)*%
X230303232Y-49022000D02*
X228959859Y-50365373D01*
X228959859Y-50365373D02*
X228959859Y-50651859D01*
X230730000Y-49022000D02*
X230303232Y-49022000D01*
X230730000Y-49022000D02*
X232156000Y-49022000D01*
%TO.N,Net-(R15-Pad2)*%
X229869000Y-34925000D02*
X229742000Y-34798000D01*
X231648000Y-34925000D02*
X229869000Y-34925000D01*
X232537000Y-34925000D02*
X231648000Y-34925000D01*
X232918000Y-34544000D02*
X232537000Y-34925000D01*
%TO.N,Net-(R14-Pad2)*%
X229997000Y-33655000D02*
X229870000Y-33528000D01*
X231648000Y-33655000D02*
X229997000Y-33655000D01*
X232918000Y-33274000D02*
X232918000Y-33782000D01*
X231775000Y-33782000D02*
X231648000Y-33655000D01*
X232918000Y-33782000D02*
X231775000Y-33782000D01*
%TO.N,Net-(R13-Pad2)*%
X229869000Y-32385000D02*
X229742000Y-32258000D01*
X231648000Y-32639000D02*
X229869000Y-32639000D01*
X231775000Y-32258000D02*
X231648000Y-32385000D01*
X232918000Y-32258000D02*
X231775000Y-32258000D01*
%TO.N,Net-(R12-Pad2)*%
X229997000Y-31115000D02*
X229870000Y-30988000D01*
X231648000Y-31115000D02*
X229997000Y-31115000D01*
X232791000Y-31115000D02*
X232918000Y-31242000D01*
X231648000Y-31115000D02*
X232791000Y-31115000D01*
%TO.N,Net-(R9-Pad1)*%
X243141000Y-29781000D02*
X243332000Y-29972000D01*
X243141000Y-28702000D02*
X243141000Y-29781000D01*
%TO.N,SS*%
X227041402Y-51545010D02*
X229362000Y-49224412D01*
X225598599Y-51545011D02*
X227041402Y-51545010D01*
X225148589Y-51095001D02*
X225598599Y-51545011D01*
X224795001Y-51095001D02*
X225148589Y-51095001D01*
X224720000Y-51020000D02*
X224795001Y-51095001D01*
X224720000Y-49970000D02*
X224720000Y-51020000D01*
X229705000Y-47752000D02*
X230730000Y-47752000D01*
X229362000Y-48095000D02*
X229705000Y-47752000D01*
X229362000Y-49224412D02*
X229362000Y-48095000D01*
%TO.N,Net-(U1-Pad8)*%
X218258000Y-50730000D02*
X216408000Y-50730000D01*
X219270000Y-49718000D02*
X218258000Y-50730000D01*
X219270000Y-48520000D02*
X219270000Y-49718000D01*
%TO.N,Net-(U1-Pad7)*%
X217018000Y-47720000D02*
X216408000Y-48330000D01*
X219270000Y-47720000D02*
X217018000Y-47720000D01*
%TO.N,Net-(U4-Pad8)*%
X236474000Y-41402000D02*
X240030000Y-41402000D01*
X236474000Y-45826011D02*
X236474000Y-41402000D01*
%TO.N,Net-(U4-Pad7)*%
X238252000Y-45826011D02*
X238252000Y-42672000D01*
X238252000Y-42672000D02*
X240030000Y-42672000D01*
%TO.N,Net-(U4-Pad2)*%
X241681138Y-48395862D02*
X241681138Y-41032659D01*
X241055000Y-49022000D02*
X241681138Y-48395862D01*
X240030000Y-49022000D02*
X241055000Y-49022000D01*
%TO.N,Net-(U4-Pad1)*%
X241055000Y-50292000D02*
X240030000Y-50292000D01*
X243332000Y-48015000D02*
X241055000Y-50292000D01*
X243332000Y-41148000D02*
X243332000Y-48015000D01*
%TD*%
M02*
