%TF.GenerationSoftware,KiCad,Pcbnew,(5.1.7)-1*%
%TF.CreationDate,2020-10-24T02:10:46+09:00*%
%TF.ProjectId,canboard,63616e62-6f61-4726-942e-6b696361645f,rev?*%
%TF.SameCoordinates,Original*%
%TF.FileFunction,Legend,Bot*%
%TF.FilePolarity,Positive*%
%FSLAX46Y46*%
G04 Gerber Fmt 4.6, Leading zero omitted, Abs format (unit mm)*
G04 Created by KiCad (PCBNEW (5.1.7)-1) date 2020-10-24 02:10:46*
%MOMM*%
%LPD*%
G01*
G04 APERTURE LIST*
%ADD10C,0.120000*%
%ADD11C,0.150000*%
G04 APERTURE END LIST*
D10*
%TO.C,U5*%
X248051000Y-34290000D02*
X248051000Y-37740000D01*
X248051000Y-34290000D02*
X248051000Y-32340000D01*
X242931000Y-34290000D02*
X242931000Y-36240000D01*
X242931000Y-34290000D02*
X242931000Y-32340000D01*
%TO.C,Y2*%
X237420000Y-46136000D02*
X235420000Y-46136000D01*
X235420000Y-49736000D02*
X237420000Y-49736000D01*
X235020000Y-48686000D02*
X234620000Y-48686000D01*
X237420000Y-49936000D02*
X235420000Y-49936000D01*
X235420000Y-46136000D02*
X235020000Y-46136000D01*
X235420000Y-49736000D02*
X235020000Y-49736000D01*
X235420000Y-49936000D02*
X235020000Y-49936000D01*
X237420000Y-49736000D02*
X237420000Y-49586000D01*
X235020000Y-49736000D02*
X235020000Y-49586000D01*
X235020000Y-48686000D02*
X235020000Y-48736000D01*
X235020000Y-46136000D02*
X235020000Y-46286000D01*
X237420000Y-46136000D02*
X237420000Y-46286000D01*
%TO.C,U2*%
X233572000Y-31816000D02*
X233572000Y-37826000D01*
X240392000Y-34066000D02*
X240392000Y-37826000D01*
X233572000Y-37826000D02*
X234832000Y-37826000D01*
X240392000Y-37826000D02*
X239132000Y-37826000D01*
%TO.C,R17*%
X235441258Y-31002500D02*
X234966742Y-31002500D01*
X235441258Y-29957500D02*
X234966742Y-29957500D01*
%TO.C,R11*%
X217440742Y-32751500D02*
X217915258Y-32751500D01*
X217440742Y-33796500D02*
X217915258Y-33796500D01*
%TO.C,R7*%
X231377258Y-31764500D02*
X230902742Y-31764500D01*
X231377258Y-30719500D02*
X230902742Y-30719500D01*
%TO.C,R6*%
X231314258Y-33034500D02*
X230839742Y-33034500D01*
X231314258Y-31989500D02*
X230839742Y-31989500D01*
%TO.C,R5*%
X231314258Y-34304500D02*
X230839742Y-34304500D01*
X231314258Y-33259500D02*
X230839742Y-33259500D01*
%TO.C,R4*%
X231440258Y-35574500D02*
X230965742Y-35574500D01*
X231440258Y-34529500D02*
X230965742Y-34529500D01*
%TO.C,R3*%
X233694500Y-49609742D02*
X233694500Y-50084258D01*
X232649500Y-49609742D02*
X232649500Y-50084258D01*
%TO.C,D2*%
X236940000Y-31534000D02*
X239990000Y-31534000D01*
X236940000Y-29934000D02*
X236940000Y-31534000D01*
X239990000Y-29934000D02*
X236940000Y-29934000D01*
%TO.C,C9*%
X232945000Y-39885252D02*
X232945000Y-39362748D01*
X234415000Y-39885252D02*
X234415000Y-39362748D01*
%TO.C,C8*%
X246480420Y-28192000D02*
X246761580Y-28192000D01*
X246480420Y-29212000D02*
X246761580Y-29212000D01*
%TO.C,C6*%
X246780164Y-29612000D02*
X246995836Y-29612000D01*
X246780164Y-30332000D02*
X246995836Y-30332000D01*
%TO.C,C5*%
X220325836Y-33380000D02*
X220110164Y-33380000D01*
X220325836Y-32660000D02*
X220110164Y-32660000D01*
%TO.C,C4*%
X239375836Y-35158000D02*
X239160164Y-35158000D01*
X239375836Y-34438000D02*
X239160164Y-34438000D01*
%TO.C,C3*%
X210966164Y-29866000D02*
X211181836Y-29866000D01*
X210966164Y-30586000D02*
X211181836Y-30586000D01*
%TO.C,C2*%
X222102000Y-46628164D02*
X222102000Y-46843836D01*
X221382000Y-46628164D02*
X221382000Y-46843836D01*
%TO.C,C1*%
X225164000Y-45799836D02*
X225164000Y-45584164D01*
X225884000Y-45799836D02*
X225884000Y-45584164D01*
%TO.C,U5*%
D11*
X248343380Y-33528095D02*
X249152904Y-33528095D01*
X249248142Y-33575714D01*
X249295761Y-33623333D01*
X249343380Y-33718571D01*
X249343380Y-33909047D01*
X249295761Y-34004285D01*
X249248142Y-34051904D01*
X249152904Y-34099523D01*
X248343380Y-34099523D01*
X248343380Y-35051904D02*
X248343380Y-34575714D01*
X248819571Y-34528095D01*
X248771952Y-34575714D01*
X248724333Y-34670952D01*
X248724333Y-34909047D01*
X248771952Y-35004285D01*
X248819571Y-35051904D01*
X248914809Y-35099523D01*
X249152904Y-35099523D01*
X249248142Y-35051904D01*
X249295761Y-35004285D01*
X249343380Y-34909047D01*
X249343380Y-34670952D01*
X249295761Y-34575714D01*
X249248142Y-34528095D01*
%TO.C,Y2*%
X238646190Y-47459809D02*
X239122380Y-47459809D01*
X238122380Y-47126476D02*
X238646190Y-47459809D01*
X238122380Y-47793142D01*
X238217619Y-48078857D02*
X238170000Y-48126476D01*
X238122380Y-48221714D01*
X238122380Y-48459809D01*
X238170000Y-48555047D01*
X238217619Y-48602666D01*
X238312857Y-48650285D01*
X238408095Y-48650285D01*
X238550952Y-48602666D01*
X239122380Y-48031238D01*
X239122380Y-48650285D01*
%TO.C,U2*%
X231934380Y-35154095D02*
X232743904Y-35154095D01*
X232839142Y-35201714D01*
X232886761Y-35249333D01*
X232934380Y-35344571D01*
X232934380Y-35535047D01*
X232886761Y-35630285D01*
X232839142Y-35677904D01*
X232743904Y-35725523D01*
X231934380Y-35725523D01*
X232029619Y-36154095D02*
X231982000Y-36201714D01*
X231934380Y-36296952D01*
X231934380Y-36535047D01*
X231982000Y-36630285D01*
X232029619Y-36677904D01*
X232124857Y-36725523D01*
X232220095Y-36725523D01*
X232362952Y-36677904D01*
X232934380Y-36106476D01*
X232934380Y-36725523D01*
%TO.C,R17*%
X235846857Y-29502380D02*
X236180190Y-29026190D01*
X236418285Y-29502380D02*
X236418285Y-28502380D01*
X236037333Y-28502380D01*
X235942095Y-28550000D01*
X235894476Y-28597619D01*
X235846857Y-28692857D01*
X235846857Y-28835714D01*
X235894476Y-28930952D01*
X235942095Y-28978571D01*
X236037333Y-29026190D01*
X236418285Y-29026190D01*
X234894476Y-29502380D02*
X235465904Y-29502380D01*
X235180190Y-29502380D02*
X235180190Y-28502380D01*
X235275428Y-28645238D01*
X235370666Y-28740476D01*
X235465904Y-28788095D01*
X234561142Y-28502380D02*
X233894476Y-28502380D01*
X234323047Y-29502380D01*
%TO.C,R11*%
X218320857Y-35156380D02*
X218654190Y-34680190D01*
X218892285Y-35156380D02*
X218892285Y-34156380D01*
X218511333Y-34156380D01*
X218416095Y-34204000D01*
X218368476Y-34251619D01*
X218320857Y-34346857D01*
X218320857Y-34489714D01*
X218368476Y-34584952D01*
X218416095Y-34632571D01*
X218511333Y-34680190D01*
X218892285Y-34680190D01*
X217368476Y-35156380D02*
X217939904Y-35156380D01*
X217654190Y-35156380D02*
X217654190Y-34156380D01*
X217749428Y-34299238D01*
X217844666Y-34394476D01*
X217939904Y-34442095D01*
X216416095Y-35156380D02*
X216987523Y-35156380D01*
X216701809Y-35156380D02*
X216701809Y-34156380D01*
X216797047Y-34299238D01*
X216892285Y-34394476D01*
X216987523Y-34442095D01*
%TO.C,R7*%
X231306666Y-30264380D02*
X231640000Y-29788190D01*
X231878095Y-30264380D02*
X231878095Y-29264380D01*
X231497142Y-29264380D01*
X231401904Y-29312000D01*
X231354285Y-29359619D01*
X231306666Y-29454857D01*
X231306666Y-29597714D01*
X231354285Y-29692952D01*
X231401904Y-29740571D01*
X231497142Y-29788190D01*
X231878095Y-29788190D01*
X230973333Y-29264380D02*
X230306666Y-29264380D01*
X230735238Y-30264380D01*
%TO.C,R6*%
X231243666Y-31534380D02*
X231577000Y-31058190D01*
X231815095Y-31534380D02*
X231815095Y-30534380D01*
X231434142Y-30534380D01*
X231338904Y-30582000D01*
X231291285Y-30629619D01*
X231243666Y-30724857D01*
X231243666Y-30867714D01*
X231291285Y-30962952D01*
X231338904Y-31010571D01*
X231434142Y-31058190D01*
X231815095Y-31058190D01*
X230386523Y-30534380D02*
X230577000Y-30534380D01*
X230672238Y-30582000D01*
X230719857Y-30629619D01*
X230815095Y-30772476D01*
X230862714Y-30962952D01*
X230862714Y-31343904D01*
X230815095Y-31439142D01*
X230767476Y-31486761D01*
X230672238Y-31534380D01*
X230481761Y-31534380D01*
X230386523Y-31486761D01*
X230338904Y-31439142D01*
X230291285Y-31343904D01*
X230291285Y-31105809D01*
X230338904Y-31010571D01*
X230386523Y-30962952D01*
X230481761Y-30915333D01*
X230672238Y-30915333D01*
X230767476Y-30962952D01*
X230815095Y-31010571D01*
X230862714Y-31105809D01*
%TO.C,R5*%
X231243666Y-32804380D02*
X231577000Y-32328190D01*
X231815095Y-32804380D02*
X231815095Y-31804380D01*
X231434142Y-31804380D01*
X231338904Y-31852000D01*
X231291285Y-31899619D01*
X231243666Y-31994857D01*
X231243666Y-32137714D01*
X231291285Y-32232952D01*
X231338904Y-32280571D01*
X231434142Y-32328190D01*
X231815095Y-32328190D01*
X230338904Y-31804380D02*
X230815095Y-31804380D01*
X230862714Y-32280571D01*
X230815095Y-32232952D01*
X230719857Y-32185333D01*
X230481761Y-32185333D01*
X230386523Y-32232952D01*
X230338904Y-32280571D01*
X230291285Y-32375809D01*
X230291285Y-32613904D01*
X230338904Y-32709142D01*
X230386523Y-32756761D01*
X230481761Y-32804380D01*
X230719857Y-32804380D01*
X230815095Y-32756761D01*
X230862714Y-32709142D01*
%TO.C,R4*%
X231369666Y-34074380D02*
X231703000Y-33598190D01*
X231941095Y-34074380D02*
X231941095Y-33074380D01*
X231560142Y-33074380D01*
X231464904Y-33122000D01*
X231417285Y-33169619D01*
X231369666Y-33264857D01*
X231369666Y-33407714D01*
X231417285Y-33502952D01*
X231464904Y-33550571D01*
X231560142Y-33598190D01*
X231941095Y-33598190D01*
X230512523Y-33407714D02*
X230512523Y-34074380D01*
X230750619Y-33026761D02*
X230988714Y-33741047D01*
X230369666Y-33741047D01*
%TO.C,R3*%
X232194380Y-49680333D02*
X231718190Y-49347000D01*
X232194380Y-49108904D02*
X231194380Y-49108904D01*
X231194380Y-49489857D01*
X231242000Y-49585095D01*
X231289619Y-49632714D01*
X231384857Y-49680333D01*
X231527714Y-49680333D01*
X231622952Y-49632714D01*
X231670571Y-49585095D01*
X231718190Y-49489857D01*
X231718190Y-49108904D01*
X231194380Y-50013666D02*
X231194380Y-50632714D01*
X231575333Y-50299380D01*
X231575333Y-50442238D01*
X231622952Y-50537476D01*
X231670571Y-50585095D01*
X231765809Y-50632714D01*
X232003904Y-50632714D01*
X232099142Y-50585095D01*
X232146761Y-50537476D01*
X232194380Y-50442238D01*
X232194380Y-50156523D01*
X232146761Y-50061285D01*
X232099142Y-50013666D01*
%TO.C,D2*%
X239478095Y-32786380D02*
X239478095Y-31786380D01*
X239240000Y-31786380D01*
X239097142Y-31834000D01*
X239001904Y-31929238D01*
X238954285Y-32024476D01*
X238906666Y-32214952D01*
X238906666Y-32357809D01*
X238954285Y-32548285D01*
X239001904Y-32643523D01*
X239097142Y-32738761D01*
X239240000Y-32786380D01*
X239478095Y-32786380D01*
X238525714Y-31881619D02*
X238478095Y-31834000D01*
X238382857Y-31786380D01*
X238144761Y-31786380D01*
X238049523Y-31834000D01*
X238001904Y-31881619D01*
X237954285Y-31976857D01*
X237954285Y-32072095D01*
X238001904Y-32214952D01*
X238573333Y-32786380D01*
X237954285Y-32786380D01*
%TO.C,C9*%
X235717142Y-39457333D02*
X235764761Y-39409714D01*
X235812380Y-39266857D01*
X235812380Y-39171619D01*
X235764761Y-39028761D01*
X235669523Y-38933523D01*
X235574285Y-38885904D01*
X235383809Y-38838285D01*
X235240952Y-38838285D01*
X235050476Y-38885904D01*
X234955238Y-38933523D01*
X234860000Y-39028761D01*
X234812380Y-39171619D01*
X234812380Y-39266857D01*
X234860000Y-39409714D01*
X234907619Y-39457333D01*
X235812380Y-39933523D02*
X235812380Y-40124000D01*
X235764761Y-40219238D01*
X235717142Y-40266857D01*
X235574285Y-40362095D01*
X235383809Y-40409714D01*
X235002857Y-40409714D01*
X234907619Y-40362095D01*
X234860000Y-40314476D01*
X234812380Y-40219238D01*
X234812380Y-40028761D01*
X234860000Y-39933523D01*
X234907619Y-39885904D01*
X235002857Y-39838285D01*
X235240952Y-39838285D01*
X235336190Y-39885904D01*
X235383809Y-39933523D01*
X235431428Y-40028761D01*
X235431428Y-40219238D01*
X235383809Y-40314476D01*
X235336190Y-40362095D01*
X235240952Y-40409714D01*
%TO.C,C8*%
X246546666Y-30837142D02*
X246594285Y-30884761D01*
X246737142Y-30932380D01*
X246832380Y-30932380D01*
X246975238Y-30884761D01*
X247070476Y-30789523D01*
X247118095Y-30694285D01*
X247165714Y-30503809D01*
X247165714Y-30360952D01*
X247118095Y-30170476D01*
X247070476Y-30075238D01*
X246975238Y-29980000D01*
X246832380Y-29932380D01*
X246737142Y-29932380D01*
X246594285Y-29980000D01*
X246546666Y-30027619D01*
X245975238Y-30360952D02*
X246070476Y-30313333D01*
X246118095Y-30265714D01*
X246165714Y-30170476D01*
X246165714Y-30122857D01*
X246118095Y-30027619D01*
X246070476Y-29980000D01*
X245975238Y-29932380D01*
X245784761Y-29932380D01*
X245689523Y-29980000D01*
X245641904Y-30027619D01*
X245594285Y-30122857D01*
X245594285Y-30170476D01*
X245641904Y-30265714D01*
X245689523Y-30313333D01*
X245784761Y-30360952D01*
X245975238Y-30360952D01*
X246070476Y-30408571D01*
X246118095Y-30456190D01*
X246165714Y-30551428D01*
X246165714Y-30741904D01*
X246118095Y-30837142D01*
X246070476Y-30884761D01*
X245975238Y-30932380D01*
X245784761Y-30932380D01*
X245689523Y-30884761D01*
X245641904Y-30837142D01*
X245594285Y-30741904D01*
X245594285Y-30551428D01*
X245641904Y-30456190D01*
X245689523Y-30408571D01*
X245784761Y-30360952D01*
%TO.C,C6*%
X247054666Y-31489142D02*
X247102285Y-31536761D01*
X247245142Y-31584380D01*
X247340380Y-31584380D01*
X247483238Y-31536761D01*
X247578476Y-31441523D01*
X247626095Y-31346285D01*
X247673714Y-31155809D01*
X247673714Y-31012952D01*
X247626095Y-30822476D01*
X247578476Y-30727238D01*
X247483238Y-30632000D01*
X247340380Y-30584380D01*
X247245142Y-30584380D01*
X247102285Y-30632000D01*
X247054666Y-30679619D01*
X246197523Y-30584380D02*
X246388000Y-30584380D01*
X246483238Y-30632000D01*
X246530857Y-30679619D01*
X246626095Y-30822476D01*
X246673714Y-31012952D01*
X246673714Y-31393904D01*
X246626095Y-31489142D01*
X246578476Y-31536761D01*
X246483238Y-31584380D01*
X246292761Y-31584380D01*
X246197523Y-31536761D01*
X246149904Y-31489142D01*
X246102285Y-31393904D01*
X246102285Y-31155809D01*
X246149904Y-31060571D01*
X246197523Y-31012952D01*
X246292761Y-30965333D01*
X246483238Y-30965333D01*
X246578476Y-31012952D01*
X246626095Y-31060571D01*
X246673714Y-31155809D01*
%TO.C,C5*%
X220384666Y-32217142D02*
X220432285Y-32264761D01*
X220575142Y-32312380D01*
X220670380Y-32312380D01*
X220813238Y-32264761D01*
X220908476Y-32169523D01*
X220956095Y-32074285D01*
X221003714Y-31883809D01*
X221003714Y-31740952D01*
X220956095Y-31550476D01*
X220908476Y-31455238D01*
X220813238Y-31360000D01*
X220670380Y-31312380D01*
X220575142Y-31312380D01*
X220432285Y-31360000D01*
X220384666Y-31407619D01*
X219479904Y-31312380D02*
X219956095Y-31312380D01*
X220003714Y-31788571D01*
X219956095Y-31740952D01*
X219860857Y-31693333D01*
X219622761Y-31693333D01*
X219527523Y-31740952D01*
X219479904Y-31788571D01*
X219432285Y-31883809D01*
X219432285Y-32121904D01*
X219479904Y-32217142D01*
X219527523Y-32264761D01*
X219622761Y-32312380D01*
X219860857Y-32312380D01*
X219956095Y-32264761D01*
X220003714Y-32217142D01*
%TO.C,C4*%
X239434666Y-33995142D02*
X239482285Y-34042761D01*
X239625142Y-34090380D01*
X239720380Y-34090380D01*
X239863238Y-34042761D01*
X239958476Y-33947523D01*
X240006095Y-33852285D01*
X240053714Y-33661809D01*
X240053714Y-33518952D01*
X240006095Y-33328476D01*
X239958476Y-33233238D01*
X239863238Y-33138000D01*
X239720380Y-33090380D01*
X239625142Y-33090380D01*
X239482285Y-33138000D01*
X239434666Y-33185619D01*
X238577523Y-33423714D02*
X238577523Y-34090380D01*
X238815619Y-33042761D02*
X239053714Y-33757047D01*
X238434666Y-33757047D01*
%TO.C,C3*%
X211240666Y-31743142D02*
X211288285Y-31790761D01*
X211431142Y-31838380D01*
X211526380Y-31838380D01*
X211669238Y-31790761D01*
X211764476Y-31695523D01*
X211812095Y-31600285D01*
X211859714Y-31409809D01*
X211859714Y-31266952D01*
X211812095Y-31076476D01*
X211764476Y-30981238D01*
X211669238Y-30886000D01*
X211526380Y-30838380D01*
X211431142Y-30838380D01*
X211288285Y-30886000D01*
X211240666Y-30933619D01*
X210907333Y-30838380D02*
X210288285Y-30838380D01*
X210621619Y-31219333D01*
X210478761Y-31219333D01*
X210383523Y-31266952D01*
X210335904Y-31314571D01*
X210288285Y-31409809D01*
X210288285Y-31647904D01*
X210335904Y-31743142D01*
X210383523Y-31790761D01*
X210478761Y-31838380D01*
X210764476Y-31838380D01*
X210859714Y-31790761D01*
X210907333Y-31743142D01*
%TO.C,C2*%
X220939142Y-46569333D02*
X220986761Y-46521714D01*
X221034380Y-46378857D01*
X221034380Y-46283619D01*
X220986761Y-46140761D01*
X220891523Y-46045523D01*
X220796285Y-45997904D01*
X220605809Y-45950285D01*
X220462952Y-45950285D01*
X220272476Y-45997904D01*
X220177238Y-46045523D01*
X220082000Y-46140761D01*
X220034380Y-46283619D01*
X220034380Y-46378857D01*
X220082000Y-46521714D01*
X220129619Y-46569333D01*
X220129619Y-46950285D02*
X220082000Y-46997904D01*
X220034380Y-47093142D01*
X220034380Y-47331238D01*
X220082000Y-47426476D01*
X220129619Y-47474095D01*
X220224857Y-47521714D01*
X220320095Y-47521714D01*
X220462952Y-47474095D01*
X221034380Y-46902666D01*
X221034380Y-47521714D01*
%TO.C,C1*%
X227041142Y-45525333D02*
X227088761Y-45477714D01*
X227136380Y-45334857D01*
X227136380Y-45239619D01*
X227088761Y-45096761D01*
X226993523Y-45001523D01*
X226898285Y-44953904D01*
X226707809Y-44906285D01*
X226564952Y-44906285D01*
X226374476Y-44953904D01*
X226279238Y-45001523D01*
X226184000Y-45096761D01*
X226136380Y-45239619D01*
X226136380Y-45334857D01*
X226184000Y-45477714D01*
X226231619Y-45525333D01*
X227136380Y-46477714D02*
X227136380Y-45906285D01*
X227136380Y-46192000D02*
X226136380Y-46192000D01*
X226279238Y-46096761D01*
X226374476Y-46001523D01*
X226422095Y-45906285D01*
%TD*%
M02*
