%TF.GenerationSoftware,KiCad,Pcbnew,(5.1.7)-1*%
%TF.CreationDate,2020-10-24T02:10:45+09:00*%
%TF.ProjectId,canboard,63616e62-6f61-4726-942e-6b696361645f,rev?*%
%TF.SameCoordinates,Original*%
%TF.FileFunction,Copper,L2,Bot*%
%TF.FilePolarity,Positive*%
%FSLAX46Y46*%
G04 Gerber Fmt 4.6, Leading zero omitted, Abs format (unit mm)*
G04 Created by KiCad (PCBNEW (5.1.7)-1) date 2020-10-24 02:10:45*
%MOMM*%
%LPD*%
G01*
G04 APERTURE LIST*
%TA.AperFunction,ComponentPad*%
%ADD10O,1.700000X1.700000*%
%TD*%
%TA.AperFunction,ComponentPad*%
%ADD11R,1.700000X1.700000*%
%TD*%
%TA.AperFunction,SMDPad,CuDef*%
%ADD12R,3.200000X0.400000*%
%TD*%
%TA.AperFunction,ComponentPad*%
%ADD13O,1.600000X1.600000*%
%TD*%
%TA.AperFunction,ComponentPad*%
%ADD14R,1.600000X1.600000*%
%TD*%
%TA.AperFunction,SMDPad,CuDef*%
%ADD15R,1.500000X2.000000*%
%TD*%
%TA.AperFunction,SMDPad,CuDef*%
%ADD16R,3.800000X2.000000*%
%TD*%
%TA.AperFunction,ComponentPad*%
%ADD17C,2.100000*%
%TD*%
%TA.AperFunction,ComponentPad*%
%ADD18R,2.100000X2.100000*%
%TD*%
%TA.AperFunction,SMDPad,CuDef*%
%ADD19R,2.000000X1.100000*%
%TD*%
%TA.AperFunction,SMDPad,CuDef*%
%ADD20R,0.800000X1.100000*%
%TD*%
%TA.AperFunction,ViaPad*%
%ADD21C,0.800000*%
%TD*%
%TA.AperFunction,Conductor*%
%ADD22C,0.250000*%
%TD*%
G04 APERTURE END LIST*
%TO.P,U5,8*%
%TO.N,GND*%
%TA.AperFunction,SMDPad,CuDef*%
G36*
G01*
X247546000Y-32790000D02*
X247246000Y-32790000D01*
G75*
G02*
X247096000Y-32640000I0J150000D01*
G01*
X247096000Y-30990000D01*
G75*
G02*
X247246000Y-30840000I150000J0D01*
G01*
X247546000Y-30840000D01*
G75*
G02*
X247696000Y-30990000I0J-150000D01*
G01*
X247696000Y-32640000D01*
G75*
G02*
X247546000Y-32790000I-150000J0D01*
G01*
G37*
%TD.AperFunction*%
%TO.P,U5,7*%
%TO.N,Net-(J6-Pad3)*%
%TA.AperFunction,SMDPad,CuDef*%
G36*
G01*
X246276000Y-32790000D02*
X245976000Y-32790000D01*
G75*
G02*
X245826000Y-32640000I0J150000D01*
G01*
X245826000Y-30990000D01*
G75*
G02*
X245976000Y-30840000I150000J0D01*
G01*
X246276000Y-30840000D01*
G75*
G02*
X246426000Y-30990000I0J-150000D01*
G01*
X246426000Y-32640000D01*
G75*
G02*
X246276000Y-32790000I-150000J0D01*
G01*
G37*
%TD.AperFunction*%
%TO.P,U5,6*%
%TO.N,Net-(J6-Pad2)*%
%TA.AperFunction,SMDPad,CuDef*%
G36*
G01*
X245006000Y-32790000D02*
X244706000Y-32790000D01*
G75*
G02*
X244556000Y-32640000I0J150000D01*
G01*
X244556000Y-30990000D01*
G75*
G02*
X244706000Y-30840000I150000J0D01*
G01*
X245006000Y-30840000D01*
G75*
G02*
X245156000Y-30990000I0J-150000D01*
G01*
X245156000Y-32640000D01*
G75*
G02*
X245006000Y-32790000I-150000J0D01*
G01*
G37*
%TD.AperFunction*%
%TO.P,U5,5*%
%TO.N,Net-(R9-Pad1)*%
%TA.AperFunction,SMDPad,CuDef*%
G36*
G01*
X243736000Y-32790000D02*
X243436000Y-32790000D01*
G75*
G02*
X243286000Y-32640000I0J150000D01*
G01*
X243286000Y-30990000D01*
G75*
G02*
X243436000Y-30840000I150000J0D01*
G01*
X243736000Y-30840000D01*
G75*
G02*
X243886000Y-30990000I0J-150000D01*
G01*
X243886000Y-32640000D01*
G75*
G02*
X243736000Y-32790000I-150000J0D01*
G01*
G37*
%TD.AperFunction*%
%TO.P,U5,4*%
%TO.N,Net-(U4-Pad2)*%
%TA.AperFunction,SMDPad,CuDef*%
G36*
G01*
X243736000Y-37740000D02*
X243436000Y-37740000D01*
G75*
G02*
X243286000Y-37590000I0J150000D01*
G01*
X243286000Y-35940000D01*
G75*
G02*
X243436000Y-35790000I150000J0D01*
G01*
X243736000Y-35790000D01*
G75*
G02*
X243886000Y-35940000I0J-150000D01*
G01*
X243886000Y-37590000D01*
G75*
G02*
X243736000Y-37740000I-150000J0D01*
G01*
G37*
%TD.AperFunction*%
%TO.P,U5,3*%
%TO.N,VCC*%
%TA.AperFunction,SMDPad,CuDef*%
G36*
G01*
X245006000Y-37740000D02*
X244706000Y-37740000D01*
G75*
G02*
X244556000Y-37590000I0J150000D01*
G01*
X244556000Y-35940000D01*
G75*
G02*
X244706000Y-35790000I150000J0D01*
G01*
X245006000Y-35790000D01*
G75*
G02*
X245156000Y-35940000I0J-150000D01*
G01*
X245156000Y-37590000D01*
G75*
G02*
X245006000Y-37740000I-150000J0D01*
G01*
G37*
%TD.AperFunction*%
%TO.P,U5,2*%
%TO.N,GND*%
%TA.AperFunction,SMDPad,CuDef*%
G36*
G01*
X246276000Y-37740000D02*
X245976000Y-37740000D01*
G75*
G02*
X245826000Y-37590000I0J150000D01*
G01*
X245826000Y-35940000D01*
G75*
G02*
X245976000Y-35790000I150000J0D01*
G01*
X246276000Y-35790000D01*
G75*
G02*
X246426000Y-35940000I0J-150000D01*
G01*
X246426000Y-37590000D01*
G75*
G02*
X246276000Y-37740000I-150000J0D01*
G01*
G37*
%TD.AperFunction*%
%TO.P,U5,1*%
%TO.N,Net-(U4-Pad1)*%
%TA.AperFunction,SMDPad,CuDef*%
G36*
G01*
X247546000Y-37740000D02*
X247246000Y-37740000D01*
G75*
G02*
X247096000Y-37590000I0J150000D01*
G01*
X247096000Y-35940000D01*
G75*
G02*
X247246000Y-35790000I150000J0D01*
G01*
X247546000Y-35790000D01*
G75*
G02*
X247696000Y-35940000I0J-150000D01*
G01*
X247696000Y-37590000D01*
G75*
G02*
X247546000Y-37740000I-150000J0D01*
G01*
G37*
%TD.AperFunction*%
%TD*%
D10*
%TO.P,J2,6*%
%TO.N,GND*%
X208280000Y-48260000D03*
%TO.P,J2,5*%
X208280000Y-45720000D03*
%TO.P,J2,4*%
%TO.N,VCC*%
X208280000Y-43180000D03*
%TO.P,J2,3*%
%TO.N,TXO*%
X208280000Y-40640000D03*
%TO.P,J2,2*%
%TO.N,RXI*%
X208280000Y-38100000D03*
D11*
%TO.P,J2,1*%
%TO.N,DTR*%
X208280000Y-35560000D03*
%TD*%
D12*
%TO.P,Y2,1*%
%TO.N,Net-(U4-Pad7)*%
X236220000Y-49136000D03*
%TO.P,Y2,2*%
%TO.N,GND*%
X236220000Y-47936000D03*
%TO.P,Y2,3*%
%TO.N,Net-(U4-Pad8)*%
X236220000Y-46736000D03*
%TD*%
D13*
%TO.P,U3,8*%
%TO.N,VCC*%
X213868000Y-31242000D03*
%TO.P,U3,4*%
%TO.N,MISO*%
X221488000Y-38862000D03*
%TO.P,U3,7*%
%TO.N,N/C*%
X216408000Y-31242000D03*
%TO.P,U3,3*%
%TO.N,MOSI*%
X218948000Y-38862000D03*
%TO.P,U3,6*%
%TO.N,VCC*%
X218948000Y-31242000D03*
%TO.P,U3,2*%
%TO.N,SCK*%
X216408000Y-38862000D03*
%TO.P,U3,5*%
%TO.N,GND*%
X221488000Y-31242000D03*
D14*
%TO.P,U3,1*%
%TO.N,D9*%
X213868000Y-38862000D03*
%TD*%
D15*
%TO.P,U2,1*%
%TO.N,GND*%
X234682000Y-32766000D03*
%TO.P,U2,3*%
%TO.N,12VIN*%
X239282000Y-32766000D03*
%TO.P,U2,2*%
%TO.N,Net-(C9-Pad1)*%
X236982000Y-32766000D03*
D16*
X236982000Y-39066000D03*
%TD*%
%TO.P,R17,2*%
%TO.N,VCC*%
%TA.AperFunction,SMDPad,CuDef*%
G36*
G01*
X234779000Y-30205000D02*
X234779000Y-30755000D01*
G75*
G02*
X234579000Y-30955000I-200000J0D01*
G01*
X234179000Y-30955000D01*
G75*
G02*
X233979000Y-30755000I0J200000D01*
G01*
X233979000Y-30205000D01*
G75*
G02*
X234179000Y-30005000I200000J0D01*
G01*
X234579000Y-30005000D01*
G75*
G02*
X234779000Y-30205000I0J-200000D01*
G01*
G37*
%TD.AperFunction*%
%TO.P,R17,1*%
%TO.N,Net-(C9-Pad1)*%
%TA.AperFunction,SMDPad,CuDef*%
G36*
G01*
X236429000Y-30205000D02*
X236429000Y-30755000D01*
G75*
G02*
X236229000Y-30955000I-200000J0D01*
G01*
X235829000Y-30955000D01*
G75*
G02*
X235629000Y-30755000I0J200000D01*
G01*
X235629000Y-30205000D01*
G75*
G02*
X235829000Y-30005000I200000J0D01*
G01*
X236229000Y-30005000D01*
G75*
G02*
X236429000Y-30205000I0J-200000D01*
G01*
G37*
%TD.AperFunction*%
%TD*%
%TO.P,R11,2*%
%TO.N,GND*%
%TA.AperFunction,SMDPad,CuDef*%
G36*
G01*
X218103000Y-33549000D02*
X218103000Y-32999000D01*
G75*
G02*
X218303000Y-32799000I200000J0D01*
G01*
X218703000Y-32799000D01*
G75*
G02*
X218903000Y-32999000I0J-200000D01*
G01*
X218903000Y-33549000D01*
G75*
G02*
X218703000Y-33749000I-200000J0D01*
G01*
X218303000Y-33749000D01*
G75*
G02*
X218103000Y-33549000I0J200000D01*
G01*
G37*
%TD.AperFunction*%
%TO.P,R11,1*%
%TO.N,D9*%
%TA.AperFunction,SMDPad,CuDef*%
G36*
G01*
X216453000Y-33549000D02*
X216453000Y-32999000D01*
G75*
G02*
X216653000Y-32799000I200000J0D01*
G01*
X217053000Y-32799000D01*
G75*
G02*
X217253000Y-32999000I0J-200000D01*
G01*
X217253000Y-33549000D01*
G75*
G02*
X217053000Y-33749000I-200000J0D01*
G01*
X216653000Y-33749000D01*
G75*
G02*
X216453000Y-33549000I0J200000D01*
G01*
G37*
%TD.AperFunction*%
%TD*%
%TO.P,R7,2*%
%TO.N,GND*%
%TA.AperFunction,SMDPad,CuDef*%
G36*
G01*
X230715000Y-30967000D02*
X230715000Y-31517000D01*
G75*
G02*
X230515000Y-31717000I-200000J0D01*
G01*
X230115000Y-31717000D01*
G75*
G02*
X229915000Y-31517000I0J200000D01*
G01*
X229915000Y-30967000D01*
G75*
G02*
X230115000Y-30767000I200000J0D01*
G01*
X230515000Y-30767000D01*
G75*
G02*
X230715000Y-30967000I0J-200000D01*
G01*
G37*
%TD.AperFunction*%
%TO.P,R7,1*%
%TO.N,Net-(R12-Pad2)*%
%TA.AperFunction,SMDPad,CuDef*%
G36*
G01*
X232365000Y-30967000D02*
X232365000Y-31517000D01*
G75*
G02*
X232165000Y-31717000I-200000J0D01*
G01*
X231765000Y-31717000D01*
G75*
G02*
X231565000Y-31517000I0J200000D01*
G01*
X231565000Y-30967000D01*
G75*
G02*
X231765000Y-30767000I200000J0D01*
G01*
X232165000Y-30767000D01*
G75*
G02*
X232365000Y-30967000I0J-200000D01*
G01*
G37*
%TD.AperFunction*%
%TD*%
%TO.P,R6,2*%
%TO.N,GND*%
%TA.AperFunction,SMDPad,CuDef*%
G36*
G01*
X230652000Y-32237000D02*
X230652000Y-32787000D01*
G75*
G02*
X230452000Y-32987000I-200000J0D01*
G01*
X230052000Y-32987000D01*
G75*
G02*
X229852000Y-32787000I0J200000D01*
G01*
X229852000Y-32237000D01*
G75*
G02*
X230052000Y-32037000I200000J0D01*
G01*
X230452000Y-32037000D01*
G75*
G02*
X230652000Y-32237000I0J-200000D01*
G01*
G37*
%TD.AperFunction*%
%TO.P,R6,1*%
%TO.N,Net-(R13-Pad2)*%
%TA.AperFunction,SMDPad,CuDef*%
G36*
G01*
X232302000Y-32237000D02*
X232302000Y-32787000D01*
G75*
G02*
X232102000Y-32987000I-200000J0D01*
G01*
X231702000Y-32987000D01*
G75*
G02*
X231502000Y-32787000I0J200000D01*
G01*
X231502000Y-32237000D01*
G75*
G02*
X231702000Y-32037000I200000J0D01*
G01*
X232102000Y-32037000D01*
G75*
G02*
X232302000Y-32237000I0J-200000D01*
G01*
G37*
%TD.AperFunction*%
%TD*%
%TO.P,R5,2*%
%TO.N,GND*%
%TA.AperFunction,SMDPad,CuDef*%
G36*
G01*
X230652000Y-33507000D02*
X230652000Y-34057000D01*
G75*
G02*
X230452000Y-34257000I-200000J0D01*
G01*
X230052000Y-34257000D01*
G75*
G02*
X229852000Y-34057000I0J200000D01*
G01*
X229852000Y-33507000D01*
G75*
G02*
X230052000Y-33307000I200000J0D01*
G01*
X230452000Y-33307000D01*
G75*
G02*
X230652000Y-33507000I0J-200000D01*
G01*
G37*
%TD.AperFunction*%
%TO.P,R5,1*%
%TO.N,Net-(R14-Pad2)*%
%TA.AperFunction,SMDPad,CuDef*%
G36*
G01*
X232302000Y-33507000D02*
X232302000Y-34057000D01*
G75*
G02*
X232102000Y-34257000I-200000J0D01*
G01*
X231702000Y-34257000D01*
G75*
G02*
X231502000Y-34057000I0J200000D01*
G01*
X231502000Y-33507000D01*
G75*
G02*
X231702000Y-33307000I200000J0D01*
G01*
X232102000Y-33307000D01*
G75*
G02*
X232302000Y-33507000I0J-200000D01*
G01*
G37*
%TD.AperFunction*%
%TD*%
%TO.P,R4,2*%
%TO.N,GND*%
%TA.AperFunction,SMDPad,CuDef*%
G36*
G01*
X230778000Y-34777000D02*
X230778000Y-35327000D01*
G75*
G02*
X230578000Y-35527000I-200000J0D01*
G01*
X230178000Y-35527000D01*
G75*
G02*
X229978000Y-35327000I0J200000D01*
G01*
X229978000Y-34777000D01*
G75*
G02*
X230178000Y-34577000I200000J0D01*
G01*
X230578000Y-34577000D01*
G75*
G02*
X230778000Y-34777000I0J-200000D01*
G01*
G37*
%TD.AperFunction*%
%TO.P,R4,1*%
%TO.N,Net-(R15-Pad2)*%
%TA.AperFunction,SMDPad,CuDef*%
G36*
G01*
X232428000Y-34777000D02*
X232428000Y-35327000D01*
G75*
G02*
X232228000Y-35527000I-200000J0D01*
G01*
X231828000Y-35527000D01*
G75*
G02*
X231628000Y-35327000I0J200000D01*
G01*
X231628000Y-34777000D01*
G75*
G02*
X231828000Y-34577000I200000J0D01*
G01*
X232228000Y-34577000D01*
G75*
G02*
X232428000Y-34777000I0J-200000D01*
G01*
G37*
%TD.AperFunction*%
%TD*%
%TO.P,R3,2*%
%TO.N,VCC*%
%TA.AperFunction,SMDPad,CuDef*%
G36*
G01*
X232897000Y-50272000D02*
X233447000Y-50272000D01*
G75*
G02*
X233647000Y-50472000I0J-200000D01*
G01*
X233647000Y-50872000D01*
G75*
G02*
X233447000Y-51072000I-200000J0D01*
G01*
X232897000Y-51072000D01*
G75*
G02*
X232697000Y-50872000I0J200000D01*
G01*
X232697000Y-50472000D01*
G75*
G02*
X232897000Y-50272000I200000J0D01*
G01*
G37*
%TD.AperFunction*%
%TO.P,R3,1*%
%TO.N,Net-(R3-Pad1)*%
%TA.AperFunction,SMDPad,CuDef*%
G36*
G01*
X232897000Y-48622000D02*
X233447000Y-48622000D01*
G75*
G02*
X233647000Y-48822000I0J-200000D01*
G01*
X233647000Y-49222000D01*
G75*
G02*
X233447000Y-49422000I-200000J0D01*
G01*
X232897000Y-49422000D01*
G75*
G02*
X232697000Y-49222000I0J200000D01*
G01*
X232697000Y-48822000D01*
G75*
G02*
X232897000Y-48622000I200000J0D01*
G01*
G37*
%TD.AperFunction*%
%TD*%
D17*
%TO.P,J6,4*%
%TO.N,GND*%
X246380000Y-53340000D03*
%TO.P,J6,3*%
%TO.N,Net-(J6-Pad3)*%
X246380000Y-50800000D03*
%TO.P,J6,2*%
%TO.N,Net-(J6-Pad2)*%
X246380000Y-48260000D03*
D18*
%TO.P,J6,1*%
%TO.N,VCC*%
X246380000Y-45720000D03*
%TD*%
D17*
%TO.P,J4,2*%
%TO.N,SDA*%
X246380000Y-40640000D03*
D18*
%TO.P,J4,1*%
%TO.N,SCL*%
X246380000Y-43180000D03*
%TD*%
D10*
%TO.P,J3,12*%
%TO.N,12VIN*%
X238760000Y-27940000D03*
%TO.P,J3,11*%
%TO.N,VCC*%
X236220000Y-27940000D03*
%TO.P,J3,10*%
%TO.N,GND*%
X233680000Y-27940000D03*
%TO.P,J3,9*%
%TO.N,RESET*%
X231140000Y-27940000D03*
%TO.P,J3,8*%
%TO.N,A3*%
X228600000Y-27940000D03*
%TO.P,J3,7*%
%TO.N,A2*%
X226060000Y-27940000D03*
%TO.P,J3,6*%
%TO.N,A1*%
X223520000Y-27940000D03*
%TO.P,J3,5*%
%TO.N,A0*%
X220980000Y-27940000D03*
%TO.P,J3,4*%
%TO.N,SDA*%
X218440000Y-27940000D03*
%TO.P,J3,3*%
%TO.N,SCL*%
X215900000Y-27940000D03*
%TO.P,J3,2*%
%TO.N,TXO*%
X213360000Y-27940000D03*
D11*
%TO.P,J3,1*%
%TO.N,RXI*%
X210820000Y-27940000D03*
%TD*%
D10*
%TO.P,J1,12*%
%TO.N,SCK*%
X238760000Y-53340000D03*
%TO.P,J1,11*%
%TO.N,MOSI*%
X236220000Y-53340000D03*
%TO.P,J1,10*%
%TO.N,MISO*%
X233680000Y-53340000D03*
%TO.P,J1,9*%
%TO.N,GND*%
X231140000Y-53340000D03*
%TO.P,J1,8*%
%TO.N,D9*%
X228600000Y-53340000D03*
%TO.P,J1,7*%
%TO.N,D8*%
X226060000Y-53340000D03*
%TO.P,J1,6*%
%TO.N,D7*%
X223520000Y-53340000D03*
%TO.P,J1,5*%
%TO.N,D6*%
X220980000Y-53340000D03*
%TO.P,J1,4*%
%TO.N,D5*%
X218440000Y-53340000D03*
%TO.P,J1,3*%
%TO.N,D4*%
X215900000Y-53340000D03*
%TO.P,J1,2*%
%TO.N,D3*%
X213360000Y-53340000D03*
D11*
%TO.P,J1,1*%
%TO.N,D2*%
X210820000Y-53340000D03*
%TD*%
D19*
%TO.P,D2,1*%
%TO.N,Net-(C9-Pad1)*%
X238090000Y-30734000D03*
D20*
%TO.P,D2,2*%
%TO.N,12VIN*%
X239990000Y-30734000D03*
%TD*%
%TO.P,C9,2*%
%TO.N,GND*%
%TA.AperFunction,SMDPad,CuDef*%
G36*
G01*
X234155000Y-39174000D02*
X233205000Y-39174000D01*
G75*
G02*
X232955000Y-38924000I0J250000D01*
G01*
X232955000Y-38424000D01*
G75*
G02*
X233205000Y-38174000I250000J0D01*
G01*
X234155000Y-38174000D01*
G75*
G02*
X234405000Y-38424000I0J-250000D01*
G01*
X234405000Y-38924000D01*
G75*
G02*
X234155000Y-39174000I-250000J0D01*
G01*
G37*
%TD.AperFunction*%
%TO.P,C9,1*%
%TO.N,Net-(C9-Pad1)*%
%TA.AperFunction,SMDPad,CuDef*%
G36*
G01*
X234155000Y-41074000D02*
X233205000Y-41074000D01*
G75*
G02*
X232955000Y-40824000I0J250000D01*
G01*
X232955000Y-40324000D01*
G75*
G02*
X233205000Y-40074000I250000J0D01*
G01*
X234155000Y-40074000D01*
G75*
G02*
X234405000Y-40324000I0J-250000D01*
G01*
X234405000Y-40824000D01*
G75*
G02*
X234155000Y-41074000I-250000J0D01*
G01*
G37*
%TD.AperFunction*%
%TD*%
%TO.P,C8,2*%
%TO.N,GND*%
%TA.AperFunction,SMDPad,CuDef*%
G36*
G01*
X246946000Y-28952000D02*
X246946000Y-28452000D01*
G75*
G02*
X247171000Y-28227000I225000J0D01*
G01*
X247621000Y-28227000D01*
G75*
G02*
X247846000Y-28452000I0J-225000D01*
G01*
X247846000Y-28952000D01*
G75*
G02*
X247621000Y-29177000I-225000J0D01*
G01*
X247171000Y-29177000D01*
G75*
G02*
X246946000Y-28952000I0J225000D01*
G01*
G37*
%TD.AperFunction*%
%TO.P,C8,1*%
%TO.N,Net-(C8-Pad1)*%
%TA.AperFunction,SMDPad,CuDef*%
G36*
G01*
X245396000Y-28952000D02*
X245396000Y-28452000D01*
G75*
G02*
X245621000Y-28227000I225000J0D01*
G01*
X246071000Y-28227000D01*
G75*
G02*
X246296000Y-28452000I0J-225000D01*
G01*
X246296000Y-28952000D01*
G75*
G02*
X246071000Y-29177000I-225000J0D01*
G01*
X245621000Y-29177000D01*
G75*
G02*
X245396000Y-28952000I0J225000D01*
G01*
G37*
%TD.AperFunction*%
%TD*%
%TO.P,C6,2*%
%TO.N,GND*%
%TA.AperFunction,SMDPad,CuDef*%
G36*
G01*
X247088000Y-30142000D02*
X247088000Y-29802000D01*
G75*
G02*
X247228000Y-29662000I140000J0D01*
G01*
X247508000Y-29662000D01*
G75*
G02*
X247648000Y-29802000I0J-140000D01*
G01*
X247648000Y-30142000D01*
G75*
G02*
X247508000Y-30282000I-140000J0D01*
G01*
X247228000Y-30282000D01*
G75*
G02*
X247088000Y-30142000I0J140000D01*
G01*
G37*
%TD.AperFunction*%
%TO.P,C6,1*%
%TO.N,VCC*%
%TA.AperFunction,SMDPad,CuDef*%
G36*
G01*
X246128000Y-30142000D02*
X246128000Y-29802000D01*
G75*
G02*
X246268000Y-29662000I140000J0D01*
G01*
X246548000Y-29662000D01*
G75*
G02*
X246688000Y-29802000I0J-140000D01*
G01*
X246688000Y-30142000D01*
G75*
G02*
X246548000Y-30282000I-140000J0D01*
G01*
X246268000Y-30282000D01*
G75*
G02*
X246128000Y-30142000I0J140000D01*
G01*
G37*
%TD.AperFunction*%
%TD*%
%TO.P,C5,2*%
%TO.N,VCC*%
%TA.AperFunction,SMDPad,CuDef*%
G36*
G01*
X220018000Y-32850000D02*
X220018000Y-33190000D01*
G75*
G02*
X219878000Y-33330000I-140000J0D01*
G01*
X219598000Y-33330000D01*
G75*
G02*
X219458000Y-33190000I0J140000D01*
G01*
X219458000Y-32850000D01*
G75*
G02*
X219598000Y-32710000I140000J0D01*
G01*
X219878000Y-32710000D01*
G75*
G02*
X220018000Y-32850000I0J-140000D01*
G01*
G37*
%TD.AperFunction*%
%TO.P,C5,1*%
%TO.N,GND*%
%TA.AperFunction,SMDPad,CuDef*%
G36*
G01*
X220978000Y-32850000D02*
X220978000Y-33190000D01*
G75*
G02*
X220838000Y-33330000I-140000J0D01*
G01*
X220558000Y-33330000D01*
G75*
G02*
X220418000Y-33190000I0J140000D01*
G01*
X220418000Y-32850000D01*
G75*
G02*
X220558000Y-32710000I140000J0D01*
G01*
X220838000Y-32710000D01*
G75*
G02*
X220978000Y-32850000I0J-140000D01*
G01*
G37*
%TD.AperFunction*%
%TD*%
%TO.P,C4,2*%
%TO.N,12VIN*%
%TA.AperFunction,SMDPad,CuDef*%
G36*
G01*
X239068000Y-34628000D02*
X239068000Y-34968000D01*
G75*
G02*
X238928000Y-35108000I-140000J0D01*
G01*
X238648000Y-35108000D01*
G75*
G02*
X238508000Y-34968000I0J140000D01*
G01*
X238508000Y-34628000D01*
G75*
G02*
X238648000Y-34488000I140000J0D01*
G01*
X238928000Y-34488000D01*
G75*
G02*
X239068000Y-34628000I0J-140000D01*
G01*
G37*
%TD.AperFunction*%
%TO.P,C4,1*%
%TO.N,GND*%
%TA.AperFunction,SMDPad,CuDef*%
G36*
G01*
X240028000Y-34628000D02*
X240028000Y-34968000D01*
G75*
G02*
X239888000Y-35108000I-140000J0D01*
G01*
X239608000Y-35108000D01*
G75*
G02*
X239468000Y-34968000I0J140000D01*
G01*
X239468000Y-34628000D01*
G75*
G02*
X239608000Y-34488000I140000J0D01*
G01*
X239888000Y-34488000D01*
G75*
G02*
X240028000Y-34628000I0J-140000D01*
G01*
G37*
%TD.AperFunction*%
%TD*%
%TO.P,C3,2*%
%TO.N,RESET*%
%TA.AperFunction,SMDPad,CuDef*%
G36*
G01*
X211274000Y-30396000D02*
X211274000Y-30056000D01*
G75*
G02*
X211414000Y-29916000I140000J0D01*
G01*
X211694000Y-29916000D01*
G75*
G02*
X211834000Y-30056000I0J-140000D01*
G01*
X211834000Y-30396000D01*
G75*
G02*
X211694000Y-30536000I-140000J0D01*
G01*
X211414000Y-30536000D01*
G75*
G02*
X211274000Y-30396000I0J140000D01*
G01*
G37*
%TD.AperFunction*%
%TO.P,C3,1*%
%TO.N,DTR*%
%TA.AperFunction,SMDPad,CuDef*%
G36*
G01*
X210314000Y-30396000D02*
X210314000Y-30056000D01*
G75*
G02*
X210454000Y-29916000I140000J0D01*
G01*
X210734000Y-29916000D01*
G75*
G02*
X210874000Y-30056000I0J-140000D01*
G01*
X210874000Y-30396000D01*
G75*
G02*
X210734000Y-30536000I-140000J0D01*
G01*
X210454000Y-30536000D01*
G75*
G02*
X210314000Y-30396000I0J140000D01*
G01*
G37*
%TD.AperFunction*%
%TD*%
%TO.P,C2,2*%
%TO.N,GND*%
%TA.AperFunction,SMDPad,CuDef*%
G36*
G01*
X221572000Y-46936000D02*
X221912000Y-46936000D01*
G75*
G02*
X222052000Y-47076000I0J-140000D01*
G01*
X222052000Y-47356000D01*
G75*
G02*
X221912000Y-47496000I-140000J0D01*
G01*
X221572000Y-47496000D01*
G75*
G02*
X221432000Y-47356000I0J140000D01*
G01*
X221432000Y-47076000D01*
G75*
G02*
X221572000Y-46936000I140000J0D01*
G01*
G37*
%TD.AperFunction*%
%TO.P,C2,1*%
%TO.N,VCC*%
%TA.AperFunction,SMDPad,CuDef*%
G36*
G01*
X221572000Y-45976000D02*
X221912000Y-45976000D01*
G75*
G02*
X222052000Y-46116000I0J-140000D01*
G01*
X222052000Y-46396000D01*
G75*
G02*
X221912000Y-46536000I-140000J0D01*
G01*
X221572000Y-46536000D01*
G75*
G02*
X221432000Y-46396000I0J140000D01*
G01*
X221432000Y-46116000D01*
G75*
G02*
X221572000Y-45976000I140000J0D01*
G01*
G37*
%TD.AperFunction*%
%TD*%
%TO.P,C1,2*%
%TO.N,GND*%
%TA.AperFunction,SMDPad,CuDef*%
G36*
G01*
X225694000Y-45492000D02*
X225354000Y-45492000D01*
G75*
G02*
X225214000Y-45352000I0J140000D01*
G01*
X225214000Y-45072000D01*
G75*
G02*
X225354000Y-44932000I140000J0D01*
G01*
X225694000Y-44932000D01*
G75*
G02*
X225834000Y-45072000I0J-140000D01*
G01*
X225834000Y-45352000D01*
G75*
G02*
X225694000Y-45492000I-140000J0D01*
G01*
G37*
%TD.AperFunction*%
%TO.P,C1,1*%
%TO.N,Net-(C1-Pad1)*%
%TA.AperFunction,SMDPad,CuDef*%
G36*
G01*
X225694000Y-46452000D02*
X225354000Y-46452000D01*
G75*
G02*
X225214000Y-46312000I0J140000D01*
G01*
X225214000Y-46032000D01*
G75*
G02*
X225354000Y-45892000I140000J0D01*
G01*
X225694000Y-45892000D01*
G75*
G02*
X225834000Y-46032000I0J-140000D01*
G01*
X225834000Y-46312000D01*
G75*
G02*
X225694000Y-46452000I-140000J0D01*
G01*
G37*
%TD.AperFunction*%
%TD*%
D21*
%TO.N,GND*%
X218436347Y-49526347D03*
X217932000Y-46228000D03*
X226553575Y-45226963D03*
X220726000Y-47244000D03*
X240030000Y-39370000D03*
X243971653Y-38993653D03*
%TO.N,Net-(C1-Pad1)*%
X226314000Y-46228000D03*
%TO.N,VCC*%
X238919000Y-36068000D03*
X232156000Y-50800000D03*
X236728000Y-34366002D03*
X217174653Y-41143347D03*
X220980000Y-44450000D03*
X244856000Y-34798000D03*
%TO.N,RESET*%
X225044000Y-35052000D03*
X227584000Y-36068000D03*
X229108000Y-37084000D03*
%TO.N,Net-(C8-Pad1)*%
X244348000Y-29972000D03*
%TO.N,Net-(C9-Pad1)*%
X237744000Y-34290000D03*
X236474000Y-36322000D03*
%TO.N,D9*%
X222758000Y-48260000D03*
%TO.N,D4*%
X217932000Y-43688000D03*
%TO.N,D3*%
X217932000Y-42687997D03*
%TO.N,D2*%
X226314000Y-44196000D03*
X232410000Y-43180000D03*
%TO.N,SCL*%
X221483347Y-36834653D03*
X224013037Y-42686425D03*
%TO.N,SDA*%
X222758000Y-37084000D03*
X225044000Y-42926000D03*
%TO.N,TXO*%
X210058000Y-36576000D03*
X210058000Y-38608000D03*
%TO.N,A3*%
X225552000Y-39878000D03*
%TO.N,A2*%
X226563347Y-37841347D03*
%TO.N,A1*%
X225335000Y-34095276D03*
X226822000Y-33782000D03*
X226822000Y-36830000D03*
%TO.N,SCK*%
X227815456Y-49109240D03*
X223232949Y-46990000D03*
%TO.N,MISO*%
X227108348Y-49816348D03*
X224790000Y-47498000D03*
%TO.N,MOSI*%
X223957949Y-48052701D03*
%TO.N,Net-(J6-Pad3)*%
X246126000Y-33849235D03*
%TO.N,Net-(J6-Pad2)*%
X244348000Y-33782000D03*
%TO.N,Net-(R3-Pad1)*%
X228854000Y-50546000D03*
X232156000Y-49022000D03*
%TO.N,Net-(R15-Pad2)*%
X232918000Y-34544000D03*
%TO.N,Net-(R14-Pad2)*%
X232918000Y-33274000D03*
%TO.N,Net-(R13-Pad2)*%
X232918000Y-32258000D03*
%TO.N,Net-(R12-Pad2)*%
X232918000Y-31242000D03*
%TO.N,Net-(R9-Pad1)*%
X243332000Y-29972000D03*
%TO.N,Net-(U4-Pad8)*%
X236474000Y-45826011D03*
%TO.N,Net-(U4-Pad7)*%
X238252000Y-45826011D03*
%TO.N,Net-(U4-Pad2)*%
X241681138Y-41032659D03*
%TO.N,Net-(U4-Pad1)*%
X243332000Y-41148000D03*
%TD*%
D22*
%TO.N,GND*%
X233653990Y-31737990D02*
X234682000Y-32766000D01*
X233680000Y-29961522D02*
X233653990Y-29987532D01*
X233680000Y-27940000D02*
X233680000Y-29961522D01*
X234682000Y-33437412D02*
X234682000Y-32766000D01*
X237744000Y-36499412D02*
X234682000Y-33437412D01*
X230315000Y-31242000D02*
X230315000Y-30543000D01*
X233589970Y-30441990D02*
X233653990Y-30506010D01*
X230416010Y-30441990D02*
X233589970Y-30441990D01*
X230315000Y-30543000D02*
X230416010Y-30441990D01*
X233653990Y-30506010D02*
X233653990Y-31737990D01*
X233653990Y-29987532D02*
X233653990Y-30506010D01*
X239748000Y-36312002D02*
X239267001Y-36793001D01*
X239748000Y-34798000D02*
X239748000Y-36312002D01*
X237961001Y-36793001D02*
X237744000Y-36576000D01*
X237744000Y-36576000D02*
X237744000Y-36499412D01*
X233680000Y-38674000D02*
X234613001Y-37740999D01*
X237744000Y-37740999D02*
X237744000Y-36576000D01*
X234613001Y-37740999D02*
X237744000Y-37740999D01*
X217932000Y-49022000D02*
X217932000Y-46228000D01*
X218436347Y-49526347D02*
X217932000Y-49022000D01*
X239014000Y-36830000D02*
X238977001Y-36793001D01*
X238977001Y-36793001D02*
X237961001Y-36793001D01*
X239267001Y-36793001D02*
X238977001Y-36793001D01*
X226538612Y-45212000D02*
X226553575Y-45226963D01*
X225524000Y-45212000D02*
X226538612Y-45212000D01*
X221488000Y-31242000D02*
X221234000Y-31242000D01*
X220698000Y-31778000D02*
X220698000Y-33020000D01*
X221234000Y-31242000D02*
X220698000Y-31778000D01*
X220698000Y-33330000D02*
X220698000Y-33020000D01*
X220372990Y-33655010D02*
X220698000Y-33330000D01*
X218884010Y-33655010D02*
X220372990Y-33655010D01*
X218503000Y-33274000D02*
X218884010Y-33655010D01*
X230315000Y-32449000D02*
X230252000Y-32512000D01*
X230315000Y-31242000D02*
X230315000Y-32449000D01*
X230252000Y-32512000D02*
X230252000Y-33782000D01*
X230252000Y-34926000D02*
X230378000Y-35052000D01*
X230252000Y-33782000D02*
X230252000Y-34926000D01*
X221742000Y-47244000D02*
X221742000Y-47216000D01*
X220754000Y-47216000D02*
X220726000Y-47244000D01*
X221742000Y-47216000D02*
X220754000Y-47216000D01*
X239014000Y-37534315D02*
X239014000Y-36830000D01*
X240030000Y-39116000D02*
X240030000Y-38550315D01*
X240030000Y-38550315D02*
X239014000Y-37534315D01*
X234294999Y-49596001D02*
X235081337Y-50382339D01*
X234294999Y-48011001D02*
X234294999Y-49596001D01*
X235081337Y-50382339D02*
X243422339Y-50382339D01*
X234370000Y-47936000D02*
X234294999Y-48011001D01*
X243422339Y-50382339D02*
X246380000Y-53340000D01*
X236220000Y-47936000D02*
X234370000Y-47936000D01*
X240030000Y-40454523D02*
X240030000Y-39370000D01*
X242108340Y-41757660D02*
X241333137Y-41757660D01*
X241333137Y-41757660D02*
X240030000Y-40454523D01*
X242406139Y-41459861D02*
X242108340Y-41757660D01*
X242406139Y-40684658D02*
X242406139Y-41459861D01*
X242190410Y-40468929D02*
X242406139Y-40684658D01*
X242190410Y-40386000D02*
X242190410Y-40468929D01*
X246126000Y-36765000D02*
X246126000Y-37740000D01*
X247396000Y-31815000D02*
X247396000Y-32790000D01*
X243971653Y-38993653D02*
X243971653Y-38604757D01*
X247368000Y-31787000D02*
X247396000Y-31815000D01*
X247368000Y-29972000D02*
X247368000Y-31787000D01*
X247663000Y-29677000D02*
X247368000Y-29972000D01*
X247663000Y-28702000D02*
X247663000Y-29677000D01*
X246126000Y-36388232D02*
X246126000Y-36765000D01*
X247049242Y-35464990D02*
X246126000Y-36388232D01*
X247396000Y-35306000D02*
X247237010Y-35464990D01*
X247237010Y-35464990D02*
X247049242Y-35464990D01*
X247396000Y-31815000D02*
X247396000Y-35306000D01*
X242579306Y-40386000D02*
X243971653Y-38993653D01*
X242190410Y-40386000D02*
X242579306Y-40386000D01*
X243971653Y-38993653D02*
X244907705Y-38993653D01*
X246126000Y-37775358D02*
X246126000Y-36765000D01*
X244907705Y-38993653D02*
X246126000Y-37775358D01*
%TO.N,Net-(C1-Pad1)*%
X226258000Y-46172000D02*
X226314000Y-46228000D01*
X225524000Y-46172000D02*
X226258000Y-46172000D01*
%TO.N,VCC*%
X236220000Y-27940000D02*
X236220000Y-29210000D01*
X234950000Y-30480000D02*
X234570000Y-30480000D01*
X236220000Y-29210000D02*
X234950000Y-30480000D01*
X234811522Y-30480000D02*
X234379000Y-30480000D01*
X235906999Y-31575477D02*
X234811522Y-30480000D01*
X235906999Y-34026001D02*
X235906999Y-31575477D01*
X238919000Y-36068000D02*
X237948998Y-36068000D01*
X247755001Y-54000001D02*
X247755001Y-47095001D01*
X245719999Y-54715001D02*
X247040001Y-54715001D01*
X247040001Y-54715001D02*
X247755001Y-54000001D01*
X247755001Y-47095001D02*
X246380000Y-45720000D01*
X236549499Y-34187501D02*
X236728000Y-34366002D01*
X236068499Y-34187501D02*
X236549499Y-34187501D01*
X237948998Y-36068000D02*
X236068499Y-34187501D01*
X236068499Y-34187501D02*
X235906999Y-34026001D01*
X219738000Y-32032000D02*
X219738000Y-33020000D01*
X218948000Y-31242000D02*
X219738000Y-32032000D01*
X235044999Y-26764999D02*
X236220000Y-27940000D01*
X230575999Y-26764999D02*
X235044999Y-26764999D01*
X229964999Y-27375999D02*
X230575999Y-26764999D01*
X229164001Y-26764999D02*
X229775001Y-27375999D01*
X229775001Y-27375999D02*
X229964999Y-27375999D01*
X220415999Y-26764999D02*
X229164001Y-26764999D01*
X219804999Y-27375999D02*
X220415999Y-26764999D01*
X219804999Y-30385001D02*
X219804999Y-27375999D01*
X218948000Y-31242000D02*
X219804999Y-30385001D01*
X209296000Y-43180000D02*
X208280000Y-43180000D01*
X211328000Y-31242000D02*
X211328000Y-41148000D01*
X211328000Y-41148000D02*
X209296000Y-43180000D01*
X213868000Y-31242000D02*
X211328000Y-31242000D01*
X220980000Y-44026585D02*
X220980000Y-44450000D01*
X218096762Y-41143347D02*
X220980000Y-44026585D01*
X217174653Y-41143347D02*
X218096762Y-41143347D01*
X220980000Y-45494000D02*
X221742000Y-46256000D01*
X220980000Y-44450000D02*
X220980000Y-45494000D01*
X233044000Y-50800000D02*
X233172000Y-50672000D01*
X232156000Y-50800000D02*
X233044000Y-50800000D01*
X241837347Y-50832349D02*
X245719999Y-54715001D01*
X234734588Y-50672000D02*
X234894937Y-50832349D01*
X233172000Y-50672000D02*
X234734588Y-50672000D01*
X234894937Y-50832349D02*
X241808000Y-50832349D01*
X244856000Y-34798000D02*
X244856000Y-36765000D01*
X245391009Y-32926759D02*
X245481010Y-32836758D01*
X245400999Y-32936749D02*
X245391009Y-32926759D01*
X245400999Y-34253001D02*
X245400999Y-32936749D01*
X244856000Y-34798000D02*
X245400999Y-34253001D01*
X246128000Y-29972000D02*
X246408000Y-29972000D01*
X245500990Y-30599010D02*
X246128000Y-29972000D01*
X245500990Y-32816778D02*
X245500990Y-30599010D01*
X245400999Y-32916769D02*
X245500990Y-32816778D01*
X245400999Y-32936749D02*
X245400999Y-32916769D01*
%TO.N,RESET*%
X228092000Y-36068000D02*
X229108000Y-37084000D01*
X227584000Y-36068000D02*
X228092000Y-36068000D01*
X217060999Y-30116999D02*
X217678000Y-30734000D01*
X211663001Y-30116999D02*
X217060999Y-30116999D01*
X211554000Y-30226000D02*
X211663001Y-30116999D01*
X217678000Y-33666478D02*
X218116542Y-34105020D01*
X217678000Y-30734000D02*
X217678000Y-33666478D01*
X224097020Y-34105020D02*
X225044000Y-35052000D01*
X221303020Y-34105020D02*
X224097020Y-34105020D01*
X218116542Y-34105020D02*
X221303020Y-34105020D01*
X221303020Y-34105020D02*
X221672980Y-34105020D01*
%TO.N,DTR*%
X210594000Y-33246000D02*
X208280000Y-35560000D01*
X210594000Y-30226000D02*
X210594000Y-33246000D01*
%TO.N,12VIN*%
X238760000Y-27940000D02*
X240030000Y-29210000D01*
X240030000Y-30694000D02*
X239990000Y-30734000D01*
X240030000Y-29210000D02*
X240030000Y-30694000D01*
X239990000Y-32298000D02*
X239522000Y-32766000D01*
X239990000Y-30734000D02*
X239990000Y-32298000D01*
X239282000Y-32766000D02*
X239282000Y-33260000D01*
X239282000Y-33260000D02*
X238760000Y-33782000D01*
X238760000Y-34770000D02*
X238788000Y-34798000D01*
X238760000Y-33782000D02*
X238760000Y-34770000D01*
%TO.N,Net-(C8-Pad1)*%
X245618000Y-28702000D02*
X244348000Y-29972000D01*
X245846000Y-28702000D02*
X245618000Y-28702000D01*
%TO.N,Net-(C9-Pad1)*%
X238090000Y-31898000D02*
X237222000Y-32766000D01*
X238090000Y-30734000D02*
X238090000Y-31898000D01*
X237836000Y-30480000D02*
X238090000Y-30734000D01*
X236220000Y-30480000D02*
X237836000Y-30480000D01*
X236524010Y-39523990D02*
X236982000Y-39066000D01*
X235474000Y-40574000D02*
X236982000Y-39066000D01*
X233680000Y-40574000D02*
X235474000Y-40574000D01*
X236982000Y-33528000D02*
X237744000Y-34290000D01*
X236982000Y-32766000D02*
X236982000Y-33528000D01*
X236474000Y-36322000D02*
X236474000Y-37290989D01*
X236548990Y-39499010D02*
X236982000Y-39066000D01*
X232966820Y-39499010D02*
X236548990Y-39499010D01*
X232629990Y-39162180D02*
X232966820Y-39499010D01*
X233524821Y-37290989D02*
X232629990Y-38185820D01*
X232629990Y-38185820D02*
X232629990Y-39162180D01*
X236474000Y-37290989D02*
X233524821Y-37290989D01*
%TO.N,D9*%
X216853000Y-33274000D02*
X213868000Y-33274000D01*
X213868000Y-33274000D02*
X213868000Y-38862000D01*
X218280001Y-41962996D02*
X218948000Y-42630995D01*
X216968996Y-41962996D02*
X218280001Y-41962996D01*
X213868000Y-38862000D02*
X216968996Y-41962996D01*
X218948000Y-42630995D02*
X218948000Y-48260000D01*
X218948000Y-48260000D02*
X222758000Y-48260000D01*
%TO.N,D4*%
X215900000Y-53340000D02*
X216408000Y-53340000D01*
X217678000Y-49404410D02*
X217206999Y-48933409D01*
X217678000Y-52070000D02*
X217678000Y-49404410D01*
X216408000Y-53340000D02*
X217678000Y-52070000D01*
X217206999Y-44413001D02*
X217932000Y-43688000D01*
X217206999Y-46191001D02*
X217206999Y-44413001D01*
X217206999Y-48933409D02*
X217206999Y-46191001D01*
X217206999Y-46191001D02*
X217206999Y-45879999D01*
%TO.N,D3*%
X213360000Y-53340000D02*
X214630000Y-52070000D01*
X216916000Y-52070000D02*
X217227990Y-51758010D01*
X214630000Y-52070000D02*
X216916000Y-52070000D01*
X216756989Y-43790009D02*
X217859001Y-42687997D01*
X217859001Y-42687997D02*
X217932000Y-42687997D01*
X216756989Y-51287009D02*
X216756989Y-43790009D01*
X217227990Y-51758010D02*
X216756989Y-51287009D01*
%TO.N,D2*%
X227076000Y-43434000D02*
X226314000Y-44196000D01*
X231902000Y-42672000D02*
X232410000Y-43180000D01*
X227076000Y-42672000D02*
X231902000Y-42672000D01*
X227076000Y-42418000D02*
X227076000Y-42672000D01*
X227076000Y-42672000D02*
X227076000Y-43434000D01*
%TO.N,SCL*%
X221483347Y-36834653D02*
X222748694Y-38100000D01*
X222748694Y-38100000D02*
X224028000Y-38100000D01*
X224028000Y-42671462D02*
X224013037Y-42686425D01*
X224028000Y-38100000D02*
X224028000Y-42671462D01*
X241664989Y-45101011D02*
X243586000Y-43180000D01*
X224013037Y-42686425D02*
X224042425Y-42686425D01*
X224318999Y-42962999D02*
X224318999Y-43274001D01*
X226625990Y-42231600D02*
X226947590Y-41910000D01*
X224042425Y-42686425D02*
X224318999Y-42962999D01*
X224695999Y-43651001D02*
X225392001Y-43651001D01*
X225392001Y-43651001D02*
X226625990Y-42417012D01*
X243586000Y-43180000D02*
X246380000Y-43180000D01*
X226625990Y-42417012D02*
X226625990Y-42231600D01*
X224318999Y-43274001D02*
X224695999Y-43651001D01*
X234681599Y-45101011D02*
X241664989Y-45101011D01*
X226947590Y-41910000D02*
X232213002Y-41910000D01*
X232213002Y-41910000D02*
X234352989Y-44049987D01*
X234352989Y-44049987D02*
X234352990Y-44772402D01*
X234352990Y-44772402D02*
X234681599Y-45101011D01*
%TO.N,SDA*%
X222758000Y-37084000D02*
X224790000Y-37084000D01*
X240884075Y-44651001D02*
X244895076Y-40640000D01*
X234867999Y-44651001D02*
X240884075Y-44651001D01*
X232721002Y-41402000D02*
X234802999Y-43483997D01*
X224790000Y-41402000D02*
X232721002Y-41402000D01*
X244895076Y-40640000D02*
X246380000Y-40640000D01*
X234802999Y-43483997D02*
X234802999Y-44586001D01*
X224790000Y-37084000D02*
X224790000Y-41402000D01*
X234802999Y-44586001D02*
X234867999Y-44651001D01*
X225044000Y-42672000D02*
X225044000Y-42926000D01*
X224790000Y-42418000D02*
X225044000Y-42672000D01*
X224790000Y-41402000D02*
X224790000Y-42418000D01*
%TO.N,TXO*%
X210058000Y-36576000D02*
X210058000Y-38608000D01*
%TO.N,A3*%
X229616000Y-38608000D02*
X226568000Y-38608000D01*
X225552000Y-39624000D02*
X225552000Y-39878000D01*
X230430522Y-37793478D02*
X229616000Y-38608000D01*
X226568000Y-38608000D02*
X225552000Y-39624000D01*
X230430522Y-36322000D02*
X230430522Y-37793478D01*
X229526990Y-35418468D02*
X230430522Y-36322000D01*
X229526990Y-29553010D02*
X229526990Y-35418468D01*
X229870000Y-29210000D02*
X229526990Y-29553010D01*
X228600000Y-27940000D02*
X229870000Y-29210000D01*
%TO.N,A2*%
X226060000Y-37338000D02*
X226563347Y-37841347D01*
X226060000Y-37338000D02*
X226060000Y-36068000D01*
X226060000Y-36068000D02*
X225298000Y-36068000D01*
X225298000Y-35814000D02*
X225261001Y-35777001D01*
X225298000Y-36068000D02*
X225298000Y-35814000D01*
X225392001Y-35777001D02*
X225769001Y-35400001D01*
X225261001Y-35777001D02*
X225392001Y-35777001D01*
X226060001Y-34443277D02*
X226060001Y-33747275D01*
X225769001Y-34734277D02*
X226060001Y-34443277D01*
X225769001Y-35400001D02*
X225769001Y-34734277D01*
X226060001Y-33747275D02*
X225785010Y-33472284D01*
X226060000Y-33197294D02*
X226060000Y-27940000D01*
X225785010Y-33472284D02*
X226060000Y-33197294D01*
%TO.N,A1*%
X223520000Y-27940000D02*
X224790000Y-29210000D01*
X224790000Y-29210000D02*
X225552000Y-29210000D01*
X225335000Y-29427000D02*
X225335000Y-34095276D01*
X225552000Y-29210000D02*
X225335000Y-29427000D01*
X226822000Y-34798000D02*
X226822000Y-33782000D01*
X226822000Y-34544000D02*
X226822000Y-34798000D01*
X226822000Y-34798000D02*
X226822000Y-36830000D01*
%TO.N,SCK*%
X227833349Y-49127133D02*
X227833349Y-51557349D01*
X227815456Y-49109240D02*
X227833349Y-49127133D01*
X236784001Y-52164999D02*
X237395001Y-52775999D01*
X235655999Y-52164999D02*
X236784001Y-52164999D01*
X235242998Y-52578000D02*
X235655999Y-52164999D01*
X234657002Y-52578000D02*
X235242998Y-52578000D01*
X233141409Y-52164999D02*
X234244001Y-52164999D01*
X234244001Y-52164999D02*
X234657002Y-52578000D01*
X232533759Y-51557349D02*
X233141409Y-52164999D01*
X227833349Y-51557349D02*
X232533759Y-51557349D01*
X237395001Y-52775999D02*
X237395001Y-53499001D01*
X237554002Y-53340000D02*
X238760000Y-53340000D01*
X237395001Y-53499001D02*
X237554002Y-53340000D01*
X217983011Y-40437011D02*
X222198989Y-40437011D01*
X216408000Y-38862000D02*
X217983011Y-40437011D01*
X222307990Y-40546012D02*
X222307990Y-43406962D01*
X222198989Y-40437011D02*
X222307990Y-40546012D01*
X223232949Y-44331921D02*
X223232949Y-46990000D01*
X222307990Y-43406962D02*
X223232949Y-44331921D01*
%TO.N,MISO*%
X227108348Y-49873350D02*
X227108348Y-49816348D01*
X233680000Y-53340000D02*
X232504999Y-52164999D01*
X227108348Y-49816348D02*
X227108348Y-52037652D01*
X227108348Y-52037652D02*
X227235695Y-52164999D01*
X227235695Y-52164999D02*
X229456999Y-52164999D01*
X229456999Y-52164999D02*
X229399997Y-52164999D01*
X232504999Y-52164999D02*
X229456999Y-52164999D01*
X221488000Y-38862000D02*
X223266000Y-38862000D01*
X223266000Y-38862000D02*
X223266000Y-42926000D01*
X223288036Y-42948036D02*
X223288036Y-43005038D01*
X223266000Y-42926000D02*
X223288036Y-42948036D01*
X223288036Y-43005038D02*
X224478998Y-44196000D01*
X224478998Y-44646998D02*
X224790000Y-44958000D01*
X224478998Y-44196000D02*
X224478998Y-44646998D01*
X224790000Y-44958000D02*
X224790000Y-47498000D01*
%TO.N,MOSI*%
X220073001Y-39987001D02*
X222028001Y-39987001D01*
X218948000Y-38862000D02*
X220073001Y-39987001D01*
X222028001Y-39987001D02*
X222137002Y-39878000D01*
X222137002Y-39878000D02*
X222504000Y-39878000D01*
X222504000Y-39878000D02*
X222758000Y-40132000D01*
X222758000Y-40640000D02*
X222815990Y-40697990D01*
X222758000Y-40132000D02*
X222758000Y-40640000D01*
X222815990Y-40697990D02*
X222815990Y-43169402D01*
X222815990Y-43169402D02*
X222838027Y-43191439D01*
X223957949Y-44311361D02*
X223957949Y-48052701D01*
X222838027Y-43191439D02*
X223957949Y-44311361D01*
%TO.N,Net-(J6-Pad3)*%
X246126000Y-33728778D02*
X246005543Y-33849235D01*
X246126000Y-31815000D02*
X246126000Y-33728778D01*
%TO.N,Net-(J6-Pad2)*%
X244348000Y-33782000D02*
X244856000Y-33782000D01*
X244856000Y-33782000D02*
X244856000Y-31815000D01*
%TO.N,Net-(R3-Pad1)*%
X232156000Y-49022000D02*
X233172000Y-49022000D01*
%TO.N,Net-(R15-Pad2)*%
X232410000Y-35052000D02*
X232918000Y-34544000D01*
X232028000Y-35052000D02*
X232410000Y-35052000D01*
%TO.N,Net-(R14-Pad2)*%
X232918000Y-33274000D02*
X232918000Y-33528000D01*
X232664000Y-33782000D02*
X231902000Y-33782000D01*
X232918000Y-33528000D02*
X232664000Y-33782000D01*
%TO.N,Net-(R13-Pad2)*%
X231902000Y-32258000D02*
X232918000Y-32258000D01*
%TO.N,Net-(R12-Pad2)*%
X232918000Y-31242000D02*
X231965000Y-31242000D01*
%TO.N,Net-(R9-Pad1)*%
X243332000Y-29972000D02*
X243586000Y-30226000D01*
X243586000Y-30226000D02*
X243586000Y-31815000D01*
%TO.N,Net-(U4-Pad8)*%
X236474000Y-46736000D02*
X236474000Y-45826011D01*
%TO.N,Net-(U4-Pad7)*%
X238252000Y-48954000D02*
X238252000Y-45826011D01*
X238070000Y-49136000D02*
X238252000Y-48954000D01*
X236220000Y-49136000D02*
X238070000Y-49136000D01*
%TO.N,Net-(U4-Pad2)*%
X241681138Y-41032659D02*
X241681138Y-40258862D01*
X243586000Y-38354000D02*
X243586000Y-36954000D01*
X241681138Y-40258862D02*
X243586000Y-38354000D01*
%TO.N,Net-(U4-Pad1)*%
X247396000Y-36765000D02*
X247396000Y-37084000D01*
X243389768Y-41148000D02*
X243332000Y-41148000D01*
X247396000Y-37141768D02*
X243389768Y-41148000D01*
X247396000Y-36765000D02*
X247396000Y-37141768D01*
%TD*%
M02*
